<svg width="178" height="337" viewBox="0 0 178 337" fill="none" xmlns="http://www.w3.org/2000/svg">
<path d="M91.7398 145.847C100.251 145.641 107.518 146.027 107.972 155.967C116.813 158.146 133.753 159.872 140.539 165.229C150.315 173.684 154.715 191.713 160.84 202.188C168.987 216.123 173.353 226.32 176.165 242.35C177.698 251.075 176.77 258.617 166.354 259.915C159.211 260.804 158.111 256.573 152.487 253.004C148.459 250.405 151.215 244.271 152.92 241.118C148.782 229.659 138.717 231.046 137.617 216.447L129.8 208.891C129.112 214.002 127.806 222.968 128.177 227.801L128.232 228.419C128.858 236.455 132.99 247.341 134.214 255.718C136.709 272.792 137.844 304.961 135.692 321.422C154.44 341.563 122.794 335.474 112.606 332.08C111.368 329.215 110.612 325.4 109.443 322.231C107.539 317.025 103.702 311.143 102.204 305.95C101.509 303.2 102.485 294.342 101.571 292.233C96.0024 279.442 94.6549 272.283 93.7818 258.41C92.9637 258.673 90.9974 259.246 90.9974 260.336C91.0317 272.262 87.3536 281.395 83.2286 292.22C82.5411 294.029 83.5517 304.612 82.6305 306.135C78.5123 312.964 75.013 326.742 70.4342 332.555C63.7173 335.354 47.2517 339.759 43.6424 331.036C43.7936 326.534 45.9936 324.865 48.9567 321.534C47.1074 305.33 48.2898 278.555 49.6305 261.722C50.5242 250.438 55.9555 237.568 56.6842 226.509C56.9248 222.761 55.5155 213.001 54.9861 208.815L47.2449 216.396C46.1174 228.801 38.1561 229.968 32.2573 239.559C29.528 244.912 38.6236 245.114 32.7386 252.202C26.6955 259.471 19.6623 263.171 11.4811 256.41C2.74985 249.195 12.6773 229.127 14.7467 219.845C15.6405 215.849 20.5905 209.124 22.3436 205.061C25.8293 196.812 29.9336 189.391 34.2168 181.604C37.9636 174.791 36.183 171.377 43.5323 165.586C48.1798 159.119 73.7961 159.563 76.5667 154.984C80.8499 147.891 76.3192 146.906 91.7398 145.847Z" fill="#71564B"/>
<path d="M114.867 159.94C117.253 160.559 119.852 161.371 122.244 162.06C121.44 174.767 122.155 180.457 129.174 191.263C128.301 202.348 126.665 214.662 125.4 225.812C124.011 232.61 108.357 233.74 102.451 234.233C88.0274 235.438 73.4248 234.358 59.9705 228.759C58.0798 217.489 56.8355 202.929 55.5292 191.358C63.3942 179.682 62.6035 175.571 62.6792 162.555C64.2742 161.122 66.9142 160.742 69.1142 160.181L70.0217 161.01C70.8536 163.762 71.9742 166.42 73.3492 168.943C75.8173 173.512 81.5373 177.131 86.4186 178.481C92.3173 180.095 98.6217 179.213 103.854 176.04C110.632 172.004 113.094 167.204 114.867 159.94Z" fill="#FEFEFE"/>
<path d="M58.8911 232.388C74.7242 239.331 109.422 238.754 125.75 232.438C128.177 238.927 130.322 248.197 131.635 254.967C134.035 267.374 112.289 267.25 104.273 267.509L96.9442 267.189C96.7792 264.546 96.5867 261.904 96.3735 259.264C98.1335 258.631 99.8867 257.968 101.619 257.275L102.018 256.253C99.5223 254.332 95.9954 256.377 92.5992 256.271C89.6429 256.179 86.4598 255.283 83.6479 255.503L82.8505 256.638L83.3523 257.671C85.1948 258.34 85.7517 258.35 87.7248 258.58C88.7629 260.274 87.9517 264.792 87.7592 267.225C80.7536 267.644 58.1279 268.046 54.3054 261.287C51.1567 255.721 56.9661 239.033 58.8911 232.388Z" fill="#FEFEFE"/>
<path d="M131.89 191.762C131.773 186.675 121.584 181.472 125.159 162.147C140.683 165.341 142.794 168.767 148.809 182.974C158.159 205.031 173.855 225.219 174.233 250.083C174.288 254.086 164.663 261.278 159.775 255.337C158.998 250.532 161.824 251.391 159.967 249.197C157.43 250.899 156.757 252.143 154.467 251.738C151.552 247.539 152.57 245.694 155.54 242.523C156.2 238.056 151.339 233.964 148.569 230.835C143.179 225.375 140.635 223.171 139.665 215.644C136.565 212.231 133.409 208.867 130.205 205.552C130.632 200.813 130.934 196.437 131.89 191.762Z" fill="#FEE6D0"/>
<path d="M131.89 191.762C136.572 199.685 135.575 205.825 143.536 211.834C144.341 215.114 148.541 229.177 148.569 230.835C143.179 225.375 140.635 223.171 139.665 215.644C136.565 212.231 133.409 208.867 130.205 205.552C130.632 200.813 130.934 196.437 131.89 191.762Z" fill="#FDBF9D"/>
<path d="M131.072 184.515C139.927 187.886 141.645 184.778 145.949 186.277L146.41 188.412C140.765 190.288 132.213 193.011 131.072 184.515Z" fill="#FDBF9D"/>
<path d="M35.1174 232.109C32.4636 234.894 28.0361 238.63 29.3768 242.874C30.7999 244.294 31.7623 244.96 32.2573 246.885C32.0648 248.967 32.0855 249.332 30.738 250.893C27.7474 251.623 27.4037 250.837 24.0762 250.182L25.6436 253.117C25.2517 256.051 25.7537 255.037 23.9112 257.079C21.5805 257.999 19.8961 257.804 17.6617 256.988C7.7686 253.223 10.2024 247.705 11.7355 239.943C14.4374 226.277 18.2736 217.008 25.3274 205.133C29.0605 198.86 31.7624 189.464 36.2037 183.117C37.503 180.032 38.713 176.734 40.0124 173.68C42.1642 168.653 54.2024 160.359 59.4962 163.341C65.6149 171.098 53.068 187.217 52.8892 193.234C53.7623 196.93 54.0855 201.749 54.4636 205.605C51.5624 208.815 48.393 211.956 45.3542 215.052C43.8486 224.693 40.9749 224.825 35.1174 232.109Z" fill="#FEE6D0"/>
<path d="M52.8892 193.234C53.7623 196.93 54.0855 201.749 54.4636 205.605C51.5624 208.815 48.393 211.956 45.3542 215.052C43.8486 224.693 40.9749 224.825 35.1174 232.109C35.1517 228.002 42.6042 211.737 45.2098 208.094C48.2555 203.833 50.3592 196.941 52.8892 193.234Z" fill="#FDBF9D"/>
<path d="M39.6961 185.452C42.4805 185.27 49.5892 185.764 52.2086 186.566L52.408 187.639L50.7717 188.76C46.908 190.328 41.9649 191.057 39.208 187.214L39.6961 185.452Z" fill="#FDBF9D"/>
<path d="M51.9199 264.237C60.878 268.337 67.4436 269.302 77.2336 270.084C80.6436 270.043 84.2323 270.062 87.6217 269.949C86.1848 280.136 84.3286 281.557 80.5405 291.031C79.4405 293.8 80.8567 303.084 80.0661 305.143C77.1442 312.733 73.9473 318.606 71.1973 326.503C70.7504 332.902 53.1367 334.597 48.4548 333.001C46.6329 331.317 47.1142 332.188 46.6605 329.705C47.1967 326.854 49.713 324.625 51.7273 322.436C49.6717 308.57 50.7098 302.164 51.1361 288.961C51.4936 278.107 50.2836 276.014 51.9199 264.237Z" fill="#FEE6D0"/>
<path d="M77.2336 270.084C80.6436 270.043 84.2323 270.062 87.6217 269.949C86.1848 280.136 84.3286 281.557 80.5405 291.031C79.4405 293.8 80.8567 303.084 80.0661 305.143C77.1442 312.733 73.9473 318.606 71.1973 326.503C71.1423 326.397 71.0804 326.294 71.0254 326.185C70.9429 326.005 70.8742 325.817 70.7986 325.635C68.8048 321.164 82.8917 277.764 79.8323 270.889L77.2336 270.084Z" fill="#FDBF9D"/>
<path d="M55.3779 293.489C58.5061 293.142 63.2911 294.39 65.2848 296.971C61.9848 298.535 57.4267 296.265 55.3779 293.489Z" fill="#FDBF9D"/>
<path d="M107.236 270.079C116.964 269.405 124.011 268.319 132.811 264.147C134.502 274.968 133.313 278.479 133.705 288.49C134.234 301.932 134.88 308.706 133.065 322.533C135.08 324.684 137.589 326.87 138.153 329.689C136.799 337.307 118.559 332.217 114.283 329.499L113.877 327.933C112.722 325.454 112.351 321.624 111.347 319.63C105.015 307.065 103.675 303.838 105.167 289.895C99.3436 281.833 98.6355 279.361 97.0748 269.941C100.375 270.058 103.909 270.037 107.236 270.079Z" fill="#FEE6D0"/>
<path d="M97.0748 269.941C100.375 270.058 103.909 270.037 107.236 270.079L104.486 270.888C100.004 280.632 116.985 315.711 113.877 327.933C112.722 325.454 112.351 321.624 111.347 319.63C105.015 307.065 103.675 303.838 105.167 289.895C99.3436 281.833 98.6355 279.361 97.0748 269.941Z" fill="#FDBF9D"/>
<path d="M127.442 291.353C128.274 292.03 127.895 291.672 128.287 292.981C126.734 294.903 123.42 296.115 121.048 297.21C120.601 296.641 120.58 296.258 120.326 295.509C121.639 293.641 125.228 292.348 127.442 291.353Z" fill="#FDBF9D"/>
<path d="M78.2855 158.534C81.4686 155.732 77.048 150.864 84.8924 149.107C90.1036 147.94 100.499 147.343 104.493 151.582C105.524 155.167 104.397 156.905 106.741 158.633C108.879 158.742 109.47 158.651 111.189 159.864C113.327 165.88 106.776 170.455 102.974 173.771C93.7474 181.83 70.4686 171.762 73.4799 160.141C75.3636 158.442 75.2811 158.942 78.2855 158.534Z" fill="#FEE6D0"/>
<path d="M78.2855 158.534C81.4686 155.732 77.048 150.864 84.8924 149.107C90.1036 147.94 100.499 147.343 104.493 151.582C105.524 155.167 104.397 156.905 106.741 158.633C103.73 167.675 82.6442 166.485 78.2855 158.534Z" fill="#FDBF9D"/>
<path d="M91.2998 22.1322C110.653 21.5822 132.722 28.7912 144.409 45.0381C156.695 62.1019 156.482 80.0368 153.381 99.9759C175.45 99.8707 169.414 133.167 143.612 133.295C142.14 135.538 140.566 137.717 138.902 139.824C126.795 155.11 111.918 159.241 93.5548 161.347C69.7192 158.954 56.0655 153.042 42.1917 132.963L41.078 133.035C34.8148 133.407 29.8854 132.502 25.3273 127.866C14.7536 117.106 14.0867 100.177 32.663 99.9746C26.5305 70.532 33.4949 40.9245 63.1055 28.0775C72.5586 23.9776 81.1523 23.0529 91.2998 22.1322Z" fill="#6F5348"/>
<path d="M84.5142 25.5171C97.4804 23.4186 115.83 26.6467 127.229 33.2438C140.607 40.9912 148.63 53.4415 151.6 68.3257C152.7 73.6941 153.092 79.1829 152.776 84.6538C152.095 96.0954 148.335 107.102 145.942 118.232C140.958 141.374 124.162 153.575 101.722 157.876C74.2979 160.338 48.4892 148.308 39.6273 120.35C38.5411 116.86 38.5136 111.428 37.4961 108.17C24.5574 66.7849 39.146 31.0636 84.5142 25.5171Z" fill="#FEE6CF"/>
<path d="M27.328 102.186C29.8168 102.119 30.7036 101.951 32.993 103.113C34.3749 104.859 34.8698 105.338 35.5298 107.554C33.9761 110.236 30.958 106.565 26.0149 109.34L25.7398 110.317C27.8161 111.156 32.4912 111.495 33.0205 111.839C35.7224 113.594 38.2936 124.056 39.4555 127.499C40.0399 128.217 39.9643 128.736 40.0605 129.684C32.3537 134.468 8.38739 114.241 27.328 102.186Z" fill="#FEE6CF"/>
<path d="M152.494 102.127C171.311 101.809 166.031 127.276 146.54 131.169C146.011 130.425 146.004 130.008 145.757 129.102C146.795 124.058 148.486 114.359 152.384 111.228C154.481 110.368 155.822 110.964 158.077 111.508C159.177 110.449 158.833 110.818 159.053 108.9C157.369 107.415 154.35 109.552 151.6 107.422C151.078 104.979 151.594 104.871 152.494 102.127Z" fill="#FEE6CF"/>
<path d="M42.8767 85.6841C48.3767 88.6841 76.1892 102.274 82.3767 105.684L75.2123 111.496L66.3767 117.684C55.8767 103.684 50.6155 95.6316 42.8767 85.6841ZM73.0261 108.621L75.2123 106.797C74.7723 104.717 57.413 96.1677 54.498 95.1349C58.1005 100.817 61.8267 109.335 67.3679 111.496C70.3173 111.306 70.2073 110.681 73.0261 108.621Z" fill="#6B4F42"/>
<path d="M144.377 85.6841C138.877 88.6841 111.064 102.275 104.877 105.684L112.041 111.496L120.877 117.684C131.377 103.684 136.638 95.6316 144.377 85.6841ZM114.227 108.621L112.041 106.797C112.481 104.717 129.84 96.1677 132.755 95.135C129.153 100.817 125.427 109.335 119.885 111.496C116.936 111.306 117.046 110.681 114.227 108.621Z" fill="#6B4F42"/>
<path d="M50.3767 91.6841C54.6548 94.0933 74.3767 103.684 78.8767 105.684C76.3767 107.684 76.637 107.511 73.3767 109.684C70.1164 111.858 73.3767 109.684 66.8767 114.184C62.8767 108.684 54.1548 97.0933 50.3767 91.6841Z" fill="#8FEBFE"/>
<path d="M136.377 91.6841C132.099 94.0933 112.377 103.684 107.877 105.684C110.377 107.684 110.116 107.511 113.377 109.684C116.637 111.858 113.377 109.684 119.877 114.184C123.877 108.684 132.599 97.0933 136.377 91.6841Z" fill="#8FEBFE"/>
<path d="M65.5254 74.1905C78.4917 73.7869 78.7942 76.0056 79.3579 87.9987C76.9723 86.4668 74.5455 84.785 72.1805 83.1954C66.6255 80.8419 58.7674 84.1944 55.2817 81.6291L55.4879 80.1605C58.7261 76.1947 60.5685 75.7581 65.5254 74.1905Z" fill="#6C4F43"/>
<path d="M64.7761 77.026C68.5023 76.5942 77.323 75.6474 76.3536 82.2699L75.3086 81.7756C70.228 79.5789 68.1655 79.7342 62.7961 78.5977L62.6036 78.0635L64.7761 77.026Z" fill="#C07D61"/>
<path d="M128.906 73.978C129.215 74.1589 129.752 74.7832 130.034 75.0733C127.125 79.5562 119.288 86.7569 113.905 87.8096C111.719 88.2379 109.904 86.8147 108.254 85.6094C106.494 83.5681 105.366 82.2211 104.837 79.5857C106.404 75.0252 115.878 78.7847 120.849 77.4584C124.657 76.4443 125.537 75.8365 128.906 73.978Z" fill="#6C4F43"/>
<path d="M106.514 79.3602C110.591 80.219 115.404 80.6404 119.185 81.6326L118.408 82.9135C112.303 87.6604 110.11 84.3883 106.514 79.3602Z" fill="#C07D61"/>
<path d="M91.8767 113.184L85.3767 122.184L90.8767 128.684" stroke="#71564B" stroke-width="2" stroke-linecap="round"/>
<path d="M97.4117 0C106.102 0.701995 106.349 2.92899 112.502 9.4649C118.49 15.8255 123.592 19.4097 132.839 17.5973C135.692 17.0376 137.479 15.6887 140.477 15.8104C146.32 18.8672 146.231 23.8706 144.87 29.4906L145.509 30.2614C153.78 32.4024 154.564 25.157 159.067 22.9052C164.182 25.4575 164.876 30.927 163.645 35.9894C163.068 38.3794 160.834 39.3261 158.833 40.4049C158.51 49.6161 158.517 49.0241 164.938 56.1135C169.716 61.6112 166.787 67.879 166.093 73.981C165.192 81.8157 172.631 80.9975 177.691 81.1213C177.492 83.8722 177.155 86.6107 176.674 89.3273C174.721 100.046 163.735 98.3679 162.772 104.971C166.416 107.906 173.793 104.766 174.322 110.655C169.62 122.13 161.954 119.717 153.821 115.688C146.424 112.026 146.1 126.303 142.739 127.923C141.226 124.243 142.024 111.288 142.216 107.058C138.675 107.211 129.676 106.04 127.971 103.529C120.505 92.5622 149.373 79.3997 122.299 73.7424C121.55 73.5857 122.004 77.1974 122.052 77.9826C122.705 87.5142 118.408 94.8435 108.26 95.4128C99.7904 96.231 102.877 100.129 99.4879 105.51C97.8311 108.145 93.988 105.453 92.393 104.043C88.9623 97.085 99.3436 90.239 93.2317 81.2237C91.2311 82.3101 86.6936 84.9214 84.5761 85.0225C56.2923 86.3701 83.5929 64.6062 84.0948 54.9598C80.6848 46.8308 70.6542 56.3617 68.6329 56.0331C57.5848 54.2344 54.9448 54.4551 54.7935 66.6132C54.6629 76.8378 55.0411 77.4601 46.5642 82.4661C49.0392 97.5745 50.1667 110.851 32.9517 115.335C31.6729 115.67 31.4598 117.673 31.1023 118.912L30.1467 119.224C22.8661 113.017 20.1917 118.555 11.8523 118.671C7.2942 118.735 0.377973 112.001 0.701098 107.796C3.35485 105.157 16.8092 105.923 12.5536 94.2949C6.70984 96.1224 2.74981 93.8136 0.831683 88.1357C-0.536442 84.0812 -0.206388 79.6458 1.74611 75.8367C5.07361 69.4535 9.88604 67.8164 16.1079 65.8472C12.2029 62.4906 3.87047 53.6122 14.4442 53.4644C33.7698 53.1948 15.6405 18.1632 44.4398 29.8165C49.0667 31.6894 56.2029 14.8945 61.3523 10.0679L73.8786 10.0919C76.8004 12.1601 78.4367 13.485 81.8673 14.6896C86.3361 7.26541 88.866 2.22768 97.4117 0Z" fill="#694E44"/>
<path d="M94.5448 3.27414C101.406 2.93655 101.901 2.58039 106.59 7.65387C113.1 14.6972 121.069 22.6996 131.525 20.1199C133.959 19.5204 137.933 18.7393 140.415 18.7538C142.505 21.1416 142.01 28.6016 143.921 31.6028C148.465 38.7335 155.182 29.822 158.854 27.2808C165.99 31.2528 161.012 36.6598 155.224 38.9432C155.753 42.3754 157.011 46.5125 156.475 49.7818C155.533 51.3831 155.203 52.4 153.512 53.0511C150.005 49.5693 154.041 47.519 145.812 39.5152C140.814 54.0343 140.27 45.314 130.9 47.7349L130.79 48.5703C145.2 55.1021 142.601 47.2399 147.51 44.8403C151.298 49.5927 148.974 55.5222 147.537 60.8129C151.346 59.6943 155.753 49.0055 162.057 55.943C170.857 65.6286 153.402 83.4191 175.099 83.1654C173.449 97.5456 169.18 93.3735 160.373 101.793C155.375 106.567 168.52 109.578 170.074 110.095L170.527 111.273C169.304 113.877 166.725 115.726 164.498 117.608C161.363 116.146 157.623 113.647 154.625 111.772C151.092 112.281 148.184 113.975 145.413 113.317C144.313 111.244 144.815 106.784 144.89 104.196C135.699 104.353 134.207 105.573 127.462 98.2593C142.305 81.7098 139.384 75.1003 118.676 69.7367C117.995 68.9261 110.13 60.683 110.014 60.6404C109.787 62.5497 110.955 71.7279 112.207 72.027C124.045 74.8487 122.1 83.0788 115.163 90.0712C112.145 93.1205 104.795 92.8091 100.842 95.9106C97.6798 98.3906 97.7348 101.935 95.6586 103.41L94.6754 102.336C93.5685 95.7827 101.894 88.4355 95.8167 80.3333C89.9111 77.2572 80.6023 86.3171 76.6629 82.3472C69.5404 75.1739 88.5292 62.5057 86.9686 54.0329C85.8754 48.0746 75.0611 50.36 71.1836 51.0153C66.0823 55.6006 61.0361 50.6192 57.3442 53.1996C43.7248 62.7071 63.6004 76.659 40.0536 80.9439C39.7923 80.7844 39.5242 80.6221 39.256 80.4578C20.0542 68.5122 35.7429 53.4726 41.0435 57.6282C40.1704 60.441 39.3661 62.5057 39.3454 65.4608C41.0504 69.0114 43.3261 69.2101 46.8323 67.4231L46.6191 66.7005C36.8566 64.7368 45.7804 61.4943 43.7179 55.8694C32.2848 46.9821 27.7129 63.0372 27.9879 72.0827C37.0629 88.1543 52.7448 78.655 43.1954 106.315C35.4473 113.46 31.2467 112.477 21.3398 111.872C12.0173 118.211 11.2611 116.996 3.54045 109.53C9.12295 107.402 13.6811 106.109 16.0942 100.325C19.2911 92.666 11.1511 91.7612 6.54482 90.8695C1.82857 89.9584 2.20667 84.7158 2.3923 81.2719C2.97667 70.3988 16.2042 71.6509 19.6623 64.4226C18.466 61.3389 14.2379 62.3324 12.361 58.4835C12.361 55.8893 12.416 55.6054 15.1798 55.527C33.1442 55.0148 23.2785 42.1217 30.401 32.1694C33.426 27.9402 42.5217 33.0102 48.4548 32.049C50.9573 34.5889 49.3967 38.7678 53.4323 39.5805C61.6342 41.23 63.2841 35.0385 67.6842 30.1699C68.351 29.4336 71.9604 29.0389 73.5761 28.1685L73.1085 27.4837C59.936 25.4169 64.6866 40.0412 53.4116 36.589C50.1391 33.2234 51.3011 30.26 53.5492 26.7164C54.4636 26.2124 62.3835 27.3056 65.5185 27.1681C71.7266 22.4074 68.6673 20.0924 77.4673 20.8707C78.5329 19.838 78.2991 20.4396 78.3404 19.0735C73.8785 15.6109 67.9386 21.4002 65.1336 24.3677L54.6904 24.2755C59.8329 13.6947 60.0117 11.7689 72.1873 12.2227C76.1954 14.6353 79.8804 17.5464 83.146 20.8859C85.4698 12.5135 87.6561 8.64051 94.5448 3.27414Z" fill="#CB8565"/>
<path d="M100.636 34.4225C121.034 35.1671 113.238 58.0215 108.852 59.0796C108.309 57.0499 108.35 57.8654 109.244 55.6308C110.289 52.0549 111.127 47.0316 111.87 43.283C111.416 42.6402 110.949 42.0076 110.46 41.3867C105.187 34.6535 103.599 38.7149 94.8817 37.6244L94.868 36.3848C96.7311 34.9553 98.3605 34.8385 100.636 34.4225Z" fill="#694E44"/>
<path d="M104.273 135.293L106.595 134.821L105.731 136.755C101.977 145.022 93.9194 146.722 85.7587 143.692C83.3044 142.019 80.7281 140.146 79.595 137.321C85.095 136.755 97.1162 136.175 103.579 135.384L104.273 135.293Z" fill="#FEFEFE" stroke="#71564B" stroke-width="2"/>
</svg>
