<svg width="203" height="327" viewBox="0 0 203 327" fill="none" xmlns="http://www.w3.org/2000/svg">
<path d="M97.8382 137.678C98.2507 137.605 98.6562 137.539 99.0756 137.506C118.264 136.045 112.537 144.005 118.394 145.694C123.056 147.037 128.033 146.852 132.639 148.63C150.858 155.654 159.012 171.947 167.523 188.054C170.225 193.155 173.278 198.071 176.138 203.082C178.558 207.325 181.101 214.15 184.718 217.277L185.061 217.572C190.128 221.959 200.702 225.998 202.833 229.48C203.349 239.864 187.777 236.501 181.342 238.014C181.198 238.411 181.046 238.807 180.888 239.203C179.733 242.176 179.534 243.429 176.846 244.612C171.022 243.834 168.348 235.232 167.303 230.457C161.597 225.092 155.691 220.107 149.937 214.62C151.786 228.313 156.138 249.618 153.787 262.724C150.913 278.728 147.531 295.52 144.787 311.758C157.066 333.386 124.183 326.994 113.499 320.304C107.814 299.474 106.721 278.026 103.627 256.57C103.056 254.691 103.503 255.307 102.073 254.035L100.746 254.506C97.2675 260.206 96.0162 286.881 94.7787 294.296C93.3831 302.652 91.4513 311.849 89.7738 320.206C78.8907 327.026 45.1687 333.047 58.1625 311.8C56.5537 303.511 55.6325 294.247 53.9344 286.06C52.0232 276.835 49.7681 270.783 49.1425 261.179C48.0837 244.768 50.7719 230.81 52.9375 214.738C47.6575 219.854 41.3188 225.293 35.7982 230.254C34.7119 235.222 32.6219 240.981 28.4556 244.167C22.5225 245.609 22.3369 238.374 21.4432 238.136C14.7882 236.373 1.82875 240.102 0 230.154C2.45438 224.19 14.2312 222.763 18.5625 217.035C35.64 194.428 41.525 160.394 70.0287 148.926C73.8306 147.396 84.9407 146.158 87.0994 144.174C89.4163 137.687 91.5132 138.437 97.8382 137.678Z" fill="#71564B"/>
<path d="M75.46 149.032C80.4787 149.003 79.5644 151.598 82.61 155.578C92.51 168.522 112.324 167.751 121.433 154.429C122.664 152.628 122.389 150.548 123.997 149.195C126.39 149.305 126.802 149.538 128.927 150.477C130.632 153.321 129.807 160.407 131.368 164.542C134.42 172.617 136.613 181.045 139.212 189.205C142.629 199.965 147.854 211.961 148.397 223.364C144.368 225.85 142.663 226.702 138.346 228.541C115.466 236.116 75.3225 236.687 54.5256 223.187C55.8456 201.523 72.3663 173.119 73.8719 150.49C73.8719 150.49 75.3087 149.17 75.46 149.032Z" fill="#FEFEFE"/>
<path d="M54.1612 227.379C84.535 239.752 118.552 239.717 148.899 227.28C150.783 235.052 151.229 243.471 151.862 251.462C141.281 257.475 134.544 259.319 122.547 260.012C118.882 260.044 107.147 260.502 106.019 256.706C107.491 254.421 112.489 251.788 115.232 249.441L114.902 248.781C111.347 248.566 104.706 252.12 100.402 252.029C97.1712 251.961 89.9456 248.185 87.5737 248.593C86.2743 252.617 95.1362 251.554 97.3637 256.232C94.4074 261.29 83.4969 260.327 78.3544 259.998C68.1794 259.345 59.8125 256.323 51.0056 251.368C51.6519 243.41 52.1193 235.089 54.1612 227.379Z" fill="#FEFEFE"/>
<path d="M119.054 262.703C132.351 262.027 140.064 260.919 151.855 254.477C151.003 268.663 149.449 272.22 146.458 285.719C144.911 292.701 143.296 305.477 142.182 312.913C151.917 327.247 131.313 324.658 123.709 322.286C120.842 321.405 118.099 320.166 115.548 318.599C112.262 311.826 108.536 271.932 106.686 261.092C110.749 262.055 114.888 262.316 119.054 262.703Z" fill="#FEE6D0"/>
<path d="M106.686 261.092C110.749 262.055 114.888 262.316 119.054 262.703C113.589 269.944 118.113 312.456 115.548 318.599C112.262 311.826 108.536 271.932 106.686 261.092Z" fill="#FDBF9D"/>
<path d="M50.9437 254.206C61.8681 260.843 70.9431 262.099 83.4763 262.643C86.8725 262.326 92.8951 261.936 96.0507 261.284C94.9094 269.579 90.4338 315.335 86.57 319.348L82.885 320.907C76.9725 323.351 60.7681 327.481 57.9494 319.372C58.1419 316.374 58.9394 315.561 60.6719 313.111C59.9844 306.865 57.7569 290.713 56.4094 284.982C53.2194 271.453 52.0644 267.969 50.9437 254.206Z" fill="#FEE6D0"/>
<path d="M83.4763 262.643C86.8725 262.326 92.8951 261.936 96.0507 261.284C94.9094 269.579 90.4338 315.335 86.57 319.348C83.6894 301.091 90.1794 283.401 83.4763 262.643Z" fill="#FDBF9D"/>
<path d="M36.9943 225.491C32.6425 229.103 30.9581 241.316 25.7262 241.382C23.9043 239.124 23.8562 237.41 22.8731 234.738C17.2699 235.077 5.47245 236.224 2.52307 230.53C5.44495 227.273 17.2356 223.064 20.1368 219.194C22.7012 215.777 25.2656 210.722 27.5962 207.144C43.5324 182.676 43.7043 165.028 71.2318 151.03C70.6199 157.32 69.6918 161.529 68.1311 167.612C64.8243 176.458 56.1274 202.718 53.9824 211.767C48.0837 214.957 42.3362 221.002 36.9943 225.491Z" fill="#FEE6D0"/>
<path d="M36.9943 225.491C37.4068 221.991 44.9762 211.41 47.1006 207.544C51.9543 198.74 60.2386 172.077 68.1311 167.612C64.8243 176.458 56.1274 202.718 53.9824 211.767C48.0837 214.957 42.3362 221.002 36.9943 225.491Z" fill="#FDBF9D"/>
<path d="M131.938 151C159.459 165.943 158.599 180.821 174.728 206.16C177.237 210.104 179.822 215.147 182.689 218.928C185.666 222.861 197.594 227.568 200.441 230.532C197.333 236.43 185.543 234.9 179.919 234.702C178.159 238.02 179.08 239.579 176.976 241.343C172.549 240.094 169.496 228.837 164.395 224.031C159.321 220.957 156.296 215.801 148.775 211.596C146.444 200.703 138.311 177.681 134.647 166.222C132.921 161.333 132.206 156.166 131.938 151Z" fill="#FEE6D0"/>
<path d="M134.647 166.222C145.152 175.031 152.041 204.178 161.081 216.209C162.381 217.932 164.196 221.82 164.395 224.031C159.321 220.957 156.296 215.801 148.775 211.596C146.444 200.703 138.311 177.681 134.647 166.222Z" fill="#FDBF9D"/>
<path d="M82.3832 149.039C84.6932 148.873 86.9688 148.961 88.8113 147.597C89.43 145.865 89.2582 145.238 89.155 143.354C92.2557 138.881 108.384 139.23 112.551 141.86C115.294 146.025 112.289 146.8 116.559 148.772C119.137 148.743 119.701 148.682 120.622 150.987C117.783 162.702 85.8138 168.731 82.3832 149.039Z" fill="#FDBF9D"/>
<path d="M116.559 148.772C119.137 148.743 119.701 148.682 120.622 150.987C117.783 162.702 85.8138 168.731 82.3832 149.039C90.9013 148.554 101.331 165.536 116.559 148.772Z" fill="#FEE6D0"/>
<path d="M99.3644 11.9581C129.25 11.5105 156.276 26.3727 162.181 57.147C164.395 68.6615 162.834 78.0782 161.892 89.5357C162.8 89.5824 163.708 89.6491 164.615 89.7351C186.285 91.8617 172.336 125.705 155.348 123.05C152.384 122.588 152.006 121.237 150.391 119.055C148.253 124.979 145.832 130.828 143.674 136.877C133.258 145.011 117.824 146.863 104.933 147.094C91.3 147.372 72.5726 145.563 61.5863 136.881C60.2251 132.602 56.0244 123.579 52.7587 120.636C48.5925 124.615 41.4494 123.611 37.6201 120.321C24.4888 109.054 20.7213 92.7727 40.9407 89.5508C41.3944 88.1785 38.8094 80.7969 38.6925 78.2515C36.685 35.2009 58.8363 15.6083 99.3644 11.9581Z" fill="#6F5348"/>
<path d="M92.6406 15.3402C94.3456 14.9744 96.5525 15.1222 98.285 15.0115C141.082 12.2826 168.829 45.0302 159.204 86.8329C158.634 89.2992 159.803 95.7863 158.682 98.0208C152.329 110.629 145.791 120.793 142.189 134.76C132.619 142.335 123.152 143.01 111.423 144.232C98.0788 144.733 77.1581 144.638 65.3538 136.61C61.7925 134.185 59.3657 125.043 56.6982 120.916C52.9719 115.168 47.4031 110.281 44.9969 103.866C43.725 101.23 45.5537 94.9014 44.8662 92.7149C38.7543 73.1629 39.38 52.101 52.4356 35.1865C62.1637 22.5767 76.6356 17.2839 92.6406 15.3402Z" fill="#FEE6CF"/>
<path d="M162.099 91.7159C180.606 92.8944 174.659 117.223 155.375 121.014C149.731 115.686 156.681 106.45 160.758 102.005C164.017 98.4602 164.89 101.413 167.503 101.541L167.936 99.761L167.283 98.7606C164.876 98.1198 164.347 97.9294 162.099 96.8609C161.088 94.6415 161.59 94.6085 162.099 91.7159Z" fill="#FEE6CF"/>
<path d="M36.0525 92.1147C37.5582 92.0302 39.2356 92.1367 40.755 92.1931C42.5494 93.8233 42.4807 93.276 43.0307 95.2575C41.2776 98.9098 36.6438 95.8083 35.0075 100.616L35.7844 101.382C36.5613 101.087 37.3313 100.778 38.1013 100.453L38.5825 100.242C41.195 101.652 48.0769 113.691 51.4526 117.961C41.7932 128.398 19.14 103.684 36.0525 92.1147Z" fill="#FEE6CF"/>
<path d="M72.1875 82.7438C78.0161 82.6613 79.3086 83.7884 80.9694 90.5055C82.6302 97.2227 79.6394 110.506 71.9694 109.005C64.2993 107.505 64.9694 105.505 58.1762 102.312C52.965 96.2728 66.3588 82.8263 72.1875 82.7438ZM78.4694 102.312C80.4694 98.0055 81.4694 85.0055 72.9694 86.0055C64.4694 87.0055 67.9694 101.506 70.4694 105.006C72.9694 108.506 76.4694 106.619 78.4694 102.312Z" fill="#6B4F42"/>
<path d="M129.196 83.0094C123.367 82.927 122.075 84.054 120.414 90.7711C118.753 97.4883 121.744 110.771 129.414 109.271C137.084 107.771 136.414 105.771 143.207 102.578C148.418 96.5385 135.024 83.0919 129.196 83.0094ZM122.914 102.578C120.914 98.2711 119.914 85.2711 128.414 86.2711C136.914 87.2711 133.414 101.771 130.914 105.271C128.414 108.771 124.914 106.885 122.914 102.578Z" fill="#6B4F42"/>
<path d="M134.669 89.1054C136.114 97.2191 136.669 104.105 130.169 109.105C136.669 108.105 138.478 106.716 143.463 102.412C140.988 96.0041 139.654 93.9801 134.669 89.1054Z" fill="#FDFCFC"/>
<path d="M66.9694 89.0052C65.5244 97.119 64.9694 104.005 71.4694 109.005C64.9694 108.005 63.1606 106.616 58.1762 102.312C60.6512 95.9043 61.985 93.88 66.9694 89.0052Z" fill="#FDFCFC"/>
<path d="M70.4692 86.5336C74.4693 83.4812 78.4243 84.8128 79.4693 89.5859C80.7206 95.288 79.4693 103.322 76.4694 106.505C73.4694 109.689 69.4693 105.865 67.9693 103.322C66.4693 100.778 66.4692 89.586 70.4692 86.5336Z" fill="#8FEBFE"/>
<path d="M124.582 86.1883C127.969 84.0053 132.537 84.4971 133.582 89.1883C134.833 94.7925 135.582 103.111 130.582 106.188C125.582 109.266 123.582 105.188 122.082 102.688C120.582 100.188 121.194 88.3714 124.582 86.1883Z" fill="#8FEBFE"/>
<path d="M76.4774 66.9082C78.6912 66.9378 83.0225 66.977 84.37 68.8801C78.1962 70.5268 75.2056 68.7199 70.3518 71.1057L69.74 71.4131C68.1725 72.8459 67.7324 73.4537 65.6974 74.1289L65.1543 73.3657C67.2855 68.713 71.8437 67.4053 76.4774 66.9082Z" fill="#6C4F43"/>
<path d="M118.188 67.3881C123.351 66.7762 136.462 67.2052 137.404 73.8065L136.414 75.0812C133.485 71.8503 130.484 71.9517 126.469 70.5057C123.809 70.9705 119.061 71.2164 117.329 69.1386L118.188 67.3881Z" fill="#6C4F43"/>
<path d="M94.4694 112.505C97.4694 115.505 105.069 117.705 109.469 112.505" stroke="#71564B" stroke-width="2" stroke-linecap="round"/>
<path d="M97.8656 0.122198C107.085 -0.421659 125.104 0.793241 133.691 4.90964C136.393 6.20637 136.668 8.38591 137.452 11.2063C139.336 12.5374 143.928 12.0093 145.949 12.8042C151.889 15.1384 152.439 17.9285 153.347 23.6387C155.093 24.9306 158.104 27.3611 159.28 28.9432C165.763 37.6572 168.403 94.9149 160.497 98.3093L159.466 97.6114C157.499 87.3641 155.237 85.846 152.542 76.3749C151.779 73.6866 152.082 64.4204 152.158 61.1359C137.638 47.4982 125.359 43.9401 105.641 42.8387C82.7544 40.9623 69.6988 46.8609 51.4525 58.0426C49.6032 66.0203 49.6238 68.4329 50.6481 76.4746C47.0938 83.8177 45.9319 90.1783 44.2338 98.1677C41.745 95.533 39.6344 93.5129 36.9738 91.0673C39.2631 76.1535 34.0038 25.7955 55.1444 22.9559C55.4882 22.2216 55.8525 21.4962 56.2375 20.7812C62.0331 9.94806 62.4663 10.703 73.6656 7.28377C74.9031 6.90699 78.8494 2.8951 81.6819 2.49425C88.0413 1.59562 91.63 2.03498 97.8656 0.122198Z" fill="#694E44"/>
<path d="M100.733 2.16146C107.484 1.63067 128.59 3.73391 134.406 9.1656C135.073 9.78922 134.489 11.5088 134.324 12.5044C137.129 16.8566 142.484 13.5178 146.458 16.2694C150.748 19.2342 149.731 21.4412 151.443 25.306C151.745 25.988 155.973 29.0917 156.915 29.7861C158.565 34.4003 160.586 43.0779 162.154 48.346C159.782 52.9767 158.476 57.4774 155.636 62.1356L154.289 61.5697L154.021 61.1125C145.351 45.6851 121.866 41.3858 105.641 40.1696C95.9338 38.8934 76.725 41.9868 67.6156 45.8447C57.53 50.1178 51.4113 53.2015 46.9013 63.3643C45.0932 48.6244 39.1738 27.2071 57.5576 25C59.9501 21.1208 60.1975 18.196 63.1813 14.4557C67.0588 9.59189 70.6682 12.4776 74.9101 9.9556C76.5738 8.96758 79.5026 6.42501 81.352 5.18534C89.9801 4.93988 92.4207 4.21107 100.733 2.16146Z" fill="#CB8565"/>
<path d="M99.6875 124.143C104.984 122.513 114.275 126.847 111.202 134.67C109.387 136.244 108.631 136.191 106.314 136.463C100.408 136.411 97.074 137.529 92.9215 133.626C91.6633 129.057 94.391 125.773 99.6875 124.143Z" fill="#EA9193" stroke="#71564B" stroke-width="2"/>
</svg>
