<svg width="183" height="325" viewBox="0 0 183 325" fill="none" xmlns="http://www.w3.org/2000/svg">
<path d="M80.8102 7.07082C102.4 2.09291 134.753 15.6873 148.614 32.6871C178.43 69.2561 165.204 118.746 157.81 160.743C151.45 196.862 138.263 263.828 104.144 282.121C49.87 298.106 23.0087 156.466 18.9208 120.489C13.4847 72.6561 23.8488 13.8089 80.8102 7.07082Z" fill="#694E45"/>
<path d="M86.071 9.16581C98.6419 7.35547 115.936 12.484 126.919 18.4451C147.307 29.5099 155.966 46.1969 162.373 67.6961C170.875 96.2255 152.085 184.166 142.922 214.505C138.903 227.813 134.089 241.078 127.434 253.313C120.771 265.566 112.571 276.961 98.5876 281.102C54.3174 284.469 30.38 174.745 24.2069 140.862C14.7146 88.76 17.0728 14.713 86.071 9.16581Z" fill="#CB8565"/>
<path d="M87.8674 137.634C95.236 137.432 102.253 136.231 103.859 144.722C108.162 148.198 117.571 146.113 126.589 154.488C139.292 166.283 140.563 173.849 147.663 188.975C151.799 197.784 161.538 209.416 166.799 218.115C168.796 221.262 180.771 225.067 182.998 229.592C183.429 239.366 169.564 236.572 163.769 236.751C162.951 236.776 162.036 240.089 161.697 240.952C159.766 242.008 160.632 241.775 158.358 241.756C153.803 239.518 143.005 223.468 138.014 217.739C145.14 239.243 143.799 256.889 134.564 275.904C133.819 277.437 134.659 286.929 134.442 289.629C133.475 300.894 127.216 310.25 121.5 319.948C118.034 325.828 100.419 325.532 98.2321 320.636C98.0286 320.18 99.1059 308.565 98.7106 306.272C95.4285 287.218 93.2539 268.684 92.9425 249.342C92.8579 248.684 92.6084 248.322 92.3189 247.679L91.0973 247.566C90.2118 249.413 89.8749 264.492 89.7566 267.671C89.2224 282.066 86.7461 295.544 84.1886 309.678C83.9981 310.729 85.1256 318.605 85.2233 320.432C82.2636 325.283 70.5547 325.002 66.6662 323.34C57.8195 319.56 48.6654 296.47 49.1728 287.784C49.9112 275.149 46.9199 273.578 43.5958 263.608C38.8541 249.384 41.2033 232.048 45.1702 218.067C40.4147 223.509 36.3447 228.705 32.2562 234.643C30.0273 237.881 26.8916 242.185 22.5913 241.855C20.4387 239.826 20.9935 239.949 20.0441 236.7C17.4839 235.267 8.01766 238.69 3.83423 236.076C1.83498 234.826 -1.37219 230.261 0.637377 228.487C6.03219 223.725 13.4971 222.415 18.0167 216.106C23.5985 207.467 32.1854 196.6 36.3262 187.324C43.3483 171.595 49.5165 155.432 66.8959 148.223C69.4884 147.147 75.887 146.084 79.1079 145.201C80.3695 139.539 82.6417 138.818 87.8674 137.634Z" fill="#71564B"/>
<path d="M108.784 148.672C111.061 149.159 113.447 149.382 115.014 151.049C115.822 154.924 116.92 158.732 118.297 162.442C119.821 166.437 127.56 181.863 126.604 184.09C119.99 199.49 118.763 194.415 132.014 211.419C129.996 213.131 127.284 214.682 124.994 216.087C105.022 225.348 69.4457 224.736 51.2318 211.462C53.4696 208.548 60.7571 199.73 61.6062 196.77C62.6086 193.274 55.9027 187.556 57.1271 180.902C58.6458 172.647 63.426 168.314 66.2778 160.639C67.0003 158.693 67.7098 153.462 68.0969 151.227C69.7854 149.499 71.8314 149.262 74.2452 148.617C75.2881 153.683 75.5556 157.833 78.7346 162.151C86.4738 172.659 100.937 169.851 106.51 158.769C108.211 155.384 108.356 152.438 108.784 148.672Z" fill="#FEFEFE"/>
<path d="M49.4657 214.77C72.6901 228.429 110.411 228.065 133.758 214.752C136.035 220.022 137.811 225.493 139.062 231.096C141.571 242.741 137.312 246.048 126.382 248.564C120.696 249.873 115.289 250.743 109.504 251.59C104.913 251.689 99.7068 252.138 95.4134 250.75L94.9679 249.794C96.8152 246.744 101.514 244.456 104.344 240.684L103.948 240.074C100.739 240.151 97.4243 244.935 92.4317 244.931C86.5068 244.926 84.5241 239.709 78.7339 240.638C79.4524 243.397 86.2098 245.412 88.2675 249.4C88.0509 250.352 88.1479 251.024 87.36 251.184C76.9354 253.3 61.8393 249.993 51.7633 246.857C49.3749 246.114 44.8175 244.02 44.262 242.497C41.7182 235.522 46.9914 221.189 49.4657 214.77Z" fill="#FEFEFE"/>
<path d="M104.599 254.424C116.786 253.676 129.073 251.286 140.091 245.89C138.767 257.833 136.565 264.876 132.346 276.038C131.376 279.664 132.78 286.465 132.19 289.768C130.562 298.892 124.201 312.684 118.166 319.365C115.242 322.602 96.899 325.857 102.336 313.305C100.5 301.636 98.3215 289.391 96.8468 277.715C95.8967 270.189 96.3593 262.582 95.2394 254.598L104.599 254.424Z" fill="#FEE6D0"/>
<path d="M95.2394 254.598L104.599 254.424C100.33 256.239 101.039 262.137 101.009 266.508C100.95 275.028 101.075 283.542 101.682 292.037C102.183 299.037 105.13 306.728 102.336 313.305C100.5 301.636 98.3215 289.391 96.8468 277.715C95.8967 270.189 96.3593 262.582 95.2394 254.598Z" fill="#FDBF9D"/>
<path d="M43.1523 245.881C54.1888 251.438 65.4239 253.139 77.5273 254.443L87.5373 254.516C87.2733 264.91 87.0678 276.098 85.5636 286.359C84.2545 295.294 81.8909 303.85 80.8858 312.942C82.0731 315.451 82.5055 316.839 82.0215 319.319C78.7016 323.139 68.7466 322.98 65.8398 319.931C59.0027 312.759 53.1809 299.709 51.1899 289.919C50.4846 286.45 51.9434 279.939 51.0675 276.172C46.9116 265.202 44.6765 257.713 43.1523 245.881Z" fill="#FEE6D0"/>
<path d="M77.5273 254.443L87.5373 254.516C87.2733 264.91 87.0678 276.098 85.5636 286.359C84.2545 295.294 81.8909 303.85 80.8858 312.942C78.7724 304.47 84.7165 259.21 82.3742 255.434L77.5273 254.443Z" fill="#FDBF9D"/>
<path d="M128.563 187.181C130.244 171.511 120.359 168.964 117.805 151.502C135.313 163.162 136.567 171.146 144.921 189.283C147.997 195.961 159.529 211.612 163.756 218.732C165.63 221.891 178.008 227.8 180.226 230.15C178.025 238.853 162.63 232.145 160.011 232.772C159.855 235.572 160.64 237.878 159.476 239.509C155.703 238.558 149.233 227.016 145.606 222.684C136.656 213.363 131.476 206.221 123.162 196.668L128.563 187.181Z" fill="#FEE6D0"/>
<path d="M123.162 196.668L128.563 187.181C132.089 192.582 145.122 217.031 145.606 222.684C136.656 213.363 131.476 206.221 123.162 196.668Z" fill="#FDBF9D"/>
<path d="M23.8068 231.976C18.5488 233.675 7.71036 237.073 3.53242 232.156C3.40867 231.563 3.2684 230.891 3.11096 230.139C6.01771 226.987 13.5273 224.29 16.7551 221.532C18.0586 220.418 20.4924 217.232 20.8973 216.627C26.7376 207.722 33.5205 198.382 38.4265 188.953C42.8959 180.364 45.406 170.411 52.2109 163.006C54.8729 160.11 60.2787 153.975 63.965 153.115C67.2499 157.207 55.1403 174.638 54.6253 180.233C54.3276 183.47 54.5332 184.509 54.9499 187.752C56.6714 192.066 57.253 193.229 60.3866 196.626C53.337 203.961 46.3705 214.257 39.6461 220.588C36.3612 224.341 27.5633 238.73 23.8927 238.472C22.7412 236.439 23.4225 234.433 23.8068 231.976Z" fill="#FEE6D0"/>
<path d="M54.9499 187.752C56.6714 192.066 57.253 193.229 60.3866 196.626C53.337 203.961 46.3705 214.257 39.6461 220.588C40.4677 210.424 52.0576 198.05 54.9499 187.752Z" fill="#FDBF9D"/>
<path d="M76.8577 148.683C78.0031 148.561 81.1182 148.59 81.3244 147.525C82.9675 139.059 92.2013 137.74 98.8563 140.98C103.401 143.193 98.1627 148.555 106.168 148.438C106.215 152.692 105.274 157.016 102.687 160.486C100.576 163.363 97.3913 165.265 93.8562 165.759C82.6059 167.258 78.0327 158.275 76.8577 148.683Z" fill="#FEE6D0"/>
<path d="M76.8577 148.683C78.0031 148.561 81.1182 148.59 81.3244 147.525C82.9675 139.059 92.2013 137.74 98.8563 140.98C103.401 143.193 98.1627 148.555 106.168 148.438C103.835 148.853 100.542 152.564 97.7013 154.578C82.0318 155.54 87.4487 149.788 76.8577 148.683Z" fill="#FDBF9D"/>
<path d="M89.7091 10.5444C138.729 10.2158 159.985 43.4357 151.256 89.3191C155.541 89.315 158.896 89.3122 162.108 92.3808C171.79 101.633 161.713 119.015 150.742 122.034C148.363 122.688 145.714 122.765 143.33 122.87C142.546 123.984 141.71 125.062 140.825 126.1C137.076 130.431 105.348 145.028 98.3421 148.752C97.5975 149.148 94.3016 149.473 93.1961 149.546C89.6803 149.242 86.0867 148.056 82.8376 146.677C70.8262 141.583 57.8751 137.583 46.4764 131.297C44.7473 130.344 40.5921 124.937 39.1779 123.167C33.3822 122.322 30.4267 122.286 25.9016 118.306C14.8535 108.589 12.2059 90.0548 31.119 89.2359C30.3036 85.5506 29.6973 81.822 29.3033 78.0679C26.7541 51.8301 35.651 27.505 61.468 16.4663C71.0669 12.3623 79.3657 11.4616 89.7091 10.5444Z" fill="#6F5348"/>
<path d="M82.7599 13.9401C122.392 7.75411 156.511 36.5964 150.758 77.2564C149.726 84.5493 147.58 91.6463 146.065 98.9385C144.328 107.296 145.254 118.279 138.493 124.529C126.347 132.513 111.763 139.008 98.6013 145.747C96.336 146.997 91.1577 147.192 88.7934 146.158C75.603 140.254 60.5763 136.201 47.9738 129.346C40.1631 125.099 38.8073 113.425 37.3423 106.184C32.2561 81.0393 24.9714 56.5953 42.4469 33.9933C52.6316 20.8204 66.9048 15.8975 82.7599 13.9401Z" fill="#FEE6CF"/>
<path d="M152.624 91.2764C153.627 91.3341 154.622 91.4819 155.598 91.7185C174.672 96.18 156.202 122.628 145.845 119.936L145.57 118.489C146.354 112.851 146.654 103.852 151.959 100.505C153.634 99.4473 156.004 100.582 158.022 101.098L158.593 100.345C157.867 98.6229 157.727 98.5899 156.217 97.3929C154.062 96.7445 152.298 97.7435 150.061 98.5583L149.191 97.925C149.025 93.6306 149.546 93.5756 152.624 91.2764Z" fill="#FEE6CF"/>
<path d="M27.9792 91.2812C29.8877 91.4111 30.1861 91.4077 31.8285 92.3641C32.934 94.325 33.1244 94.6089 33.1265 96.8421C30.3937 99.1592 27.874 96.0948 25.1158 98.5115L25.1405 100.291C26.95 102.535 26.6949 99.252 31.4882 100.477C35.7225 104.105 35.8057 111.631 36.6286 117.352L36.9882 119.19L36.0037 119.908C26.6977 120.044 8.8935 99.6246 27.9792 91.2812Z" fill="#FEE6CF"/>
<path d="M51.7183 92.605C55.2783 92.605 72.2183 92.6049 73.7183 92.605C74.9701 92.6051 70.7183 101.605 64.2183 101.605C57.7183 101.605 54.4886 94.8932 54.7183 95.105C54.9479 95.3168 49.1582 95.105 48.6582 95.105L48.1582 94.105C48.1582 92.605 48.1582 92.605 51.7183 92.605Z" fill="#6B4F42"/>
<path d="M132.377 92.605C128.817 92.605 111.877 92.6049 110.377 92.605C109.125 92.6051 113.377 101.605 119.877 101.605C126.377 101.605 129.606 94.8932 129.377 95.105C129.147 95.3168 134.937 95.105 135.437 95.105L135.937 94.105C135.937 92.605 135.937 92.605 132.377 92.605Z" fill="#6B4F42"/>
<path d="M56.9188 94.8845C60.1582 94.8845 67.6582 94.8845 71.1582 94.8845C67.1582 102.605 59.6582 100.405 56.9188 94.8845Z" fill="#8FEBFE"/>
<path d="M112.919 94.8843C116.158 94.8843 123.658 94.8843 127.158 94.8843C123.158 102.605 115.658 100.405 112.919 94.8843Z" fill="#8FEBFE"/>
<path d="M76.3386 58.3074C80.9269 64.2685 70.2886 85.8749 56.9236 74.9951C54.7648 73.4742 52.4108 71.5868 51.4834 69.0766C52.3799 67.0476 54.1433 67.1617 56.2168 67.346C69.0139 68.4832 67.4849 66.3147 76.3386 58.3074Z" fill="#6C4F43"/>
<path d="M73.5184 65.1884C74.9409 71.0162 66.9521 77.968 59.1731 73.776C57.5795 72.4504 57.0611 72.4759 56.5544 70.7246C58.1666 69.7621 64.5218 70.0419 66.9673 69.9374C69.8809 68.3271 70.9575 67.368 73.5184 65.1884Z" fill="#C07D61"/>
<path d="M105.289 57.2637C109.702 59.545 111.296 63.8223 115.938 66.1689C119.778 68.1106 129.107 64.1213 130.821 68.0555C130.137 70.1911 129.092 70.9385 127.493 72.4559C113.97 84.0323 104.704 71.5181 105.289 57.2637Z" fill="#6C4F43"/>
<path d="M108.075 63.6854C115.925 70.035 115.419 69.2704 125.638 69.4513L126.105 69.9958L124.257 72.1114C115.362 77.957 110.562 72.0496 108.075 63.6854Z" fill="#C07D61"/>
<path d="M84.1582 106.605C83.6885 107.864 85.164 110.133 89.0395 111.526M98.1582 109.605C96.5402 109.605 95.1581 110.402 95.1581 111.105" stroke="#71564B" stroke-width="2" stroke-linecap="round"/>
<path d="M91.179 0.258666C96.2328 -0.794669 107.665 1.61179 112.917 3.11685C143.668 11.9114 170.642 44.3207 160.592 77.3564C159.574 80.7027 152.246 95.8269 148.002 94.4559L147.914 91.8734C123.481 90.1972 108.022 63.8294 98.2548 44.1646C99.5507 51.3853 101.251 57.7707 103.322 64.7727C104.664 69.3099 105.553 73.7337 101.289 76.8001C97.6594 77.6947 93.445 75.7702 90.2619 74.118C76.0032 64.3939 69.2911 49.9614 62.5371 34.7231C61.081 51.8041 53.612 69.5457 43.8852 83.8435C43.327 84.6637 36.9992 90.6736 35.5981 92.2131C35.5912 93.8116 35.5988 93.8646 35.2083 95.4068L34.0959 95.4989C26.1147 90.4846 20.2105 74.3366 19.8722 65.21C18.5673 29.9913 58.5152 1.25837 91.179 0.258666Z" fill="#694E44"/>
<path d="M86.7983 2.84594C130.169 -2.73014 181.561 49.1673 152.147 87.876C150.828 88.193 146.773 89.1266 145.47 89.0359C128.087 87.8272 110.898 64.0742 103.817 49.8349C101.406 44.9869 99.4159 34.4309 96.2885 31.2846C91.1927 36.3368 101.155 65.0835 102.532 72.2719C101.184 74.0135 101.8 73.4407 98.9636 74.1022C98.8494 74.0843 98.7353 74.0685 98.6212 74.0492C98.4321 74.0176 98.2437 73.9791 98.054 73.9495C74.8048 70.3571 66.8622 29.9233 60.9723 26.1424C59.5472 29.0817 60.4697 35.3068 59.6812 39.1365C56.0945 56.5564 47.608 80.2936 32.4865 90.8043C10.7456 59.8141 27.4086 30.7312 56.7903 13.4006C66.3073 7.78673 76.0217 5.11213 86.7983 2.84594Z" fill="#CB8565"/>
<path d="M87.3842 117.734C89.8482 117.647 92.46 117.218 94.3912 118.632C94.9941 120.443 95.0773 119.619 94.3719 121.195C92.2853 121.181 91.0905 120.912 89.0679 120.55C87.1271 121.36 87.7506 120.784 86.7799 122.773C88.7165 125.849 90.1493 123.692 92.2805 126.894C90.0819 128.364 89.2927 128.829 88.1053 131.283C90.2964 132.828 90.1892 132.476 93.3957 132.044L93.9305 132.77C92.6435 135.464 89.5017 136.748 87.0232 134.442C86.1027 131.76 86.4485 130.132 86.7145 127.311C85.4021 125.207 85.2584 124.896 84.7256 122.478C85.2226 119.843 85.488 119.588 87.3842 117.734Z" fill="#6A4D40"/>
<path d="M130.987 111.22C131.717 111.412 132.669 111.821 133.396 112.101C136.26 115.099 137.947 118.309 139.089 122.3L137.509 122.278C134.619 119.787 132.554 114.765 130.987 111.22Z" fill="#FEB2B4"/>
<path d="M59.426 112.101C63.2973 113.419 66.5829 119.904 66.8511 123.691C63.4493 122.837 59.7705 115.263 59.426 112.101Z" fill="#FEB2B4"/>
<path d="M123.757 111.409C127.001 112.801 130.725 120.337 130.982 123.745C127.849 122.093 122.902 114.838 123.757 111.409Z" fill="#FEB2B4"/>
<path d="M51.3198 112.648L53.1155 113.272C55.9845 116.4 57.6228 119.882 59.2563 123.782C58.3268 123.803 57.9796 123.645 57.0762 123.432C54.2354 120.411 52.2486 116.689 51.3198 112.648Z" fill="#FEB2B4"/>
<path d="M44.4488 112.772C47.6533 114.567 50.5703 121.008 51.1554 124.56C47.6849 122.804 43.4307 116.628 44.4488 112.772Z" fill="#FEB2B4" fill-opacity="0.988235"/>
<path d="M115.936 111.999C119.951 113.331 121.9 119.386 123.518 123.102C118.771 121.849 116.816 116.418 115.936 111.999Z" fill="#FEB2B4" fill-opacity="0.988235"/>
</svg>
