<svg width="175" height="315" viewBox="0 0 175 315" fill="none" xmlns="http://www.w3.org/2000/svg">
<path d="M86.9852 124.486C87.0884 124.473 87.1915 124.46 87.2947 124.447C100.811 124.562 95.4071 129.845 99.8621 134.502C101.794 136.526 116.287 141.319 119.257 145.46C129.927 160.367 138.397 178.546 147.953 194.389C149.775 197.405 154.023 205.324 156.052 207.453C160.3 211.916 169.355 214.696 174.387 218.815C175.033 221.062 174.951 220.119 174.353 222.646C168.619 230.094 157.674 225.817 155.502 226.839C153.666 230.024 153.693 231.206 149.891 230.679C143.965 226.27 141.174 217.587 137.152 211.458C129.61 199.956 121.986 188.509 114.135 177.213C116.843 198.629 116.885 224.902 116.85 246.519L116.933 302.65C120.219 305.911 122.433 307.59 120.02 312.216C114.135 316.806 98.3015 313.582 96.954 306.111C95.689 299.128 95.249 290.345 94.589 283.145C93.049 267.185 91.6396 251.213 90.354 235.23C87.9271 235.134 87.2947 235.16 84.8884 235.472C79.8765 245.735 83.0046 296.208 76.0059 309.207C72.4103 315.891 42.6999 317.889 57.695 302.675L57.8751 255.933C57.7706 229.945 57.5046 202.789 60.5976 176.898C49.7345 193.078 38.6066 208.88 29.2469 225.958C23.7744 235.945 19.5903 227.185 18.535 227.081C13.1079 226.545 2.85656 229.199 0 221.223C0.0446875 220.573 0.0983024 219.786 0.161552 218.863C4.07343 215.536 14.6878 211.476 18.1913 207.957C20.5673 205.571 24.9081 197.648 26.4846 194.883L43.4335 164.953C46.6854 159.175 50.4164 151.881 54.483 146.554C57.1725 141.125 73.8609 136.969 75.9096 133.447C79.6634 127.007 74.3352 127.022 86.9852 124.486Z" fill="#71564B"/>
<path d="M103.155 138.836L109.164 141.988C106.868 155.969 110.271 161.734 111.474 174.995C112.519 186.428 113.296 198.615 114.121 210.119C104.159 217.76 72.5409 214.695 60.6361 210.564C61.4391 193.567 62.6862 175.315 65.6995 158.602C66.9989 151.396 66.3272 150.009 65.4624 142.927C66.8257 140.762 67.8384 140.732 70.3821 139.301C73.0909 140.572 73.6477 145.216 76.8652 148.192C89.3227 159.735 98.6934 153.075 103.155 138.836Z" fill="#FEFEFE"/>
<path d="M60.6169 213.599C76.6109 218.896 97.8821 218.478 113.983 213.729C113.997 222.471 114.19 231.212 114.554 239.947C108.415 243.495 105.369 243.375 98.5422 243.333C91.0828 242 92.9665 237.017 93.9565 231.217C92.1759 230.675 88.2434 232.89 85.7272 232.581C83.2934 232.282 82.3928 230.636 80.3097 231.237C79.4572 234.128 82.4271 236.309 81.6984 240.557C77.5871 246.101 65.5098 243.104 60.311 239.932L60.6169 213.599Z" fill="#FEFEFE"/>
<path d="M33.2138 212.895C30.7299 216.713 28.237 227.159 23.4506 228.416L22.4132 227.787C21.7064 225.907 21.7566 225.097 21.6274 223.13C18.5432 221.457 9.89998 229.305 3.01123 221.496C3.10611 218.614 10.9312 215.791 14.0862 214.433C27.1913 208.795 51.7735 145.17 62.3995 144.482C65.7126 148.041 63.1317 161.359 61.5635 165.631C61.3291 167.246 60.6966 171.356 59.9575 172.625C53.7838 183.235 40.8396 204.2 33.2138 212.895Z" fill="#FEE6D0"/>
<path d="M61.5635 165.631C61.3291 167.246 60.6966 171.356 59.9575 172.625C53.7838 183.235 40.8396 204.2 33.2138 212.895C33.3637 207.267 56.96 169.754 61.5635 165.631Z" fill="#FDBF9D"/>
<path d="M113.31 166.064C111.447 161.503 109.082 148.933 111.983 144.734C121.127 144.094 145.856 200.274 153.535 208.621C157.763 213.214 171.307 219.092 172.153 220.878C166.825 228.761 158.54 222.48 153.79 222.86C152.703 225.539 152.69 227.006 150.648 228.332C146.296 226.609 144.178 217.483 141.978 213.674C134.168 203.674 121.422 183.592 114.004 172.634L113.31 166.064Z" fill="#FEE6D0"/>
<path d="M113.31 166.064C117.524 169.515 139.421 203.872 142.583 211.379C142.707 211.675 142.143 213.156 141.978 213.674C134.168 203.674 121.422 183.592 114.004 172.634L113.31 166.064Z" fill="#FDBF9D"/>
<path d="M99.4153 245.855C105.953 245.91 108.552 245.485 114.685 243.228C114.884 263.622 114.918 284.017 114.774 304.411C116.513 305.893 118.074 306.886 118.521 309.137C116.617 314.266 106.331 310.825 102.605 309.352C101.918 309.084 101.237 308.796 100.563 308.49L99.6902 307.866C98.0127 304.738 93.9152 252.883 93.8465 246.142L94.8365 245.336C97.009 245.235 97.3322 245.236 99.4153 245.855Z" fill="#FEE6D0"/>
<path d="M100.563 308.49L99.6902 307.866C98.0127 304.738 93.9152 252.883 93.8465 246.142L94.8365 245.336C97.009 245.235 97.3322 245.236 99.4153 245.855C97.4766 250.73 101.388 297.959 100.563 308.49Z" fill="#FDBF9D"/>
<path d="M59.9459 243.151C65.9773 245.49 68.629 245.904 75.1121 245.866C77.2984 245.131 78.9484 245.057 81.2103 244.841L77.1471 288.71C76.7759 292.888 76.604 306.383 73.8128 308.716C71.7709 309.524 69.7015 310.244 67.5978 310.875C64.4518 311.784 57.134 313.152 56.1172 308.996C56.7621 306.73 58.0401 305.944 59.8146 304.438C59.7197 284.009 59.7637 263.58 59.9459 243.151Z" fill="#FEE6D0"/>
<path d="M75.1121 245.866C77.2984 245.131 78.9484 245.057 81.2103 244.841L77.1471 288.71C76.7759 292.888 76.604 306.383 73.8128 308.716C71.9359 303.692 75.6003 263.792 75.0503 255.46C74.899 253.141 75.6621 249.09 75.1121 245.866Z" fill="#FDBF9D"/>
<path d="M77.6627 137.32C80.839 133.306 77.1884 127.929 84.7165 127.213C99.8072 125.778 93.9771 132.219 96.624 136.502C98.3152 137.122 98.6246 137.236 100.055 138.321C100.488 141.506 97.2359 147.366 94.6234 149.41C87.6177 154.9 73.4071 146.529 75.4352 137.975L77.6627 137.32Z" fill="#FDBF9D"/>
<path d="M96.624 136.502C98.3152 137.122 98.6246 137.236 100.055 138.321C100.488 141.506 97.2359 147.366 94.6234 149.41C87.6177 154.9 73.4071 146.529 75.4352 137.975L77.6627 137.32C84.0634 141.328 92.0452 146.021 96.624 136.502Z" fill="#FEE6D0"/>
<path d="M81.3753 1.57761C82.654 1.23452 85.1634 1.22764 86.5866 1.24002C112.877 1.46554 138.163 13.0392 146.275 39.8099C150.558 53.9329 149.513 65.0528 147.32 78.9888C151.06 79.0569 153.563 78.8768 156.65 81.1608C159.269 83.0819 161.008 85.9737 161.483 89.188C163.367 101.653 152.614 111.062 140.947 112.725C140.995 115.145 141.394 121.243 139.503 122.678C130.621 129.424 104.73 132.013 94.7128 132.496C78.8659 132.903 51.7805 133.446 36.7304 124.405C33.0104 122.17 34.4947 114.436 31.6752 112.899C27.1295 110.691 23.9532 110 19.7485 106.741C13.1732 101.644 11.0695 88.9694 16.1336 82.3331C18.2319 79.5843 23.1117 79.0954 26.5754 78.9311C17.9596 35.3552 36.5799 6.54176 81.3753 1.57761Z" fill="#6F5348"/>
<path d="M81.1209 4.32173C115.963 1.81146 145.602 20.4422 146.853 57.7352C147.368 73.2423 141.016 88.2029 139.572 103.592C139.008 109.56 138.39 115.545 137.702 121.507C121.91 127.643 109.171 129.053 92.2446 130.226C76.8103 131.971 49.8589 129.581 36.2491 120.902C35.8476 118.535 35.5094 115.648 35.3018 113.195C32.7257 82.8461 16.5536 51.9927 38.2498 24.507C49.5096 10.2423 64.3865 6.18982 81.1209 4.32173Z" fill="#FEE6CF"/>
<path d="M147.946 80.9038C170.998 83.4216 154.037 110.584 142.295 109.724L141.428 108.552C142.198 101.994 142.192 94.9952 147.087 90.4945C149.053 89.4178 151.136 90.1555 153.37 90.6189C154.127 88.7529 154.01 89.5532 153.611 87.5215C151.067 86.1567 148.867 88.7034 145.32 87.4761L144.955 85.969C145.602 83.1363 145.78 82.8413 147.946 80.9038Z" fill="#FEE6CF"/>
<path d="M23.5812 80.9608C25.4973 81.0489 25.8074 81.0275 27.3604 82.1214C28.195 83.9256 28.7059 84.6853 28.5189 86.7129C26.6736 87.9657 24.8057 86.9309 21.5449 87.3964C20.4456 88.9936 20.6862 88.2393 20.9963 90.5241C24.1856 91.0239 23.2725 89.2198 27.5144 90.4574C31.1644 93.9777 31.2764 101.056 32.0299 106.33C32.2644 108.433 32.5194 107.867 31.6064 109.347C22.8683 110.41 4.64679 89.3786 23.5812 80.9608Z" fill="#FEE6CF"/>
<path d="M119.064 91.8307C115.742 92.6098 114.403 92.904 111.9 92.6902C104.323 91.8307 102.913 83.9335 104.323 79.78C109.073 65.7803 133.007 73.4496 128.29 85.2996C125.252 88.2712 122.386 91.0516 119.064 91.8307ZM115.908 90.063C121.917 82.9984 121.016 75.647 110.443 76.2754C105.733 82.4703 106.868 91.3151 115.908 90.063Z" fill="#6B4F42"/>
<path d="M114.323 92.7799C116.823 92.2799 121.823 89.2799 122.323 85.2998C122.823 81.3197 121.323 79.2799 119.823 76.7799C124.823 77.7799 127.855 80.7799 128.323 85.2998C125.823 89.2799 120.323 92.7799 114.323 92.7799Z" fill="#FDFCFC"/>
<path d="M54.6612 91.8333C57.9833 92.6124 59.3225 92.9065 61.825 92.6927C69.4025 91.8333 70.8118 83.9361 69.4024 79.7826C64.6519 65.7828 40.7187 73.4522 45.4349 85.3022C48.4737 88.2738 51.3391 91.0541 54.6612 91.8333ZM57.8168 90.0656C51.808 83.0009 52.7087 75.6496 63.2825 76.278C67.9918 82.4729 66.8574 91.3176 57.8168 90.0656Z" fill="#6B4F42"/>
<path d="M59.4024 92.7801C56.9024 92.2801 51.9024 89.2801 51.4024 85.3C50.9024 81.3199 52.4024 79.2801 53.9024 76.7801C48.9024 77.7801 45.87 80.7801 45.4024 85.3C47.9024 89.2801 53.4024 92.7801 59.4024 92.7801Z" fill="#FDFCFC"/>
<path d="M107.823 78.2802C112.323 73.2802 118.42 76.817 119.323 79.2802C120.226 81.7435 121.823 87.9808 114.823 90.6305C107.823 93.2802 103.323 83.2802 107.823 78.2802Z" fill="#8FEBFE"/>
<path d="M65.9814 78.2802C61.4814 73.2802 55.3841 76.817 54.4814 79.2802C53.5786 81.7434 51.9814 87.9808 58.9814 90.6305C65.9814 93.2802 70.4814 83.2802 65.9814 78.2802Z" fill="#8FEBFE"/>
<path d="M103.121 53.5987C109.143 53.4502 126.317 52.2415 128.895 58.7471C128.909 61.8116 129.438 61.5785 127.83 63.2458C121.017 63.0285 114.506 63.6109 107.748 63.4802C104.132 63.4101 102.165 62.6373 100.948 59.1713C101.127 56.364 101.567 55.9068 103.121 53.5987Z" fill="#C07D61"/>
<path d="M57.5238 53.8476C62.8637 52.4958 73.5309 52.0682 73.3384 60.0816C71.2828 64.2668 68.8284 64.3397 64.6821 63.1227C60.4464 63.0086 49.0538 63.9656 46.1485 62.651C45.7703 60.3257 45.5428 59.6608 46.4379 57.3933C49.0621 54.2567 53.4717 54.3199 57.5238 53.8476Z" fill="#C07D61"/>
<path d="M103.121 53.5987C109.143 53.4502 126.317 52.2415 128.895 58.7471C128.909 61.8116 129.438 61.5785 127.83 63.2458C121.017 63.0285 114.506 63.6109 107.748 63.4802C104.132 63.4101 102.165 62.6373 100.948 59.1713C101.127 56.364 101.567 55.9068 103.121 53.5987Z" stroke="#71564B" stroke-width="3"/>
<path d="M57.5238 53.8476C62.8637 52.4958 73.5309 52.0682 73.3384 60.0816C71.2828 64.2668 68.8284 64.3397 64.6821 63.1227C60.4464 63.0086 49.0538 63.9656 46.1485 62.651C45.7703 60.3257 45.5428 59.6608 46.4379 57.3933C49.0621 54.2567 53.4717 54.3199 57.5238 53.8476Z" stroke="#71564B" stroke-width="3"/>
<path d="M85.3717 94.2089C85.6709 93.2874 86.9746 93.2874 87.2739 94.2089L89.7948 101.971C90.0046 102.617 89.523 103.28 88.8437 103.28H83.8018C83.1225 103.28 82.6409 102.617 82.8507 101.971L85.3717 94.2089Z" stroke="#71564B" stroke-width="2"/>
<path d="M73.7165 0.197932C116.837 -2.04488 156.643 14.418 149.328 67.7544C148.702 72.3329 146.647 82.8085 142.858 85.3779C136.437 82.5527 136.279 48.289 131.15 38.4845C120.15 31.0259 108.882 30.3789 96.2322 32.4965C92.5953 33.3113 90.0308 34.685 86.7033 36.2699C74.1702 32.8403 62.5047 30.5411 49.4127 33.1759C32.747 36.5298 37.794 83.1069 27.8396 86.2538C25.9635 84.1863 24.5816 74.016 24.0646 70.5796C18.3996 32.8898 37.2013 6.97448 73.7165 0.197932Z" fill="#694E44"/>
<path d="M79.3815 2.26265C81.8221 1.98488 84.4759 2.14232 86.9096 2.25646C117.524 3.69689 143.67 16.5824 147.416 50.1262C148.812 62.6239 146.186 71.4652 142.645 83.3626C139.978 70.6167 138.417 57.701 136.107 44.9165C132.958 27.4774 106.084 27.4059 92.7258 30.812L86.0365 33.4488L84.8127 33.1394C73.0221 30.1877 55.5974 26.6083 44.3218 32.8286C38.9235 35.8071 37.0549 42.2537 35.9728 47.8889C33.6834 59.8125 31.5274 71.8137 28.9485 83.6899C24.5114 60.7132 22.4627 40.7314 38.2655 21.3815C48.6248 8.69611 63.6315 3.73333 79.3815 2.26265Z" fill="#CB8565"/>
<path d="M94.3415 113.664C97.0984 113.337 99.869 113.001 102.42 114.279C99.9446 115.62 92.1828 116.722 88.869 117.33C85.7959 118.411 84.6684 118.916 81.4372 119.073L81.0659 118.322C85.9403 114.854 88.5046 114.761 94.3415 113.664Z" fill="#6A4D40"/>
<path d="M105.399 91.5219C108.197 92.9066 113.917 100.308 113.69 103.619C110.122 102.645 105.186 95.366 105.399 91.5219Z" fill="#6B4C3D"/>
<path d="M65.3166 93.326L66.5878 93.6464L66.9391 94.8943C65.6995 97.595 62.383 100.605 60.2126 102.825C59.0239 102.486 59.5368 102.807 58.7476 101.67C59.7224 99.0472 63.3091 95.5386 65.3166 93.326Z" fill="#6B4C3D"/>
<path d="M91.2505 45.3229C93.3955 47.2054 93.746 55.2622 93.1685 58.0475C92.2954 57.3874 92.0204 57.0045 91.2917 56.2035C90.0267 52.0293 90.4873 49.6105 91.2505 45.3229Z" fill="#6B4C3D"/>
<path d="M82.4574 45.2803L83.9011 46.6114C85.008 49.9536 84.4786 52.9878 83.7292 56.3506L82.148 55.1948C81.1511 51.5865 81.6049 48.8659 82.4574 45.2803Z" fill="#6B4C3D"/>
</svg>
