<svg width="95" height="14" viewBox="0 0 95 14" fill="none" xmlns="http://www.w3.org/2000/svg">
<path d="M86.6918 0C87.4213 0.192516 88.3734 0.600933 89.1008 0.881456C91.9649 3.8792 93.6521 7.08938 94.794 11.08L93.2134 11.0587C90.3239 8.56696 88.2586 3.54504 86.6918 0Z" fill="#FEB2B4"/>
<path d="M15.1306 0.881439C19.0019 2.1988 22.2875 8.68451 22.5556 12.4716C19.1539 11.6169 15.4751 4.04351 15.1306 0.881439Z" fill="#FEB2B4"/>
<path d="M79.4614 0.189758C82.7057 1.58137 86.4299 9.11699 86.687 12.5252C83.5534 10.8737 78.6061 3.6186 79.4614 0.189758Z" fill="#FEB2B4"/>
<path d="M7.02435 1.42804L8.8201 2.05235C11.689 5.18073 13.3274 8.6625 14.9609 12.5623C14.0314 12.5836 13.6842 12.4255 12.7808 12.2124C9.94003 9.19123 7.95317 5.46949 7.02435 1.42804Z" fill="#FEB2B4"/>
<path d="M0.153434 1.55249C3.35787 3.34701 6.27494 9.78804 6.86 13.34C3.3895 11.5839 -0.864754 5.4083 0.153434 1.55249Z" fill="#FEB2B4" fill-opacity="0.988235"/>
<path d="M71.6411 0.779694C75.6554 2.11149 77.6044 8.16611 79.2221 11.8824C74.4756 10.6296 72.5211 5.19793 71.6411 0.779694Z" fill="#FEB2B4" fill-opacity="0.988235"/>
</svg>
