<svg width="55" height="59" viewBox="0 0 55 59" fill="none" xmlns="http://www.w3.org/2000/svg">
<path d="M46.6516 46.2416C49.4498 47.6263 55.1698 55.0279 54.9429 58.3384C51.3748 57.3649 46.4385 50.0857 46.6516 46.2416Z" fill="#6B4C3D"/>
<path d="M6.56906 48.0457L7.84024 48.3661L8.19155 49.614C6.95198 52.3148 3.63549 55.3249 1.46505 57.5443C0.276362 57.206 0.78925 57.5271 0 56.3892C0.974875 53.7669 4.56156 50.2583 6.56906 48.0457Z" fill="#6B4C3D"/>
<path d="M32.5029 0.0426331C34.6479 1.92516 34.9985 9.98193 34.421 12.7672C33.5478 12.1072 33.2729 11.7242 32.5441 10.9232C31.2791 6.74904 31.7398 4.33023 32.5029 0.0426331Z" fill="#6B4C3D"/>
<path d="M23.7098 0L25.1535 1.33111C26.2604 4.67332 25.731 7.70751 24.9817 11.0703L23.4004 9.91457C22.4035 6.30627 22.8573 3.5856 23.7098 0Z" fill="#6B4C3D"/>
</svg>
