<svg width="87" height="14" viewBox="0 0 87 14" fill="none" xmlns="http://www.w3.org/2000/svg">
<path d="M58.8054 2.01862C64.8279 1.8701 82.0017 0.661386 84.5799 7.16704C84.5936 10.2315 85.1229 9.9984 83.5142 11.6657C76.7011 11.4485 70.1905 12.0308 63.4324 11.9002C59.8161 11.83 57.8498 11.0572 56.633 7.59125C56.8117 4.78395 57.2517 4.32674 58.8054 2.01862Z" fill="#C07D61"/>
<path d="M13.2084 2.26749C18.5482 0.915758 29.2154 0.488089 29.0229 8.50155C26.9673 12.6867 24.5129 12.7596 20.3666 11.5426C16.1309 11.4285 4.73837 12.3856 1.833 11.071C1.45487 8.74564 1.22732 8.08077 2.12245 5.81321C4.74664 2.67658 9.15626 2.73984 13.2084 2.26749Z" fill="#C07D61"/>
<path d="M58.8054 2.01862C64.8279 1.8701 82.0017 0.661386 84.5799 7.16704C84.5936 10.2315 85.1229 9.9984 83.5142 11.6657C76.7011 11.4485 70.1905 12.0308 63.4324 11.9002C59.8161 11.83 57.8498 11.0572 56.633 7.59125C56.8117 4.78395 57.2517 4.32674 58.8054 2.01862Z" stroke="#71564B" stroke-width="3"/>
<path d="M13.2084 2.26749C18.5482 0.915758 29.2154 0.488089 29.0229 8.50155C26.9673 12.6867 24.5129 12.7596 20.3666 11.5426C16.1309 11.4285 4.73837 12.3856 1.833 11.071C1.45487 8.74564 1.22732 8.08077 2.12245 5.81321C4.74664 2.67658 9.15626 2.73984 13.2084 2.26749Z" stroke="#71564B" stroke-width="3"/>
</svg>
