<svg width="75" height="15" viewBox="0 0 75 15" fill="none" xmlns="http://www.w3.org/2000/svg">
<path d="M10.2437 0.21244C23.2099 -0.191155 23.5124 2.02759 24.0762 14.0206C21.6906 12.4888 19.2637 10.807 16.8987 9.21737C11.3437 6.86387 3.48563 10.2164 0 7.65111L0.2062 6.1825C3.44432 2.21668 5.28681 1.78007 10.2437 0.21244Z" fill="#6C4F43"/>
<path d="M9.49436 3.04794C13.2206 2.61616 22.0412 1.66938 21.0718 8.29192L20.0269 7.79757C14.9463 5.60083 12.8837 5.75621 7.51436 4.61968L7.32184 4.08546L9.49436 3.04794Z" fill="#C07D61"/>
<path d="M73.6244 0C73.9337 0.180827 74.47 0.80514 74.7519 1.09529C71.8438 5.57815 64.0062 12.7789 58.6231 13.8316C56.4368 14.2599 54.6218 12.8367 52.9718 11.6314C51.2118 9.59002 50.0844 8.24311 49.555 5.60771C51.1225 1.04715 60.5963 4.80671 65.5669 3.48042C69.3756 2.46627 70.2556 1.85846 73.6244 0Z" fill="#6C4F43"/>
<path d="M51.2324 5.38219C55.3093 6.24094 60.1218 6.66241 63.9031 7.65455L63.1262 8.93548C57.0212 13.6824 54.828 10.4103 51.2324 5.38219Z" fill="#C07D61"/>
</svg>
