<svg width="80" height="21" viewBox="0 0 80 21" fill="none" xmlns="http://www.w3.org/2000/svg">
<path d="M24.8552 1.04372C29.4435 7.00483 18.8052 28.6113 5.44016 17.7314C3.28141 16.2105 0.927437 14.3232 0 11.8129C0.8965 9.78392 2.6599 9.89806 4.7334 10.0823C17.5305 11.2195 16.0015 9.05099 24.8552 1.04372Z" fill="#6C4F43"/>
<path d="M22.035 7.92477C23.4575 13.7525 15.4687 20.7044 7.68969 16.5123C6.09606 15.1867 5.57767 15.2122 5.07098 13.461C6.68317 12.4984 13.0384 12.7782 15.4839 12.6737C18.3975 11.0635 19.4741 10.1043 22.035 7.92477Z" fill="#C07D61"/>
<path d="M53.8058 0C58.2182 2.28131 59.8125 6.55859 64.4545 8.90522C68.2948 10.8469 77.6235 6.85767 79.3375 10.7919C78.6541 12.9274 77.6084 13.6748 76.01 15.1922C62.4869 26.7686 53.2207 14.2544 53.8058 0Z" fill="#6C4F43"/>
<path d="M56.5916 6.42177C64.4415 12.7713 63.9354 12.0068 74.1544 12.1876L74.6213 12.7322L72.7739 14.8478C63.8784 20.6934 59.0783 14.7859 56.5916 6.42177Z" fill="#C07D61"/>
</svg>
