<?xml version="1.0" encoding="UTF-8"?>
<svg id="Layer_1" data-name="Layer 1" xmlns="http://www.w3.org/2000/svg" viewBox="0 0 1920 569.64">
  <defs>
    <style>
      .cls-1 {
        fill: #0f1c3f;
      }
    </style>
  </defs>
  <g>
    <path class="cls-1" d="M1147.82,282.55c-20.57,0-37.44,6.42-50.59,19.26-6.09,5.95-11.37,12.69-15.91,20.15v-8.79c0-9.41-2.12-16.67-6.34-21.77-4.23-5.1-10.81-7.66-19.73-7.66s-15.51,2.55-19.74,7.66c-4.23,5.11-6.34,12.36-6.34,21.77v175.84c0,9.41,2.11,16.71,6.34,21.89,4.22,5.18,10.8,7.78,19.74,7.78s15.51-2.59,19.73-7.78c4.22-5.18,6.34-12.48,6.34-21.89v-85.65c0-23.28,5.26-41.31,15.79-54.07,10.53-12.76,26.15-19.14,46.89-19.14,8.45,0,15.03-1.91,19.74-5.74,4.7-3.83,7.06-9.81,7.06-17.94,0-7.33-2.03-13.16-6.1-17.46-4.07-4.31-9.69-6.46-16.86-6.46Z"/>
    <path class="cls-1" d="M1392.77,283.74c-8.93,0-15.51,2.55-19.73,7.66-4.23,5.11-6.34,12.36-6.34,21.77v86.12c0,16.11-1.52,29.47-4.55,40.07-3.03,10.61-8.37,18.7-16.03,24.28-7.65,5.58-18.1,8.37-31.34,8.37s-23.65-2.79-31.22-8.37c-7.58-5.58-12.92-13.67-16.03-24.28-3.11-10.61-4.67-23.96-4.67-40.07v-86.12c0-9.41-2.11-16.67-6.34-21.77-4.23-5.1-10.81-7.66-19.74-7.66s-15.35,2.59-19.73,7.78c-4.39,5.18-6.58,12.4-6.58,21.65v88.76c0,37,8.37,65.87,25.12,86.6,16.74,20.73,43.14,31.1,79.18,31.1s62.67-10.32,79.42-30.98c16.75-20.65,25.12-49.56,25.12-86.72v-88.76c0-9.25-2.19-16.47-6.58-21.65-4.39-5.18-11.05-7.78-19.98-7.78Z"/>
    <path class="cls-1" d="M1726.24,282.55c-19.94,0-36.56,4.19-49.88,12.56-13.32,8.37-23.08,20.14-29.3,35.29-5.11-14.83-13.96-26.51-26.55-35.05-12.6-8.53-27.43-12.8-44.5-12.8-20.09,0-36.64,5.23-49.64,15.67-5.78,4.64-10.81,10.05-15.19,16.12v-1.17c0-19.62-8.69-29.43-26.07-29.43-8.77,0-15.31,2.59-19.62,7.78-4.31,5.18-6.46,12.4-6.46,21.65v176.08c0,9.41,2.15,16.67,6.46,21.77,4.31,5.1,10.84,7.66,19.62,7.66,17.38,0,26.07-9.81,26.07-29.43v-87.8c0-23.28,4.26-40.99,12.8-53.11,8.53-12.12,21.73-18.18,39.59-18.18,12.76,0,22.85,2.83,30.26,8.49,7.42,5.66,12.72,13.72,15.91,24.16,3.19,10.45,4.78,23.33,4.78,38.64v87.56c0,9.41,2.11,16.71,6.34,21.89,4.22,5.18,10.8,7.78,19.74,7.78s15.59-2.59,19.98-7.78c4.38-5.18,6.58-12.48,6.58-21.89v-87.56c0-15.31,1.59-28.19,4.78-38.64,3.19-10.44,8.61-18.5,16.27-24.16,7.65-5.66,17.86-8.49,30.62-8.49,18.66,0,31.85,6.02,39.59,18.06,7.73,12.04,11.6,29.79,11.6,53.23v87.56c0,9.41,2.11,16.71,6.34,21.89,4.22,5.18,10.8,7.78,19.74,7.78,17.54,0,26.31-9.89,26.31-29.67v-90.43c0-36.84-7.66-65.39-22.97-85.65-15.31-20.25-39.71-30.38-73.2-30.38Z"/>
    <path class="cls-1" d="M1915.93,187.93c-2.71-4.86-6.46-8.69-11.24-11.48-4.78-2.79-10.29-4.19-16.51-4.19s-11.24,1.4-16.03,4.19c-4.79,2.79-8.53,6.62-11.24,11.48-2.71,4.87-4.07,10.33-4.07,16.39s1.35,11.48,4.07,16.27c2.71,4.78,6.46,8.57,11.24,11.36,4.78,2.79,10.12,4.19,16.03,4.19s11.48-1.39,16.27-4.19c4.79-2.79,8.57-6.58,11.36-11.36,2.79-4.78,4.19-10.21,4.19-16.27s-1.36-11.52-4.07-16.39Z"/>
    <path class="cls-1" d="M1888.19,283.74c-8.77,0-15.31,2.51-19.62,7.54-4.31,5.03-6.46,12.32-6.46,21.89v175.84c0,9.41,2.15,16.71,6.46,21.89,4.31,5.18,10.84,7.78,19.62,7.78s15.79-2.59,20.09-7.78c4.31-5.18,6.46-12.48,6.46-21.89v-175.84c0-9.57-2.15-16.87-6.46-21.89-4.31-5.02-11-7.54-20.09-7.54Z"/>
    <path class="cls-1" d="M1032.09,245.89c-3.89,9.22-12.83,14.74-22.24,14.74-3.13,0-6.31-.61-9.36-1.89-31.62-13.36-65.26-21.51-100.35-24.32v252.43c0,10.38-2.27,18.28-6.82,23.69-4.54,5.41-11.59,8.13-21.17,8.13s-16.42-2.72-21.05-8.13c-4.63-5.41-6.93-13.31-6.93-23.69v-252.43c-35.07,2.81-68.73,10.95-100.35,24.32-12.27,5.18-26.41-.57-31.6-12.85-5.18-12.26.57-26.41,12.85-31.61,5.07-2.14,10.18-4.16,15.35-6.08,41.52-15.37,85.77-23.16,131.74-23.16s90.24,7.79,131.76,23.16c5.16,1.91,10.27,3.93,15.35,6.08,12.27,5.2,18.03,19.35,12.85,31.61Z"/>
  </g>
  <g>
    <path class="cls-1" d="M254.34,429.92c-88.11,0-173.3-26.78-239.88-75.4-11.19-8.17-13.63-23.87-5.46-35.06,8.17-11.19,23.86-13.63,35.05-5.46,58.05,42.4,132.73,65.74,210.29,65.74s152.27-23.35,210.28-65.74c11.19-8.17,26.88-5.73,35.05,5.46,8.17,11.19,5.73,26.88-5.45,35.06-66.54,48.62-151.73,75.4-239.88,75.4Z"/>
    <ellipse class="cls-1" cx="254.34" cy="260.21" rx="90.27" ry="90.27"/>
    <path class="cls-1" d="M254.34,459.19h0c-29.23,0-54.31,20.85-59.64,49.6l-8.52,45.92c-1.44,7.76,4.52,14.93,12.41,14.93h111.5c7.9,0,13.85-7.17,12.41-14.93l-8.52-45.92c-5.33-28.75-30.41-49.6-59.64-49.6Z"/>
    <path class="cls-1" d="M224.83,52.03c0-34.86,13.21-52.03,29.51-52.03s29.51,17.16,29.51,52.03c0,26.53-17.09,67.72-25.26,85.89-1.65,3.67-6.85,3.67-8.5,0-8.17-18.17-25.26-59.36-25.26-85.89Z"/>
    <path class="cls-1" d="M444.5,118.58c24.65-24.65,46.13-27.45,57.65-15.92,11.52,11.52,8.73,33-15.92,57.65-18.76,18.76-59.97,35.8-78.59,42.87-3.76,1.43-7.44-2.25-6.01-6.01,7.07-18.62,24.11-59.83,42.87-78.59Z"/>
    <path class="cls-1" d="M22.45,160.31C-2.2,135.66-4.99,114.18,6.53,102.65c11.52-11.52,33-8.73,57.65,15.92,18.76,18.76,35.8,59.97,42.87,78.59,1.43,3.76-2.25,7.44-6.01,6.01-18.62-7.07-59.83-24.11-78.59-42.87Z"/>
  </g>
</svg>