<svg width="97" height="30" viewBox="0 0 97 30" fill="none" xmlns="http://www.w3.org/2000/svg">
<path d="M72.8632 7.36248C77.5787 6.09899 79.4331 8.43235 80.8633 9.86248C82.2934 11.2926 83.3633 14.3625 83.3633 16.3625C83.3633 18.3625 83.9997 24.4998 78.5 27C76.0807 27.5707 70.6715 27.3941 68.8632 21.8624C67.055 16.3308 68.1478 8.62597 72.8632 7.36248Z" fill="#266BFF"/>
<path d="M18.8246 7.8952C23.54 6.6317 25.3945 8.96507 26.8246 10.3952C28.2547 11.8253 29.3246 14.8952 29.3246 16.8952C29.3246 18.8952 29.3246 24.8623 24.3246 26.8952C21.9053 27.4659 16.3082 28.5316 14.5 23C12.6918 17.4684 14.1092 9.15869 18.8246 7.8952Z" fill="#266BFF"/>
<path d="M66 11.6788C66.7075 -2.32092 81.237 -2.00986 88.0453 3.65491C92.3477 7.23501 90.7994 8.66788 96.8673 11.2208C96.4789 13.3034 92.184 18.8753 90.6571 20.511C89.1769 21.6833 87.0223 23.5033 85.4858 24.4604C81.3821 27.2986 74.5304 31.0045 69.8554 26.501C65.958 22.747 65.747 16.6849 66 11.6788ZM80.5 24.4604C85.4858 18.6788 81.5 6.17883 74.5 7.67883C70.9407 8.44152 69 13.1788 69 15.1788C69 17.7011 69.3769 21.6235 70.9602 23.5872C73.2572 26.4268 77.682 27.7281 80.5 24.4604Z" fill="#6B4F42"/>
<path d="M67.9999 10.6791C67.9999 9.17914 67.9999 7.67917 70.9999 4.679C74 1.67883 82.8987 2.81637 86.4999 7.17893C90.1012 11.5415 89.5922 15.6926 90.6571 20.511C89.5 22.1789 82.9999 26.6789 80.4999 27.1789C83.9999 25.6789 86.874 12.3855 81 8.04153C76.5904 4.78114 71.5 5.67914 67.9999 10.6791Z" fill="#FDFCFC"/>
<path d="M30.8673 12.3579C30.1598 -1.64184 15.6303 -1.33079 8.822 4.33399C4.51963 7.91409 6.06787 9.34696 0 11.8999C0.388438 13.9825 4.68326 19.5544 6.2102 21.1901C7.69039 22.3624 9.845 24.1824 11.3816 25.1394C15.4852 27.9777 22.3369 31.6836 27.0119 27.1801C30.9093 23.426 31.1203 17.364 30.8673 12.3579ZM16.3673 25.1394C11.3816 19.3579 15.3673 6.8579 22.3673 8.3579C25.9266 9.1206 27.8673 13.8579 27.8673 15.8579C27.8673 18.3802 27.4904 22.3026 25.9071 24.2662C23.6101 27.1058 19.1853 28.4072 16.3673 25.1394Z" fill="#6B4F42"/>
<path d="M28.8673 11.3582C28.8673 9.85816 28.8674 8.35819 25.8673 5.35802C22.8673 2.35785 13.9686 3.49539 10.3673 7.85795C6.76605 12.2205 7.27514 16.3717 6.2102 21.1901C7.36736 22.858 13.8673 27.3579 16.3673 27.8579C12.8674 26.3579 9.99323 13.0645 15.8672 8.72055C20.2769 5.46016 25.3673 6.35816 28.8673 11.3582Z" fill="#FDFCFC"/>
</svg>
