<svg width="85" height="21" viewBox="0 0 85 21" fill="none" xmlns="http://www.w3.org/2000/svg">
<path d="M62.3632 5.53094C66.8632 0.530935 74.0972 3.06762 75 5.53084C75.9028 7.99406 78 16.3504 71 19.0001C64 21.6498 57.8632 10.5309 62.3632 5.53094Z" fill="#266BFF"/>
<path d="M21.5 5.50011C17 0.500113 9.92452 4.06766 9.02175 6.53087C8.11898 8.99409 6.5 16.3504 13.5 19.0001C20.5 21.6498 26 10.5001 21.5 5.50011Z" fill="#266BFF"/>
<path d="M74.2412 19.5832C70.9191 20.3623 69.58 20.6564 67.0775 20.4426C59.5 19.5832 58.0906 11.686 59.5 7.53246C64.2505 -6.4673 88.1838 1.20203 83.4675 13.0521C80.4288 16.0237 77.5634 18.804 74.2412 19.5832ZM71.0856 17.8155C77.5 15 76 1.24656 65.62 4.02789C58.5 8.1386 62 20.2499 71.0856 17.8155Z" fill="#6B4F42"/>
<path d="M69.5 20.5323C72 20.0323 77 17.0323 77.5 13.0522C78 9.07211 76.5 7.03232 75 4.53232C80 5.53232 83.0324 8.53232 83.5 13.0522C81 17.0323 75.5 20.5323 69.5 20.5323Z" fill="#FDFCFC"/>
<path d="M9.83844 19.5857C13.1606 20.3648 14.4997 20.659 17.0022 20.4452C24.5797 19.5857 25.989 11.6886 24.5797 7.53503C19.8292 -6.46474 -4.10409 1.2046 0.612161 13.0546C3.65091 16.0262 6.5163 18.8066 9.83844 19.5857ZM12.994 17.818C5.51501 13.5 9 1.49573 18.4597 4.03045C25 7.80648 22.5 20.3651 12.994 17.818Z" fill="#6B4F42"/>
<path d="M14.5797 20.5326C12.0797 20.0326 7.07969 17.0326 6.57969 13.0525C6.07969 9.07235 7.57969 7.03256 9.07969 4.53256C4.07969 5.53256 1.04724 8.53256 0.579693 13.0525C3.07969 17.0326 8.57969 20.5326 14.5797 20.5326Z" fill="#FDFCFC"/>
</svg>
