<svg width="88" height="27" viewBox="0 0 88 27" fill="none" xmlns="http://www.w3.org/2000/svg">
<path d="M13.3961 3.63611C17.3962 0.583724 21.3512 1.91534 22.3962 6.68845C23.6474 12.3906 22.3962 20.4243 19.3962 23.6079C16.3963 26.7915 12.3962 22.9679 10.8962 20.4243C9.39622 17.8806 9.39605 6.68851 13.3961 3.63611Z" fill="#266BFF"/>
<path d="M67.5087 3.29086C70.8962 1.10781 75.4637 1.59962 76.5087 6.29081C77.76 11.8951 78.4731 20.9227 73.4731 24C68.4731 27.0773 66.5087 22.2909 65.0087 19.7909C63.5088 17.2909 64.1211 5.47391 67.5087 3.29086Z" fill="#266BFF"/>
<path d="M15.1912 0.00405809C21.0199 -0.0784117 22.3124 1.04864 23.9732 7.76578C25.634 14.4829 22.6432 27.7658 14.9731 26.2656C7.30313 24.7655 7.97314 22.7656 1.17999 19.5726C-4.03126 13.5331 9.36263 0.0865279 15.1912 0.00405809ZM21.4732 19.5726C23.4732 15.2658 24.4732 2.26578 15.9732 3.26578C7.47317 4.26578 10.9732 18.7658 13.4732 22.2658C15.9732 25.7658 19.4732 23.8794 21.4732 19.5726Z" fill="#6B4F42"/>
<path d="M72.1996 0.269683C66.371 0.187213 65.0785 1.31427 63.4177 8.0314C61.7569 14.7485 64.7477 28.0314 72.4177 26.5312C80.0877 25.0311 79.4177 23.0312 86.2109 19.8382C91.4221 13.7987 78.0282 0.352153 72.1996 0.269683ZM65.9177 19.8382C63.9177 15.5314 62.9177 2.5314 71.4177 3.5314C79.9177 4.5314 76.4177 19.0314 73.9177 22.5314C71.4177 26.0314 67.9177 24.145 65.9177 19.8382Z" fill="#6B4F42"/>
<path d="M77.6731 6.36563C79.1181 14.4794 79.6731 21.3656 73.1731 26.3656C79.6731 25.3656 81.4819 23.9765 86.4663 19.6724C83.9913 13.2644 82.6575 11.2404 77.6731 6.36563Z" fill="#FDFCFC"/>
<path d="M9.97314 6.26544C8.52818 14.3792 7.97314 21.2654 14.4731 26.2654C7.97314 25.2654 6.16437 23.8767 1.17999 19.5726C3.65499 13.1646 4.98877 11.1402 9.97314 6.26544Z" fill="#FDFCFC"/>
</svg>
