<svg width="102" height="32" viewBox="0 0 102 32" fill="none" xmlns="http://www.w3.org/2000/svg">
<path d="M8 7C12.2781 9.40918 32 19 36.5 21C34 23 34.2603 22.8264 31 25C27.7397 27.1736 31 25 24.5 29.5C20.5 24 11.7781 12.4092 8 7Z" fill="#266BFF"/>
<path d="M94 7C89.7219 9.40918 70 19 65.5 21C68 23 67.7397 22.8264 71 25C74.2603 27.1736 71 25 77.5 29.5C81.5 24 90.2219 12.4092 94 7Z" fill="#266BFF"/>
<path d="M0 0C5.5 3 33.3125 16.5904 39.5 20L32.3356 25.812L23.5 31.9998C13 17.9998 7.73877 9.94748 0 0ZM30.1493 22.9366L32.3356 21.1125C31.8956 19.0326 14.5363 10.4836 11.6213 9.45086C15.2238 15.1328 18.95 23.651 24.4912 25.812C27.4406 25.6215 27.3306 24.9965 30.1493 22.9366Z" fill="#6B4F42"/>
<path d="M101.5 3.05176e-05C96 3.00003 68.1875 16.5904 62 20L69.1644 25.812L78 31.9998C88.5 17.9998 93.7612 9.94751 101.5 3.05176e-05ZM71.3507 22.9366L69.1644 21.1125C69.6044 19.0327 86.9637 10.4836 89.8787 9.45089C86.2762 15.1329 82.55 23.651 77.0088 25.812C74.0594 25.6215 74.1694 24.9965 71.3507 22.9366Z" fill="#6B4F42"/>
</svg>
