<svg width="169" height="191" viewBox="0 0 169 191" fill="none" xmlns="http://www.w3.org/2000/svg">
<path d="M83.7954 0.03516C92.3066 -0.171107 99.5735 0.214604 100.027 10.1546C108.868 12.3342 125.808 14.0599 132.594 19.4167C142.37 27.8715 146.77 45.9013 152.896 56.3762C161.043 70.3109 165.409 80.5081 168.22 96.5384C169.754 105.263 168.825 112.805 158.41 114.103C151.267 114.992 150.167 110.761 144.543 107.192C140.514 104.593 143.271 98.4588 144.976 95.3057C140.837 83.8468 130.772 85.2343 129.672 70.6348L121.855 63.0785C121.168 68.1898 119.862 77.1563 120.233 81.9891L120.288 82.6072C120.914 90.6427 125.045 101.529 126.269 109.906C128.765 126.98 129.899 159.149 127.747 175.61C146.495 195.751 114.85 189.662 104.661 186.268C103.424 183.403 102.667 179.588 101.499 176.419C99.5941 171.213 95.7579 165.33 94.2592 160.138C93.5648 157.388 94.541 148.53 93.6267 146.421C88.0579 133.63 86.7104 126.471 85.8373 112.598C85.0192 112.861 83.0529 113.434 83.0529 114.524C83.0873 126.45 79.4091 135.583 75.2841 146.408C74.5966 148.217 75.6073 158.8 74.686 160.323C70.5679 167.152 67.0685 180.93 62.4898 186.743C55.7729 189.542 39.3073 193.947 35.6979 185.224C35.8492 180.722 38.0491 179.053 41.0123 175.722C39.1629 159.518 40.3454 132.743 41.686 115.91C42.5798 104.626 48.011 91.7558 48.7398 80.6972C48.9804 76.9486 47.571 67.1894 47.0417 63.0029L39.3004 70.5839C38.1729 82.9895 30.2116 84.1562 24.3129 93.7469C21.5835 99.1003 30.6792 99.3017 24.7942 106.39C18.751 113.659 11.7179 117.359 3.53664 110.598C-5.19461 103.383 4.73289 83.3154 6.80226 74.0327C7.69601 70.0366 12.646 63.3116 14.3992 59.2488C17.8848 50.9995 21.9892 43.5794 26.2723 35.7915C30.0192 28.9792 28.2385 25.5655 35.5879 19.7742C40.2354 13.307 65.8517 13.7505 68.6223 9.17209C72.9054 2.07858 68.3748 1.094 83.7954 0.03516Z" fill="#71564B"/>
<path d="M106.923 14.1284C109.308 14.7465 111.907 15.5592 114.3 16.2482C113.495 28.9549 114.21 34.6451 121.23 45.4514C120.357 56.5362 118.72 68.8503 117.455 80.0004C116.067 86.7983 100.412 87.9279 94.5067 88.4209C80.0829 89.6262 65.4804 88.546 52.026 82.9466C50.1354 71.6768 48.891 57.1172 47.5848 45.5456C55.4498 33.8702 54.6591 29.7593 54.7347 16.7432C56.3297 15.3103 58.9698 14.9301 61.1698 14.3691L62.0772 15.1983C62.9091 17.9499 64.0297 20.6079 65.4047 23.1306C67.8728 27.7001 73.5929 31.3187 78.4741 32.669C84.3729 34.2834 90.6772 33.4006 95.9091 30.2282C102.688 26.1916 105.149 21.3918 106.923 14.1284Z" fill="#FEFEFE"/>
<path d="M50.9466 86.5757C66.7798 93.5193 101.478 92.9425 117.806 86.6259C120.233 93.115 122.378 102.385 123.691 109.155C126.09 121.562 104.345 121.438 96.3284 121.697L88.9998 121.377C88.8348 118.734 88.6422 116.092 88.4291 113.452C90.1891 112.819 91.9422 112.156 93.6747 111.463L94.0735 110.441C91.5779 108.52 88.051 110.565 84.6547 110.459C81.6985 110.367 78.5153 109.471 75.7034 109.691L74.906 110.826L75.4079 111.859C77.2504 112.528 77.8072 112.538 79.7804 112.768C80.8185 114.462 80.0073 118.98 79.8148 121.413C72.8091 121.832 50.1835 122.234 46.361 115.475C43.2122 109.909 49.0216 93.2209 50.9466 86.5757Z" fill="#FEFEFE"/>
<path d="M123.945 45.9501C123.828 40.8629 113.64 35.6601 117.215 16.335C132.738 19.5294 134.849 22.9548 140.865 37.1618C150.215 59.2186 165.91 79.4065 166.288 104.271C166.343 108.274 156.719 115.466 151.83 109.525C151.054 104.72 153.879 105.579 152.023 103.385C149.486 105.087 148.812 106.331 146.523 105.926C143.608 101.727 144.625 99.882 147.595 96.711C148.255 92.2439 143.395 88.1516 140.624 85.0232C135.234 79.5626 132.69 77.359 131.721 69.8317C128.62 66.4193 125.465 63.0551 122.261 59.7404C122.687 55.0011 122.99 50.6255 123.945 45.9501Z" fill="#FEE6D0"/>
<path d="M123.945 45.9501C128.627 53.8735 127.63 60.0127 135.592 66.0219C136.396 69.3016 140.597 83.3655 140.624 85.0232C135.234 79.5626 132.69 77.359 131.721 69.8317C128.62 66.4193 125.465 63.0551 122.261 59.7404C122.687 55.0011 122.99 50.6255 123.945 45.9501Z" fill="#FDBF9D"/>
<path d="M123.127 38.7032C131.982 42.0736 133.701 38.9659 138.005 40.4647L138.465 42.5996C132.821 44.476 124.269 47.1987 123.127 38.7032Z" fill="#FDBF9D"/>
<path d="M27.1729 86.2973C24.5192 89.0819 20.0917 92.818 21.4323 97.0616C22.8554 98.4821 23.8179 99.1484 24.3129 101.073C24.1204 103.155 24.141 103.52 22.7935 105.081C19.8029 105.811 19.4592 105.025 16.1317 104.37L17.6991 107.305C17.3073 110.239 17.8092 109.225 15.9667 111.267C13.6361 112.187 11.9516 111.992 9.71727 111.176C-0.175854 107.411 2.2579 101.893 3.79103 94.1313C6.4929 80.4647 10.3292 71.1957 17.3829 59.321C21.116 53.0484 23.818 43.6516 28.2592 37.3047C29.5586 34.2197 30.7685 30.9222 32.0679 27.868C34.2198 22.8406 46.258 14.5467 51.5517 17.5286C57.6705 25.2856 45.1235 41.4047 44.9448 47.4221C45.8179 51.1184 46.141 55.9368 46.5192 59.7933C43.6179 63.0028 40.4485 66.1436 37.4098 69.2403C35.9042 78.8806 33.0304 79.0126 27.1729 86.2973Z" fill="#FEE6D0"/>
<path d="M44.9448 47.4221C45.8179 51.1184 46.141 55.9368 46.5192 59.7933C43.6179 63.0028 40.4485 66.1436 37.4098 69.2403C35.9042 78.8806 33.0304 79.0126 27.1729 86.2973C27.2073 82.1898 34.6598 65.9249 37.2654 62.2823C40.311 58.0208 42.4148 51.1288 44.9448 47.4221Z" fill="#FDBF9D"/>
<path d="M31.7516 39.6404C34.536 39.4582 41.6447 39.9518 44.2641 40.7535L44.4635 41.8268L42.8273 42.9482C38.9635 44.5158 34.0204 45.2446 31.2635 41.4019L31.7516 39.6404Z" fill="#FDBF9D"/>
<path d="M43.9754 118.425C52.9335 122.525 59.4991 123.49 69.2891 124.272C72.6991 124.231 76.2878 124.25 79.6772 124.137C78.2403 134.324 76.3841 135.745 72.596 145.219C71.496 147.988 72.9122 157.272 72.1216 159.331C69.1997 166.921 66.0028 172.794 63.2528 180.691C62.806 187.09 45.1922 188.785 40.5104 187.189C38.6885 185.505 39.1698 186.376 38.716 183.893C39.2523 181.042 41.7685 178.813 43.7829 176.624C41.7272 162.758 42.7654 156.352 43.1916 143.149C43.5491 132.295 42.3391 130.202 43.9754 118.425Z" fill="#FEE6D0"/>
<path d="M69.2891 124.272C72.6991 124.231 76.2878 124.25 79.6772 124.137C78.2403 134.324 76.3841 135.745 72.596 145.219C71.496 147.988 72.9122 157.272 72.1216 159.331C69.1997 166.921 66.0028 172.794 63.2528 180.691C63.1978 180.585 63.1359 180.482 63.0809 180.373C62.9984 180.193 62.9297 180.005 62.8541 179.823C60.8603 175.352 74.9472 131.952 71.8879 125.077L69.2891 124.272Z" fill="#FDBF9D"/>
<path d="M47.4335 147.677C50.5616 147.33 55.3466 148.578 57.3404 151.159C54.0404 152.723 49.4822 150.453 47.4335 147.677Z" fill="#FDBF9D"/>
<path d="M99.2916 124.267C109.02 123.593 116.067 122.507 124.867 118.335C126.558 129.156 125.369 132.667 125.76 142.678C126.29 156.12 126.936 162.894 125.121 176.721C127.135 178.872 129.645 181.058 130.208 183.877C128.854 191.495 110.615 186.405 106.339 183.687L105.933 182.121C104.778 179.642 104.407 175.812 103.403 173.818C97.071 161.253 95.7304 158.026 97.2223 144.083C91.3991 136.021 90.691 133.549 89.1304 124.129C92.4304 124.246 95.9641 124.225 99.2916 124.267Z" fill="#FEE6D0"/>
<path d="M89.1304 124.129C92.4304 124.246 95.9641 124.225 99.2916 124.267L96.5416 125.076C92.0591 134.82 109.04 169.899 105.933 182.121C104.778 179.642 104.407 175.812 103.403 173.818C97.071 161.253 95.7304 158.026 97.2223 144.083C91.3991 136.021 90.691 133.549 89.1304 124.129Z" fill="#FDBF9D"/>
<path d="M119.497 145.54C120.329 146.218 119.951 145.859 120.343 147.169C118.789 149.091 115.475 150.303 113.103 151.398C112.657 150.829 112.636 150.446 112.382 149.697C113.695 147.829 117.284 146.536 119.497 145.54Z" fill="#FDBF9D"/>
<path d="M70.341 12.7219C73.5242 9.92009 69.1035 5.05218 76.9479 3.29548C82.1592 2.12801 92.5542 1.53052 96.5485 5.76999C97.5798 9.35491 96.4523 11.0931 98.7967 12.8209C100.935 12.9302 101.526 12.8394 103.245 14.0516C105.383 20.0677 98.8311 24.6427 95.0292 27.9595C85.8029 36.0183 62.5242 25.9504 65.5354 14.3294C67.4192 12.6304 67.3367 13.1296 70.341 12.7219Z" fill="#FEE6D0"/>
<path d="M70.341 12.7219C73.5242 9.92009 69.1035 5.05218 76.9479 3.29548C82.1592 2.12801 92.5542 1.53052 96.5485 5.76999C97.5798 9.35491 96.4523 11.0931 98.7967 12.8209C95.7854 21.8629 74.6998 20.6735 70.341 12.7219Z" fill="#FDBF9D"/>
</svg>
