<svg width="183" height="187" viewBox="0 0 183 187" fill="none" xmlns="http://www.w3.org/2000/svg">
<path d="M87.8674 0.172372C95.236 -0.0297693 102.253 -1.23094 103.859 7.25969C108.162 10.736 117.571 8.65062 126.589 17.0257C139.292 28.8208 140.563 36.3873 147.663 51.5135C151.799 60.3218 161.538 71.9539 166.799 80.6535C168.796 83.8005 180.771 87.6054 182.998 92.1302C183.429 101.905 169.564 99.1096 163.769 99.289C162.951 99.3145 162.036 102.627 161.697 103.49C159.766 104.546 160.632 104.313 158.358 104.294C153.803 102.056 143.005 86.0062 138.014 80.2774C145.14 101.781 143.799 119.428 134.564 138.442C133.819 139.975 134.659 149.468 134.442 152.167C133.475 163.433 127.216 172.788 121.5 182.486C118.034 188.366 100.419 188.07 98.2321 183.174C98.0286 182.718 99.1059 171.104 98.7106 168.81C95.4285 149.756 93.2539 131.222 92.9425 111.88C92.8579 111.222 92.6084 110.86 92.3189 110.217L91.0973 110.104C90.2118 111.951 89.8749 127.031 89.7566 130.209C89.2224 144.604 86.7461 158.082 84.1886 172.216C83.9981 173.267 85.1256 181.143 85.2233 182.97C82.2636 187.821 70.5547 187.54 66.6662 185.878C57.8195 182.098 48.6654 159.008 49.1728 150.322C49.9112 137.687 46.9199 136.116 43.5958 126.146C38.8541 111.922 41.2033 94.5862 45.1702 80.6054C40.4147 86.0474 36.3447 91.2426 32.2562 97.181C30.0273 100.419 26.8916 104.723 22.5913 104.393C20.4387 102.364 20.9935 102.487 20.0441 99.2382C17.4839 97.8053 8.01766 101.228 3.83423 98.6139C1.83498 97.3646 -1.37219 92.7992 0.637377 91.0253C6.03219 86.2633 13.4971 84.9528 18.0167 78.6445C23.5985 70.0047 32.1854 59.1378 36.3262 49.862C43.3483 34.1335 49.5165 17.9704 66.8959 10.7607C69.4884 9.6847 75.887 8.62244 79.1079 7.73893C80.3695 2.07691 82.6417 1.35566 87.8674 0.172372Z" fill="#71564B"/>
<path d="M108.784 11.2098C111.061 11.6973 113.447 11.92 115.014 13.5874C115.822 17.4617 116.92 21.2701 118.297 24.9802C119.821 28.9749 127.56 44.4016 126.604 46.6279C119.99 62.0278 118.763 56.9536 132.014 73.9575C129.996 75.6695 127.284 77.22 124.994 78.6253C105.022 87.886 69.4457 87.2741 51.2318 74.0001C53.4696 71.0863 60.7571 62.2684 61.6062 59.3078C62.6086 55.8122 55.9027 50.0938 57.1271 43.4397C58.6458 35.1855 63.426 30.8519 66.2778 23.1767C67.0003 21.2309 67.7098 16 68.0969 13.7647C69.7854 12.0369 71.8314 11.7997 74.2452 11.1548C75.2881 16.2207 75.5556 20.3715 78.7346 24.6886C86.4738 35.1972 100.937 32.3893 106.51 21.3072C108.211 17.9217 108.356 14.9762 108.784 11.2098Z" fill="#FEFEFE"/>
<path d="M49.4657 77.3084C72.6901 90.9667 110.411 90.603 133.758 77.2905C136.035 82.56 137.811 88.0315 139.062 93.6337C141.571 105.279 137.312 108.586 126.382 111.102C120.696 112.411 115.289 113.281 109.504 114.128C104.913 114.227 99.7068 114.676 95.4134 113.288L94.9679 112.333C96.8152 109.282 101.514 106.994 104.344 103.222L103.948 102.613C100.739 102.69 97.4243 107.474 92.4317 107.469C86.5068 107.464 84.5241 102.247 78.7339 103.176C79.4524 105.935 86.2098 107.95 88.2675 111.938C88.0509 112.89 88.1479 113.562 87.36 113.722C76.9354 115.838 61.8393 112.531 51.7633 109.395C49.3749 108.652 44.8175 106.558 44.262 105.035C41.7182 98.0602 46.9914 83.7274 49.4657 77.3084Z" fill="#FEFEFE"/>
<path d="M104.599 116.962C116.786 116.214 129.073 113.824 140.091 108.428C138.767 120.371 136.565 127.414 132.346 138.576C131.376 142.202 132.78 149.003 132.19 152.306C130.562 161.43 124.201 175.222 118.166 181.904C115.242 185.14 96.899 188.395 102.336 175.843C100.5 164.174 98.3215 151.93 96.8468 140.253C95.8967 132.727 96.3593 125.12 95.2394 117.136L104.599 116.962Z" fill="#FEE6D0"/>
<path d="M95.2394 117.136L104.599 116.962C100.33 118.777 101.039 124.675 101.009 129.046C100.95 137.566 101.075 146.08 101.682 154.575C102.183 161.575 105.13 169.266 102.336 175.843C100.5 164.174 98.3215 151.93 96.8468 140.253C95.8967 132.727 96.3593 125.12 95.2394 117.136Z" fill="#FDBF9D"/>
<path d="M43.1523 108.419C54.1888 113.976 65.4239 115.677 77.5273 116.981L87.5373 117.054C87.2733 127.448 87.0678 138.636 85.5636 148.897C84.2545 157.832 81.8909 166.388 80.8858 175.48C82.0731 177.989 82.5055 179.377 82.0215 181.857C78.7016 185.677 68.7466 185.518 65.8398 182.469C59.0027 175.297 53.1809 162.247 51.1899 152.458C50.4846 148.988 51.9434 142.477 51.0675 138.711C46.9116 127.74 44.6765 120.251 43.1523 108.419Z" fill="#FEE6D0"/>
<path d="M77.5273 116.981L87.5373 117.054C87.2733 127.448 87.0678 138.636 85.5636 148.897C84.2545 157.832 81.8909 166.388 80.8858 175.48C78.7724 167.008 84.7165 121.748 82.3742 117.972L77.5273 116.981Z" fill="#FDBF9D"/>
<path d="M128.563 49.7196C130.244 34.0495 120.359 31.502 117.805 14.0402C135.313 25.6998 136.567 33.6837 144.921 51.8214C147.997 58.4989 159.529 74.1498 163.756 81.2701C165.63 84.4287 178.008 90.3383 180.226 92.6884C178.025 101.391 162.63 94.683 160.011 95.31C159.855 98.1097 160.64 100.416 159.476 102.047C155.703 101.096 149.233 89.5545 145.606 85.2222C136.656 75.901 131.476 68.7593 123.162 59.2064L128.563 49.7196Z" fill="#FEE6D0"/>
<path d="M123.162 59.2064L128.563 49.7196C132.089 55.1196 145.122 79.5691 145.606 85.2222C136.656 75.901 131.476 68.7593 123.162 59.2064Z" fill="#FDBF9D"/>
<path d="M23.8068 94.5145C18.5488 96.2128 7.71036 99.6114 3.53242 94.694C3.40867 94.1013 3.2684 93.4288 3.11096 92.6767C6.01771 89.5256 13.5273 86.8283 16.7551 84.0705C18.0586 82.956 20.4924 79.7705 20.8973 79.1655C26.7376 70.2603 33.5205 60.9198 38.4265 51.4914C42.8959 42.9017 45.406 32.9487 52.2109 25.5444C54.8729 22.6484 60.2787 16.5133 63.965 15.6532C67.2499 19.7455 55.1403 37.1765 54.6253 42.7711C54.3276 46.0081 54.5332 47.047 54.9499 50.2902C56.6714 54.6039 57.253 55.7673 60.3866 59.1638C53.337 66.4993 46.3705 76.7955 39.6461 83.1265C36.3612 86.8792 27.5633 101.268 23.8927 101.011C22.7412 98.9774 23.4225 96.9712 23.8068 94.5145Z" fill="#FEE6D0"/>
<path d="M54.9499 50.2902C56.6714 54.6039 57.253 55.7673 60.3866 59.1638C53.337 66.4993 46.3705 76.7955 39.6461 83.1265C40.4677 72.9617 52.0576 60.5884 54.9499 50.2902Z" fill="#FDBF9D"/>
<path d="M76.8577 11.2212C78.0031 11.0988 81.1182 11.1284 81.3244 10.0634C82.9675 1.59749 92.2013 0.27808 98.8563 3.51784C103.401 5.73109 98.1627 11.0933 106.168 10.9764C106.215 15.2304 105.274 19.5544 102.687 23.0238C100.576 25.9012 97.3913 27.803 93.8562 28.2973C82.6059 29.7962 78.0327 20.8126 76.8577 11.2212Z" fill="#FEE6D0"/>
<path d="M76.8577 11.2212C78.0031 11.0988 81.1182 11.1284 81.3244 10.0634C82.9675 1.59749 92.2013 0.27808 98.8563 3.51784C103.401 5.73109 98.1627 11.0933 106.168 10.9764C103.835 11.391 100.542 15.1018 97.7013 17.1163C82.0318 18.0782 87.4487 12.3261 76.8577 11.2212Z" fill="#FDBF9D"/>
</svg>
