<svg width="203" height="190" viewBox="0 0 203 190" fill="none" xmlns="http://www.w3.org/2000/svg">
<path d="M97.8382 0.349438C98.2507 0.276557 98.6562 0.210536 99.0756 0.178221C118.264 -1.28352 112.537 6.67701 118.394 8.36565C123.056 9.70845 128.033 9.52418 132.639 11.3022C150.858 18.3263 159.012 34.6186 167.523 50.726C170.225 55.827 173.278 60.743 176.138 65.7539C178.558 69.9968 181.101 76.8215 184.718 79.9492L185.061 80.2441C190.128 84.6308 200.702 88.6701 202.833 92.1519C203.349 102.536 187.777 99.1732 181.342 100.686C181.198 101.083 181.046 101.479 180.888 101.875C179.733 104.848 179.534 106.101 176.846 107.284C171.022 106.506 168.348 97.904 167.303 93.1289C161.597 87.7639 155.691 82.7792 149.937 77.2918C151.786 90.9851 156.138 112.29 153.787 125.396C150.913 141.399 147.531 158.192 144.787 174.43C157.066 196.057 124.183 189.666 113.499 182.976C107.814 162.146 106.721 140.697 103.627 119.242C103.056 117.363 103.503 117.979 102.073 116.707L100.746 117.178C97.2675 122.877 96.0162 149.553 94.7787 156.968C93.3831 165.324 91.4513 174.521 89.7738 182.878C78.8907 189.698 45.1687 195.719 58.1625 174.472C56.5537 166.182 55.6325 156.919 53.9344 148.732C52.0232 139.507 49.7681 133.455 49.1425 123.851C48.0837 107.44 50.7719 93.4823 52.9375 77.41C47.6575 82.5261 41.3188 87.9654 35.7982 92.9261C34.7119 97.8944 32.6219 103.653 28.4556 106.839C22.5225 108.281 22.3369 101.045 21.4432 100.808C14.7882 99.0453 1.82875 102.774 0 92.8257C2.45438 86.8618 14.2312 85.4345 18.5625 79.7072C35.64 57.0996 41.525 23.0656 70.0287 11.5978C73.8306 10.068 84.9407 8.82976 87.0994 6.84616C89.4163 0.35838 91.5132 1.10919 97.8382 0.349438Z" fill="#71564B"/>
<path d="M75.46 11.7044C80.4787 11.6748 79.5644 14.2703 82.61 18.2499C92.51 31.1938 112.324 30.4231 121.433 17.101C122.664 15.2996 122.389 13.2197 123.997 11.8666C126.39 11.9773 126.802 12.2097 128.927 13.1489C130.632 15.9933 129.807 23.0786 131.368 27.2136C134.42 35.2889 136.613 43.7169 139.212 51.8769C142.629 62.6364 147.854 74.6329 148.397 86.036C144.368 88.5215 142.663 89.3734 138.346 91.2133C115.466 98.7874 75.3225 99.3588 54.5256 85.8593C55.8456 64.1951 72.3663 35.7908 73.8719 13.162C73.8719 13.162 75.3087 11.8419 75.46 11.7044Z" fill="#FEFEFE"/>
<path d="M54.1612 90.0511C84.535 102.424 118.552 102.389 148.899 89.9521C150.783 97.7243 151.229 106.143 151.862 114.133C141.281 120.147 134.544 121.991 122.547 122.684C118.882 122.716 107.147 123.173 106.019 119.377C107.491 117.093 112.489 114.46 115.232 112.113L114.902 111.453C111.347 111.238 104.706 114.792 100.402 114.701C97.1712 114.633 89.9456 110.857 87.5737 111.265C86.2743 115.289 95.1362 114.226 97.3637 118.904C94.4074 123.962 83.4969 122.999 78.3544 122.669C68.1794 122.017 59.8125 118.995 51.0056 114.04C51.6519 106.082 52.1193 97.7607 54.1612 90.0511Z" fill="#FEFEFE"/>
<path d="M119.054 125.375C132.351 124.699 140.064 123.591 151.855 117.148C151.003 131.335 149.449 134.891 146.458 148.391C144.911 155.373 143.296 168.149 142.182 175.585C151.917 189.919 131.313 187.33 123.709 184.958C120.842 184.076 118.099 182.838 115.548 181.271C112.262 174.498 108.536 134.603 106.686 123.764C110.749 124.727 114.888 124.988 119.054 125.375Z" fill="#FEE6D0"/>
<path d="M106.686 123.764C110.749 124.727 114.888 124.988 119.054 125.375C113.589 132.616 118.113 175.128 115.548 181.271C112.262 174.498 108.536 134.603 106.686 123.764Z" fill="#FDBF9D"/>
<path d="M50.9437 116.877C61.8681 123.514 70.9431 124.771 83.4763 125.315C86.8725 124.997 92.8951 124.608 96.0507 123.956C94.9094 132.251 90.4338 178.007 86.57 182.02L82.885 183.579C76.9725 186.023 60.7681 190.153 57.9494 182.044C58.1419 179.046 58.9394 178.233 60.6719 175.782C59.9844 169.537 57.7569 153.385 56.4094 147.654C53.2194 134.125 52.0644 130.641 50.9437 116.877Z" fill="#FEE6D0"/>
<path d="M83.4763 125.315C86.8725 124.997 92.8951 124.608 96.0507 123.956C94.9094 132.251 90.4338 178.007 86.57 182.02C83.6894 163.763 90.1794 146.072 83.4763 125.315Z" fill="#FDBF9D"/>
<path d="M36.9943 88.1626C32.6425 91.775 30.9581 103.987 25.7262 104.053C23.9043 101.796 23.8562 100.082 22.8731 97.4095C17.2699 97.7492 5.47245 98.896 2.52307 93.2017C5.44495 89.9447 17.2356 85.7362 20.1368 81.866C22.7012 78.4488 25.2656 73.3939 27.5962 69.8158C43.5324 45.3478 43.7043 27.6996 71.2318 13.7017C70.6199 19.9921 69.6918 24.2006 68.1311 30.2841C64.8243 39.1302 56.1274 65.39 53.9824 74.439C48.0837 77.6292 42.3362 83.6742 36.9943 88.1626Z" fill="#FEE6D0"/>
<path d="M36.9943 88.1626C37.4068 84.6629 44.9762 74.0815 47.1006 70.2161C51.9543 61.4119 60.2386 34.7484 68.1311 30.2841C64.8243 39.1302 56.1274 65.39 53.9824 74.439C48.0837 77.6292 42.3362 83.6742 36.9943 88.1626Z" fill="#FDBF9D"/>
<path d="M131.938 13.6719C159.459 28.6152 158.599 43.4926 174.728 68.8317C177.237 72.7756 179.822 77.8188 182.689 81.6003C185.666 85.5332 197.594 90.2395 200.441 93.2036C197.333 99.1014 185.543 97.5723 179.919 97.3736C178.159 100.692 179.08 102.25 176.976 104.015C172.549 102.766 169.496 91.5087 164.395 86.7027C159.321 83.6293 156.296 78.4734 148.775 74.2676C146.444 63.3746 138.311 40.3525 134.647 28.8944C132.921 24.0052 132.206 18.8382 131.938 13.6719Z" fill="#FEE6D0"/>
<path d="M134.647 28.8944C145.152 37.7033 152.041 66.8504 161.081 78.8805C162.381 80.6042 164.196 84.4922 164.395 86.7027C159.321 83.6293 156.296 78.4734 148.775 74.2676C146.444 63.3746 138.311 40.3525 134.647 28.8944Z" fill="#FDBF9D"/>
<path d="M82.3832 11.711C84.6932 11.5446 86.9688 11.6327 88.8113 10.2685C89.43 8.5366 89.2582 7.90954 89.155 6.02632C92.2557 1.55308 108.384 1.90236 112.551 4.53226C115.294 8.69678 112.289 9.47166 116.559 11.4436C119.137 11.4147 119.701 11.3542 120.622 13.6589C117.783 25.3742 85.8138 31.4033 82.3832 11.711Z" fill="#FDBF9D"/>
<path d="M116.559 11.4436C119.137 11.4147 119.701 11.3542 120.622 13.6589C117.783 25.3742 85.8138 31.4033 82.3832 11.711C90.9013 11.2256 101.331 28.2082 116.559 11.4436Z" fill="#FEE6D0"/>
</svg>
