<svg width="181" height="189" viewBox="0 0 181 189" fill="none" xmlns="http://www.w3.org/2000/svg">
<path d="M85.0193 0.136811C89.5912 0.0158007 97.945 -0.823012 100.695 3.76505C101.098 4.52617 101.961 8.02789 102.701 8.23003C112.225 10.8379 116.285 11.6197 123.76 18.6671C132.236 26.6586 136.591 35.4937 142.144 45.5231C145.144 51.5138 151.311 59.3718 154.028 65.1322C160.242 78.3092 166.859 82.4049 178.948 89.7329C181.157 91.0716 181.032 96.1478 179.007 97.8743C173.865 102.257 166.123 100.353 160.198 99.1401C158.585 98.8155 160.181 103.89 154.493 104.434C151.044 103.269 145.662 92.3518 143.102 88.9175C138.642 82.933 133.899 77.6752 128.913 72.1329C135.635 106.128 134.135 139.357 126.225 173.041C127.779 177.777 132.37 179.924 130.964 184.638C129.245 186.687 126.713 187.325 124.166 188.283C115.179 187.302 108.959 186.376 100.76 182.451C97.3964 158.517 94.4477 133.027 91.6674 108.985L90.927 107.741L89.915 107.665C85.4765 115.39 84.2273 171.933 78.6627 182.444C76.5362 186.461 55.6686 190.293 49.6997 184.977C47.3113 178.935 55.1681 176.324 54.2578 172.392C46.4547 138.675 45.1168 106.171 51.7959 72.0524C46.3907 77.9626 40.6391 84.6876 35.5262 90.8784C33.5097 93.3199 32.4916 100.684 28.7914 103.031C26.3034 104.609 26.2903 104.491 23.8737 104.132C21.6187 102.728 21.4613 101.32 20.6762 98.7495C14.191 101.73 -2.14744 102.462 0.235432 91.3576C4.13081 86.3742 15.8547 82.3981 18.9292 77.4758C25.8379 66.4557 35.5509 51.1975 41.4999 40.1766C49.5814 25.2037 58.6502 11.9305 76.1863 8.84885C80.5891 8.07535 76.374 3.32226 85.0193 0.136811Z" fill="#71564B"/>
<path d="M71.2886 12.1167C73.8867 13.5228 74.0826 21.0625 79.74 24.9534C83.8025 27.7469 88.9965 28.5548 93.8778 28.0646C103.873 27.06 104.516 18.1225 108.652 12.8668C110.735 12.917 111.144 13.3 112.938 14.4214C114.237 17.5174 112.97 24.349 113.995 26.4584C121.862 42.6504 123.245 60.6396 127 78.0148C127.311 79.4511 124.714 80.7967 123.557 81.5427C110.987 85.7258 63.2187 88.4244 54.0042 78.7979C54.2805 67.5715 59.531 50.8928 61.1555 39.3233C61.9283 33.8214 69.5286 26.0651 67.231 17.8825C66.2588 14.42 68.5489 13.7345 71.2886 12.1167Z" fill="#FEFEFE"/>
<path d="M52.2855 83.252C71.2075 89.801 109.296 89.2358 128.232 83.2383C130.135 93.1528 130.417 102.508 130.352 112.556C121.86 117.972 109.887 119.083 99.989 118.966C93.7197 117.593 94.5103 113.104 93.9528 107.603C96.5735 107.223 97.3855 107.15 99.8818 106.167L99.3565 106.208L100.32 104.979C100.789 104.983 101.056 105.047 101.455 104.899C99.4507 104.049 93.4296 105.089 90.8377 105.074C87.7474 105.054 81.4355 103.129 79.0876 104.397L79.582 105.681C81.562 107.156 84.3374 107.293 86.8488 107.684C86.4535 110.66 86.1881 115.837 84.0019 117.774C77.4761 120.568 55.4404 117.814 50.9297 112.216C48.8266 106.113 51.3835 89.922 52.2855 83.252Z" fill="#FEFEFE"/>
<path d="M50.3473 115.973C58.7204 119.498 62.0809 119.961 71.2081 121.186C75.6343 121.116 81.1494 121.261 85.3885 120.319C83.2738 134.051 82.1861 147.947 80.3148 161.692C79.6396 166.652 79.5166 179.818 75.3675 182.07C69.64 182.804 57.707 187.518 52.3734 184.029C52.2008 183.583 52.0001 183.065 51.7711 182.474C54.2207 179.269 55.7813 176.674 57.2127 173.012C52.4016 156.218 50.0331 133.419 50.3473 115.973Z" fill="#FEE6D0"/>
<path d="M71.2081 121.186C75.6343 121.116 81.1494 121.261 85.3885 120.319C83.2738 134.051 82.1861 147.947 80.3148 161.692C79.6396 166.652 79.5166 179.818 75.3675 182.07C75.8728 162.471 77.5242 142.492 77.9037 122.478C76.7501 121.488 73.0596 121.397 71.2081 121.186Z" fill="#FDBF9D"/>
<path d="M108.709 121.177C117.863 120.127 121.746 119.481 130.299 116.034C130.616 135.148 128.347 154.217 123.555 172.724L123.782 173.446C125.229 177.942 128.066 180.202 128.174 182.904C124.786 188.301 111.178 183.111 105.668 182.254C104.137 181.196 103.028 180.412 102.685 178.544C101.619 172.727 101.007 166.645 100.291 160.771C98.724 147.284 97.0403 133.811 95.2424 120.352C99.1612 121.166 104.599 121.087 108.709 121.177Z" fill="#FEE6D0"/>
<path d="M95.2424 120.352C99.1612 121.166 104.599 121.087 108.709 121.177C106.13 121.49 104.61 121.244 102.722 122.589C101.533 131.459 107.281 177.234 105.668 182.254C104.137 181.196 103.028 180.412 102.685 178.544C101.619 172.727 101.007 166.645 100.291 160.771C98.724 147.284 97.0403 133.811 95.2424 120.352Z" fill="#FDBF9D"/>
<path d="M36.323 85.7601C31.1166 91.2035 30.6841 99.6693 25.2522 101.861C22.6665 99.9457 24.5461 99.1544 22.3365 95.6967C18.6742 95.3398 16.4687 98.869 12.5644 98.3829C8.29157 97.8501 3.30444 98.3314 2.57019 93.0956C5.30369 89.3718 16.7327 84.4001 21.3252 78.4466C36.521 58.7454 45.255 28.7514 65.5775 15.2959C64.5524 30.5899 58.4853 34.9813 56.3719 49.9797C55.7435 55.6252 54.6146 60.5976 53.8907 66.0314C48.4058 71.5174 41.0145 81.8685 36.323 85.7601Z" fill="#FEE6D0"/>
<path d="M36.323 85.7601C36.6956 82.9212 53.956 52.1977 56.3719 49.9797C55.7435 55.6252 54.6146 60.5976 53.8907 66.0314C48.4058 71.5174 41.0145 81.8685 36.323 85.7601Z" fill="#FDBF9D"/>
<path d="M124.363 50.5944C123.835 47.2329 123.283 43.9767 122.302 40.7101C120.406 34.3942 114.716 24.5518 116.038 17.9396L117.04 17.1736C130.841 23.231 147.085 62.6019 158.166 76.7098C166.278 87.0403 173.471 87.5649 178.114 92.943C178.054 97.7153 172.143 98.2695 168.232 98.4524C165.275 98.5913 161.862 95.2897 158.396 96.0418C155.928 98.5507 158.051 99.7196 155.584 101.725C150.94 100.241 148.168 89.9975 144.563 85.899C139.242 81.2443 133.804 72.7289 127.36 67.0132C125.974 61.389 125.238 56.3272 124.363 50.5944Z" fill="#FEE6D0"/>
<path d="M124.363 50.5944C128.733 54.5334 143.735 80.0768 144.563 85.899C139.242 81.2443 133.804 72.7289 127.36 67.0132C125.974 61.389 125.238 56.3272 124.363 50.5944Z" fill="#FDBF9D"/>
<path d="M81.0909 11.3665C81.3226 8.10546 80.928 6.39619 82.5677 3.89762C87.1616 1.30759 94.953 1.4561 99.0608 4.86088C100.125 8.22991 98.5535 8.47743 100.158 10.8L105.521 11.46C103.435 34.9628 72.9977 24.3999 75.9113 12.2535C77.9408 10.7196 77.8879 11.2682 81.0909 11.3665Z" fill="#FEE6D0"/>
<path d="M81.0909 11.3665C81.3226 8.10546 80.928 6.39619 82.5677 3.89762C87.1616 1.30759 94.953 1.4561 99.0608 4.86088C100.125 8.22991 98.5535 8.47743 100.158 10.8L105.521 11.46C97.1104 11.5288 88.7724 16.9302 81.0909 11.3665Z" fill="#FDBF9D"/>
</svg>
