<svg width="175" height="190" viewBox="0 0 175 190" fill="none" xmlns="http://www.w3.org/2000/svg">
<path d="M86.9852 0.0391954C87.0884 0.0261318 87.1915 0.0130636 87.2947 0C100.811 0.114822 95.4071 5.398 99.8621 10.0555C101.794 12.0797 116.287 16.8719 119.257 21.0131C129.927 35.92 138.397 54.0989 147.953 69.9423C149.775 72.9579 154.023 80.8772 156.052 83.0059C160.3 87.4695 169.355 90.2493 174.387 94.3684C175.033 96.6153 174.951 95.672 174.353 98.1995C168.619 105.647 157.674 101.37 155.502 102.392C153.666 105.578 153.693 106.759 149.891 106.232C143.965 101.823 141.174 93.1404 137.152 87.0109C129.61 75.5088 121.986 64.0623 114.135 52.7658C116.843 74.1825 116.885 100.455 116.85 122.072L116.933 178.203C120.219 181.465 122.433 183.143 120.02 187.769C114.135 192.359 98.3015 189.136 96.954 181.665C95.689 174.681 95.249 165.898 94.589 158.698C93.049 142.738 91.6396 126.766 90.354 110.783C87.9271 110.687 87.2947 110.714 84.8884 111.025C79.8765 121.288 83.0046 171.761 76.0059 184.761C72.4103 191.444 42.6999 193.442 57.695 178.228L57.8751 131.486C57.7706 105.498 57.5046 78.3422 60.5976 52.4516C49.7345 68.6312 38.6066 84.4333 29.2469 101.511C23.7744 111.498 19.5903 102.738 18.535 102.634C13.1079 102.098 2.85656 104.752 0 96.7762C0.0446875 96.1258 0.0983024 95.3392 0.161552 94.4165C4.07343 91.0895 14.6878 87.0288 18.1913 83.5099C20.5673 81.124 24.9081 73.2013 26.4846 70.436L43.4335 40.5066C46.6854 34.7277 50.4164 27.4342 54.483 22.1077C57.1725 16.678 73.8609 12.5225 75.9096 9.0001C79.6634 2.55977 74.3352 2.5749 86.9852 0.0391954Z" fill="#71564B"/>
<path d="M103.155 14.3896L109.164 17.5407C106.868 31.5222 110.271 37.2873 111.474 50.5482C112.519 61.9816 113.296 74.1685 114.121 85.672C104.159 93.3128 72.5409 90.2484 60.6361 86.1169C61.4391 69.1205 62.6862 50.8679 65.6995 34.1548C66.9989 26.9492 66.3272 25.5618 65.4624 18.4806C66.8257 16.3148 67.8384 16.2852 70.3821 14.8544C73.0909 16.125 73.6477 20.7688 76.8652 23.7452C89.3227 35.2879 98.6934 28.6282 103.155 14.3896Z" fill="#FEFEFE"/>
<path d="M60.6169 89.1519C76.6109 94.4488 97.8821 94.0314 113.983 89.2818C113.997 98.0241 114.19 106.766 114.554 115.5C108.415 119.048 105.369 118.928 98.5422 118.886C91.0828 117.553 92.9665 112.57 93.9565 106.77C92.1759 106.228 88.2434 108.443 85.7272 108.135C83.2934 107.836 82.3928 106.189 80.3097 106.79C79.4572 109.682 82.4271 111.863 81.6984 116.11C77.5871 121.654 65.5098 118.657 60.311 115.485L60.6169 89.1519Z" fill="#FEFEFE"/>
<path d="M33.2138 88.4484C30.7299 92.2658 28.237 102.712 23.4506 103.969L22.4132 103.34C21.7064 101.46 21.7566 100.65 21.6274 98.6834C18.5432 97.0106 9.89998 104.858 3.01123 97.0491C3.10611 94.1675 10.9312 91.3444 14.0862 89.9865C27.1913 84.3479 51.7735 20.7235 62.3995 20.0352C65.7126 23.594 63.1317 36.9127 61.5635 41.1845C61.3291 42.7989 60.6966 46.9091 59.9575 48.1783C53.7838 58.7887 40.8396 79.7536 33.2138 88.4484Z" fill="#FEE6D0"/>
<path d="M61.5635 41.1845C61.3291 42.7989 60.6966 46.9091 59.9575 48.1783C53.7838 58.7887 40.8396 79.7536 33.2138 88.4484C33.3637 82.8201 56.96 45.3071 61.5635 41.1845Z" fill="#FDBF9D"/>
<path d="M113.31 41.617C111.447 37.0564 109.082 24.4858 111.983 20.2876C121.127 19.6468 145.856 75.827 153.535 84.1746C157.763 88.7668 171.307 94.6454 172.153 96.431C166.825 104.314 158.54 98.0337 153.79 98.4132C152.703 101.093 152.69 102.559 150.648 103.885C146.296 102.162 144.178 93.0359 141.978 89.2268C134.168 79.2277 121.422 59.1448 114.004 48.1873L113.31 41.617Z" fill="#FEE6D0"/>
<path d="M113.31 41.617C117.524 45.0685 139.421 79.4257 142.583 86.9324C142.707 87.228 142.143 88.7091 141.978 89.2268C134.168 79.2277 121.422 59.1448 114.004 48.1873L113.31 41.617Z" fill="#FDBF9D"/>
<path d="M99.4153 121.409C105.953 121.463 108.552 121.038 114.685 118.781C114.884 139.175 114.918 159.57 114.774 179.964C116.513 181.446 118.074 182.439 118.521 184.69C116.617 189.82 106.331 186.378 102.605 184.905C101.918 184.637 101.237 184.349 100.563 184.044L99.6902 183.419C98.0127 180.292 93.9152 128.436 93.8465 121.695L94.8365 120.889C97.009 120.788 97.3322 120.789 99.4153 121.409Z" fill="#FEE6D0"/>
<path d="M100.563 184.044L99.6902 183.419C98.0127 180.292 93.9152 128.436 93.8465 121.695L94.8365 120.889C97.009 120.788 97.3322 120.789 99.4153 121.409C97.4766 126.283 101.388 173.512 100.563 184.044Z" fill="#FDBF9D"/>
<path d="M59.9459 118.704C65.9773 121.043 68.629 121.457 75.1121 121.419C77.2984 120.684 78.9484 120.61 81.2103 120.394L77.1471 164.263C76.7759 168.441 76.604 181.936 73.8128 184.269C71.7709 185.078 69.7015 185.797 67.5978 186.428C64.4518 187.338 57.134 188.705 56.1172 184.549C56.7621 182.283 58.0401 181.497 59.8146 179.991C59.7197 159.562 59.7637 139.133 59.9459 118.704Z" fill="#FEE6D0"/>
<path d="M75.1121 121.419C77.2984 120.684 78.9484 120.61 81.2103 120.394L77.1471 164.263C76.7759 168.441 76.604 181.936 73.8128 184.269C71.9359 179.246 75.6003 139.345 75.0503 131.013C74.899 128.694 75.6621 124.643 75.1121 121.419Z" fill="#FDBF9D"/>
<path d="M77.6627 12.873C80.839 8.85902 77.1884 3.48233 84.7165 2.76658C99.8072 1.33097 93.9771 7.77268 96.624 12.0548C98.3152 12.6756 98.6246 12.7891 100.055 13.874C100.488 17.0588 97.2359 22.9189 94.6234 24.963C87.6177 30.4531 73.4071 22.0821 75.4352 13.5282L77.6627 12.873Z" fill="#FDBF9D"/>
<path d="M96.624 12.0548C98.3152 12.6756 98.6246 12.7891 100.055 13.874C100.488 17.0588 97.2359 22.9189 94.6234 24.963C87.6177 30.4531 73.4071 22.0821 75.4352 13.5282L77.6627 12.873C84.0634 16.8814 92.0452 21.574 96.624 12.0548Z" fill="#FEE6D0"/>
</svg>
