<svg width="211" height="320" viewBox="0 0 211 320" fill="none" xmlns="http://www.w3.org/2000/svg">
<path d="M103.217 1.3021C115.364 -0.347346 137.278 4.94547 147.244 12.5973C165.878 26.6867 169.85 52.3751 182.449 70.5844C194.547 88.0703 205.198 86.2496 209.004 109.724C204.447 123.172 196.807 127.354 183.49 129.837C191.536 140.6 202.14 144.391 207.102 158.129C214.098 177.499 201.996 188.735 184.441 193.725C182.571 194.256 179.32 192.538 176.252 193.571C173.824 195.58 173.652 200.468 172.118 202.867C158.775 223.747 128.775 232.868 106.848 224.331C104.172 223.722 98.0424 226.161 95.126 226.721C72.345 231.096 41.2576 218.04 34.7731 194.246C34.5112 193.284 24.0399 193.473 21.9464 192.683C-1.24018 183.942 -5.36174 165.381 10.5078 146.42C14.9669 141.138 22.0173 136.191 26.4805 130.135L26.7026 129.83C13.0103 127.376 5.58532 122.798 1.30563 109.213C5.64032 83.8404 17.5176 88.0696 27.3193 71.2527C49.9951 32.3453 49.3144 5.29543 103.217 1.3021Z" fill="#CB8565" stroke="#71564B" stroke-width="2"/>
<path d="M99.8381 131.723C104.41 131.602 112.764 130.763 115.514 135.351C115.917 136.113 116.78 139.614 117.52 139.816C127.044 142.424 131.104 143.206 138.579 150.254C147.055 158.245 151.41 167.08 156.962 177.11C159.963 183.1 166.13 190.958 168.847 196.719C175.061 209.896 181.677 213.991 193.766 221.319C195.975 222.658 195.851 227.734 193.826 229.461C188.684 233.843 180.942 231.939 175.017 230.726C173.403 230.402 175 235.476 169.312 236.021C165.863 234.855 160.481 223.938 157.921 220.504C153.46 214.519 148.718 209.262 143.732 203.719C150.454 237.714 148.954 270.944 141.044 304.627C142.598 309.363 147.189 311.511 145.783 316.225C144.064 318.273 141.532 318.911 138.984 319.869C129.997 318.888 123.778 317.963 115.579 314.037C112.215 290.103 109.266 264.613 106.486 240.572L105.746 239.328L104.734 239.251C100.295 246.977 99.0461 303.519 93.4815 314.031C91.355 318.047 70.4873 321.879 64.5185 316.564C62.1301 310.521 69.9868 307.911 69.0766 303.979C61.2735 270.261 59.9356 237.757 66.6147 203.639C61.2095 209.549 55.4579 216.274 50.345 222.465C48.3285 224.906 47.3103 232.27 43.6102 234.617C41.1222 236.195 41.1091 236.078 38.6925 235.718C36.4375 234.314 36.2801 232.906 35.495 230.336C29.0098 233.317 12.6713 234.049 15.0542 222.944C18.9496 217.961 30.6735 213.984 33.748 209.062C40.6567 198.042 50.3697 182.784 56.3187 171.763C64.4002 156.79 73.469 143.517 91.0051 140.435C95.4078 139.662 91.1928 134.909 99.8381 131.723Z" fill="#71564B"/>
<path d="M86.1074 143.703C88.7054 145.109 88.9014 152.649 94.5588 156.54C98.6213 159.333 103.815 160.141 108.697 159.651C118.692 158.646 119.335 149.709 123.471 144.453C125.553 144.503 125.963 144.886 127.757 146.008C129.056 149.104 127.789 155.935 128.814 158.045C136.681 174.237 138.064 192.226 141.819 209.601C142.13 211.038 139.533 212.383 138.376 213.129C125.806 217.312 78.0375 220.011 68.8229 210.384C69.0993 199.158 74.3497 182.479 75.9743 170.91C76.7471 165.408 84.3474 157.652 82.0497 149.469C81.0776 146.006 83.3677 145.321 86.1074 143.703Z" fill="#FEFEFE"/>
<path d="M67.1042 214.838C86.0263 221.387 124.114 220.822 143.05 214.825C144.953 224.739 145.236 234.094 145.171 244.143C136.679 249.558 124.706 250.669 114.808 250.553C108.539 249.18 109.329 244.69 108.772 239.19C111.392 238.809 112.204 238.737 114.701 237.753L114.175 237.795L115.138 236.566C115.607 236.569 115.875 236.633 116.274 236.485C114.269 235.635 108.248 236.676 105.656 236.66C102.566 236.641 96.2542 234.715 93.9064 235.984L94.4007 237.267C96.3807 238.743 99.1562 238.88 101.668 239.27C101.272 242.247 101.007 247.423 98.8207 249.36C92.2949 252.155 70.2592 249.401 65.7485 243.802C63.6454 237.699 66.2022 221.508 67.1042 214.838Z" fill="#FEFEFE"/>
<path d="M65.1661 247.56C73.5392 251.084 76.8997 251.548 86.0269 252.772C90.453 252.703 95.9682 252.848 100.207 251.906C98.0926 265.638 97.0049 279.534 95.1336 293.279C94.4584 298.238 94.3354 311.405 90.1863 313.657C84.4587 314.391 72.5258 319.105 67.1922 315.615C67.0196 315.17 66.8189 314.652 66.5899 314.06C69.0395 310.856 70.6001 308.26 72.0315 304.599C67.2204 287.805 64.8519 265.006 65.1661 247.56Z" fill="#FEE6D0"/>
<path d="M86.0269 252.772C90.453 252.703 95.9682 252.848 100.207 251.906C98.0926 265.638 97.0049 279.534 95.1336 293.279C94.4584 298.238 94.3354 311.405 90.1863 313.657C90.6916 294.057 92.343 274.079 92.7225 254.065C91.5689 253.075 87.8784 252.983 86.0269 252.772Z" fill="#FDBF9D"/>
<path d="M123.528 252.764C132.682 251.713 136.565 251.067 145.118 247.62C145.434 266.734 143.166 285.804 138.374 304.311L138.601 305.033C140.048 309.529 142.885 311.789 142.993 314.49C139.605 319.887 125.997 314.698 120.487 313.84C118.956 312.783 117.846 311.998 117.504 310.131C116.438 304.313 115.826 298.231 115.11 292.358C113.543 278.87 111.859 265.397 110.061 251.939C113.98 252.752 119.418 252.674 123.528 252.764Z" fill="#FEE6D0"/>
<path d="M110.061 251.939C113.98 252.752 119.418 252.674 123.528 252.764C120.948 253.077 119.428 252.831 117.541 254.175C116.352 263.046 122.099 308.82 120.487 313.84C118.956 312.783 117.846 311.998 117.504 310.131C116.438 304.313 115.826 298.231 115.11 292.358C113.543 278.87 111.859 265.397 110.061 251.939Z" fill="#FDBF9D"/>
<path d="M51.1418 217.347C45.9354 222.79 45.5029 231.256 40.071 233.447C37.4853 231.532 39.3649 230.741 37.1553 227.283C33.493 226.926 31.2875 230.455 27.3832 229.969C23.1104 229.437 18.1232 229.918 17.389 224.682C20.1225 220.958 31.5515 215.987 36.144 210.033C51.3398 190.332 60.0738 160.338 80.3963 146.882C79.3712 162.176 73.304 166.568 71.1907 181.566C70.5623 187.212 69.4334 192.184 68.7095 197.618C63.2246 203.104 55.8333 213.455 51.1418 217.347Z" fill="#FEE6D0"/>
<path d="M51.1418 217.347C51.5144 214.508 68.7748 183.784 71.1907 181.566C70.5623 187.212 69.4334 192.184 68.7095 197.618C63.2246 203.104 55.8333 213.455 51.1418 217.347Z" fill="#FDBF9D"/>
<path d="M139.182 182.181C138.654 178.819 138.102 175.563 137.121 172.297C135.225 165.981 129.535 156.138 130.857 149.526L131.858 148.76C145.66 154.817 161.904 194.188 172.985 208.296C181.097 218.627 188.29 219.151 192.932 224.529C192.873 229.302 186.962 229.856 183.051 230.039C180.093 230.178 176.681 226.876 173.215 227.628C170.747 230.137 172.87 231.306 170.403 233.312C165.758 231.827 162.986 221.584 159.382 217.485C154.061 212.831 148.623 204.315 142.178 198.6C140.792 192.975 140.057 187.914 139.182 182.181Z" fill="#FEE6D0"/>
<path d="M139.182 182.181C143.552 186.12 158.554 211.663 159.382 217.485C154.061 212.831 148.623 204.315 142.178 198.6C140.792 192.975 140.057 187.914 139.182 182.181Z" fill="#FDBF9D"/>
<path d="M95.9097 142.953C96.1414 139.692 95.7468 137.983 97.3865 135.484C101.98 132.894 109.772 133.043 113.88 136.447C114.944 139.816 113.372 140.064 114.977 142.386L120.34 143.046C118.253 166.549 87.8165 155.986 90.7301 143.84C92.7596 142.306 92.7067 142.855 95.9097 142.953Z" fill="#FEE6D0"/>
<path d="M95.9097 142.953C96.1414 139.692 95.7468 137.983 97.3865 135.484C101.98 132.894 109.772 133.043 113.88 136.447C114.944 139.816 113.372 140.064 114.977 142.386L120.34 143.046C111.929 143.115 103.591 148.517 95.9097 142.953Z" fill="#FDBF9D"/>
<path d="M103.403 4.74463C109.899 4.78382 116.374 5.46794 122.734 6.78667C162.115 15.2202 172.543 48.8094 164.905 84.6813C169.467 84.5403 172.879 84.4166 176.254 87.8103C185.936 97.5461 175.061 115.207 163.505 117.557C161.576 117.95 158.548 117.918 156.609 117.917C155.192 119.785 153.115 122.462 151.556 124.149C142.016 134.478 120.299 137.717 106.862 138.185C95.005 138.154 84.1026 136.596 72.8077 132.763C63.4983 129.603 59.4296 125.515 53.8794 117.991C47.9167 117.863 44.8911 117.5 39.8228 113.489C33.2084 108.256 27.828 96.2521 33.9275 88.7667C37.1196 84.8483 40.6045 84.6833 45.4314 84.3897C39.8544 61.1119 42.3006 35.3581 61.7465 18.9791C74.1772 8.50969 87.7381 6.19537 103.403 4.74463Z" fill="#6F5348"/>
<path d="M96.776 8.12328C111.194 5.48788 132.831 10.4005 144.298 19.0238C168.562 37.2708 168.022 66.8722 159.99 93.2578C157.303 102.082 160.073 110.06 152.904 119.014C143.345 130.955 129.136 133.016 115.089 134.867L114.61 134.935C99.3692 137.068 76.0492 133.853 63.2411 124.91C51.7386 116.879 52.1964 104.22 50.0205 92.0587C48.6262 85.2581 46.3891 78.7738 45.7133 71.8212C42.1754 35.4406 61.2824 12.4597 96.776 8.12328Z" fill="#FEE6CF"/>
<path d="M165.188 86.8491C191.036 85.8597 169.619 121.903 158.91 114.287C160.687 108.098 160.017 100.987 165.016 96.358C167.23 94.307 168.72 95.9682 171.815 95.909C172.143 93.8326 172.314 94.558 171.514 92.8054C170.085 92.2127 165.838 93.405 163.777 93.7378L162.792 92.9636C163.317 88.59 162.54 89.4577 165.188 86.8491Z" fill="#FEE6CF"/>
<path d="M40.0126 86.9715C43.2624 86.6951 44.4669 86.3871 46.9769 88.8093C47.8755 90.9036 47.7758 91.2165 47.1956 93.4442C43.7594 92.3963 40.8417 91.0831 39.114 95.1589L39.7919 96.3167C49.5111 92.2945 49.4753 103.597 50.4213 110.46C50.9431 112.031 51.5179 113.05 51.0071 114.553C43.0788 117.709 24.3465 98.4207 40.0126 86.9715Z" fill="#FEE6CF"/>
<path d="M123.131 87.7897C123.838 73.7899 138.368 74.101 145.176 79.7658C149.478 83.3459 147.93 84.7787 153.998 87.3316C153.61 89.4142 149.315 94.9862 147.788 96.6219C146.308 97.7942 144.153 99.6141 142.616 100.571C138.513 103.409 131.661 107.115 126.986 102.612C123.089 98.8578 122.878 92.7958 123.131 87.7897ZM137.631 100.571C142.616 94.7897 138.631 82.2897 131.631 83.7897C128.071 84.5524 126.131 89.2897 126.131 91.2897C126.131 93.8119 126.508 97.7343 128.091 99.698C130.388 102.538 134.813 103.839 137.631 100.571Z" fill="#6B4F42"/>
<path d="M125.131 86.79C125.131 85.29 125.131 83.79 128.131 80.7898C131.131 77.7897 140.029 78.9272 143.631 83.2898C147.232 87.6523 146.723 91.8035 147.788 96.6219C146.631 98.2897 140.131 102.79 137.631 103.29C141.131 101.79 144.005 88.4964 138.131 84.1524C133.721 80.892 128.631 81.79 125.131 86.79Z" fill="#FDFCFC"/>
<path d="M87.998 88.4687C87.2905 74.469 72.761 74.7801 65.9527 80.4448C61.6503 84.0249 63.1986 85.4578 57.1307 88.0107C57.5191 90.0933 61.8139 95.6653 63.3409 97.3009C64.8211 98.4732 66.9757 100.293 68.5122 101.25C72.6159 104.089 79.4676 107.794 84.1426 103.291C88.04 99.5369 88.251 93.4748 87.998 88.4687ZM73.498 101.25C68.5122 95.4687 72.498 82.9687 79.498 84.4687C83.0573 85.2314 84.998 89.9687 84.998 91.9687C84.998 94.491 84.6211 98.4134 83.0377 100.377C80.7408 103.217 76.316 104.518 73.498 101.25Z" fill="#6B4F42"/>
<path d="M85.998 87.469C85.998 85.969 85.998 84.469 82.998 81.4689C79.998 78.4687 71.0993 79.6062 67.498 83.9688C63.8967 88.3313 64.4058 92.4826 63.3409 97.3009C64.498 98.9688 70.998 103.469 73.498 103.969C69.9981 102.469 67.1239 89.1754 72.9979 84.8314C77.4075 81.571 82.498 82.469 85.998 87.469Z" fill="#FDFCFC"/>
<path d="M129.631 83.7902C134.346 82.5267 136.201 84.8601 137.631 86.2902C139.061 87.7203 140.131 90.7902 140.131 92.7902C140.131 94.7902 140.631 100.29 135.131 102.79C132.712 103.361 127.439 103.822 125.631 98.2902C123.823 92.7585 124.916 85.0537 129.631 83.7902Z" fill="#8FEBFE"/>
<path d="M75.5923 84.3229C80.3077 83.0594 82.1622 85.3928 83.5923 86.8229C85.0224 88.2531 86.0923 91.3229 86.0923 93.3229C86.0923 95.3229 86.0923 101.29 81.0923 103.323C78.673 103.894 73.4005 104.355 71.5923 98.8229C69.784 93.2912 70.8769 85.5864 75.5923 84.3229Z" fill="#8FEBFE"/>
<path d="M130.465 59.1099C134.292 58.7733 136.146 59.538 136.928 60.3618C137.637 61.109 137.851 62.3489 137.173 64.1206C136.504 65.8712 135.053 67.817 133.075 69.4399C131.157 71.013 128.837 72.2027 126.435 72.6362C123.871 72.3253 121.36 71.528 119.933 70.2603C119.24 69.6444 118.853 68.9656 118.761 68.1929C118.673 67.4502 118.836 66.4401 119.569 65.1001L119.723 64.8276C121.959 61.0092 125.616 60.217 130.465 59.1099ZM71.8277 59.5464C74.1161 59.4501 76.6412 59.3899 79.0953 59.521C81.9166 59.6717 84.5295 60.0681 86.5357 60.8745C88.5265 61.6748 89.7155 62.7865 90.1343 64.2827C90.5575 65.7946 90.3096 68.0935 88.5172 71.5444C87.3109 72.1826 85.5576 72.4102 83.48 72.1226C81.2465 71.8133 78.8357 70.9343 76.7525 69.6245C74.6622 68.3103 73.0008 66.6257 72.1265 64.771C71.3832 63.1939 71.1807 61.446 71.8277 59.5464Z" fill="#C07D61" stroke="#6C4F43" stroke-width="3"/>
<path d="M105.131 103.79C106.922 103.79 108.494 104.207 109.584 104.83C110.702 105.469 111.131 106.199 111.131 106.79C111.131 107.381 110.702 108.111 109.584 108.75C108.494 109.373 106.922 109.79 105.131 109.79C103.34 109.79 101.767 109.373 100.678 108.75C99.5593 108.111 99.1307 107.381 99.1307 106.79C99.1307 106.199 99.5593 105.469 100.678 104.83C101.767 104.207 103.34 103.79 105.131 103.79Z" stroke="#6F5348" stroke-width="2"/>
<path d="M94.1071 1.93723C94.3209 1.89804 94.5347 1.85886 94.7478 1.81967C122.328 -1.20146 164.476 8.85061 167.578 42.3463C169.045 58.1924 169.704 80.0003 168.495 95.8835C167.385 110.478 164.464 128.657 156.085 140.885C153.632 144.466 146.01 149.219 141.877 146.034C141.309 142.143 145.773 140.242 147.522 136.819C158.202 115.909 158.764 91.2315 154.326 68.9554C146.974 67.4861 138.786 66.4829 131.311 65.4172C125.366 57.5818 123.855 53.7267 122.63 43.9696C119.649 47.9987 118.575 51.0844 116.778 55.6567C114.709 64.3006 116.333 66.0236 106.052 66.5132C95.8815 66.9972 85.5078 66.6755 75.416 67.9213C74.9141 64.0002 74.2033 59.8487 73.5976 55.92C73.0235 59.3667 72.9005 63.0843 72.3615 66.7277C69.342 68.833 59.1649 67.09 57.8119 70.6653C50.9238 88.8649 54.7422 113.228 61.457 131.088C63.1957 135.713 70.3539 141.858 71.1769 146.745L70.3766 147.705C67.0031 148.056 63.2603 145.722 60.6822 143.941C42.0901 130.817 44.3726 104.948 43.9876 84.9438C43.5085 77.173 41.2686 69.832 41.4514 62.0014C41.8041 46.9123 45.8459 32.4888 54.9677 20.2159C64.1163 7.90661 79.5788 3.91258 94.1071 1.93723Z" fill="#694E44"/>
<path d="M98.725 4.01298C105.225 2.88402 114.123 4.2117 120.612 5.24716C143.707 8.64506 165.681 22.392 165.812 49.5498C165.938 75.7223 170.828 122.293 150.246 142.696C149.278 143.656 148.093 143.939 146.83 143.678C146.961 141.732 152.754 132.828 153.652 129.99C160.198 109.314 161.286 87.1674 156.222 66.3392C148.781 65.3725 139.744 64.3426 132.537 62.7516C127.578 56.6165 122.329 44.8187 126.817 37.2989L127.155 36.7393L126.572 35.7121L126.814 35.82C126.024 35.9967 125.005 36.3838 124.501 36.9985C116.67 46.548 113.354 52.0154 113.259 64.0208L104.508 63.7286C95.2634 64.3281 86.4332 65.0123 77.1581 64.8445C77.0639 60.2434 76.6982 51.521 77.2221 47.1131C77.5314 44.5032 82.4979 37.9789 81.7726 34.2208L80.6637 34.3603C75.471 41.7323 70.4743 55.2662 70.103 64.5275C63.9162 65.0542 60.7001 66.0842 55.0406 68.1035C54.3641 71.2793 53.7501 74.4682 53.1988 77.6674C49.2821 101.816 53.097 125.442 67.5558 145.384C65.3593 143.99 62.7406 142.278 60.7447 140.736C45.0622 128.619 46.4626 101.837 46.1333 84.1332C46.0549 79.9418 45.1488 73.3338 44.5665 68.8578C42.4662 52.7112 47.4299 34.1273 57.4736 21.2823C67.1468 8.91045 83.8977 5.61774 98.725 4.01298Z" fill="#CB8565"/>
<path d="M118.617 115.941L119.417 117.312C117.243 123.036 107.19 124.54 101.935 123.731C97.8418 123.102 95.7167 121.811 92.4456 119.452L92.1307 117.653L92.8649 116.934C96.7163 118.271 98.3457 121.218 103.262 121.631C109.729 122.174 113.796 119.651 118.617 115.941Z" fill="#6A4D40"/>
<path d="M141.445 105.954C145.888 105.886 150.631 106.466 152.711 110.954C152.774 116.418 149.686 117.3 145.165 119.054C139.537 119.36 131.617 119.012 132.596 111.212C134.796 107.549 137.408 106.967 141.445 105.954Z" fill="#FEB2B4"/>
<path d="M64.8602 105.853C70.2557 106.008 74.1037 106.721 77.5219 111.143C78.6797 116.207 75.9592 117.194 71.8239 119.179C66.1603 119.257 59.847 118.705 57.1307 112.828C57.2029 107.897 60.7634 107.226 64.8602 105.853Z" fill="#FEB2B4"/>
</svg>
