<svg width="215" height="215" viewBox="0 0 215 215" fill="none" xmlns="http://www.w3.org/2000/svg">
<path fill-rule="evenodd" clip-rule="evenodd" d="M93.8907 91.8699C93.7402 92.1601 93.2994 95.0948 95.0302 95.0948C95.3325 95.0955 95.625 94.9872 95.854 94.7897C96.083 94.5923 96.2333 94.319 96.2772 94.0198C96.6427 90.7303 94.4927 90.7411 93.8907 91.8699ZM109.478 91.8268C109.575 92.9663 109.704 93.9768 110.843 93.9768C111.146 93.9775 111.438 93.8692 111.667 93.6717C111.896 93.4743 112.047 93.201 112.09 92.9018C112.114 92.2102 112.038 91.5187 111.865 90.8486C111.241 89.6983 109.317 89.9778 109.478 91.8268ZM101.953 102.211C102.286 102.211 105.178 102.072 105.855 101.545C106.06 101.394 106.038 101.104 106.038 100.835C105.974 97.786 105.679 94.7458 105.157 91.7408C105.157 91.5796 105.017 91.5473 104.931 91.5688C104.845 91.5903 104.802 91.7408 104.813 91.9988C104.813 92.8803 104.737 93.1813 105.049 98.1156C105.253 101.341 105.167 100.438 105.232 100.975C104.224 101.344 103.189 101.636 102.136 101.846C101.437 101.996 101.932 102.211 101.953 102.211ZM105.35 109.65C104.553 110.078 103.673 110.331 102.77 110.392C102.725 110.392 102.681 110.41 102.649 110.442C102.616 110.475 102.598 110.518 102.598 110.564C102.598 110.61 102.616 110.653 102.649 110.686C102.681 110.718 102.725 110.736 102.77 110.736C103.275 110.918 103.815 110.983 104.349 110.927C104.882 110.872 105.397 110.696 105.853 110.414C106.31 110.132 106.697 109.751 106.986 109.298C107.275 108.846 107.458 108.334 107.522 107.801C107.527 107.779 107.529 107.757 107.525 107.734C107.522 107.712 107.515 107.69 107.503 107.671C107.492 107.651 107.477 107.634 107.459 107.621C107.441 107.607 107.42 107.597 107.398 107.592C107.376 107.586 107.353 107.585 107.331 107.588C107.309 107.591 107.287 107.599 107.268 107.61C107.248 107.622 107.231 107.637 107.218 107.655C107.204 107.673 107.194 107.693 107.188 107.715C106.753 108.508 106.12 109.175 105.35 109.65ZM40.8502 59.5876C45.2254 58.2223 50.5252 59.4048 52.5677 64.2423C56.1044 72.4338 46.7519 76.6049 46.8487 77.0349C47.0637 78.1099 47.4507 79.9911 47.6119 81.0768C47.6248 81.1681 47.6733 81.2505 47.7469 81.3059C47.8205 81.3614 47.9131 81.3853 48.0043 81.3725C48.0955 81.3596 48.1779 81.3111 48.2334 81.2375C48.2888 81.1639 48.3128 81.0713 48.2999 80.9801C48.1709 79.9051 48.0312 78.3571 47.8807 77.2391C49.4006 76.6294 50.807 75.7681 52.0409 74.6914C59.6304 65.7366 51.1594 54.4383 40.3342 57.9751C38.6201 58.4749 37.104 59.4959 35.9964 60.8963C34.8888 62.2967 34.2445 64.0072 34.1529 65.7903C33.8089 70.0258 37.1844 73.6808 42.6347 73.2078C42.7168 73.1934 42.7913 73.1504 42.8449 73.0865C42.8985 73.0226 42.9279 72.9419 42.9279 72.8585C42.9279 72.7751 42.8985 72.6943 42.8449 72.6304C42.7913 72.5665 42.7168 72.5236 42.6347 72.5091C37.7972 72.7563 35.2064 69.2841 35.6687 65.9516C35.7758 64.4876 36.3303 63.0919 37.2571 61.9535C38.1839 60.8152 39.4383 59.9892 40.8502 59.5876ZM121.142 31.5408C121.233 31.5651 121.33 31.5521 121.412 31.5047C121.494 31.4573 121.553 31.3795 121.577 31.2882C121.602 31.197 121.589 31.0999 121.541 31.0182C121.494 30.9366 121.416 30.8771 121.325 30.8528C116.67 29.5413 115.326 25.4241 116.831 22.4033C117.417 21.0542 118.404 19.918 119.658 19.1488C120.912 18.3796 122.372 18.0146 123.84 18.1033C131.924 18.3076 135.472 25.7466 132.44 31.0571C130.43 34.6906 127.742 35.6688 124.302 36.1203C124.194 36.1356 124.093 36.1858 124.015 36.2634C123.938 36.341 123.888 36.4417 123.872 36.5503C123.754 37.5393 123.496 39.4851 123.303 40.6138C123.284 40.7037 123.302 40.7971 123.352 40.8738C123.403 40.9504 123.482 41.0038 123.571 41.0223C123.661 41.0409 123.755 41.023 123.831 40.9726C123.908 40.9222 123.961 40.8434 123.98 40.7536C124.227 39.5926 124.56 38.2273 124.786 37.0771C126.419 36.9893 128.026 36.6258 129.538 36.0021C133.182 33.8521 135.396 30.4551 135.106 26.1551C134.429 16.0608 119.701 12.4488 115.466 21.8551C113.821 25.6821 115.821 30.3368 121.142 31.5408ZM180.869 81.9799C180.746 79.9872 180.035 78.0757 178.826 76.4866C177.664 75.1784 176.246 74.1221 174.659 73.3826C173.073 72.6431 171.352 72.2361 169.603 72.1866C167.822 72.1041 166.06 72.577 164.559 73.5399C163.059 74.5029 161.895 75.9082 161.229 77.5616C159.541 81.4639 161.573 86.0111 166.872 87.3011C166.92 87.3224 166.971 87.333 167.023 87.3323C167.075 87.3316 167.126 87.3196 167.172 87.2971C167.219 87.2746 167.26 87.2422 167.293 87.2021C167.326 87.1619 167.349 87.1151 167.362 87.0649C167.375 87.0147 167.376 86.9623 167.367 86.9115C167.357 86.8606 167.336 86.8124 167.306 86.7704C167.276 86.7283 167.237 86.6934 167.191 86.6681C167.146 86.6428 167.096 86.6277 167.044 86.6238C162.422 85.2263 161.046 81.2488 162.562 78.1743C163.148 76.8252 164.135 75.689 165.389 74.9198C166.642 74.1506 168.102 73.7856 169.571 73.8743C171.062 73.9158 172.529 74.2591 173.883 74.8837C175.237 75.5082 176.451 76.4009 177.45 77.5079C178.457 78.8221 179.056 80.4034 179.17 82.0551C179.934 91.5366 169.721 91.5688 169.624 92.3213C169.495 93.3963 169.259 95.2884 169.055 96.3848C169.036 96.4747 169.054 96.5682 169.104 96.6448C169.155 96.7214 169.234 96.7748 169.323 96.7934C169.413 96.8119 169.507 96.794 169.583 96.7436C169.66 96.6932 169.713 96.6144 169.732 96.5246C169.99 95.3743 170.312 93.9984 170.538 92.8481C172.174 92.7562 173.784 92.3929 175.3 91.7731C178.891 89.6661 181.159 86.3229 180.869 81.9799ZM52.3957 89.2253C52.8579 87.3119 51.4712 85.3016 50.0952 85.4628C49.2028 85.3663 48.3041 85.3412 47.4077 85.3876C45.0749 85.9466 43.9784 88.9996 46.1714 90.4939C48.6869 92.1709 51.9442 91.0098 52.3957 89.2253ZM50.7294 89.0104C50.3477 89.3289 49.8801 89.5272 49.3857 89.5801C46.4617 89.9886 45.8382 87.4301 47.8054 86.5916L50.1167 86.1616C51.1164 86.2476 51.3422 88.3868 50.7294 88.9566V89.0104ZM122.41 44.7203C119.906 43.8066 117.197 46.6338 118.97 49.0203C120.744 51.4068 124.259 51.4068 125.27 49.8158C126.28 48.2248 125.668 45.8168 124.313 45.5158C124.195 45.4621 123.26 45.0321 122.41 44.7203ZM123.765 49.0203C123.284 49.184 122.769 49.2205 122.27 49.1263C121.771 49.0321 121.304 48.8105 120.916 48.4828C120.599 48.2547 120.337 47.9569 120.153 47.6121C119.841 46.7413 120.959 45.8491 121.776 45.7953L124.098 46.1286C125.001 46.6123 124.55 48.7193 123.765 49.0526V49.0203ZM170.033 101.351C169.818 101.255 168.711 100.792 168.141 100.577C165.625 99.6636 162.927 102.491 164.701 104.877C166.475 107.264 169.979 107.264 171 105.673C172.022 104.082 171.398 101.652 170.033 101.351ZM169.485 104.91C169.004 105.072 168.489 105.108 167.99 105.014C167.491 104.92 167.025 104.699 166.636 104.372C166.321 104.137 166.061 103.836 165.873 103.491C165.572 102.631 166.679 101.738 167.496 101.685L169.818 102.018C170.721 102.469 170.269 104.566 169.485 104.91Z" fill="#292952"/>
<path fill-rule="evenodd" clip-rule="evenodd" d="M161.25 160.648C159.1 150.07 150.737 133.773 140.696 129.613L138.675 125.388C138.661 125.358 138.64 125.331 138.614 125.309C138.588 125.287 138.558 125.271 138.526 125.262C138.493 125.252 138.459 125.25 138.425 125.256C138.392 125.261 138.36 125.273 138.331 125.292L136.181 126.678C135.499 122.115 133.414 117.878 130.215 114.552C132.451 111.102 136.031 110.048 139.729 109.887C142.793 109.758 145.05 109.575 146.824 106.952C150.339 101.771 149.511 96.7182 145.383 91.9022C139.095 84.5707 136.622 86.7637 133.558 82.711C127.732 75.1 126.41 63.8447 117.831 57.986C106.866 50.5577 100.954 56.5455 98.6532 58.3945C95.2884 56.352 87.785 57.0615 84.56 59.8242C81.8187 62.1677 78.1852 65.1992 76.777 68.5855C73.7777 75.7342 74.1002 84.1945 69.7142 90.6767C68.6392 92.2892 66.801 93.375 65.5002 94.9015C63.7148 97.14 62.196 99.5788 60.9745 102.168C59.3835 105.178 58.1687 108.522 59.62 111.639C61.5657 115.81 65.9195 119.788 70.5635 119.487C73.251 119.304 76.8092 117.691 79.3355 118.756C80.8405 119.379 81.421 120.83 82.5605 122.045C85.1405 124.915 91.1604 125.786 94.493 123.797C90.8272 128.463 85.2372 128.302 75.487 133.677C60.523 141.911 55.062 151.264 53.4602 160.842C52.8475 163.822 52.3953 166.833 52.1057 169.861C51.1812 185.481 55.922 205.282 71.2945 208.561C75.5085 209.464 80.3352 210.045 84.5062 209.002C92.4075 207.035 101.835 201.713 108.758 197.392C111.983 195.382 123.916 187.33 129.463 186.276C129.797 189.145 130.52 191.956 131.613 194.629C136.052 203.756 143.158 209.152 153.113 206.809C159.563 205.293 161.401 198.424 161.573 191.845C164.809 184.9 162.239 165.701 161.25 160.648ZM124.055 110.317C125.969 110.672 127.28 112.467 128.699 113.929C132.451 117.681 135.031 121.701 135.805 126.829C132.698 128.807 130.677 130.054 130.634 130.118C130.591 130.183 129.097 126.377 128.194 125.915C126.843 125.244 125.618 124.346 124.571 123.26C123.765 122.368 122.776 120.798 122.905 119.616C123.477 119.312 124.1 119.118 124.743 119.046V118.379C121.422 118.476 120.282 121.508 119.981 122.185C119.766 122.669 119.465 123.152 118.777 123.077C118.089 123.002 117.842 122.206 118.1 121.497C118.358 120.787 118.981 117.67 123.378 116.993C123.433 116.985 123.486 116.966 123.534 116.938C123.582 116.91 123.624 116.873 123.657 116.828C123.691 116.784 123.715 116.733 123.729 116.679C123.743 116.625 123.746 116.569 123.738 116.514C123.731 116.459 123.712 116.406 123.684 116.358C123.656 116.311 123.618 116.269 123.574 116.235C123.529 116.202 123.479 116.177 123.425 116.164C123.371 116.15 123.315 116.146 123.26 116.154C122.34 116.271 121.448 116.552 120.626 116.982C119.888 117.343 119.232 117.853 118.701 118.48C118.17 119.107 117.775 119.838 117.541 120.626C117.025 122.099 115.219 121.443 115.649 120.175C116.082 118.941 116.725 117.791 117.552 116.778C118.469 115.903 119.571 115.246 120.777 114.853C121.723 114.466 122.529 114.649 122.744 114.337C122.959 114.026 122.454 112.983 122.196 112.671C120.809 111.016 116.821 112.445 115.294 110.596C114.316 109.382 116.369 109.339 117.197 109.231C119.519 108.973 121.723 109.876 124.055 110.317ZM128.001 136.955C124.928 137.957 121.793 138.758 118.616 139.353C119.691 133.236 120.422 127.99 120.314 126.087C122.819 126.571 125.689 126.915 128.828 127.431C129.678 128.839 130.14 130.022 130.344 130.355L128.259 131.677C128.151 131.817 128.173 131.236 128.001 136.955ZM116.326 168.012C116.802 170.076 117.14 172.17 117.337 174.279C112.929 174 109.564 174.054 107.909 173.989C107.973 170.968 108.006 170.033 108.059 169.399C110.772 168.711 113.537 168.248 116.326 168.012ZM99.4165 141.535C105.515 141.578 111.605 141.082 117.616 140.051C115.703 150.371 112.789 162.777 111.413 165.26C108.253 156.639 108.575 156.606 99.4165 141.535ZM112.316 165.12C114.058 161.218 116.702 149.576 118.465 139.879C121.674 139.278 124.838 138.459 127.936 137.428C127.603 149.038 127.506 163.529 128.205 175.172C126.162 174.989 123.195 174.731 120.314 174.505C120.132 172.764 119.411 166.701 118.799 165.11C118.637 164.68 118.444 164.508 117.724 164.486C115.926 164.565 114.137 164.777 112.37 165.12H112.316ZM116.154 124.109C115.065 123.473 114.196 122.521 113.66 121.379C114.158 121.589 114.677 121.744 115.208 121.841C115.41 122.068 115.67 122.235 115.96 122.324C116.25 122.413 116.559 122.421 116.853 122.346C117.337 122.196 117.025 122.131 117.283 122.808C117.382 123.081 117.549 123.324 117.768 123.515C117.987 123.705 118.251 123.837 118.535 123.897C118.819 123.957 119.113 123.944 119.391 123.859C119.668 123.774 119.92 123.62 120.121 123.41C120.54 123.034 120.572 122.583 121.078 121.615C121.572 121.518 122.056 121.389 122.529 121.25C123.808 124.604 127.818 126.227 128.097 126.474C123.378 125.775 119.196 125.335 116.208 124.109H116.154ZM95.5464 122.819C98.1264 119.831 97.5997 117.691 94.9445 115.574C89.5695 111.36 90.2359 112.488 87.9784 107.78C85.3232 100.137 87.613 88.0967 89.5802 80.26C90.1177 78.11 93.7835 75.8095 96.4495 76.1535C100.147 76.6265 98.5995 78.5722 101.76 79.6795C102.309 79.8399 102.876 79.9266 103.448 79.9375C103.482 79.948 103.517 79.9519 103.553 79.9487C103.588 79.9455 103.622 79.9354 103.654 79.9189C103.685 79.9024 103.713 79.8799 103.736 79.8527C103.759 79.8254 103.776 79.794 103.786 79.7601C103.797 79.7262 103.801 79.6906 103.798 79.6552C103.794 79.6199 103.784 79.5855 103.768 79.554C103.751 79.5226 103.729 79.4947 103.702 79.472C103.674 79.4492 103.643 79.432 103.609 79.4215C101.932 78.4158 100.387 77.2062 99.0079 75.8202C99.6637 73.1435 101.33 71.6815 104.458 71.66C106.608 71.66 108.307 73.294 109.833 74.6915C111.682 76.3792 113.671 80.9372 113.52 83.442C113.18 86.3443 113.861 89.2746 115.445 91.7302C116.52 93.6007 118.541 95.224 119.745 96.8042C120.411 97.6857 120.024 101.62 119.637 103.351C119.132 104.867 118.057 107.758 117.81 108.414C113.316 108.575 113.51 110.983 115.66 112.015C113.649 114.423 108.737 117.1 112.252 120.476C113.004 122.056 114.208 124.217 115.821 124.872C116.965 125.336 118.149 125.696 119.358 125.947C119.594 127.614 118.82 133.128 117.638 139.546C111.468 140.573 105.219 141.044 98.9649 140.954C95.0842 134.601 91.2249 128.581 90.2467 127.614C92.4186 126.51 94.2642 124.857 95.6002 122.819H95.5464ZM88.2149 128.484C90.3649 127.678 89.29 127.818 89.806 128.216C90.3219 128.613 93.8694 134.236 97.9867 140.911C93.1062 140.836 87.613 140.471 85.5382 140.234C86.1617 139.74 84.5492 131.247 83.9257 130.172C85.4845 129.549 86.9249 129 88.2687 128.484H88.2149ZM83.1302 130.505C84.0141 133.671 84.6149 136.909 84.9255 140.18C80.2869 139.516 75.7367 138.337 71.3589 136.665C75.1103 134.266 79.0676 132.204 83.1839 130.505H83.1302ZM84.1084 208.228C80.0772 209.238 75.358 208.647 71.2945 207.776C64.9412 206.411 60.5445 202.165 57.685 196.725C53.1377 188.125 51.7832 175.344 53.17 166.389C53.4495 164.594 53.8042 162.82 54.1052 161.014C55.8145 150.769 62.0387 143.051 70.7247 137.213C79.2495 140.342 84.9792 141.438 98.3737 141.513C107.651 156.563 107.855 158.068 110.51 165.432C109.693 165.583 105.909 166.346 105.264 166.873C105.006 167.077 105.006 167.485 105.264 173.946C95.4819 174.14 85.9145 175.666 76.9167 181.471C75.8417 173.72 77.078 171.377 79.5827 166.937C83.5172 159.96 82.8077 158.67 80.3245 154.704C79.9151 154.168 79.6222 153.553 79.4645 152.898C79.4645 152.64 78.3895 152.285 79.9052 154.951C82.0552 158.864 82.6357 159.788 78.8302 166.507C76.046 171.431 74.9065 173.957 76.5835 181.697C75.8309 182.202 74.971 182.772 74.1432 183.438C72.8786 184.329 71.6918 185.325 70.5957 186.416C70.5743 186.458 70.5702 186.506 70.5844 186.55C70.5985 186.594 70.6296 186.631 70.6709 186.653C70.7123 186.674 70.7604 186.678 70.8048 186.664C70.8491 186.65 70.8861 186.619 70.9075 186.577C71.2407 185.986 76.7985 182.277 78.2927 181.514C86.6347 177.311 95.8582 173.677 110.962 174.677C110.772 181.068 111.433 187.456 112.929 193.672C105.168 198.574 94.1382 205.734 84.1622 208.228H84.1084ZM113.596 193.242C112.215 187.18 111.604 180.968 111.779 174.752C128.097 175.827 122.98 175.483 128.248 175.827C128.441 178.966 128.732 182.374 129.162 185.502C124.948 186.287 117.369 190.91 113.649 193.242H113.596ZM152.661 206.035C143.169 208.282 136.429 203.1 132.15 194.328C127.42 184.653 128.205 142.631 128.474 131.924L138.299 125.84C151.565 154.489 153.156 157.198 156.133 166.69C159.982 178.784 165.056 203.175 152.715 206.035H152.661ZM161.326 189.587C161.077 183.831 160.19 178.12 158.681 172.559C155.273 159.305 151.586 152.661 141.384 131.215L141.685 131.054C150.694 135.87 158.326 150.823 160.326 160.81C161.422 166.023 163.519 183.073 161.379 189.587H161.326Z" fill="#292952"/>
</svg>
