<svg width="149" height="102" viewBox="0 0 149 102" fill="none" xmlns="http://www.w3.org/2000/svg">
<path d="M136.054 49.1007L121.03 73.5618" stroke="#5252A3" stroke-width="2.40826" stroke-linecap="round"/>
<path d="M137.405 41.5158L133.548 47.4787L134.665 51.2477L138.867 50.2463L142.724 44.2834L138.527 45.3005L137.405 41.5158Z" fill="#5252A3" stroke="#6666CC" stroke-width="0.978357" stroke-linecap="square" stroke-linejoin="round"/>
<path d="M9.70287 58.4842L7.39364 70.4176" stroke="#5252A3" stroke-width="1.04446" stroke-linecap="round"/>
<path d="M9.0615 55.2033L8.41863 58.137L9.46993 59.5411L11.0355 58.5982L11.6784 55.6645L10.1172 56.6132L9.0615 55.2033Z" fill="#5252A3" stroke="#6666CC" stroke-width="0.424312" stroke-linecap="square" stroke-linejoin="round"/>
<path d="M75.1064 91.0602C68.1993 85.2866 66.4725 79.8338 66.4725 77.8291C65.9329 80.2348 65.1774 85.7678 66.4725 88.6545C68.0914 92.263 60.9837 88.1991 59.4574 85.6475C57.299 82.039 62.1555 91.0602 52.4424 89.8574C45.4694 88.9939 43.6239 84.8372 43.7085 81.3855C43.7746 80.9837 43.8084 80.5978 43.8084 80.2348C43.753 80.6051 43.7181 80.9907 43.7085 81.3855C43.0951 85.1083 39.7003 90.1917 34.6349 91.0602H75.1064Z" fill="#8585D6"/>
<path d="M75.1064 91.0602L75.6056 90.463C75.8568 90.6731 75.9498 91.0179 75.8381 91.3257C75.7264 91.6335 75.4339 91.8385 75.1064 91.8385V91.0602ZM66.4725 77.8291L65.7131 77.6588C65.7999 77.2717 66.1639 77.0119 66.5582 77.0555C66.9525 77.0992 67.2508 77.4324 67.2508 77.8291H66.4725ZM66.4725 88.6545L65.7624 88.9731V88.9731L66.4725 88.6545ZM59.4574 85.6475L60.1254 85.2479V85.2479L59.4574 85.6475ZM52.4424 89.8574L52.538 89.085V89.085L52.4424 89.8574ZM43.8084 80.2348L43.0387 80.1196C43.0989 79.7167 43.4598 79.4284 43.8661 79.4586C44.2725 79.4888 44.5867 79.8273 44.5867 80.2348H43.8084ZM34.6349 91.0602V91.8385C34.2306 91.8385 33.8937 91.529 33.8594 91.1262C33.8251 90.7234 34.1049 90.3614 34.5033 90.2931L34.6349 91.0602ZM75.1064 91.0602L74.6073 91.6573C67.5883 85.7903 65.6942 80.1376 65.6942 77.8291H66.4725H67.2508C67.2508 79.5301 68.8103 84.7829 75.6056 90.463L75.1064 91.0602ZM66.4725 77.8291L67.2319 77.9995C66.9707 79.1643 66.654 81.1037 66.562 83.0973C66.4685 85.1216 66.6144 87.0694 67.1826 88.336L66.4725 88.6545L65.7624 88.9731C65.0355 87.3529 64.9116 85.0908 65.007 83.0255C65.1038 80.9295 65.4347 78.8996 65.7131 77.6588L66.4725 77.8291ZM66.4725 88.6545L67.1826 88.336C67.4012 88.8232 67.5508 89.3372 67.4638 89.8076C67.4158 90.0668 67.2948 90.3153 67.0828 90.5095C66.8775 90.6976 66.6361 90.7899 66.4172 90.8308C66.0041 90.9082 65.5498 90.8263 65.1478 90.7085C64.7251 90.5846 64.2635 90.3911 63.796 90.157C62.8598 89.6883 61.8332 89.0233 60.9394 88.3094C60.0593 87.6064 59.2427 86.8046 58.7895 86.047L59.4574 85.6475L60.1254 85.2479C60.4353 85.7661 61.0795 86.4291 61.9108 87.0931C62.7283 87.746 63.6636 88.3499 64.4928 88.7651C64.9079 88.9729 65.2799 89.1251 65.5857 89.2148C65.9122 89.3105 66.0813 89.3101 66.1308 89.3008C66.1431 89.2985 66.0928 89.3055 66.0313 89.3618C65.9632 89.4242 65.9387 89.4945 65.9332 89.5245C65.931 89.5364 65.9485 89.388 65.7624 88.9731L66.4725 88.6545ZM59.4574 85.6475L58.7895 86.047C58.6552 85.8225 58.5534 85.6558 58.4755 85.535C58.3896 85.4017 58.3579 85.3643 58.3614 85.368C58.3654 85.3724 58.3805 85.3887 58.4059 85.4097C58.4284 85.4284 58.4809 85.4694 58.5605 85.5048C58.6407 85.5405 58.7873 85.5876 58.9723 85.5597C59.1726 85.5296 59.3256 85.4259 59.4239 85.3147C59.5111 85.216 59.5496 85.1196 59.5655 85.0734C59.583 85.0227 59.5895 84.9837 59.5919 84.9675C59.5964 84.937 59.5949 84.9256 59.5949 84.9521C59.5949 85.1306 59.6988 86.0698 59.5511 86.9756C59.3938 87.9395 58.9435 89.0728 57.7599 89.8501C56.5993 90.6124 54.868 90.942 52.3467 90.6298L52.4424 89.8574L52.538 89.085C54.8733 89.3742 56.1774 89.0272 56.9054 88.549C57.6105 88.0859 57.9022 87.415 58.0148 86.725C58.1368 85.9769 58.0383 85.4126 58.0383 84.9521C58.0383 84.8987 58.04 84.8209 58.0522 84.7389C58.0586 84.6957 58.0874 84.4762 58.2578 84.2835C58.3651 84.1622 58.5285 84.0524 58.7408 84.0204C58.9379 83.9908 59.0981 84.0403 59.1937 84.0829C59.3623 84.1579 59.4707 84.2747 59.508 84.3153C59.6042 84.4201 59.699 84.56 59.7838 84.6916C59.8767 84.8357 59.9898 85.0213 60.1254 85.2479L59.4574 85.6475ZM52.4424 89.8574L52.3467 90.6298C48.7142 90.1799 46.3098 88.8556 44.8322 87.0918C43.3604 85.3349 42.8847 83.2332 42.9304 81.3664L43.7085 81.3855L44.4865 81.4045C44.4477 82.9895 44.8524 84.692 46.0254 86.0922C47.1926 87.4855 49.1975 88.6713 52.538 89.085L52.4424 89.8574ZM43.7085 81.3855L42.9304 81.3664C42.9409 80.9383 42.9787 80.5207 43.0387 80.1196L43.8084 80.2348L44.5782 80.3499C44.5274 80.6896 44.4954 81.0431 44.4865 81.4045L43.7085 81.3855ZM43.8084 80.2348H44.5867C44.5867 80.6454 44.5486 81.0739 44.4764 81.512L43.7085 81.3855L42.9405 81.259C43.0007 80.8935 43.0301 80.5502 43.0301 80.2348H43.8084ZM43.7085 81.3855L44.4764 81.512C44.1447 83.5253 43.0758 85.8542 41.4357 87.7955C39.7919 89.7412 37.5245 91.3544 34.7664 91.8273L34.6349 91.0602L34.5033 90.2931C36.8106 89.8975 38.7734 88.5347 40.2467 86.7909C41.7237 85.0427 42.6589 82.9685 42.9405 81.259L43.7085 81.3855ZM34.6349 91.0602V90.2819H75.1064V91.0602V91.8385H34.6349V91.0602Z" fill="#8585D6"/>
<path d="M90.6729 91.0602C83.7657 85.2866 82.0389 79.8338 82.0389 77.8291C81.4993 80.2348 79.2025 82.7607 80.4976 85.6475C82.1164 89.256 76.5501 88.1991 75.0238 85.6475C72.8654 82.039 77.7219 91.0602 68.0088 89.8574C61.0358 88.9939 59.1903 84.8372 59.2749 81.3855C59.341 80.9837 59.3748 80.5978 59.3748 80.2348C59.3194 80.6051 59.2845 80.9907 59.2749 81.3855C58.6616 85.1083 55.2667 90.1917 50.2013 91.0602H90.6729Z" fill="#8585D6"/>
<path d="M90.6729 91.0602L91.172 90.463C91.4233 90.6731 91.5162 91.0179 91.4045 91.3257C91.2928 91.6335 91.0003 91.8385 90.6729 91.8385V91.0602ZM82.0389 77.8291L81.2795 77.6588C81.3663 77.2717 81.7303 77.0119 82.1246 77.0555C82.5189 77.0992 82.8172 77.4324 82.8172 77.8291H82.0389ZM80.4976 85.6475L81.2077 85.3289V85.3289L80.4976 85.6475ZM75.0238 85.6475L75.6918 85.2479V85.2479L75.0238 85.6475ZM68.0088 89.8574L68.1044 89.085V89.085L68.0088 89.8574ZM59.3748 80.2348L58.6051 80.1196C58.6654 79.7167 59.0262 79.4284 59.4325 79.4586C59.8389 79.4888 60.1531 79.8273 60.1531 80.2348H59.3748ZM50.2013 91.0602V91.8385C49.797 91.8385 49.4601 91.529 49.4258 91.1262C49.3915 90.7234 49.6713 90.3614 50.0697 90.2931L50.2013 91.0602ZM90.6729 91.0602L90.1737 91.6573C83.1547 85.7903 81.2606 80.1376 81.2606 77.8291H82.0389H82.8172C82.8172 79.5301 84.3767 84.7829 91.172 90.463L90.6729 91.0602ZM82.0389 77.8291L82.7983 77.9995C82.646 78.6787 82.3748 79.3457 82.1015 79.9713C81.8187 80.6184 81.5396 81.2096 81.3099 81.8286C80.8602 83.0407 80.6819 84.157 81.2077 85.3289L80.4976 85.6475L79.7874 85.9661C79.0181 84.2511 79.3407 82.6611 79.8505 81.2871C80.1006 80.613 80.4159 79.9413 80.6751 79.348C80.9437 78.7332 81.162 78.1823 81.2795 77.6588L82.0389 77.8291ZM80.4976 85.6475L81.2077 85.3289C81.6555 86.327 81.7471 87.3211 81.1291 88.0371C80.5577 88.6991 79.6324 88.8056 78.866 88.7323C78.0525 88.6544 77.1601 88.3563 76.368 87.9091C75.5786 87.4634 74.8268 86.8343 74.3559 86.047L75.0238 85.6475L75.6918 85.2479C75.984 85.7365 76.5004 86.1963 77.1333 86.5536C77.7636 86.9095 78.4477 87.1285 79.0143 87.1827C79.6279 87.2415 79.886 87.0951 79.9507 87.0201C79.9687 86.9992 80.1491 86.7722 79.7874 85.9661L80.4976 85.6475ZM75.0238 85.6475L74.3559 86.047C74.2217 85.8225 74.1198 85.6558 74.0419 85.535C73.956 85.4017 73.9243 85.3643 73.9278 85.368C73.9318 85.3724 73.9469 85.3887 73.9723 85.4097C73.9948 85.4284 74.0473 85.4694 74.1269 85.5048C74.2071 85.5405 74.3537 85.5876 74.5387 85.5597C74.739 85.5296 74.892 85.4259 74.9903 85.3147C75.0776 85.216 75.116 85.1196 75.132 85.0734C75.1494 85.0227 75.1559 84.9837 75.1583 84.9675C75.1628 84.937 75.1613 84.9256 75.1613 84.9521C75.1613 85.1306 75.2652 86.0698 75.1175 86.9756C74.9602 87.9395 74.5099 89.0728 73.3263 89.8501C72.1657 90.6124 70.4344 90.942 67.9131 90.6298L68.0088 89.8574L68.1044 89.085C70.4397 89.3742 71.7438 89.0272 72.4718 88.549C73.1769 88.0859 73.4686 87.415 73.5812 86.725C73.7032 85.9769 73.6047 85.4126 73.6047 84.9521C73.6047 84.8987 73.6064 84.8209 73.6186 84.7389C73.625 84.6957 73.6538 84.4762 73.8242 84.2835C73.9315 84.1622 74.0949 84.0524 74.3072 84.0205C74.5043 83.9908 74.6645 84.0403 74.7601 84.0829C74.9287 84.1579 75.0371 84.2747 75.0744 84.3153C75.1706 84.4201 75.2654 84.56 75.3502 84.6916C75.4431 84.8357 75.5562 85.0213 75.6918 85.2479L75.0238 85.6475ZM68.0088 89.8574L67.9131 90.6298C64.2806 90.1799 61.8762 88.8556 60.3986 87.0918C58.9268 85.3349 58.4511 83.2332 58.4968 81.3664L59.2749 81.3855L60.0529 81.4045C60.0141 82.9895 60.4188 84.692 61.5918 86.0922C62.7591 87.4855 64.7639 88.6713 68.1044 89.085L68.0088 89.8574ZM59.2749 81.3855L58.4968 81.3664C58.5073 80.9383 58.5451 80.5207 58.6051 80.1196L59.3748 80.2348L60.1446 80.3499C60.0938 80.6896 60.0618 81.0431 60.0529 81.4045L59.2749 81.3855ZM59.3748 80.2348H60.1531C60.1531 80.6454 60.115 81.0739 60.0428 81.512L59.2749 81.3855L58.5069 81.259C58.5671 80.8935 58.5965 80.5502 58.5965 80.2348H59.3748ZM59.2749 81.3855L60.0428 81.512C59.7111 83.5253 58.6422 85.8542 57.0021 87.7955C55.3583 89.7412 53.0909 91.3544 50.3328 91.8273L50.2013 91.0602L50.0697 90.2931C52.377 89.8975 54.3398 88.5347 55.8131 86.7909C57.2901 85.0427 58.2253 82.9685 58.5069 81.259L59.2749 81.3855ZM50.2013 91.0602V90.2819H90.6729V91.0602V91.8385H50.2013V91.0602Z" fill="#8585D6"/>
<path d="M91.8159 23.7599C85.0955 17.0553 76.1034 13.1172 66.6185 12.7248C57.1337 12.3324 47.847 15.5141 40.5957 21.6407C33.3443 27.7672 28.6566 36.3922 27.4597 45.8095C26.2629 55.2267 28.6442 64.7501 34.1325 72.4957C39.6208 80.2414 47.8163 85.645 57.0978 87.6376C66.3793 89.6302 76.0706 88.0666 84.2545 83.2562C92.4384 78.4458 98.5188 70.7389 101.293 61.6603C104.067 52.5817 103.332 42.7926 99.2344 34.2296" fill="white"/>
<path d="M91.8159 23.7599C85.0955 17.0553 76.1034 13.1172 66.6185 12.7248C57.1337 12.3324 47.847 15.5141 40.5957 21.6407C33.3443 27.7672 28.6566 36.3922 27.4597 45.8095C26.2629 55.2267 28.6442 64.7501 34.1325 72.4957C39.6208 80.2414 47.8163 85.645 57.0978 87.6376C66.3793 89.6302 76.0706 88.0666 84.2545 83.2562C92.4384 78.4458 98.5188 70.7389 101.293 61.6603C104.067 52.5817 103.332 42.7926 99.2344 34.2296" stroke="#6666CC" stroke-width="6.32368" stroke-linecap="round" stroke-linejoin="round"/>
<path d="M78.4019 37.1763C75.2636 34.0419 71.1263 32.1061 66.709 31.7055C62.2917 31.3049 57.8736 32.4647 54.2227 34.9834C50.5717 37.5021 47.9187 41.2204 46.7247 45.4921C45.5307 49.7638 45.8712 54.3189 47.6871 58.3656C49.5029 62.4123 52.6793 65.6949 56.6641 67.6428C60.649 69.5906 65.1903 70.0807 69.499 69.0278C73.8077 67.9748 77.6112 65.4455 80.2485 61.8793C82.8859 58.3131 84.1903 53.9356 83.9351 49.5075" stroke="#6666CC" stroke-width="6.32368" stroke-linecap="round" stroke-linejoin="round"/>
<path d="M101.581 14.8359L66.8008 51.1971" stroke="#5252A3" stroke-width="6.32368" stroke-linecap="round"/>
<path d="M107.201 2.18945L98.418 10.9723V17.9987H105.444L114.227 9.21577L107.201 9.24517V2.18945Z" fill="#5252A3" stroke="#6666CC" stroke-width="1.58092" stroke-linecap="square" stroke-linejoin="round"/>
<path d="M10.724 71.0048C10.9024 71.1248 10.9497 71.3666 10.8297 71.5449C10.7098 71.7232 10.468 71.7706 10.2896 71.6506L10.5068 71.3277L10.724 71.0048ZM8.16072 68.4346L7.78586 68.3301C7.8381 68.1427 8.02071 68.0226 8.21346 68.049C8.4062 68.0754 8.54987 68.24 8.54987 68.4346H8.16072ZM4.34829 71.0647L4.3097 71.4519L4.34829 71.0647ZM2.14881 68.4346L1.76621 68.3635C1.80295 68.1658 1.98427 68.0286 2.18451 68.0471C2.38475 68.0655 2.53796 68.2335 2.53796 68.4346H2.14881ZM0.442411 71.4502C0.229506 71.4796 0.0331001 71.3308 0.0037241 71.1179C-0.0256519 70.905 0.123128 70.7086 0.336033 70.6792L0.389222 71.0647L0.442411 71.4502ZM10.5068 71.3277L10.2896 71.6506C9.31697 70.9963 8.69313 70.3496 8.30951 69.7929C7.93352 69.2473 7.77157 68.7625 7.77157 68.4346H8.16072H8.54987C8.54987 68.545 8.62254 68.8755 8.95038 69.3513C9.27059 69.816 9.81981 70.3966 10.724 71.0048L10.5068 71.3277ZM8.16072 68.4346L8.53558 68.5391C8.4686 68.7794 8.38611 69.1856 8.36228 69.601C8.33749 70.0328 8.38127 70.3981 8.50062 70.6122L8.16072 70.8017L7.82083 70.9912C7.58826 70.574 7.55872 70.0188 7.58526 69.5564C7.61274 69.0775 7.70622 68.6158 7.78586 68.3301L8.16072 68.4346ZM8.16072 70.8017L8.50062 70.6122C8.57101 70.7384 8.65222 70.9385 8.58045 71.1513C8.49802 71.3957 8.28135 71.4812 8.14558 71.5067C8.00745 71.5327 7.86103 71.5197 7.73469 71.4965C7.60231 71.4722 7.46257 71.431 7.32617 71.3792C7.05719 71.2772 6.7671 71.1209 6.54566 70.9299C6.35237 70.7633 6.08012 70.4533 6.16795 70.0594L6.54777 70.1441L6.92759 70.2288C6.9421 70.1638 6.8898 70.199 7.05393 70.3405C7.1899 70.4578 7.39469 70.5728 7.60227 70.6515C7.70415 70.6902 7.7981 70.7168 7.87536 70.731C7.91375 70.7381 7.94478 70.7414 7.96832 70.7424C7.99274 70.7435 8.00283 70.7416 8.00174 70.7418C8.0007 70.742 7.99458 70.7432 7.98483 70.7469C7.97504 70.7506 7.95991 70.7575 7.94229 70.7696C7.90326 70.7964 7.86356 70.8415 7.84295 70.9026C7.8067 71.0101 7.86041 71.0622 7.82083 70.9912L8.16072 70.8017ZM6.54777 70.1441L6.16795 70.0594C6.18024 70.0043 6.19611 69.949 6.21758 69.898C6.23254 69.8625 6.27371 69.7691 6.36519 69.6982C6.41751 69.6576 6.51742 69.6014 6.65156 69.6139C6.79036 69.6268 6.8823 69.7052 6.93023 69.7656C7.00987 69.8659 7.02145 69.9766 7.02469 70.0125C7.04179 70.2017 6.96939 70.451 6.81305 70.6775C6.46829 71.177 5.71797 71.5923 4.3097 71.4519L4.34829 71.0647L4.38688 70.6775C5.61798 70.8001 6.04072 70.4264 6.17252 70.2354C6.25445 70.1167 6.2462 70.0455 6.24955 70.0826C6.25034 70.0913 6.25252 70.1093 6.25952 70.1331C6.26553 70.1535 6.28129 70.1999 6.3206 70.2494C6.3627 70.3024 6.44797 70.3766 6.57943 70.3888C6.70625 70.4007 6.79817 70.3473 6.84204 70.3133C6.88549 70.2796 6.90906 70.2452 6.91799 70.2313C6.92855 70.2148 6.93364 70.203 6.93488 70.2C6.93723 70.1944 6.93362 70.2018 6.92759 70.2288L6.54777 70.1441ZM4.34829 71.0647L4.3097 71.4519C3.14291 71.3356 2.43737 70.8135 2.06385 70.1596C1.70361 69.5291 1.68029 68.8258 1.76621 68.3635L2.14881 68.4346L2.53141 68.5057C2.4707 68.8324 2.49136 69.339 2.73965 69.7736C2.97464 70.1849 3.44216 70.5833 4.38688 70.6775L4.34829 71.0647ZM2.14881 68.4346H2.53796C2.53796 68.8693 2.47686 69.5392 2.19295 70.1421C1.90077 70.7626 1.36318 71.3231 0.442411 71.4502L0.389222 71.0647L0.336033 70.6792C0.940239 70.5958 1.28244 70.2488 1.48881 69.8106C1.70345 69.3548 1.75966 68.8149 1.75966 68.4346H2.14881Z" fill="#A3A3E0"/>
</svg>
