<svg width="214" height="214" viewBox="0 0 214 214" fill="none" xmlns="http://www.w3.org/2000/svg">
<path fill-rule="evenodd" clip-rule="evenodd" d="M184.961 85.0432C185.132 85.3963 185.785 85.5033 186.213 85.5782C189.701 86.1988 204.82 86.5198 206.275 85.2679C207.549 84.1979 206.842 66.7141 205.601 66.0079C203.996 65.0556 186.491 64.8737 185.271 65.8474C184.383 66.5857 183.827 82.5715 184.961 85.0432ZM185.539 66.0721C186.512 65.2589 203.611 65.8688 205.152 66.6178C205.976 68.822 206.511 82.6678 205.708 84.6366C204.403 85.5354 188.406 85.5033 185.614 84.6366C184.522 82.0151 184.929 66.5857 185.539 66.0721ZM137.354 67.258C138.084 66.8415 138.894 66.5842 139.731 66.5031C140.568 66.4219 141.413 66.5188 142.21 66.7873C142.228 66.8055 142.251 66.8193 142.276 66.8274C142.3 66.8356 142.327 66.838 142.352 66.8345C142.378 66.8309 142.403 66.8215 142.425 66.8069C142.446 66.7924 142.464 66.7731 142.477 66.7505C142.491 66.7279 142.498 66.7026 142.5 66.6765C142.502 66.6505 142.498 66.6244 142.488 66.6002C142.478 66.5761 142.463 66.5545 142.443 66.5371C142.424 66.5197 142.4 66.507 142.375 66.5C140.991 65.1321 138.013 65.3896 137.071 67.0205C137.039 67.0581 137.024 67.1065 137.028 67.1553C137.033 67.2042 137.056 67.2493 137.094 67.2808C137.131 67.3123 137.18 67.3275 137.228 67.3233C137.277 67.319 137.322 67.2956 137.354 67.258ZM133.665 54.6231V55.6931C133.665 55.835 133.721 55.9711 133.822 56.0714C133.922 56.1718 134.058 56.2281 134.2 56.2281C134.341 56.2254 134.476 56.1682 134.575 56.0684C134.675 55.9687 134.732 55.8342 134.735 55.6931V54.6231C134.735 54.4812 134.679 54.3452 134.578 54.2448C134.478 54.1445 134.342 54.0881 134.2 54.0881C134.058 54.0881 133.922 54.1445 133.822 54.2448C133.721 54.3452 133.665 54.4812 133.665 54.6231ZM144.333 55.6396C144.333 55.7815 144.389 55.9176 144.49 56.0179C144.59 56.1183 144.726 56.1746 144.868 56.1746C145.01 56.1746 145.146 56.1183 145.246 56.0179C145.347 55.9176 145.403 55.7815 145.403 55.6396V54.3128C145.403 54.1709 145.347 54.0349 145.246 53.9345C145.146 53.8342 145.01 53.7778 144.868 53.7778C144.726 53.7778 144.59 53.8342 144.49 53.9345C144.389 54.0349 144.333 54.1709 144.333 54.3128C144.29 54.7729 144.333 55.3079 144.333 55.6396Z" fill="#292952"/>
<path fill-rule="evenodd" clip-rule="evenodd" d="M206.149 132.998C206.079 132.879 205.979 132.779 205.86 132.709C204.94 132.26 199.932 132.485 198.894 132.527C199.076 104.461 184.289 86.9561 162.825 81.9378C158.887 81.0176 158.876 80.9534 158.769 81.0176L158.042 79.0167C160.096 78.9525 161.776 77.3689 163.659 77.6899C165.082 77.9253 165.799 79.1879 167.201 79.7229C169.576 80.6217 173.803 79.2414 175.097 76.9837C175.761 75.8067 175.172 74.5869 175.59 73.7737C176.339 73.121 178.468 72.0724 179.078 71.3127C180.33 69.7505 180.383 66.2516 179.816 64.3577C178.792 62.2146 177.398 60.2693 175.697 58.6118C173.846 56.8287 172.206 54.8398 170.807 52.684C169.084 49.2493 169.02 44.4985 167.597 40.914C166.028 37.6775 163.6 34.9346 160.578 32.9853C157.626 30.9002 154.066 29.8505 150.455 30C147.085 30.214 145.769 31.6478 144.196 32.14C142.623 32.6322 142.291 32.14 139.734 33.2635C138.719 33.8822 137.814 34.6671 137.059 35.5854C136.738 35.9278 136.759 35.9492 136.214 35.9706C135.626 35.9264 135.036 35.9264 134.448 35.9706C133.446 36.1929 132.488 36.5798 131.613 37.1155C125.653 40.6893 127.258 47.8797 125.011 53.1655C123.481 56.7607 119.222 60.2168 118.858 63.9725C118.729 65.6994 119.101 67.4268 119.928 68.948C122.528 73.5169 126.263 69.9324 128.199 72.7251C128.809 73.6025 129.269 74.4585 130.404 74.6297C131.848 74.8223 133.817 73.6774 134.994 72.8321C135.241 73.1204 135.521 73.379 135.828 73.6025C136.872 74.3057 137.992 74.8873 139.167 75.3359L136.449 79.1344C131.356 78.5566 123.534 80.2044 118.494 81.7559C118.313 80.4719 116.729 69.8682 115.531 69.3546C113.872 68.627 96.4632 70.6493 95.4039 71.7942C94.6228 72.6288 96.0245 88.5183 97.5439 90.8937C97.7686 91.2575 98.539 91.2682 98.967 91.2789C96.4632 92.9909 94.045 94.7243 93.1783 95.3556C92.5042 93.023 88.9625 80.6859 87.6571 78.6636C87.2826 78.0751 86.9402 78.0858 85.2175 78.6636C84.2356 73.7643 82.9926 68.921 81.4939 64.1544C82.0558 63.2306 82.5049 62.2427 82.8314 61.2119C83.2302 59.5792 83.2884 57.8819 83.0026 56.2257C84.308 56.6644 92.1083 58.8044 93.3709 58.1838C93.71 57.9418 93.9616 57.5964 94.0878 57.1994C95.4681 54.182 97.8328 43.8779 98.0147 40.6144C98.0896 40.1965 98.0178 39.7656 97.8114 39.3946C96.5595 38.0892 79.7177 33.2421 78.2946 33.8841C77.4279 34.28 75.0846 41.9733 74.8385 42.8828C72.7948 49.7415 73.8327 48.2328 72.6985 48.6287C71.3931 49.0888 70.2696 51.8387 69.8095 53.112C69.3494 54.3853 68.8679 56.0973 69.4136 57.1031C69.192 57.5122 69.1028 57.9799 69.1584 58.4418C69.214 58.9037 69.4116 59.337 69.7239 59.6818C69.3836 60.0611 69.1618 60.5317 69.0857 61.0355C69.0097 61.5394 69.0827 62.0545 69.2959 62.5173C69.6062 63.491 71.5429 64.133 72.5059 64.4112C71.7456 66.4601 71.1131 68.5542 70.612 70.6814C69.7585 73.9823 69.0763 77.3252 68.5683 80.6966C68.2518 82.3349 68.1475 84.0072 68.258 85.6721L66.5032 86.4639C66.4357 86.4948 66.3786 86.5446 66.3387 86.6073C66.2988 86.6699 66.2779 86.7428 66.2785 86.817C66.2785 86.817 66.6102 99.7854 70.8795 110.56C76.0369 123.604 84.522 127.969 97.4369 123.09C97.5533 124.114 97.8052 125.118 98.1859 126.075C98.3785 126.418 99.0312 126.482 99.4699 126.525C103.268 126.649 107.071 126.531 110.855 126.172L114.065 146.502C113.198 149.005 103.365 177.532 103.504 180.185C103.504 180.463 103.611 180.677 104.071 180.891C106.906 182.208 133.774 185.717 134.791 182.785C135.047 182.068 135.668 177.499 135.786 176.633L150.905 174.964L165.318 175.916C165.473 177.359 165.73 178.789 166.088 180.196C166.216 180.517 166.366 180.688 166.741 180.656C168.164 180.517 175.75 179.147 177.847 178.751C185.894 177.232 185.712 177.104 185.476 176.312C184.909 174.439 179.645 159.834 177.591 153.018C180.596 153.339 183.627 153.339 186.632 153.018C186.665 153.134 186.726 153.24 186.81 153.326C186.894 153.412 186.998 153.475 187.114 153.51C189.072 154.227 206.566 153.232 208 151.798C209.295 150.653 207.123 134.625 206.149 132.998ZM78.316 34.3442C78.4337 34.1623 78.3909 34.0874 79.3325 34.2265C83.2594 34.7829 96.0994 38.9238 97.2122 39.8975C97.4262 42.3478 94.2483 55.7977 92.9964 57.4241C92.0869 57.7344 86.0521 56.1936 85.1212 55.9475C78.0378 54.0964 78.316 53.8075 76.7003 53.433C75.8657 53.1441 75.7801 53.1334 75.8015 53.0157C75.8041 52.9892 75.8166 52.9647 75.8364 52.9469C75.8562 52.9291 75.8819 52.9193 75.9085 52.9194C76.8715 52.9194 79.4502 52.8445 80.0815 52.0955C80.2208 51.9432 80.3248 51.762 80.386 51.5648C80.4472 51.3677 80.4641 51.1594 80.4355 50.955C80.4069 50.7505 80.3334 50.5549 80.2204 50.3821C80.1075 50.2094 79.9577 50.0637 79.7819 49.9555C78.4067 49.4046 76.9694 49.0237 75.5019 48.8213C75.0632 48.7357 74.5282 48.5859 73.9932 48.5217C74.7315 45.1833 77.1711 36.1204 78.316 34.3442ZM69.1247 85.319V83.6605C69.221 81.6275 70.1947 76.2882 70.4836 74.8223C70.9544 72.4469 71.0614 71.9119 72.431 66.7545C72.431 66.6154 73.2549 64.3149 73.2549 64.3149C73.2696 64.275 73.2757 64.2323 73.2727 64.1898C73.2697 64.1474 73.2577 64.106 73.2374 64.0686C73.2172 64.0311 73.1892 63.9984 73.1553 63.9726C73.1214 63.9468 73.0824 63.9285 73.0409 63.919C72.9232 63.919 70.1412 63.2342 69.8309 62.3461C69.5206 61.458 69.4564 60.388 70.2375 59.9172C70.2662 59.8964 70.2896 59.869 70.3057 59.8374C70.3219 59.8058 70.3303 59.7708 70.3303 59.7353C70.3303 59.6998 70.3219 59.6648 70.3057 59.6332C70.2896 59.6016 70.2662 59.5742 70.2375 59.5534C69.8955 59.2727 69.6654 58.8787 69.5889 58.443C69.5123 58.0072 69.5944 57.5585 69.8202 57.178C70.0663 56.6751 68.7502 56.9212 70.3124 53.3153C70.7083 52.4272 72.0458 49.6987 72.9553 49.3991C73.7606 49.3205 74.5735 49.4116 75.3414 49.6666C76.6825 49.8778 78.0008 50.2146 79.279 50.6724C79.3603 50.7161 79.4304 50.7779 79.4838 50.8532C79.5373 50.9284 79.5726 51.015 79.5871 51.1061C79.6016 51.1972 79.5949 51.2905 79.5674 51.3786C79.5399 51.4667 79.4925 51.5473 79.4288 51.614C78.9587 51.8804 78.4437 52.0581 77.9094 52.1383C74.5389 52.8017 75.1381 52.0634 74.6994 53.2083C73.4118 53.1328 72.1246 53.3638 70.9437 53.8824C70.4836 53.9787 70.6762 54.2783 71.0079 54.2248C72.4415 53.755 73.9747 53.6774 75.4484 54.0001C76.3034 54.1564 77.1392 54.4039 77.9415 54.7384C78.669 55.0339 79.3149 55.5 79.8247 56.0973C79.9157 56.3237 79.9497 56.5689 79.9235 56.8115C79.8974 57.0541 79.812 57.2865 79.6749 57.4883C79.4181 57.8842 78.1769 57.6167 77.7061 57.4883C77.0641 57.2957 76.39 57.1352 75.7587 56.9319C74.8706 56.6537 74.9669 56.5788 74.6887 56.6002C73.7073 56.7392 72.7474 57.0017 71.8318 57.3813C71.8059 57.3843 71.781 57.3931 71.759 57.4071C71.7371 57.4212 71.7186 57.4401 71.705 57.4623C71.6915 57.4846 71.6832 57.5097 71.6808 57.5356C71.6784 57.5616 71.6819 57.5877 71.6912 57.6121C71.7004 57.6365 71.7151 57.6584 71.7341 57.6763C71.7531 57.6941 71.776 57.7073 71.8009 57.715C71.8258 57.7227 71.8521 57.7246 71.8779 57.7205C71.9036 57.7164 71.9281 57.7066 71.9495 57.6916C72.769 57.4605 73.6066 57.2995 74.4533 57.2101C74.9348 57.2101 74.6245 57.2101 75.8336 57.6916C76.3793 57.8949 76.9036 58.0554 77.4814 58.248C77.8531 58.3754 78.2366 58.465 78.6263 58.5155C79.3111 59.1575 79.8033 60.6555 78.8831 60.923C78.5215 60.9853 78.1496 60.9407 77.8131 60.7946C75.3628 59.9921 77.0213 59.4143 71.7034 60.5057C71.6599 60.5111 71.6201 60.5329 71.5922 60.5668C71.5643 60.6006 71.5505 60.6439 71.5536 60.6876C71.5536 60.9658 71.7355 60.7946 74.678 60.6876C75.0338 60.6518 75.3922 60.6518 75.748 60.6876C76.6682 61.1584 78.0378 61.9609 79.0971 61.6506C80.3918 61.2333 80.349 59.7995 79.5144 58.7509C79.2148 58.3871 79.1827 58.4941 79.4395 58.4513C79.6273 58.4309 79.8088 58.3719 79.9727 58.278C80.1366 58.1841 80.2793 58.0573 80.3918 57.9056C80.6452 57.556 80.7869 57.138 80.7984 56.7064C80.8098 56.2749 80.6905 55.8499 80.456 55.4874L82.2536 56.0224C82.6095 57.6797 82.5802 59.3965 82.168 61.0407C82.0533 61.4421 81.9029 61.8324 81.7186 62.207C80.9375 63.8548 80.6486 63.9083 80.7449 64.2186C82.2317 69.0533 83.4569 73.9645 84.415 78.9311C80.3811 80.3435 72.9874 83.5963 69.1247 85.319ZM153.794 159.673C158.373 159.866 168.217 160.219 172.733 160.08C172.422 161.428 172.23 162.284 172.176 162.477C170.026 162.477 156.126 160.069 153.794 159.673ZM174.466 159.128C171.599 159.802 134.373 158.346 131.185 156.988C131.516 154.591 134.641 141.12 135.272 138.37C138.08 139.229 141.002 139.662 143.939 139.654C145.009 140.21 146.775 141.173 147.834 141.676C147.716 142.585 147.427 144.736 148.069 145.378C148.711 146.02 163.488 151.445 176.446 152.964C175.923 155.06 175.262 157.119 174.466 159.128ZM134.93 133.373C134.437 133.223 133.981 132.972 133.592 132.634C133.314 132.335 133.41 131.425 133.592 130.997C133.692 130.789 133.868 130.628 134.084 130.548C134.346 130.434 134.624 130.366 134.908 130.345C134.993 130.343 135.076 130.315 135.144 130.265C135.213 130.215 135.265 130.145 135.293 130.065C135.321 129.984 135.323 129.897 135.301 129.815C135.278 129.734 135.23 129.661 135.165 129.606C134.539 129.079 134.103 128.361 133.924 127.563C133.924 126.974 134.149 126.364 135.09 125.829C136.16 125.915 139.37 128.568 140.857 127.038C142.345 125.508 140.59 121.924 142.248 121.624C143.907 121.325 144.742 126.311 145.03 126.856C145.993 128.729 148.583 130.066 150.059 131.607C149.168 134.797 148.453 138.033 147.919 141.301C145.779 140.157 144.196 139.161 144.035 139.161C141.799 139.087 135.796 138.466 134.234 136.872C133.956 136.657 133.766 136.349 133.699 136.004C133.632 135.659 133.693 135.302 133.87 134.999C133.984 134.798 134.138 134.622 134.322 134.482C134.506 134.343 134.716 134.242 134.94 134.186C135.032 134.163 135.113 134.111 135.171 134.036C135.229 133.961 135.26 133.869 135.259 133.775C135.257 133.681 135.224 133.59 135.164 133.516C135.105 133.443 135.022 133.393 134.93 133.373ZM146.849 97.7417C144.862 97.5515 142.865 97.4729 140.868 97.5063C140.611 97.5063 140.397 97.6347 140.322 97.8808C140.141 98.5656 137.112 120.822 136.963 121.913C136.321 111.213 135.657 99.9459 135.165 91.6855C138.889 97.624 139.21 98.2125 139.798 97.7952C141.782 96.1635 143.659 94.405 145.416 92.5308C145.737 93.7185 146.25 95.6552 146.849 97.7417ZM156.64 93.986C155.912 92.916 155.195 91.846 154.928 91.4501L158.384 82.751L156.64 93.986ZM159.133 81.7024C163.18 82.5369 167.126 83.8032 170.903 85.4795C170.743 85.9824 168.677 92.2954 166.206 99.8282C165.072 99.6891 158.577 98.8973 156.576 98.6833L159.133 81.7024ZM154.757 92.6378L156.447 95.1844L155.912 98.6084L154.254 98.3944C154.5 96.0725 154.671 93.8683 154.757 92.6378ZM184.299 103.926C184.286 105.319 184.15 106.709 183.893 108.078C180.223 107.136 148.208 99.2611 144.956 101.112C143.329 102.054 137.979 124.01 137.466 125.99L137.08 125.797C138.771 113.909 141.018 98.3195 141.018 98.2767C144.667 97.8594 179.816 101.84 184.299 103.926ZM165.628 126.3C163.231 126.14 153.719 125.669 151.718 126.996C151.408 127.21 151.279 127.252 150.177 131.211C148.754 129.703 146.368 128.28 145.565 126.6C145.202 125.861 144.613 120.469 142.12 120.886C138.76 121.453 143.051 128.376 138.086 126.236C138.407 124.877 143.672 102.214 145.137 101.38C148.24 99.6142 182.085 108.228 186.365 109.437C186.118 112.048 182.973 125.979 182.395 128.526C176.854 127.461 171.255 126.718 165.628 126.3ZM149.15 51.4535C149.749 51.8601 149.728 52.8338 149.621 53.54C148.872 58.3229 144.078 61.2226 140.75 56.643C139.991 55.573 139.402 52.1704 139.916 51.4214C140.258 50.9827 143.019 50.9613 143.575 50.9613C144.602 50.972 148.615 51.1325 149.107 51.4535H149.15ZM136.406 52.2239C136.406 54.2355 135.732 57.5739 133.945 58.5369C131.067 60.0349 128.146 57.6595 128.071 54.5672C127.961 53.4383 128.015 52.2994 128.231 51.186L128.338 51.1325C128.167 50.8329 135.689 50.7366 136.363 51.4107C136.386 51.6813 136.386 51.9533 136.363 52.2239H136.406ZM140.13 75.5178C141.981 76.0528 144.966 75.796 146.4 74.3301C146.43 74.2983 146.447 74.2562 146.447 74.2124C146.447 74.1686 146.43 74.1265 146.4 74.0947C146.154 73.7951 146.4 74.3729 143.618 74.7902C140.836 75.2075 139.156 74.7902 136.342 72.9605C135.049 71.7722 134.08 70.2732 133.528 68.6056C132.376 65.7834 131.654 62.8041 131.388 59.7674C132.395 59.9323 133.428 59.7632 134.33 59.2859C135.206 58.7739 135.884 57.9826 136.256 57.0389C135.895 58.1696 135.599 59.3199 135.368 60.4843C135.318 60.6334 135.311 60.7935 135.347 60.9466C135.383 61.0997 135.461 61.2397 135.572 61.351C136.312 61.8032 137.183 61.9918 138.043 61.886C138.069 61.8925 138.095 61.8931 138.121 61.8878C138.146 61.8825 138.17 61.8714 138.191 61.8554C138.211 61.8394 138.228 61.8189 138.24 61.7954C138.251 61.772 138.257 61.7462 138.257 61.7201C138.257 61.6941 138.251 61.6683 138.24 61.6449C138.228 61.6214 138.211 61.6009 138.191 61.5849C138.17 61.5689 138.146 61.5578 138.121 61.5525C138.095 61.5472 138.069 61.5478 138.043 61.5543C137.409 61.4836 136.796 61.2794 136.246 60.9551C136 60.7839 136.107 60.8909 136.182 60.5378C136.256 60.1847 137.647 55.0808 137.722 54.7598C138.054 54.7598 139.317 54.5886 139.317 54.2783C139.317 53.968 138.164 53.9038 138.164 53.9038L138 53.8828H137.859H137.762H137.598H137.395C137.395 53.8828 137.188 53.9038 137.091 54.0001C137.284 53.0108 137.284 51.9934 137.091 51.0041C136.481 50.0625 132.811 50.2765 131.613 50.3514C132.223 46.7669 134.598 45.0014 136.053 42.1338C136.461 41.4682 137.004 40.8958 137.647 40.4539C137.968 40.3683 138.6 41.1708 138.985 41.3634C139.37 41.556 139.734 42.6153 140.055 42.9791C141.064 44.1283 142.227 45.1329 143.511 45.9644C144.581 46.7241 146.25 46.8418 146.978 47.8155C147.285 48.6435 147.434 49.5219 147.417 50.4049C146.036 50.3193 140.28 50.2337 139.595 51.2181C138.974 52.0099 139.242 55.6265 140.151 57.0175C142.441 60.4843 145.961 60.6983 148.711 57.5739C149.007 57.2051 149.258 56.8029 149.46 56.3755C151.515 59.5855 153.13 61.5008 153.205 65.2672C153.291 70.0394 151.943 77.9467 157.111 78.9418L157.999 81.3921C153.719 92.1563 153.944 91.4822 153.944 91.5892C153.944 91.6962 153.74 94.7992 153.366 98.3516C151.311 98.1376 149.396 97.9557 147.695 97.8166C147.566 97.3779 145.972 91.7069 146.004 91.5892C146.165 91.0542 145.362 90.0056 144.742 89.0747C142.414 85.7053 139.873 82.4886 137.134 79.4447L140.13 75.5178ZM136.363 79.7336C136.545 80.0118 144.249 88.4862 145.191 91.5999C143.46 93.5187 141.59 95.3069 139.595 96.9499C138.878 96.0083 136.941 92.9053 135.101 90.0056C134.769 84.4095 134.544 80.5147 134.491 79.7015C135.09 79.6587 135.764 79.6908 136.321 79.7336H136.363ZM98.1538 90.4336C96.934 88.2936 95.2434 74.3836 95.6393 72.2436C95.6393 72.051 95.6393 71.9868 96.5381 71.7407C100.369 70.7456 113.808 69.6007 115.22 70.0822C116.29 72.1687 118.634 85.7898 118.077 87.887C116.986 88.7644 101.3 90.9793 98.111 90.4336H98.1538ZM98.9028 125.637C97.6723 123.218 96.7628 107.714 97.3727 107.126C98.2822 106.248 115.359 105.499 116.975 106.131C118.045 108.378 119.564 122.181 118.933 124.053C117.478 125.144 101.428 126.214 98.86 125.637H98.9028ZM123.331 107.703C124.101 107.5 129.473 106.131 130.115 105.745C130.575 105.478 131.099 106.344 122.1 81.6489C123.17 80.6645 132.522 79.4019 133.999 79.862C133.999 80.4505 135.4 105.424 136.503 125.465C135.978 125.209 135.219 124.813 134.737 125.08C132.725 126.15 132.597 127.926 134.084 129.66C133.807 129.728 133.549 129.86 133.331 130.046C133.114 130.232 132.943 130.466 132.832 130.73C132.661 131.131 132.588 131.568 132.62 132.004C132.651 132.439 132.787 132.861 133.014 133.234C133.264 133.472 133.549 133.671 133.86 133.822C133.54 134.036 133.288 134.337 133.132 134.689C132.992 134.992 132.908 135.318 132.886 135.652L123.331 107.703ZM149.963 174.29L135.989 175.841C136.053 175.327 137.626 162.926 138.129 158.721C141.039 158.978 144.549 159.203 148.305 159.406C148.925 167.12 150.017 172.449 149.92 174.29H149.963ZM150.701 174.204C150.851 171.764 148.84 159.534 148.829 159.427L149.899 159.481C153.537 160.155 162.91 161.813 163.927 161.984C164.269 165.43 165.125 173.455 165.328 175.103C149.375 174.076 151.097 174.161 150.648 174.204H150.701ZM207.476 151.306C206.406 152.162 190.687 153.596 187.445 152.889C186.193 150.461 185.305 134.967 185.915 134.379C186.835 133.49 203.913 132.763 205.507 133.383C206.513 135.62 208.064 149.476 207.433 151.306H207.476Z" fill="#292952"/>
<path fill-rule="evenodd" clip-rule="evenodd" d="M99.1461 143.487C99.0605 143.102 98.9428 142.545 98.6325 142.417C97.5625 141.775 90.5112 141.646 89.2593 141.625C88.9811 136.521 88.4889 130.625 87.6864 129.042C87.1621 127.972 52.5797 127.865 51.392 127.854C51.4776 122.098 51.4883 113.324 51.392 107.524C52.9007 107.524 60.4335 107.524 61.4714 106.668C62.7982 105.598 61.9101 91.3137 61.3109 88.4782C61.2253 88.093 61.0969 87.5366 60.7973 87.4082C59.2351 86.4773 41.7085 86.2526 40.4673 87.2477C39.8146 87.7934 39.5685 94.4808 39.5364 95.3261C37.0861 95.3261 21.9349 95.0159 16.5207 95.1442V86.4024C17.9224 86.4024 26.1507 86.6271 27.2207 85.7283C28.5154 84.6583 28.0874 67.1744 26.8569 66.4683C25.6264 65.762 17.9438 65.5374 16.617 65.5053C16.617 63.9859 16.4993 60.1553 16.4886 60.059C21.4427 59.8771 34.4967 60.2943 39.8788 60.2943C39.8788 61.9743 39.7825 67.9556 40.4887 69.4857C40.6599 69.8495 41.3126 69.9564 41.7406 70.0313C45.1432 70.6305 60.3158 70.9837 61.8031 69.7211C63.2904 68.4585 62.2525 52.4619 61.3858 50.7392C61.3284 50.6154 61.24 50.5085 61.129 50.429C59.5133 49.4767 42.0081 49.3589 40.799 50.2684C40.1035 50.857 39.8681 58.5182 39.8467 59.4384C34.379 59.4384 21.5176 59.0211 16.4244 59.203C16.4244 57.1379 16.3174 55.0513 16.3174 52.997C17.8368 52.997 27.0174 52.8578 28.1623 51.8521C29.3072 50.8463 28.1623 34.6357 27.2421 32.8809C27.1849 32.7566 27.0917 32.6522 26.9746 32.5813C25.3482 31.6718 7.84304 31.95 6.64464 32.9558C5.73514 33.7476 5.57464 49.7442 6.79444 52.2159C6.87847 52.3539 7.00667 52.4594 7.15824 52.5155C8.37804 53.0291 14.0704 53.0398 15.4079 53.0398C15.4079 57.8227 15.6219 61.7068 15.6647 65.5267C14.5947 65.5267 7.29734 65.3662 6.48414 66.0189C5.67094 66.6716 4.68654 82.6573 5.82074 85.2788C5.98124 85.6319 6.63394 85.7604 7.06194 85.8353C9.8977 86.2448 12.757 86.4699 15.6219 86.5093V102.303C14.6054 102.303 7.63974 102.174 6.85864 102.805C6.07754 103.437 5.05034 119.444 6.18454 122.065C6.34504 122.429 6.99774 122.547 7.42574 122.633C10.8925 123.296 26.0009 123.874 27.4882 122.633C28.9755 121.391 28.2051 105.352 27.3919 103.651C27.3341 103.524 27.2458 103.414 27.1351 103.33C25.9688 102.624 17.8582 102.388 16.4351 102.356V96.1714C21.9777 96.0323 36.5083 96.3427 39.4401 96.3534C39.4401 98.1617 39.2689 104.978 40.0393 106.636C40.1093 106.78 40.2319 106.891 40.3817 106.946C41.762 107.578 48.9417 107.706 50.4076 107.717C50.5467 113.538 50.536 122.333 50.4076 128.047C36.0268 127.972 21.111 128.122 18.1043 128.732C17.7833 128.796 17.259 128.903 17.2376 129.352C17.2376 129.352 16.6598 138.597 16.3923 141.775C15.44 141.775 9.18054 141.775 8.45294 142.417C7.72534 143.059 6.92284 159.087 8.09984 161.677C8.26034 162.03 8.91304 162.148 9.34104 162.223C12.7543 162.822 27.9162 163.175 29.4035 161.912C30.8908 160.65 29.8422 144.621 28.9862 142.93C29.0292 142.828 29.0429 142.716 29.0259 142.607C29.0089 142.497 28.9618 142.394 28.8899 142.31C27.6594 141.572 18.8747 141.507 17.4195 141.497C17.6763 138.287 18.2327 129.352 18.2327 129.352C21.8921 128.282 82.7644 128.411 87.023 129.491C87.6757 131.053 88.093 136.414 88.4354 141.539C87.3654 141.539 79.2334 141.475 78.3881 142.181C77.5428 142.888 76.9008 158.948 78.035 161.441C78.1101 161.585 78.236 161.696 78.3881 161.752C80.282 162.608 97.7979 162.993 99.3387 161.677C99.6036 161.356 99.7575 160.958 99.7774 160.543C100.28 157.29 99.8416 146.697 99.1461 143.487ZM41.0237 50.3968C41.976 49.605 59.0532 50.1722 60.6368 50.9426C61.0342 52.6313 61.2636 54.3553 61.3216 56.0892C54.4629 55.3937 45.1967 55.9287 40.4673 56.0892C40.4887 55.4472 40.6599 50.6537 41.0237 50.3647V50.3968ZM40.4566 56.6778C48.2462 56.9239 57.491 56.5173 61.3537 56.5601C61.4714 58.454 61.8887 67.3242 61.1932 68.9613C60.4014 69.507 54.1633 69.6033 53.211 69.614C50.9105 69.614 43.3242 69.614 41.0986 68.972C40.3282 67.0995 40.4031 58.7857 40.4566 56.6456V56.6778ZM6.92284 33.0414C7.87514 32.2068 24.9844 32.3673 26.5466 33.0414C26.8977 34.2341 27.1201 35.4609 27.21 36.7008C20.2981 36.497 13.381 36.8549 6.52694 37.7708C6.53764 37.3856 6.61254 33.3196 6.92284 33.0414ZM7.48994 51.606C6.62324 49.6693 6.50554 40.6598 6.52694 38.1346C7.42574 38.0276 26.8569 37.0646 27.2528 37.0646C27.4882 39.2046 28.3228 49.1878 27.5738 51.0603C26.14 52.0982 10.0365 52.3015 7.48994 51.606ZM6.75164 66.083C7.72534 65.3019 24.7918 66.1473 26.3647 66.9391C26.7147 68.5357 26.9082 70.1627 26.9425 71.7968C27.0495 71.7968 11.8127 71.1976 6.13104 71.3795C6.16314 70.7482 6.41994 66.3399 6.75164 66.083ZM26.9211 121.723C25.7441 122.493 9.96164 122.397 6.83724 121.402C6.06684 119.487 6.30224 110.702 6.40924 108.466C6.51624 108.466 21.1431 109.6 27.2635 108.883C27.3705 110.841 27.6594 120.054 26.9211 121.712V121.723ZM26.6643 103.683C27.0127 105.284 27.2097 106.914 27.2528 108.551C27.3598 108.551 12.1551 107.952 6.43064 108.123C6.47832 106.403 6.66078 104.69 6.97634 102.998C7.05124 102.784 6.97634 102.741 7.93934 102.634C11.7699 102.206 25.2947 102.987 26.6643 103.672V103.683ZM6.52694 84.6476C5.76724 82.7323 6.00264 74.0117 6.10964 71.722C6.23804 71.722 20.8221 72.8561 26.9639 72.1392C27.0709 74.108 27.3705 83.2673 26.6215 84.9792C25.177 85.9208 9.10564 85.4715 6.52694 84.6476ZM29.1253 148.473C29.2537 150.463 29.6603 159.312 28.9648 160.992C27.8306 161.784 11.9839 161.944 8.87024 160.992C8.09984 159.13 8.17474 150.752 8.22824 148.516C15.1297 148.783 21.3999 148.473 29.1253 148.473ZM28.4084 142.973C28.8043 144.659 29.0372 146.379 29.1039 148.109C22.2987 147.424 12.7115 147.97 8.23894 148.173C8.23894 147.499 8.44224 142.716 8.79534 142.428C9.75834 141.636 26.8248 142.203 28.4084 142.973ZM40.6599 87.3867C41.6443 86.5628 58.7215 87.1835 60.273 87.9324C60.68 89.6889 60.9165 91.4806 60.9792 93.2825C56.3354 93.0364 44.7794 92.2981 40.1142 92.8759C40.1677 92.266 40.3496 87.6756 40.6599 87.3867ZM40.7669 105.93C39.9858 104.057 40.0714 95.4974 40.1356 93.2611C41.6443 93.1113 52.5583 93.7961 57.6301 93.7533C58.9248 93.7533 60.0911 93.6998 61.0327 93.6677C61.1504 95.5723 61.5463 104.271 60.8615 105.919C59.4598 106.914 43.367 106.754 40.7669 105.93ZM78.57 142.428C79.533 141.636 96.5995 142.203 98.1938 142.973C98.586 144.663 98.8153 146.386 98.8786 148.12C92.1376 147.435 82.3792 147.981 78.0243 148.12C78.035 147.553 78.2169 142.749 78.57 142.46V142.428ZM98.7502 160.992C97.5839 161.784 81.7372 161.944 78.6556 160.992C77.8745 159.141 77.9494 150.731 78.0136 148.505C85.2147 148.783 90.6182 148.505 98.9 148.505C99.0284 150.474 99.435 159.355 98.7502 161.024V160.992Z" fill="#292952"/>
</svg>
