<svg width="11" height="19" viewBox="0 0 11 19" fill="none" xmlns="http://www.w3.org/2000/svg">
<path d="M2.65857 0.129134C5.12257 0.0418146 7.73439 -0.38722 9.66558 1.02708C10.2685 2.8381 10.3517 2.01441 9.64632 3.5896C7.55975 3.57584 6.3649 3.30702 4.34228 2.94468C2.40146 3.75462 3.02503 3.17914 2.05428 5.16824C3.99096 8.24368 5.4237 6.0868 7.55495 9.28875C5.35632 10.7587 4.56707 11.2242 3.37976 13.6781C5.57082 15.223 5.46358 14.871 8.67008 14.4386L9.20496 15.1646C7.91796 17.8591 4.77609 19.1435 2.29765 16.8374C1.37709 14.1546 1.72288 12.5271 1.98894 9.70609C0.676504 7.60217 0.532812 7.29139 0 4.87257C0.497063 2.23786 0.762441 1.98347 2.65857 0.129134Z" fill="#6A4D40"/>
</svg>
