<?xml version="1.0" encoding="UTF-8"?>
<svg id="Face" xmlns="http://www.w3.org/2000/svg" xmlns:xlink="http://www.w3.org/1999/xlink" viewBox="0 0 1080 1080">
  <defs>
    <style>
      .cls-1 {
        fill: #ffd1b5;
      }

      .cls-2 {
        fill: none;
      }

      .cls-3 {
        fill: #ffd8c1;
      }

      .cls-4 {
        clip-path: url(#clippath);
      }
    </style>
    <clipPath id="clippath">
      <path class="cls-2" d="M540,1080c-59.65,0-115.46-31.05-163.58-79.52-54.21-54.6-123.85-128.85-142.67-175.53-18.82-46.68-42.46-129.25-58.52-198.91-14.82-64.28-20.31-130.34-16.36-196.19l1.35-22.54c8.41-140.01,80.25-268.53,195.1-349.04h0c110.85-77.71,258.5-77.71,369.35,0h0c114.85,80.51,186.69,209.03,195.1,349.04l1.35,22.54c3.96,65.85-1.54,131.91-16.36,196.19-16.06,69.66-39.7,152.23-58.52,198.91-18.82,46.68-88.46,120.93-142.67,175.53-48.12,48.47-103.93,79.52-163.58,79.52Z"/>
    </clipPath>
  </defs>
  <path class="cls-3" d="M540,1080c-59.65,0-115.46-31.05-163.58-79.52-54.21-54.6-123.85-128.85-142.67-175.53-18.82-46.68-42.46-129.25-58.52-198.91-14.82-64.28-20.31-130.34-16.36-196.19l1.35-22.54c8.41-140.01,80.25-268.53,195.1-349.04h0c110.85-77.71,258.5-77.71,369.35,0h0c114.85,80.51,186.69,209.03,195.1,349.04l1.35,22.54c3.96,65.85-1.54,131.91-16.36,196.19-16.06,69.66-39.7,152.23-58.52,198.91-18.82,46.68-88.46,120.93-142.67,175.53-48.12,48.47-103.93,79.52-163.58,79.52Z"/>
  <g class="cls-4">
    <path class="cls-1" d="M540,230.68c321.78,0,382.53,134.25,382.53,134.25l36.85-408.49-419.38-19.18L120.62-43.57l36.85,408.49s60.76-134.25,382.53-134.25Z"/>
  </g>
</svg>