<?xml version="1.0" encoding="UTF-8"?>
<svg id="Face" xmlns="http://www.w3.org/2000/svg" xmlns:xlink="http://www.w3.org/1999/xlink" viewBox="0 0 1080 1080">
  <defs>
    <style>
      .cls-1 {
        fill: #ffd1b5;
      }

      .cls-2 {
        fill: none;
      }

      .cls-3 {
        fill: #603913;
      }

      .cls-4 {
        fill: #ffd8c1;
      }

      .cls-5 {
        clip-path: url(#clippath-1);
      }

      .cls-6 {
        clip-path: url(#clippath);
      }
    </style>
    <clipPath id="clippath">
      <path class="cls-2" d="M540,1080c-68.88,0-134.8-55.6-182-109.68-43.39-49.72-78.93-76.95-107.05-132.45-37.73-74.47-61.83-276.46-81.11-353.9l23.99-208.82c11.25-97.92,70.44-183.83,157.92-229.23h0c118.02-61.24,258.46-61.24,376.48,0h0c87.48,45.39,146.68,131.31,157.92,229.23l23.99,208.82c-19.28,77.43-43.38,279.42-81.11,353.9-28.12,55.49-63.65,82.73-107.05,132.45-47.2,54.08-113.12,109.68-182,109.68Z"/>
    </clipPath>
    <clipPath id="clippath-1">
      <path class="cls-2" d="M540,1080c-68.88,0-134.8-55.6-182-109.68-43.39-49.72-78.93-76.95-107.05-132.45-37.73-74.47-61.83-276.46-81.11-353.9l23.99-208.82c11.25-97.92,70.44-183.83,157.92-229.23h0c118.02-61.24,258.46-61.24,376.48,0h0c87.48,45.39,146.68,131.31,157.92,229.23l23.99,208.82c-19.28,77.43-43.38,279.42-81.11,353.9-28.12,55.49-63.65,82.73-107.05,132.45-47.2,54.08-113.12,109.68-182,109.68Z"/>
    </clipPath>
  </defs>
  <g>
    <path class="cls-4" d="M540,1080c-68.88,0-134.8-55.6-182-109.68-43.39-49.72-78.93-76.95-107.05-132.45-37.73-74.47-61.83-276.46-81.11-353.9l23.99-208.82c11.25-97.92,70.44-183.83,157.92-229.23h0c118.02-61.24,258.46-61.24,376.48,0h0c87.48,45.39,146.68,131.31,157.92,229.23l23.99,208.82c-19.28,77.43-43.38,279.42-81.11,353.9-28.12,55.49-63.65,82.73-107.05,132.45-47.2,54.08-113.12,109.68-182,109.68Z"/>
    <g class="cls-6">
      <path class="cls-1" d="M540,230.68c308.13,0,366.31,134.25,366.31,134.25l35.29-408.49-401.6-19.18-401.6,19.18,35.29,408.49s58.18-134.25,366.31-134.25Z"/>
    </g>
  </g>
  <g class="cls-5">
    <path class="cls-3" d="M540,1109.19c520.95,0,398.69-650.61,398.69-650.61l-15.94-33.69s-55.61,409.55-223.42,409.55c0,0-48.88-81.54-159.33-81.54-110.45,0-159.33,81.54-159.33,81.54-167.81,0-223.42-409.55-223.42-409.55l-15.94,33.69s-122.26,650.61,398.69,650.61Z"/>
  </g>
  <path class="cls-4" d="M669.92,870.2c0,43.03,0,77.92-129.92,77.92s-129.92-34.89-129.92-77.92,58.17-77.92,129.92-77.92,129.92,34.89,129.92,77.92Z"/>
</svg>