<?xml version="1.0" encoding="UTF-8"?>
<svg id="Face" xmlns="http://www.w3.org/2000/svg" xmlns:xlink="http://www.w3.org/1999/xlink" viewBox="0 0 1080 1080">
  <defs>
    <style>
      .cls-1 {
        fill: #ffd1b5;
      }

      .cls-2 {
        fill: none;
      }

      .cls-3 {
        fill: #ffd8c1;
      }

      .cls-4 {
        clip-path: url(#clippath);
      }
    </style>
    <clipPath id="clippath">
      <path class="cls-2" d="M540,1080s-62.44,0-89.63-18.1c-24.73-16.46-164.9-98.36-191.02-181-11.9-37.66-37.97-202.18-62.82-370.14-30.22-204.23,50.42-341.67,141.12-428.95,113.36-109.08,291.33-109.08,404.69,0,90.71,87.28,171.34,224.73,141.13,428.95-24.85,167.96-50.92,332.49-62.82,370.14-26.12,82.64-166.29,164.54-191.02,181-27.19,18.1-89.63,18.1-89.63,18.1Z"/>
    </clipPath>
  </defs>
  <path class="cls-3" d="M540,1080s-62.44,0-89.63-18.1c-24.73-16.46-164.9-98.36-191.02-181-11.9-37.66-37.97-202.18-62.82-370.14-30.22-204.23,50.42-341.67,141.12-428.95,113.36-109.08,291.33-109.08,404.69,0,90.71,87.28,171.34,224.73,141.13,428.95-24.85,167.96-50.92,332.49-62.82,370.14-26.12,82.64-166.29,164.54-191.02,181-27.19,18.1-89.63,18.1-89.63,18.1Z"/>
  <g class="cls-4">
    <path class="cls-1" d="M540,230.68c297.62,0,353.81,134.25,353.81,134.25l34.09-408.49-387.9-19.18-387.9,19.18,34.09,408.49s56.2-134.25,353.81-134.25Z"/>
  </g>
</svg>