<?xml version="1.0" encoding="UTF-8"?>
<svg id="Face" xmlns="http://www.w3.org/2000/svg" xmlns:xlink="http://www.w3.org/1999/xlink" viewBox="0 0 1080 1080">
  <defs>
    <style>
      .cls-1 {
        fill: #ffd1b5;
      }

      .cls-2 {
        fill: none;
      }

      .cls-3 {
        fill: #603913;
      }

      .cls-4 {
        fill: #ffd8c1;
      }

      .cls-5 {
        clip-path: url(#clippath-1);
      }

      .cls-6 {
        clip-path: url(#clippath);
      }
    </style>
    <clipPath id="clippath">
      <path class="cls-2" d="M540,1080h-38.1c-36.57,0-71.96-18.23-99.64-42.13-36.39-31.42-73.18-61.07-106.37-90.46-40.61-35.97-66.56-85.61-72.51-139.52l-25.14-227.66c-13.69-123.95.54-249.4,41.65-367.13h0c30.47-87.27,97.42-156.96,183.4-190.9h0c74.99-29.6,158.43-29.6,233.43,0h0c85.98,33.94,152.93,103.63,183.4,190.9h0c41.11,117.74,55.34,243.18,41.65,367.13l-25.14,227.66c-5.95,53.92-31.9,103.56-72.51,139.52-33.19,29.39-69.97,59.04-106.37,90.46-27.68,23.9-63.07,42.13-99.64,42.13h-38.1Z"/>
    </clipPath>
    <clipPath id="clippath-1">
      <path class="cls-2" d="M540,1080h-38.1c-36.57,0-71.96-18.23-99.64-42.13-36.39-31.42-73.18-61.07-106.37-90.46-40.61-35.97-66.56-85.61-72.51-139.52l-25.14-227.66c-13.69-123.95.54-249.4,41.65-367.13h0c30.47-87.27,97.42-156.96,183.4-190.9h0c74.99-29.6,158.43-29.6,233.43,0h0c85.98,33.94,152.93,103.63,183.4,190.9h0c41.11,117.74,55.34,243.18,41.65,367.13l-25.14,227.66c-5.95,53.92-31.9,103.56-72.51,139.52-33.19,29.39-69.97,59.04-106.37,90.46-27.68,23.9-63.07,42.13-99.64,42.13h-38.1Z"/>
    </clipPath>
  </defs>
  <g>
    <path class="cls-4" d="M540,1080h-38.1c-36.57,0-71.96-18.23-99.64-42.13-36.39-31.42-73.18-61.07-106.37-90.46-40.61-35.97-66.56-85.61-72.51-139.52l-25.14-227.66c-13.69-123.95.54-249.4,41.65-367.13h0c30.47-87.27,97.42-156.96,183.4-190.9h0c74.99-29.6,158.43-29.6,233.43,0h0c85.98,33.94,152.93,103.63,183.4,190.9h0c41.11,117.74,55.34,243.18,41.65,367.13l-25.14,227.66c-5.95,53.92-31.9,103.56-72.51,139.52-33.19,29.39-69.97,59.04-106.37,90.46-27.68,23.9-63.07,42.13-99.64,42.13h-38.1Z"/>
    <g class="cls-6">
      <path class="cls-1" d="M540,230.68c287.58,0,341.88,134.25,341.88,134.25l32.94-408.49-374.81-19.18-374.81,19.18,32.94,408.49s54.3-134.25,341.88-134.25Z"/>
    </g>
  </g>
  <g class="cls-5">
    <path class="cls-3" d="M540,1109.19c520.95,0,398.69-650.61,398.69-650.61l-37.68-1.32s-33.87,377.18-201.68,377.18c0,0-48.88-81.54-159.33-81.54-110.45,0-159.33,81.54-159.33,81.54-167.81,0-201.68-377.18-201.68-377.18l-37.68,1.32s-122.26,650.61,398.69,650.61Z"/>
  </g>
  <path class="cls-4" d="M669.92,870.2c0,43.03,0,77.92-129.92,77.92s-129.92-34.89-129.92-77.92,58.17-77.92,129.92-77.92,129.92,34.89,129.92,77.92Z"/>
</svg>