<?xml version="1.0" encoding="UTF-8"?>
<svg id="Face" xmlns="http://www.w3.org/2000/svg" xmlns:xlink="http://www.w3.org/1999/xlink" viewBox="0 0 1080 1080">
  <defs>
    <style>
      .cls-1 {
        fill: #ffd1b5;
      }

      .cls-2 {
        fill: none;
      }

      .cls-3 {
        fill: #603913;
      }

      .cls-4 {
        fill: #ffd8c1;
      }

      .cls-5 {
        clip-path: url(#clippath-1);
      }

      .cls-6 {
        clip-path: url(#clippath);
      }
    </style>
    <clipPath id="clippath">
      <path class="cls-2" d="M540,1080c-52.26,0-88.68-10.68-132.03-49.77-55.09-49.69-157.03-146.27-186.17-306.14C175.98,472.65,74.06,0,540,0c465.94,0,364.02,472.65,318.19,724.09-29.14,159.87-131.08,256.45-186.17,306.14-43.34,39.09-79.77,49.77-132.03,49.77Z"/>
    </clipPath>
    <clipPath id="clippath-1">
      <path class="cls-2" d="M540,1080c-52.26,0-88.68-10.68-132.03-49.77-55.09-49.69-157.03-146.27-186.17-306.14C175.98,472.65,74.06,0,540,0c465.94,0,364.02,472.65,318.19,724.09-29.14,159.87-131.08,256.45-186.17,306.14-43.34,39.09-79.77,49.77-132.03,49.77Z"/>
    </clipPath>
  </defs>
  <g>
    <path class="cls-4" d="M540,1080c-52.26,0-88.68-10.68-132.03-49.77-55.09-49.69-157.03-146.27-186.17-306.14C175.98,472.65,74.06,0,540,0c465.94,0,364.02,472.65,318.19,724.09-29.14,159.87-131.08,256.45-186.17,306.14-43.34,39.09-79.77,49.77-132.03,49.77Z"/>
    <g class="cls-6">
      <path class="cls-1" d="M540,230.68c312.95,0,372.04,134.25,372.04,134.25l35.84-408.49-407.88-19.18-407.88,19.18,35.84,408.49s59.09-134.25,372.04-134.25Z"/>
    </g>
  </g>
  <g class="cls-5">
    <path class="cls-3" d="M540,1109.19c520.95,0,398.69-650.61,398.69-650.61l-37.68-1.32s-33.87,377.18-201.68,377.18c0,0-48.88-81.54-159.33-81.54-110.45,0-159.33,81.54-159.33,81.54-167.81,0-201.68-377.18-201.68-377.18l-37.68,1.32s-122.26,650.61,398.69,650.61Z"/>
  </g>
  <path class="cls-4" d="M669.92,870.2c0,43.03,0,77.92-129.92,77.92s-129.92-34.89-129.92-77.92,58.17-77.92,129.92-77.92,129.92,34.89,129.92,77.92Z"/>
</svg>