<?xml version="1.0" encoding="UTF-8"?>
<svg id="Face" xmlns="http://www.w3.org/2000/svg" xmlns:xlink="http://www.w3.org/1999/xlink" viewBox="0 0 1080 1080">
  <defs>
    <style>
      .cls-1 {
        fill: #ffd1b5;
      }

      .cls-2 {
        fill: none;
      }

      .cls-3 {
        fill: #ffd8c1;
      }

      .cls-4 {
        clip-path: url(#clippath);
      }
    </style>
    <clipPath id="clippath">
      <path class="cls-2" d="M540,1080c-120.27,0-176.56-47.79-233.71-111.47-53.87-60.03-90.77-112.32-101.59-246.53-5.54-68.65-15.13-209.7-23.18-331.11-8.84-133.41,50.15-262.29,156.91-342.78h0s0,0,0,0c126.72-64.16,276.41-64.16,403.12,0h0s0,0,0,0c106.76,80.49,165.76,209.36,156.91,342.78-8.05,121.41-17.64,262.46-23.18,331.11-10.83,134.2-47.72,186.5-101.59,246.53-57.15,63.68-113.43,111.47-233.71,111.47"/>
    </clipPath>
  </defs>
  <path class="cls-3" d="M540,1080c-120.27,0-176.56-47.79-233.71-111.47-53.87-60.03-90.77-112.32-101.59-246.53-5.54-68.65-15.13-209.7-23.18-331.11-8.84-133.41,50.15-262.29,156.91-342.78h0s0,0,0,0c126.72-64.16,276.41-64.16,403.12,0h0s0,0,0,0c106.76,80.49,165.76,209.36,156.91,342.78-8.05,121.41-17.64,262.46-23.18,331.11-10.83,134.2-47.72,186.5-101.59,246.53-57.15,63.68-113.43,111.47-233.71,111.47"/>
  <g class="cls-4">
    <path class="cls-1" d="M540,230.68c316.89,0,376.72,134.25,376.72,134.25l36.29-408.49-413.01-19.18L126.99-43.57l36.29,408.49s59.83-134.25,376.72-134.25Z"/>
  </g>
</svg>