<?xml version="1.0" encoding="UTF-8"?>
<svg id="Face" xmlns="http://www.w3.org/2000/svg" xmlns:xlink="http://www.w3.org/1999/xlink" viewBox="0 0 1080 1080">
  <defs>
    <style>
      .cls-1 {
        fill: #ffd1b5;
      }

      .cls-2 {
        fill: none;
      }

      .cls-3 {
        fill: #603913;
      }

      .cls-4 {
        fill: #ffd8c1;
      }

      .cls-5 {
        clip-path: url(#clippath-1);
      }

      .cls-6 {
        clip-path: url(#clippath);
      }
    </style>
    <clipPath id="clippath">
      <path class="cls-2" d="M540,1080c129.85,0,217.2-108.45,286.06-257.96,36.48-79.2,26.22-178.07,46.57-293.68C926.48,222.45,722.84,0,540,0,357.16,0,153.52,222.45,207.37,528.36c20.35,115.62,10.09,214.48,46.57,293.68,68.86,149.51,156.22,257.96,286.06,257.96Z"/>
    </clipPath>
    <clipPath id="clippath-1">
      <path class="cls-2" d="M540,1080c129.85,0,217.2-108.45,286.06-257.96,36.48-79.2,26.22-178.07,46.57-293.68C926.48,222.45,722.84,0,540,0,357.16,0,153.52,222.45,207.37,528.36c20.35,115.62,10.09,214.48,46.57,293.68,68.86,149.51,156.22,257.96,286.06,257.96Z"/>
    </clipPath>
  </defs>
  <g>
    <path class="cls-4" d="M540,1080c129.85,0,217.2-108.45,286.06-257.96,36.48-79.2,26.22-178.07,46.57-293.68C926.48,222.45,722.84,0,540,0,357.16,0,153.52,222.45,207.37,528.36c20.35,115.62,10.09,214.48,46.57,293.68,68.86,149.51,156.22,257.96,286.06,257.96Z"/>
    <g class="cls-6">
      <path class="cls-1" d="M540,230.68c287.58,0,341.88,134.25,341.88,134.25l32.94-408.49-374.81-19.18-374.81,19.18,32.94,408.49s54.3-134.25,341.88-134.25Z"/>
    </g>
  </g>
  <g class="cls-5">
    <path class="cls-3" d="M540,1109.19c520.95,0,398.69-650.61,398.69-650.61l-40.79-54.89s-30.76,430.74-198.57,430.74c0,0-48.88-81.54-159.33-81.54-110.45,0-159.33,81.54-159.33,81.54-167.81,0-198.57-430.74-198.57-430.74l-40.79,54.89s-122.26,650.61,398.69,650.61Z"/>
  </g>
  <path class="cls-4" d="M669.92,870.2c0,43.03,0,77.92-129.92,77.92s-129.92-34.89-129.92-77.92,58.17-77.92,129.92-77.92,129.92,34.89,129.92,77.92Z"/>
</svg>