<?xml version="1.0" encoding="UTF-8"?>
<svg id="Face" xmlns="http://www.w3.org/2000/svg" xmlns:xlink="http://www.w3.org/1999/xlink" viewBox="0 0 1080 1080">
  <defs>
    <style>
      .cls-1 {
        fill: #ffd1b5;
      }

      .cls-2 {
        fill: none;
      }

      .cls-3 {
        fill: #603913;
      }

      .cls-4 {
        fill: #ffd8c1;
      }

      .cls-5 {
        clip-path: url(#clippath-1);
      }

      .cls-6 {
        clip-path: url(#clippath);
      }
    </style>
    <clipPath id="clippath">
      <path class="cls-2" d="M540,0C336.13,0,170.86,172.48,170.86,540s151.68,540,369.14,540,369.14-172.48,369.14-540S743.87,0,540,0Z"/>
    </clipPath>
    <clipPath id="clippath-1">
      <path class="cls-2" d="M540,0C336.13,0,170.86,172.48,170.86,540s151.68,540,369.14,540,369.14-172.48,369.14-540S743.87,0,540,0Z"/>
    </clipPath>
  </defs>
  <g>
    <path class="cls-4" d="M540,0C336.13,0,170.86,172.48,170.86,540s151.68,540,369.14,540,369.14-172.48,369.14-540S743.87,0,540,0Z"/>
    <g class="cls-6">
      <path class="cls-1" d="M540,230.68c317.5,0,377.44,134.25,377.44,134.25l36.36-408.49-413.81-19.18L126.19-43.57l36.36,408.49s59.95-134.25,377.45-134.25Z"/>
    </g>
  </g>
  <g class="cls-5">
    <path class="cls-3" d="M540,1109.19c520.95,0,398.69-650.61,398.69-650.61l-24.89-63.21s-17.52,439.07-200.28,439.07c0,0-63.07-81.54-173.52-81.54-110.45,0-173.52,81.54-173.52,81.54-182.76,0-200.28-439.07-200.28-439.07l-24.89,63.21s-122.26,650.61,398.69,650.61Z"/>
  </g>
  <path class="cls-4" d="M669.92,870.2c0,43.03,0,77.92-129.92,77.92s-129.92-34.89-129.92-77.92,58.17-77.92,129.92-77.92,129.92,34.89,129.92,77.92Z"/>
</svg>