<?xml version="1.0" encoding="UTF-8"?>
<svg id="Face" xmlns="http://www.w3.org/2000/svg" xmlns:xlink="http://www.w3.org/1999/xlink" viewBox="0 0 1080 1080">
  <defs>
    <style>
      .cls-1 {
        fill: #ffd1b5;
      }

      .cls-2 {
        fill: none;
      }

      .cls-3 {
        fill: #ffd8c1;
      }

      .cls-4 {
        clip-path: url(#clippath);
      }
    </style>
    <clipPath id="clippath">
      <path class="cls-2" d="M540,1080c-85.49,0-237.05-86.03-266.55-177.96-29.5-91.93-42.96-81.08-87.2-351.18C142.01,280.76,123.95,0,540,0s397.99,280.76,353.75,550.86c-44.24,270.1-57.7,259.26-87.2,351.18-29.5,91.93-181.06,177.96-266.55,177.96Z"/>
    </clipPath>
  </defs>
  <path class="cls-3" d="M540,1080c-85.49,0-237.05-86.03-266.55-177.96-29.5-91.93-42.96-81.08-87.2-351.18C142.01,280.76,123.95,0,540,0s397.99,280.76,353.75,550.86c-44.24,270.1-57.7,259.26-87.2,351.18-29.5,91.93-181.06,177.96-266.55,177.96Z"/>
  <g class="cls-4">
    <path class="cls-1" d="M943.73,291.19c-89.3,353.85-124.19,627.57-360.79,824.33l255.81-77.61,90.7-222.63,14.28-524.09Z"/>
    <path class="cls-1" d="M136.27,291.19c89.3,353.85,124.19,627.57,360.79,824.33l-255.81-77.61-90.7-222.63-14.28-524.09Z"/>
    <path class="cls-1" d="M540,230.68c330.44,0,392.83,134.25,392.83,134.25l37.84-408.49-430.68-19.18L109.32-43.57l37.84,408.49s62.39-134.25,392.83-134.25Z"/>
  </g>
</svg>