<?xml version="1.0" encoding="UTF-8"?>
<svg id="Face" xmlns="http://www.w3.org/2000/svg" xmlns:xlink="http://www.w3.org/1999/xlink" viewBox="0 0 1080 1080">
  <defs>
    <style>
      .cls-1 {
        fill: #ffd1b5;
      }

      .cls-2 {
        fill: none;
      }

      .cls-3 {
        fill: #ffd8c1;
      }

      .cls-4 {
        clip-path: url(#clippath);
      }
    </style>
    <clipPath id="clippath">
      <path class="cls-2" d="M540,1080c78.61,0,118.91-25.5,174.59-98.57,46.87-61.52,113.34-130,131.6-245.15,18.25-115.14,41.67-203.19,21.76-317.67C848.04,304.14,910.55,0,540,0,169.45,0,231.96,304.14,212.05,418.61c-19.91,114.48,3.51,202.53,21.76,317.67,18.25,115.14,84.72,183.63,131.6,245.15,55.68,73.07,95.98,98.57,174.59,98.57Z"/>
    </clipPath>
  </defs>
  <path class="cls-3" d="M540,1080c78.61,0,118.91-25.5,174.59-98.57,46.87-61.52,113.34-130,131.6-245.15,18.25-115.14,41.67-203.19,21.76-317.67C848.04,304.14,910.55,0,540,0,169.45,0,231.96,304.14,212.05,418.61c-19.91,114.48,3.51,202.53,21.76,317.67,18.25,115.14,84.72,183.63,131.6,245.15,55.68,73.07,95.98,98.57,174.59,98.57Z"/>
  <g class="cls-4">
    <polygon class="cls-1" points="215.01 624.19 287.2 771.23 403.96 1054.23 237.73 945.54 215.01 624.19"/>
    <polygon class="cls-1" points="864.99 624.19 792.8 771.23 676.04 1054.23 842.27 945.54 864.99 624.19"/>
    <path class="cls-1" d="M540,230.68c282.26,0,335.55,134.25,335.55,134.25l32.33-408.49-367.88-19.18-367.88,19.18,32.33,408.49s53.29-134.25,335.55-134.25Z"/>
  </g>
</svg>