<?xml version="1.0" encoding="UTF-8"?>
<svg id="Face" xmlns="http://www.w3.org/2000/svg" xmlns:xlink="http://www.w3.org/1999/xlink" viewBox="0 0 1080 1080">
  <defs>
    <style>
      .cls-1 {
        fill: #ffd1b5;
      }

      .cls-2 {
        fill: none;
      }

      .cls-3 {
        fill: #ffd8c1;
      }

      .cls-4 {
        clip-path: url(#clippath);
      }
    </style>
    <clipPath id="clippath">
      <path class="cls-2" d="M540,0C336.13,0,170.86,172.48,170.86,540s151.68,540,369.14,540,369.14-172.48,369.14-540S743.87,0,540,0Z"/>
    </clipPath>
  </defs>
  <path class="cls-3" d="M540,0C336.13,0,170.86,172.48,170.86,540s151.68,540,369.14,540,369.14-172.48,369.14-540S743.87,0,540,0Z"/>
  <g class="cls-4">
    <path class="cls-1" d="M540,230.68c317.5,0,377.44,134.25,377.44,134.25l36.36-408.49-413.81-19.18L126.19-43.57l36.36,408.49s59.95-134.25,377.45-134.25Z"/>
  </g>
</svg>