<?xml version="1.0" encoding="UTF-8"?>
<svg id="Face" xmlns="http://www.w3.org/2000/svg" xmlns:xlink="http://www.w3.org/1999/xlink" viewBox="0 0 1080 1080">
  <defs>
    <style>
      .cls-1 {
        fill: #ffd1b5;
      }

      .cls-2 {
        fill: none;
      }

      .cls-3 {
        fill: #ffd8c1;
      }

      .cls-4 {
        clip-path: url(#clippath);
      }
    </style>
    <clipPath id="clippath">
      <path class="cls-2" d="M456.07,10.87h0c-144.5,38.08-245.08,168.95-244.58,318.39.18,53.51.83,110.67,2.29,166.4,3.76,143.11,16.38,278.03,24.2,312.77,18.82,83.58,172.62,240.52,200.25,256.04,27.64,15.52,52.91,15.52,101.76,15.52,48.85,0,74.12,0,101.76-15.52,27.64-15.52,181.43-172.46,200.25-256.04,7.82-34.74,20.44-169.66,24.2-312.77,1.46-55.74,2.12-112.89,2.29-166.4.5-149.44-100.08-280.31-244.58-318.39h0c-55.01-14.5-112.84-14.5-167.85,0Z"/>
    </clipPath>
  </defs>
  <path class="cls-3" d="M456.07,10.87h0c-144.5,38.08-245.08,168.95-244.58,318.39.18,53.51.83,110.67,2.29,166.4,3.76,143.11,16.38,278.03,24.2,312.77,18.82,83.58,172.62,240.52,200.25,256.04,27.64,15.52,52.91,15.52,101.76,15.52,48.85,0,74.12,0,101.76-15.52,27.64-15.52,181.43-172.46,200.25-256.04,7.82-34.74,20.44-169.66,24.2-312.77,1.46-55.74,2.12-112.89,2.29-166.4.5-149.44-100.08-280.31-244.58-318.39h0c-55.01-14.5-112.84-14.5-167.85,0Z"/>
  <g class="cls-4">
    <path class="cls-1" d="M901.29,419.52s-40.37,244.19-132.59,381.63c-103.48,154.23-166.66,405.12-166.66,405.12l275.48-263.74,23.77-523.01Z"/>
    <path class="cls-1" d="M178.71,419.52s40.37,244.19,132.59,381.63c103.48,154.23,166.66,405.12,166.66,405.12l-275.48-263.74-23.77-523.01Z"/>
    <path class="cls-1" d="M540,230.68c282.26,0,335.55,134.25,335.55,134.25l32.33-408.49-367.88-19.18-367.88,19.18,32.33,408.49s53.29-134.25,335.55-134.25Z"/>
  </g>
</svg>