<?xml version="1.0" encoding="UTF-8"?>
<svg id="Face" xmlns="http://www.w3.org/2000/svg" xmlns:xlink="http://www.w3.org/1999/xlink" viewBox="0 0 1080 1080">
  <defs>
    <style>
      .cls-1 {
        fill: #ffd1b5;
      }

      .cls-2 {
        fill: none;
      }

      .cls-3 {
        fill: #603913;
      }

      .cls-4 {
        fill: #ffd8c1;
      }

      .cls-5 {
        clip-path: url(#clippath-1);
      }

      .cls-6 {
        clip-path: url(#clippath);
      }
    </style>
    <clipPath id="clippath">
      <path class="cls-2" d="M540,1080c28.93,0,54.31-1.25,74.25-2.74,26.53-1.98,51-15.4,66.67-36.9,55-75.45,166.43-165.92,177.42-248.36,18.11-135.86,42.5-147.9,42.5-241.96,0-94.06-18.36-151.17-37.49-284.62C837.18,82.81,690.34,0,540,0S242.82,82.81,216.64,265.43c-19.13,133.45-37.49,190.56-37.49,284.62s24.39,106.1,42.5,241.96c10.99,82.43,122.42,172.9,177.42,248.36,15.77,21.63,40.42,34.95,67.11,36.93,19.87,1.47,45.09,2.71,73.81,2.71Z"/>
    </clipPath>
    <clipPath id="clippath-1">
      <path class="cls-2" d="M540,1080c28.93,0,54.31-1.25,74.25-2.74,26.53-1.98,51-15.4,66.67-36.9,55-75.45,166.43-165.92,177.42-248.36,18.11-135.86,42.5-147.9,42.5-241.96,0-94.06-18.36-151.17-37.49-284.62C837.18,82.81,690.34,0,540,0S242.82,82.81,216.64,265.43c-19.13,133.45-37.49,190.56-37.49,284.62s24.39,106.1,42.5,241.96c10.99,82.43,122.42,172.9,177.42,248.36,15.77,21.63,40.42,34.95,67.11,36.93,19.87,1.47,45.09,2.71,73.81,2.71Z"/>
    </clipPath>
  </defs>
  <g>
    <path class="cls-4" d="M540,1080c28.93,0,54.31-1.25,74.25-2.74,26.53-1.98,51-15.4,66.67-36.9,55-75.45,166.43-165.92,177.42-248.36,18.11-135.86,42.5-147.9,42.5-241.96,0-94.06-18.36-151.17-37.49-284.62C837.18,82.81,690.34,0,540,0S242.82,82.81,216.64,265.43c-19.13,133.45-37.49,190.56-37.49,284.62s24.39,106.1,42.5,241.96c10.99,82.43,122.42,172.9,177.42,248.36,15.77,21.63,40.42,34.95,67.11,36.93,19.87,1.47,45.09,2.71,73.81,2.71Z"/>
    <g class="cls-6">
      <path class="cls-1" d="M170.22,619.38c196.21,192.94,161.87,325.56,291.07,501.95l-305.58-265.14,14.51-236.81Z"/>
      <path class="cls-1" d="M909.78,619.38c-196.21,192.94-161.87,325.56-291.07,501.95l305.58-265.14-14.51-236.81Z"/>
      <path class="cls-1" d="M540,230.68c293.14,0,348.49,134.25,348.49,134.25l33.57-408.49-382.06-19.18-382.06,19.18,33.57,408.49s55.35-134.25,348.49-134.25Z"/>
    </g>
  </g>
  <g class="cls-5">
    <path class="cls-3" d="M540,1109.19c520.95,0,398.69-650.61,398.69-650.61l-23.26,29.45s-59.46,346.4-221.54,346.4c0,0-43.44-81.54-153.89-81.54-110.45,0-153.89,81.54-153.89,81.54-162.08,0-221.54-346.4-221.54-346.4l-23.26-29.45s-122.26,650.61,398.69,650.61Z"/>
  </g>
  <path class="cls-4" d="M669.92,870.2c0,43.03,0,77.92-129.92,77.92s-129.92-34.89-129.92-77.92,58.17-77.92,129.92-77.92,129.92,34.89,129.92,77.92Z"/>
</svg>