<?xml version="1.0" encoding="UTF-8"?>
<svg id="Face" xmlns="http://www.w3.org/2000/svg" xmlns:xlink="http://www.w3.org/1999/xlink" viewBox="0 0 1080 1080">
  <defs>
    <style>
      .cls-1 {
        fill: #ffd1b5;
      }

      .cls-2 {
        fill: none;
      }

      .cls-3 {
        fill: #ffd8c1;
      }

      .cls-4 {
        clip-path: url(#clippath);
      }
    </style>
    <clipPath id="clippath">
      <path class="cls-2" d="M540,1080c-99.93,0-244.77-112.72-314.2-192.8-31.09-35.86-19.95-165.37-37.88-265.5-17.94-100.2-40.74-337.5,19.95-466.46C268.56,26.27,333.61,0,540,0s271.44,26.27,332.13,155.24c60.69,128.96,37.89,366.26,19.95,466.46-17.93,100.13-6.8,229.64-37.88,265.5-69.42,80.08-214.26,192.8-314.2,192.8Z"/>
    </clipPath>
  </defs>
  <path class="cls-3" d="M540,1080c-99.93,0-244.77-112.72-314.2-192.8-31.09-35.86-19.95-165.37-37.88-265.5-17.94-100.2-40.74-337.5,19.95-466.46C268.56,26.27,333.61,0,540,0s271.44,26.27,332.13,155.24c60.69,128.96,37.89,366.26,19.95,466.46-17.93,100.13-6.8,229.64-37.88,265.5-69.42,80.08-214.26,192.8-314.2,192.8Z"/>
  <g class="cls-4">
    <path class="cls-1" d="M917.07,529.63c-38.87,159.89-149.29,394.69-273.01,550.37l313.91-216.01-40.9-334.36Z"/>
    <path class="cls-1" d="M162.93,529.63c38.87,159.89,149.29,394.69,273.01,550.37l-313.91-216.01,40.9-334.36Z"/>
    <path class="cls-1" d="M540,230.68c326.61,0,388.28,134.25,388.28,134.25l37.41-408.49-425.69-19.18L114.31-43.57l37.41,408.49s61.67-134.25,388.28-134.25Z"/>
  </g>
</svg>