<?xml version="1.0" encoding="UTF-8"?>
<svg id="Hair" xmlns="http://www.w3.org/2000/svg" xmlns:xlink="http://www.w3.org/1999/xlink" viewBox="0 0 1080 1305.21">
  <defs>
    <style>
      .cls-1 {
        fill: #603913;
      }

      .cls-2 {
        fill: #764617;
      }

      .cls-3 {
        fill: #59320c;
      }

      .cls-4 {
        clip-path: url(#clippath);
      }
    </style>
    <clipPath id="clippath">
      <path class="cls-1" d="M593.48,478.59s-30.05-42.36-106.42-25.45c-75.93,16.81-90.87,95.03-90.87,95.03-29.84-39.13-15.06-81.99-15.06-81.99,0,0-53.14,18.68-33.72,110.29,0,0-51.19-28.31-43.95-77.52,0,0-47.35,13.93-51.44,83.23-4.09,69.3-23.05,113.15-23.05,113.15,0,0-2.31-40.12-5.02-76.07,0,0-24.54,21.55-15.9,105.35,0,0-56.61-85.37-26.39-168.87,0,0-9.48,8.36-16.72,33.3,0,0-17.15-139.15,39.5-168.95,0,0-9.96-3.49-34.21,20,0,0,20.25-195.38,149.86-189.15,0,0-35.2-4.7-57.8,3.63,0,0,108.68-132.81,260.13-42.3,0,0-1.31-12.08-21.36-30.09,0,0,55.96,6.02,72.03,33.47,0,0,43.19-41.88,94.48-19.38,0,0-18.84,3.35-20.97,11.56,0,0,132.79-28.15,216.15,81.46,0,0-5.23-5.9-35.45-5.76,0,0,60.98,44.04,56.62,103.77,0,0-14.46-36.54-32.15-34.31,0,0,99.46,101.2,43.22,213.77,0,0-1.05-41.12-9.51-49.8,0,0,20.57,61.96-20.14,182.96,0,0,17.14-223.25-134.63-245.72,0,0,14.82,30.64,0,69.85,0,0-31.83-115.36-137.22-45.49Z"/>
    </clipPath>
  </defs>
  <g>
    <g>
      <path class="cls-1" d="M593.48,478.59s-30.05-42.36-106.42-25.45c-75.93,16.81-90.87,95.03-90.87,95.03-29.84-39.13-15.06-81.99-15.06-81.99,0,0-53.14,18.68-33.72,110.29,0,0-51.19-28.31-43.95-77.52,0,0-47.35,13.93-51.44,83.23-4.09,69.3-23.05,113.15-23.05,113.15,0,0-2.31-40.12-5.02-76.07,0,0-24.54,21.55-15.9,105.35,0,0-56.61-85.37-26.39-168.87,0,0-9.48,8.36-16.72,33.3,0,0-17.15-139.15,39.5-168.95,0,0-9.96-3.49-34.21,20,0,0,20.25-195.38,149.86-189.15,0,0-35.2-4.7-57.8,3.63,0,0,108.68-132.81,260.13-42.3,0,0-1.31-12.08-21.36-30.09,0,0,55.96,6.02,72.03,33.47,0,0,43.19-41.88,94.48-19.38,0,0-18.84,3.35-20.97,11.56,0,0,132.79-28.15,216.15,81.46,0,0-5.23-5.9-35.45-5.76,0,0,60.98,44.04,56.62,103.77,0,0-14.46-36.54-32.15-34.31,0,0,99.46,101.2,43.22,213.77,0,0-1.05-41.12-9.51-49.8,0,0,20.57,61.96-20.14,182.96,0,0,17.14-223.25-134.63-245.72,0,0,14.82,30.64,0,69.85,0,0-31.83-115.36-137.22-45.49Z"/>
      <g class="cls-4">
        <path class="cls-2" d="M337.87,250.72s-87.66-25.36-145.8,59.45c-58.14,84.81-22.78,123.79-22.78,123.79,0,0,20.19-77.92,56.96-88.05,0,0-8.04,17.6-9.11,38.41,0,0,81.42-118.11,184.62-75.54,0,0-34.83-45.79-105.13-21.93,0,0,7.67-32.27,41.24-36.13"/>
        <path class="cls-2" d="M262.99,232.97s54.99-28.42,100.11-12.84c0,0-13.31-13.31-28.89-13.31,0,0,61.98-35.34,140.74,10.6,0,0,7.06-41.13-49.21-46.11s-162.87,28.93-162.75,61.66"/>
        <path class="cls-2" d="M154.22,605.64s-16.67-122.46,45.19-165.23c0,0-41.52,112.45-32.87,146.19l-12.32,19.05"/>
        <path class="cls-2" d="M183.93,583.64s-28.41,86.72,16.71,143.58l12.24,9.71s-27.03-76.99-17.66-99.78c9.37-22.79,15.44-81.54,15.44-81.54,0,0-10.07,39.76-16.64,51.69-6.57,11.93-6.61-34.6-6.61-34.6l-3.5,10.92Z"/>
        <path class="cls-2" d="M862.75,289.31s-84.96-106.28-188.7-49.04c0,0-15.33-42.93,62.35-43.95s126.35,93,126.35,93Z"/>
        <path class="cls-2" d="M888.2,369.9s-30.53-57.08-126.24-51.51c0,0,15.52-45.92,73.18-29.57,57.65,16.35,53.07,81.08,53.07,81.08Z"/>
        <path class="cls-2" d="M893.72,534.74s-4.71-113.91-51.79-128.71c0,0-5.37-66.61,26.32-41.06,31.69,25.55,89.44,140.54,63.88,160.98-25.55,20.44-38.42,8.79-38.42,8.79Z"/>
        <path class="cls-2" d="M856.98,721.69s34.26-165.57-33-238.6c0,0,53,15.7,53,85.32s13.61,78.52,13.61,78.52l-33.61,74.76Z"/>
        <path class="cls-2" d="M679.81,186.65s-84.9,6.88-79.92,53.13c0,0-52.65-30.95-11.03-57.98,41.62-27.04,90.95,4.86,90.95,4.86Z"/>
        <path class="cls-3" d="M862.75,289.31s-87.72-32.37-158.33-3.85c0,0,66.8-82.68,158.33,3.85Z"/>
        <path class="cls-3" d="M262.99,232.97s71.08,2.93,109.7,41.55c0,0-12.4-35.08-34.84-39.25,0,0,27.91-8.54,69.14,9.47,0,0-31.97-24.64-82.56-22.38-50.59,2.26-61.44,10.61-61.44,10.61Z"/>
        <path class="cls-3" d="M525.84,184.21s40.26,17.8,23.23,69.66l-14.11-37.11-9.12-32.54Z"/>
        <path class="cls-3" d="M169.28,433.96s9.5-34,42.87-34.49c33.37-.49,51.53-15.2,51.53-15.2l-35.4,32.39-59,17.3Z"/>
        <path class="cls-3" d="M175.83,567.79c0-2.45,2.94-49.56,19.14-63.79,0,0,9.96,52.99,3.02,68.21-6.94,15.22-8.18-16.4-8.18-16.4l-13.97,11.99Z"/>
        <path class="cls-3" d="M228.97,695.35s2.3-84.2-2.39-103.51c-4.69-19.32,3.67-38.03,3.67-38.03,0,0-15.28,22.08-18.87,44.03-3.58,21.95-16.41,81.97-2.21,104.42,14.2,22.45,19.8-6.9,19.8-6.9Z"/>
        <path class="cls-3" d="M888.2,369.9s-43.23-52.46-137.7-37.74c0,0,100.57,33.76,137.7,37.74Z"/>
        <path class="cls-3" d="M643.93,390.28s-49.61,1.26-47.05,31.98c2.56,30.72,2.87-3.7,38.72,0,0,0-29.76,1.6-30.08,29.12-.32,27.52,12.16,19.84,12.16,19.84l-11.2,12.16-16.32,1.92-19.2-12.16s26.44-5.13,20.16-15.99c-15.81-27.36-66.66-48.58-66.66-48.58,0,0,59.73,17.28,70.71,44.54,0,0,0-22.14-12.24-32.46l12.24,8.84s-2.77-44.05-29.33-48.85c0,0,23.68,1.6,29.33,21.12,0,0,33.4-16.6,48.76-11.5Z"/>
        <path class="cls-2" d="M452.04,408.71c-46.62,11.83-70.91,57.47-70.91,57.47-19.01,40.39-11.55,66.39,15.06,81.99,0,0-11.63-164.44,153.39-110.45,0,0-50.92-40.83-97.54-29Z"/>
        <path class="cls-2" d="M347.41,576.48s-102.75-25.81-15.79-121.27c84.86-93.16,171.34-57.4,171.34-57.4,0,0-81.67-13.31-138.96,60.87-57.29,74.18,8.25,118.1,8.25,118.1l-24.84-.29Z"/>
        <path class="cls-2" d="M730.7,524.08s-25.07-85.49-107.62-80.98c0,0,62.25-52.6,107.62,11.12,45.37,63.72,0,69.85,0,69.85Z"/>
      </g>
    </g>
    <path class="cls-2" d="M581.28,295.95c-25.18-20.46-56.27-33.4-87.9-39.32-31.61-5.91-64.02-4.53-95.65,1.24v-14.25c5.21,1.33,10.12,2.95,15.15,4.74,33.01,12.35,68.49,34.14,78.45,70.03-18.21-34.59-60.31-52.32-96.66-60.52,0,0-33.08-6.07-33.08-6.07l33.07-8.18c49.46-12.53,105.16-8.96,149.24,18.35,14.34,8.96,27.8,20.01,37.39,33.98h0Z"/>
    <path class="cls-2" d="M616.28,343.21c16.56-14.88,38.33-24.2,60.71-25.44,23.29-1.46,46.57,8.27,63.38,24.17,16.39,14.76,26.93,35.45,36.92,54.5,0,0-17.94-9.56-17.94-9.56-5.79-2.65-12.02-4.37-18.28-5.64-19.89-4.08-40.61-1.58-59.5,6.08,22.58-17.68,54.5-21.73,81.47-12.51.48.17.88.32,1.51.57l-8.07,8.89c-34.1-56.3-81.11-69.66-140.21-41.07h0Z"/>
    <path class="cls-2" d="M428.98,345.14c-27.92.3-55.61,7.83-80.33,20.24-24.53,12.29-45.96,29.55-65.09,49.29,0,0-10.47-14.17-10.47-14.17,2.25-.9,4.47-1.67,6.73-2.42,30.94-9.9,71.78-13.75,98,8.89-30.5-12.87-65.62-3.66-94.71,8.71,0,0-1.37.63-1.37.63-.43.2-.94.45-1.23.6l-38.52,20.49,28.06-34.66c27.94-34.94,69.69-61.46,115.15-63.88,14.81-.69,30.01.56,43.78,6.27h0Z"/>
    <path class="cls-2" d="M229.67,445.19c-15.85,31.85-12.39,69.43,1.35,101.33,0,0-7.57,1.68-7.57,1.68.21-5.75,1-11.29,2.18-16.88,3.51-16.05,11.18-33.34,26.38-41.26-16.22,13.81-20.5,37.8-20.64,58.09,0,0,.57,18.09.57,18.09l-8.13-16.41c-12.37-24.66-17-54.47-7.73-80.93,3.07-8.58,7.34-17.01,13.58-23.7h0Z"/>
    <path class="cls-2" d="M608.97,291.53c22.21-22.35,54.23-36.94,85.71-39.43,10.87-.79,21.97-.06,32.61,2.62l17.01,4.29-15.57,6.92c-15.59,7.18-31.34,17.35-41.2,31.69-1.43,2.14-2.68,4.41-3.84,6.8.56-5.34,2.37-10.55,4.85-15.34,3.84-7.24,9.15-13.67,15.13-19.25,5.48-5.16,11.57-9.67,18.02-13.55.62-.37,1.17-.69,1.92-1.08l1.44,11.21c-40.31-4.95-79.36,9.59-116.07,25.13h0Z"/>
    <path class="cls-2" d="M561.69,368.59c-4.68-7.3-11.26-13.04-19.04-16.64-4.89-2.4-15.64-5.08-20.93-6.73,0,0,13.32-2.9,13.32-2.9,11.9-2.43,28.63-3.17,38.05,5.73-6.05-2.06-12.14-2.04-18.35-1.61-6.03.47-12.19,1.39-18.07,2.69,0,0,.14-6.77.14-6.77,1.54.46,3.06.97,4.56,1.58,10.18,4.14,19.25,13.38,20.33,24.66h0Z"/>
    <path class="cls-2" d="M785.04,433.22c11-2.73,22.72,2.76,30.01,10.99,1.07,1.21,2.06,2.48,3,3.78l-6.34,2.38c-.73-5.98-1.9-12.1-3.46-17.94-1.66-6-3.66-11.76-7.61-16.77,11.52,5.93,16.38,21.96,18.03,33.99,0,0,1.69,13.53,1.69,13.53-3.36-4.51-9.38-13.66-13.3-17.51-5.98-6.14-13.57-10.45-22.02-12.44h0Z"/>
    <path class="cls-3" d="M302.26,420.56s-46.39,12.56-63.35,69.74c0,0,19.48-46.4,75.68-50.13,0,0-2.41-23.6-12.33-19.61Z"/>
    <path class="cls-3" d="M409.39,364.05c-10.64,3.95-22.71,7.49-33.24,11.57-3.54,1.39-6.99,2.88-10.35,4.52l-1.62-7.02c8.4.87,24.95,4.56,26.9,14.2-6.16-7.95-30.98-6.49-40.73-6.96,6.57-3.65,16.04-9.71,23.09-11.99,11.51-3.96,23.82-5.82,35.94-4.32h0Z"/>
    <path class="cls-3" d="M502.96,345.12c-8.47-2.88-20.02-7.47-28.44-10.64-9.17-3.41-18.4-6.65-27.85-8.87,0,0,4.11-8.27,4.11-8.27,7.54,7.53,21.07,25,15.11,35.96.51-12.84-26.2-32.29-35.5-40.68,0,0,18.05,3.56,18.05,3.56,5.18.86,10.44,2.22,15.39,3.99,14.62,5.44,28.34,13.6,39.13,24.95h0Z"/>
    <path class="cls-3" d="M554.47,301.02c-8.68-2.16-20.58-5.76-29.24-8.2-9.42-2.62-18.89-5.07-28.5-6.49,0,0,3.4-8.59,3.4-8.59,8.15,6.87,23.1,23.13,18.09,34.55-.57-12.83-28.83-29.96-38.81-37.54,0,0,18.28,2.03,18.28,2.03,5.23.42,10.59,1.33,15.67,2.68,15.03,4.19,29.38,11.16,41.1,21.55h0Z"/>
    <path class="cls-3" d="M610.31,307.11c11.72-10.39,26.07-17.37,41.1-21.55,5.08-1.35,10.43-2.26,15.67-2.68,0,0,18.28-2.03,18.28-2.03-9.94,7.55-38.25,24.72-38.81,37.54-5.01-11.41,9.93-27.68,18.09-34.55,0,0,3.4,8.59,3.4,8.59-9.61,1.42-19.07,3.86-28.5,6.49-8.68,2.45-20.51,6.03-29.24,8.2h0Z"/>
    <path class="cls-3" d="M623.08,359.04c14.67-8.49,31.61-12.62,48.5-13.16,7.71-.18,22.41,1.72,30.27,2.26-11.24,5.43-42.38,16.66-45.47,29.12-2.65-12.18,15.2-25.17,24.57-30.29,0,0,1.63,9.09,1.63,9.09-9.7-.51-19.46.01-29.22.72-9,.69-21.3,1.85-30.28,2.26h0Z"/>
    <path class="cls-3" d="M725.4,392.21c13.35,8.19,24.19,19.9,32.57,33.07,2.77,4.47,5.19,9.33,7.12,14.22,0,0,7.25,16.91,7.25,16.91-10.14-7.33-34.72-29.4-47.2-26.23,9.52-8.11,29.32,1.45,38.32,7.27,0,0-7.23,5.74-7.23,5.74-4.15-8.78-9.24-17.13-14.48-25.38-4.87-7.6-11.73-17.87-16.34-25.59h0Z"/>
    <path class="cls-3" d="M411.61,323.27s-90.99-42.64-153.33,48.26c0,0,61.24-60.28,153.33-48.26Z"/>
    <path class="cls-3" d="M860.91,446.21s-18.4-28.17-36.19-45.96c-17.79-17.79-26.99-28.72-26.99-28.72,0,0,23.92.44,33.74,12.74,0,0-5.97-24.74-50.91-30.98-44.94-6.23,80.36,92.92,80.36,92.92Z"/>
    <path class="cls-3" d="M594.44,373.11s7.23-15.89,28.65-4.52c0,0-7.39-12.28-28.65-8.51,0,0-3.43-37.29,24.34-36.81,0,0-15.7-4.67-24.48,3.56,0,0-6.38-59.32,26.54-64.8,0,0-18.41-1.37-27.03,17.83-8.63,19.2-8.48,38.54-8.48,38.54,0,0-8.42-9.39-30.86-7.34,0,0,25.18-.69,30.86,23.66,0,0-13.22-18.86-59.48-7.89,0,0,50.08-6.17,57.62,18.86,7.54,25.03-15.43,12-15.43,12,0,0,20.29,16.51,26.4,15.43Z"/>
  </g>
  <path class="cls-2" d="M722.01,411.76s-47.55-43.17-95.1,3.9c0,0,49.55-28.33,95.1-3.9Z"/>
</svg>