<?xml version="1.0" encoding="UTF-8"?>
<svg id="Layer_2" data-name="Layer 2" xmlns="http://www.w3.org/2000/svg" viewBox="0 0 1043.46 1323.98">
  <defs>
    <style>
      .cls-1 {
        fill: #333;
      }

      .cls-2 {
        fill: #1a1a1a;
      }
    </style>
  </defs>
  <g id="Layer_1-2" data-name="Layer 1">
    <g>
      <path class="cls-1" d="M754.26,1178.4c-6.75,29.12-2.78,59.9,6.38,89.99,12.51-31.51,7.66-58.18,23.66-84.18,15.67-11.83,21.87,5.36,25.19,19.17,3.04,10.89,6.49,10.52,9.33-.57.91-24.15-4.72-45.21-7.8-70.18-20.79,9.18-51.22,21.92-56.75,45.77Z"/>
      <path class="cls-1" d="M236.5,1104.81c.77,37.91,44.85,12.95,42.49,46.1-1.57,22.09.68,40.48,9.18,61.24,11.85-8.92,18.43-8.91,27.1-6.1,6.8,2.2,5.91,9.62,14.86,20.2,33.21-44.38-82.43-121.27-96-178.82-4.46,21.49,1.99,38.4,2.38,57.38Z"/>
      <path class="cls-2" d="M904.1,231.13C802.51,101.97,542.31-29.5,390.69,75.97c-14.07,11.28-26.77,9.69-37.6-7.45-34.59,30.61-73.21,57.1-102.85,93.67C109.54,210.8-39.46,541.86,37.95,707.18c13.82-147.84,27.55-322.08,151.5-425.9-18.29,37.03-81.48,117.37-82.29,159.43,0,0-5.02,110.59-5.02,110.59-11.39-5.85-5.82-20.77-23.02-27.53-73.61,308.56,87.79,357.86,98.2,576.99,4-11.67,14.49-27.84,14.72-39.93-18.59-50.23-20.34-122.5-38.19-173.87-37.9-146.7-80.76-441.32,58.92-522.82-152.85,193.02-39.92,446.86-9.81,665.86,9.7,5.3,23.19,9.4,33.48,4.08-19.2-53.87-8.69-84.33-22.61-146.31-27.51-73.22-23.96-148.94-24.95-226.54-1.32-22.16,15.14-30.89,30.02-37.39,1.46-37.31-6.61-85.68,1.22-124.67,21.14-18.77,67.27,130.15,140.26,165.89,7.13-24-13.57-29.32-21.45-43.4-28.87-48.15-56.19-105.21-80.46-155.54-22.41-37.82-73.71-204.5-20.86-211.03-7.91,206.02,134.85,431.65,352.97,464.07-38.25-37.12-68.58-68.06-91.16-112.42-85.04-99.04-210.59-182.43-221.8-323.99,16.27-.53,17.97,11.39,21.38,21.79,35.61,107.45,117.57,191.59,198.01,266.98,12.09,8.23,30.38,3.58,39.66,21.69,41.24,80.47,131.31,97.8,210.03,122.65-73.11-127.31-231.93-186.8-314.24-306.91-7.68-7.86-136.43-173.83-81.76-138.42,67.76,92.75,142.88,181.55,234.17,251.09,43.29,39.97,93.05,70.63,134.38,113.19,67.36,69.38,68.61,149.42,104.3,135.2-55.7-182.09-210.52-286.73-327.69-424.05-230.83-298.21,142.36,91.32,236.34,149.5,5.09-22.76-13.83-34.55-14.33-53.68,28.26-32.81,150.86,215.13,127.2,84.11,41.39-7.4,60.38,144.37,68.37,109.96,1.31-166.11-131.01-308.83-247.59-415.77-4.35-9.96-79.86-70.16-53.26-79.8,48.15,35.17,134.53,123.4,185.49,179.58,71.07,80.67,116.15,184.74,136.45,290,5.04,172.12-10.49,212.71-53.26,19.29-3.98-3.4-18.12,3.5-21.97-.3-20.99-20.74-32.54-47.96-53.64-72.8-10.5,7.37-10.05,17.37-19.32,26.69-6.88,1.62-164.06-171.64-164.81-136.19,326.16,292.27,178.05,331.92,261.77,620.8,137.56-288.87,217.15-547.72,20.79-836.19Z"/>
      <path class="cls-1" d="M888.99,172.04C769.42,73.49,587.74-25.54,428.45,31.41c4.03-13.5,9.76-17.77,8.39-25.63-36.59-44.23-216.04,180.33-249.17,172.65-343.56,294.38-128.21,614.58-35.16,912.6.6,20.33,8.3,37.98.81,58.62,7.94.8,18.84,6.64,24.2,2.54,19.7-15.06,15.86-39.6,33.27-63.9,14.77,46.14,10.07,92.59-6.55,134.43-3.78,9.51-1.45,15.67,6.04,19.4,19.47,9.69,41.07-51.08,47.39-64.75,5.55,23.3,6.95,42.1,10.56,63.63,3.83,22.82-25.45,57.35,1.63,65.25,22.73,6.64,26.34-48.31,38.29-60.2,10.88,22.71-4.42,72.04,17.08,77.93,21.48-14.05,19.88-43.56,23.94-66.07,46.51-99.16-92.63-138.08-97.74-256.57,8.06-5.17,17.1,1.93,28.21-2.49l-33.13-79.72c-3.04-7.32-44.2-120.76-22.59-118.7,4.43,2.86,15.76,12.74,18.26,7.93,20.77-25.8-41.96-122.93-16.43-123.67,20.4,22.91,19.56,37.67,42.91,42.98,3.58-18.39-.6-40.28-11.61-59.34-3.61-6.25-32.44-99.49-18.41-111.12l33.64,51.88c26.96,39.44,269.11,252.81,153.35,68.14,49.14,28.42,92.23,49.21,141.5,62.52,30.67,8.29,56.26,29.49,87.42,34.93,18.74,3.27,38.98,4.64,49.47,22.11,7.18-2.17,13.14-13.41,12.16-18.32-5.27-6.46-95.12-71.27-104.1-79.36,154.1,33.73,230.58,93,226.97,254.09,7.02,88.32-20.1,167.71-103.89,200.38-31.26,86.15,49.04,265.33,56.28,68.89,5.69,25.24,11.93,35.12,28.5,46.3,103.55,56.02-36.1-138.31,29.61-188.7,16.19,36.09,16.83,58.08,52.84,59.02-10.5-24.79,2.84-44.86,5.84-67.49,7.64-57.61,35.47-104.26,64.43-151.59,118.56-232.18,86.53-549.96-83.68-747.96ZM818.81,1202.81c-2.84,11.09-6.29,11.46-9.33.57-3.31-13.8-9.54-31-25.19-19.17-15.99,26-11.14,52.66-23.65,84.18-9.16-30.09-13.13-60.87-6.38-89.99,5.53-23.86,35.96-36.59,56.75-45.77,3.08,24.98,8.71,46.03,7.8,70.18ZM325.73,1175.1c13.79,13.76,15.41,38.02,4.4,51.16-12.98-21.98-18.91-29.63-41.96-14.1-8.49-20.76-10.74-39.15-9.18-61.24-8.93-47.58-54.33,15.49-44.87-103.48,24.68,48.02,53.42,89.54,91.6,127.66ZM941.13,924.62c-156.84,395.26,9.8-213.43-210.15-368.68-25.98-24.11-86.24-88.58-109.43-109.41.01-35.99,158.91,138.58,164.81,136.18,9.27-9.31,8.82-19.31,19.32-26.69,21.1,24.84,32.65,52.06,53.64,72.8,3.85,3.8,17.99-3.1,21.96.31,42.32,191.61,58.44,154.6,53.28-19.3-20.3-105.26-65.39-209.32-136.46-289.99-50.85-56.13-137.43-144.55-185.47-179.59-26.53,9.9,48.64,69.34,53.24,79.8,116.57,106.93,248.93,249.67,247.61,415.77-8,34.41-26.99-117.36-68.38-109.96,23.72,131.01-99.08-116.99-127.2-84.11.49,19.14,19.42,30.93,14.32,53.69-93.93-58.14-467.2-447.76-236.33-149.51,117.21,137.38,271.93,241.92,327.67,424.06-35.68,14.22-36.93-65.83-104.29-135.21-41.33-42.56-91.09-73.22-134.39-113.19-91.24-69.51-166.46-158.4-234.16-251.1-55.02-35.54,74.48,130.71,81.74,138.43,82.35,120.15,241.11,179.55,314.26,306.9-78.72-24.83-168.8-42.17-210.03-122.64-9.28-18.11-27.57-13.46-39.65-21.7-80.47-75.4-162.35-159.5-198.02-266.97-3.4-10.4-5.1-22.32-21.38-21.79,11.25,141.6,136.74,224.92,221.8,323.99,22.58,44.38,52.91,75.28,91.16,112.42-218.14-32.45-360.85-258.01-352.97-464.07-52.94,7.06-1.48,173.28,20.85,211.02,24.2,50.17,51.72,107.46,80.47,155.54,7.87,14.08,28.57,19.4,21.43,43.41-75.09-37.86-116.85-182.1-140.24-165.91-7.84,39,.23,87.37-1.23,124.68-14.87,6.5-31.33,15.23-30.02,37.39,1,77.6-2.55,153.34,24.96,226.54,13.91,61.98,3.41,92.44,22.6,146.31-10.3,5.32-23.79,1.23-33.48-4.07-30.12-218.88-143.05-472.96,9.82-665.85-139.77,82.13-96.75,375.5-58.95,522.79,17.86,51.47,19.6,123.5,38.19,173.89-.22,12.09-10.71,28.26-14.72,39.93-10.12-217.84-171.95-269.62-98.19-576.99,17.2,6.76,11.62,21.69,23.01,27.54l5.02-110.59c.58-41.71,64.29-123.35,82.29-159.43-100.94,82.66-129.28,224.72-146.36,345.71,8.84,126.95-30.28,60.57-23.87-22.62C2.62,460.9,138.86,190.99,250.25,162.2c20.13-20.51,37.02-43.04,61.07-58.95,15.89-10.52,28.08-22.88,41.77-34.73,6.63,7.69,11.15,14.97,17.18,14.78,95.3-55.48,211.38-65.31,310.71-8.12,333.24,114.23,431.71,561.97,260.15,849.45Z"/>
    </g>
  </g>
</svg>