<?xml version="1.0" encoding="UTF-8"?>
<svg id="Layer_2" data-name="Layer 2" xmlns="http://www.w3.org/2000/svg" viewBox="0 0 1566.1 1542.46">
  <defs>
    <style>
      .cls-1 {
        fill: #333;
      }
    </style>
  </defs>
  <g id="Layer_1-2" data-name="Layer 1">
    <g>
      <path class="cls-1" d="M1226.5,585.75c24.92-48.6,38.7-99.22,30.76-155.78-38.45,44.4-69.07,98.07-70.76,154.82-.41,13.87,34.4,11.89,40,.96Z"/>
      <path class="cls-1" d="M341.44,1085.52c-23.41,22.52-42.94,52.13-43.93,85.92-.64,21.74,13.99,40.94,25.36,57.36,53.68,77.49-.4,105.45,19.91,184.48,5.66,2.84,15.67-1.81,18.59,1.32,8.92,9.56,23.03,84.94,83.36,109.76,32.18,13.24,75.52,7.18,100.38-14.78-16.11-14.99-28.02-19.9-31.15-33.86-14.26-63.39,85.7-44.28,94.81-100.82,5.58-34.65,18.04-195.17,3.19-220.19-16.42-27.67-46-42.95-64.43-68.34-30.76-42.39-49.06-87.81-65.88-139.8-54.44,48.16-86.74,87.52-140.2,138.95Z"/>
      <path class="cls-1" d="M158.17,924.52c39.14-84.83,58.4-72.67,66.5-180.56-62.88,35.66-93.04,115.01-66.5,180.56Z"/>
      <path class="cls-1" d="M463.18,479.46c34.87-36.53,42.93-105.12,58.15-95.88,16.5,10.03-25.73,80.74-29.87,99.86,98.7-66.84,83.38-169.19,141.3-258.77-29.36.52-35.03,24.47-58.58,36.2.86-38.67,104.54-129.8,136.51-152.26-83.21,14.88-208.39,107.91-220.54,197.16l54.31-23.85c-18.13,67.35-55.5,122.45-101.87,171.69-30.78,32.68-63.81,59.5-86.54,102.06,41.22-19.85,76.62-44.24,107.13-76.21Z"/>
      <path class="cls-1" d="M833.65,191.37c-86.67,10.46-143.35,51.84-177.27,130.64l-59.2,137.55c-33.08,76.87-86.23,142.21-159.19,185.19-60.07,35.39-163.91,101.15-152.81,189.71,87.76-140.31,188.21-58.67,282.39-140.21,43.29-37.48,71.25-85.49,84.95-140.31l42.08-168.32c8.58-34.34,26.27-65.52,40.27-97.15,26.52-59.92,100.7-95.16,166.98-70.03-17.73-15.73-43.75-30.03-68.18-27.08Z"/>
      <path class="cls-1" d="M1308.33,746.9c-13.54-21.96-28.98-43.83-56.84-49.6,33.01,62.34,45.64,129.02,39.22,196.51-15.48-5.22-.38-17.65-15.36-25.17,1.88,43.09-21.48,60.25-46.67,83.11-54.72,49.66-75.73,191.05,11.04,226.57-15.04-30.63-28.83-54.24-34.82-86.13-21.25-113.16,87.78-158.05,68.84-117.77-22.86,48.62-22.64,105.76,12.12,147.66-25.74-183.24,53.31-92.67,78.73-283.93l-56.26-91.25Z"/>
      <path class="cls-1" d="M1292.62,490.46c-7.79,114.8,149.36,168.94,126.6,313.61-16.11-16.75-11.63-82.72-48.34-86.83,7.23,45.72-.31,85.3,1.01,127.03,2.83,90-7.52,61.26-1.27,125.45,7.53-20.36,5.54-44.35,22.73-62.45,25.7-27.06,55.69-59.21,59.95-99.78,6.21-59.05-21.71-114.68-58.76-158.92-42.16-50.34-72.05-103.13-101.91-158.1Z"/>
      <path d="M1486.49,1029.71c-33.73-24.65-32.58-77.15-16.56-112.73,52.8-117.34,58.96-232.6-54.58-311.84-52.49-36.63-87.21-93.78-92.63-156.01-5.82-66.93-29.27-121.55-56.28-181.38-31.17-69.04-88.29-126.14-165.65-136.33-8.6-1.13-29.88,4.61-34.5-2.5-11.61-56.13-51.54-78.53-98.19-97.42C885.33-1.98,805.23-10.34,718.6,14.02c-36.04,10.14-71.06,18.29-106.47,32.42-122.15,48.72-181.25,99.35-270.89,190.11-37.85,38.33-71.28,73.02-101.02,118.49-85.03,130.04-45.03,166.58-50.73,289.85-2.33,50.39-84.21,93.88-115.5,121.9-32.77,29.34-53.16,76.53-54.56,121.62-2.31,74.15,80.72,88.31,68.77,129.77-2.92,10.13-13.94,24.24-27.62,30.06-48.02,20.45-73.2,67.7-54.25,117.82,7.55,19.96,15.44,40.31,35.01,53.51,7.41-18.25-14.66-25.17-3.32-43.63,20.82,73.71,119.16,106.95,95.17,159.88-15.51,34.23-65.29.26-84.99,7.42,11.98,22.57,32.91,41.94,57.27,51.48,19.45,7.62,37.75-9.41,59.32-17.89,9.31,42.36-13.27,73.94,44.43,103.32,4.8-7.73,2.21-15.84,8.36-20.5,24.11,29.41,45.84,59.37,83.76,67.2-8.36-25.67-32.32-37.08-28-61.8,36.4,38.1,73.69,70.18,127.26,77.4-8.67-33.57-57.55-56.37-40.1-106.01,14.95,39.49,37.55,78.15,79.26,96.52,46.29,20.38,105.73,1.7,132.07-40.94-20.78-1.49-39.52-.4-45.18-18.4-12.35-39.29,67.31-42.36,83.17-72.33,23.79-44.94,17.16-98.75,19.75-148.58,1.68-32.19,11.36-64.45-.43-94.52-11.63-29.68-40.28-41.35-59.79-66.92-130.33-170.8-35.71-188.75-60.68-312.82-8.94-44.41,55.2-45.29,112.76-100.15,129.21-123.15,20.82-312.61,140.26-309.52,69.31,1.79,136.66-1.16,200.79-25.86,36.75,24.72,55.35,57.85,72.54,95.32l54.09,117.99c28.57,62.32,47.39,239.78,16.63,354.31,0,0,37.28,6.28,0,0-21.98,78.92-49.49,176.65-118.34,226.36l-6.69,144.8c-2.02,43.66,8.25,98.77,49.69,121.9,20.35,11.36,112.28,28.19,107.12,48.14-7.04,27.18-36.69,25.98-65.52,38.35,81.5,68.4,182.43,5.58,209.39-.49,55.09-12.39,103.2-39.9,119.95-99.89,39.46,24.75,82.42,14.39,114.4-12.71,13.51-11.44,26.23-41.17,8.45-48.58-9.71.75-28.49,28.1-39.71,13.45-17.66-23.06-1.92-61.89,20.08-79.72,31.34-25.4,58.71-60.87,61.31-102.28,3.66-58.35-36.3-98.7-79.38-130.18ZM158.17,924.52c-26.54-65.55,3.62-144.9,66.5-180.56-8.1,107.89-27.36,95.73-66.5,180.56ZM442.59,453.61c46.37-49.24,83.74-104.34,101.87-171.69l-54.31,23.85c12.15-89.25,137.33-182.28,220.54-197.16-31.97,22.46-135.65,113.59-136.51,152.26,23.55-11.73,29.23-35.68,58.58-36.2-57.92,89.58-42.6,191.93-141.3,258.77,4.14-19.11,46.37-89.83,29.87-99.86-15.22-9.25-23.29,59.35-58.15,95.88-30.51,31.97-65.91,56.35-107.13,76.21,22.74-42.55,55.76-69.38,86.54-102.06ZM547.53,1086.37c18.42,25.39,48.01,40.67,64.43,68.34,14.85,25.01,2.39,185.54-3.19,220.19-9.11,56.54-109.07,37.44-94.81,100.82,3.14,13.96,15.04,18.87,31.15,33.86-24.86,21.96-68.2,28.02-100.38,14.78-60.33-24.82-74.44-100.2-83.36-109.76-2.92-3.13-12.93,1.52-18.59-1.32-20.3-79.03,33.77-106.98-19.91-184.48-11.37-16.42-26-35.62-25.36-57.36.99-33.79,20.52-63.4,43.93-85.92,53.46-51.43,85.76-90.79,140.2-138.95,16.83,51.99,35.13,97.41,65.88,139.8ZM734.86,288.49c-14,31.63-31.68,62.81-40.27,97.15l-42.08,168.32c-13.7,54.82-41.67,102.83-84.95,140.31-94.18,81.54-194.64-.1-282.39,140.21-11.09-88.55,92.74-154.31,152.81-189.71,72.96-42.98,126.11-108.32,159.19-185.19l59.2-137.55c33.92-78.8,90.6-120.18,177.27-130.64,24.43-2.95,50.45,11.35,68.18,27.08-66.28-25.13-140.46,10.1-166.98,70.03ZM1186.5,584.79c1.69-56.75,32.31-110.42,70.76-154.82,7.93,56.56-5.84,107.18-30.76,155.78-5.61,10.93-40.41,12.91-40-.96ZM1285.86,1122.09c-34.76-41.9-34.98-99.04-12.12-147.66,18.94-40.28-90.09,4.61-68.84,117.77,5.99,31.9,19.78,55.5,34.82,86.13-86.76-35.52-65.76-176.91-11.04-226.57,25.19-22.86,48.55-40.02,46.67-83.11,14.97,7.52-.12,19.94,15.36,25.17,6.41-67.49-6.21-134.17-39.22-196.51,27.86,5.76,43.3,27.63,56.84,49.6l56.26,91.25c-25.42,191.27-104.47,100.69-78.73,283.93ZM1453.3,807.48c-4.27,40.57-34.25,72.72-59.95,99.78-17.19,18.1-15.2,42.09-22.73,62.45-6.25-64.19,4.1-35.45,1.27-125.45-1.31-41.72,6.22-81.3-1.01-127.03,36.72,4.11,32.23,70.08,48.34,86.83,22.76-144.67-134.39-198.8-126.6-313.61,29.86,54.98,59.75,107.76,101.91,158.1,37.05,44.24,64.97,99.87,58.76,158.92Z"/>
    </g>
  </g>
</svg>