<?xml version="1.0" encoding="UTF-8"?>
<svg id="Hair" xmlns="http://www.w3.org/2000/svg" xmlns:xlink="http://www.w3.org/1999/xlink" viewBox="0 0 1080 1305.21">
  <defs>
    <style>
      .cls-1 {
        fill: none;
      }

      .cls-2 {
        fill: #603913;
      }

      .cls-3 {
        fill: #764617;
      }

      .cls-4 {
        fill: #59320c;
      }

      .cls-5 {
        fill: #a97c50;
      }

      .cls-6 {
        clip-path: url(#clippath);
      }
    </style>
    <clipPath id="clippath">
      <path class="cls-1" d="M540,1305.21c78.61,0,118.91-25.5,174.59-98.57,46.87-61.52,113.34-130,131.6-245.15,18.25-115.14,41.67-203.19,21.76-317.67-19.91-114.48,42.6-418.61-327.95-418.61-370.55,0-308.04,304.14-327.95,418.61s3.51,202.53,21.76,317.67c18.25,115.14,84.72,183.63,131.6,245.15,55.68,73.07,95.98,98.57,174.59,98.57Z"/>
    </clipPath>
  </defs>
  <g class="cls-6">
    <path class="cls-5" d="M540,183.09c448.41,0,327.95,460.73,327.95,460.73,0,0-40.04-14.41-40.04-80.19,0-112.13-137.75-107.75-287.9-107.75-150.15,0-287.9-4.38-287.9,107.75,0,65.78-40.04,80.19-40.04,80.19,0,0-120.47-460.73,327.95-460.73h0Z"/>
  </g>
  <path class="cls-2" d="M540,215.44c354.01,0,320.35,316.49,320.35,316.49-127.13-23.33-112.79-99.8-320.35-65.39-138.17-28.85-191.37,38.61-320.35,65.39,0,0-33.66-316.49,320.35-316.49h0Z"/>
  <path class="cls-3" d="M540,466.54s-132.74-60.46-236.42,34.79c-90.09,82.77-106.03-2.16-106.03-2.16,0,0,38.43,43.9,90.26-20.46,29.18-36.24,133.07-122.19,252.19-12.17Z"/>
  <path class="cls-3" d="M551.84,442.03s108.98-106.83,236.42,17.97c87.41,85.6,91.97,4.25,91.97,4.25,0,0-24.38,37.49-76.2-26.87-29.18-36.24-174.54-123.92-252.19,4.65Z"/>
  <path class="cls-3" d="M535.23,447.81s-103.42-101.82-214.2-14.93c-27.39,21.49-43.24,48.95-60.44,64.42-43.24,38.89-62.71-7-62.71-7,0,0,20.01,40.03,50.97.85,16.96-21.47,38.16-60.76,58.22-82.04,31.91-33.85,117.96-80.25,228.16,38.71Z"/>
  <path class="cls-3" d="M540,466.54s75.54-81.56,174.42-42.34c98.88,39.22,65.27,142.31,122.42,156.88,0,0-57.05,2.01-75.16-76.44-18.11-78.46-144.21-67.69-221.68-38.09Z"/>
  <path class="cls-3" d="M782.05,467.33s18.92,38.56,53.58,46.83c34.66,8.26,54.77-10.3,54.77-10.3,0,0-12.36,31.28-50.13,33.46s-58.22-69.98-58.22-69.98Z"/>
  <path class="cls-4" d="M545.41,442.03s18.74-152.63,165.55-100.7c0,0-48.17-12.56-96.94,7.93-27.18,11.42-61.17,70.24-68.61,92.77Z"/>
  <path class="cls-3" d="M535.23,428.53s5.46-70.94-98.04-88.39c-103.5-17.44-151.97,67.28-151.97,67.28,0,0,66.56-71.33,139.83-52.03,73.27,19.3,110.18,73.13,110.18,73.13Z"/>
  <path class="cls-4" d="M295.66,407.73s-60.97,130.68-98.1,70.28c0,0,39.98,31.15,58.6-42.55,18.61-73.7,77.12-97.68,77.12-97.68,0,0-55.11,28.27-67.86,99.58l30.25-29.63Z"/>
  <path class="cls-3" d="M575.44,398.45s64.59-62.17,163.99-13.03c56.82,28.09,84.36,62.44,101.84,74.03,13.1,8.69,24.36,3.8,34.28-3.75,0,0-26.04,11.62-64.49-43.2-30.07-42.86-136.03-114.58-235.62-14.06Z"/>
  <path class="cls-4" d="M540,383.15s-23.07-48.27-110.41-52.6c0,0,89.62-18.56,110.41,52.6Z"/>
  <path class="cls-3" d="M545.41,398.81s20.9-136.53,203.53-46.08c0,0-166.71-114.42-203.53,46.08Z"/>
  <path class="cls-3" d="M542.35,355.77s-63.27-82.14-194.47-14.6c0,0,115.28-87.56,194.47,14.6Z"/>
  <path class="cls-3" d="M549.24,350.32s29.93-69.89,113.7-55.11c83.76,14.78,172,128.11,193.5,115.12,0,0-12.99,14.19-59.57-27.17-46.58-41.36-168.69-136.71-247.62-32.83Z"/>
  <path class="cls-4" d="M810.94,402.29c18.4,35.19,56.2,60.72,48.2,18.36-7.69,19.02-29.75,1.59-48.2-18.36Z"/>
  <path class="cls-3" d="M540,334.72s-108.94-101.67-203.2-32.9c-94.26,68.77-96.94,170.72-125.11,162.45,0,0,24.07,22.03,32.57-5.87,8.8-28.9,24.78-91.76,86.52-137.58,49.87-37.01,130.32-43.99,209.23,13.9Z"/>
  <path class="cls-3" d="M547.34,330.56s37.53-112.81,155.5-52.61c0,0-67.19-27.12-107.35,2.57,0,0,77.17-24.55,149.87,44.32,0,0-110.01-95.02-198.01,5.72Z"/>
  <path class="cls-3" d="M535.23,317.57s-5.76-79.79-107.61-66.52c-79.69,10.38-86.07,43.49-138.25,39.89,0,0,22.47,11.14,66.58-8.7,44.1-19.84,123.58-39.1,179.29,35.33Z"/>
  <path class="cls-3" d="M333.26,296.72s-39.77.35-65.94,24.34c-26.17,23.99-5.72,45.53-36.8,71.43,0,0,24.65-18.02,29.01-36.83,4.36-18.81,19.52-32.82,36.15-36.78,0,0-11.96,8.75-28.35,33.26s-34.1,84.49-59.32,84.49c0,0,14.34,9.06,28.12-6.52,10.42-11.79,31.37-86,97.14-133.39Z"/>
  <path class="cls-4" d="M551.84,271.38s31.24-76.81,119.37-46.18c0,0-78.35-7.95-119.37,46.18Z"/>
  <path class="cls-3" d="M549.24,295.41s27.32-86.84,153.6-58.28c0,0-34.08-6.35-76.8,5.64,0,0,54.96-9.17,95.52,30.68,0,0-102.54-63.65-172.32,21.95Z"/>
  <path class="cls-3" d="M705.33,278.3s89.93,32.6,90.84,67.97c0,0,12.65-14.69-18.04-35.94,0,0,38.3,13.38,45.98,37.76,0,0-11.62-50.79-118.77-69.79Z"/>
  <path class="cls-4" d="M805.68,332.46s12.72,36.51,42.59,43.97c0,0-18.23,1.11-37.32-14.93,0,0,9.39,25.72,39.81,29.04,0,0-27.66,8.37-66.1-34.54-38.44-42.9-53.93-55.62-53.93-55.62,0,0,40.38,12.27,57.8,45.41,17.42,33.13,17.15-13.33,17.15-13.33Z"/>
  <path class="cls-3" d="M683.75,244.69s52.12-4.51,89.8,28.95c0,0-23.37-16.39-53.28-14.57,0,0,51.41,9.24,66.34,41.32,0,0-8.21-12.94-45.39-18.74-17-14.94-34.53-29.23-57.48-36.95Z"/>
  <path class="cls-3" d="M544.27,263.39s31.46-48.14,60.68-47.95c0,0-32.42-9.43-48.8,8.22,0,0,11.24-15.41,22.79-15.73,0,0-37.24-3.21-40.77,32.1,0,0,5.51-8.35,13.67-10.92,0,0-6.93,10.1-7.57,34.26Z"/>
  <path class="cls-3" d="M538.35,266.93c-5.63-7.7-11.22-43.32,10.8-67.47,0,0-22.35,9.19-22.35,31.77,0,0-2.89-29.4-42.01-31.77,0,0,31.5,7.61,36.23,40.69,4.73,33.08,19,28.35,20.79,49.36,0,0,2.17-14.87-3.46-22.58Z"/>
  <path class="cls-4" d="M529.51,277.94s-10.19-38.55-72.5-39.05c0,0,45.32,8.64,72.5,39.05Z"/>
  <path class="cls-4" d="M516.97,245.39s-16.11-53.68-69.63-32.77c0,0,49.49-6.66,69.63,32.77Z"/>
  <path class="cls-3" d="M499.47,235.62s-24.53-33.23-91.99-10.41c0,0,37.54-9.8,56.31,3.31,0,0-42.37-7.25-67.46,21.05,0,0,34.28-24.78,103.14-13.94Z"/>
  <path class="cls-4" d="M403.36,235.36s-22.07-2.35-47.44,10.04c-25.37,12.39-34.01,29.95-53.52,31.34,0,0,21.93,1.31,36.75-10.91,14.82-12.22,42.42-18.08,42.42-18.08,0,0-26.48,18.3-54.91,30.2,0,0,52.51-14.28,76.71-42.59Z"/>
  <path class="cls-4" d="M535.23,447.81c-36.92-23.13-80.52-38.19-124.33-36.31-36.68,1.42-70.77,15.89-101.21,36.31,22.95-22.29,53.18-38.57,85.16-43.53,49.59-8.07,103.53,10.01,140.38,43.53h0Z"/>
  <path class="cls-4" d="M528.66,435.28c-32.9-35.69-77.11-67-127.06-67.5-27.38-.42-53.88,8.91-77.51,22.51-9.69,5.45-18.95,11.76-28.16,18.3,17.33-18.85,38.67-34.53,62.84-43.64,30.13-11.6,64.6-10.38,94.04,2.78,31.47,13.97,58.11,38.24,75.85,67.55h0Z"/>
  <path class="cls-4" d="M774.69,449.04c-36.92-23.13-80.52-38.19-124.33-36.31-36.68,1.42-70.77,15.89-101.21,36.31,22.95-22.29,53.18-38.57,85.16-43.53,49.59-8.07,103.53,10.01,140.38,43.53h0Z"/>
  <path class="cls-4" d="M799.8,425.19c-37.08-27.55-81.96-47.02-128.45-48.5-36.47-1.48-71.59,9.4-104.01,26.17,28.35-21.9,64.06-35.08,100.19-35.29,28.19-.16,56.44,7.17,81.36,19.9,18.83,9.77,36.54,22.07,50.9,37.72h0Z"/>
  <path class="cls-4" d="M738.4,303.98c-26.29-25.27-60.54-45.99-97.77-46.07-29.19-.32-55.9,12.62-79.76,29.02,14.65-15.04,33.38-27.39,53.98-33.19,0,0,6.31-1.61,6.31-1.61,2.13-.4,4.28-.73,6.43-1.1,3.09-.6,6.6-.66,9.75-.97,3.13-.09,6.67-.12,9.81.07,0,0,6.52.53,6.52.53,34.34,4.51,65.07,25.44,84.74,53.33h0Z"/>
  <path class="cls-4" d="M535.97,323.34c-31.29-25.92-70.11-45.38-111.08-47.31-34.57-1.73-66.77,9.95-96.5,27.37,19.85-17.28,44.83-29.98,71.15-34.33,1.48-.21,7.79-1.03,9.13-1.19,2.63-.16,6.55-.37,9.2-.52,2.67.02,6.56.07,9.21.13,1.17.09,7.87.64,9.18.76,38.68,4.94,74.81,25.37,99.71,55.09h0Z"/>
  <path class="cls-4" d="M740.3,326.11c-32.35-22.4-72.29-37.81-111.91-31.87-29.11,4.42-54.31,19.98-76.55,39.15,12.25-15.5,28.04-29.04,46.23-37.73,4.03-2.06,8.3-3.58,12.53-5.19,1.25-.38,7.05-2.08,8.16-2.41,2.39-.58,5.92-1.23,8.34-1.76,3.24-.47,6.88-1.02,10.15-1.23,38.29-2.77,76.47,14.12,103.05,41.05h0Z"/>
  <path class="cls-4" d="M505.91,315.46c-37.83-11.5-79.66-14.35-117.52-2.03-31.75,10.17-57.93,31.3-79.44,56.68,15.07-26.2,38.69-48.69,66.89-60.55,40.8-17.67,90.87-14.22,130.08,5.9h0Z"/>
</svg>