<?xml version="1.0" encoding="UTF-8"?>
<svg id="Layer_2" data-name="Layer 2" xmlns="http://www.w3.org/2000/svg" viewBox="0 0 1753.88 2158.24">
  <defs>
    <style>
      .cls-1 {
        fill: #764617;
        stroke: #a67c52;
        stroke-miterlimit: 10;
        stroke-width: 7px;
      }
    </style>
  </defs>
  <g id="Layer_1-2" data-name="Layer 1">
    <g>
      <path class="cls-1" d="M273.37,2120.08c40.86,17.47,89.05,13.28,126.97-10.65,34.52-21.78,37.17-74.56,15.25-103.22.62,25.44,13.78,58.46-22.48,69.45-34.73,10.53-71.13-13.33-75.98-42.5-3.98-23.97,7.02-58.29,38.5-64.4l94.86-18.41c60.39-11.72,93.05-93.53,102.16-147.73l-91.21-29.22c-16.31-5.23-23.71-18.96-39.9-26.51-28.62,126.6-172.71,101.06-213.4,182.89-21.77,43.78-20.62,153.6,65.22,190.3Z"/>
      <path class="cls-1" d="M774.13,275.08c-26.77-16.34-80.28-5.58-102.18,12.7-23.25,19.4-27.64,47.74-27.79,76.68,41.09-18.73,77.84-29.97,120.61-20.78,58.53,12.58,85.46,56.16,120.62,101.54-4.89-54.4-66.53-142.84-111.26-170.14Z"/>
      <path class="cls-1" d="M373.97,1806.93c16.3-17.59,39.03-53.61,34.75-75.7-10.07-51.94-57.48-36.59,20.36-181.48l-172.11,98.39c-42.65,24.39-50.36,72.05-18.35,106.4,27.92,29.96,36.91,61.9,45.66,102.39,36.62-16.52,66.3-24.77,89.68-50.01Z"/>
      <path class="cls-1" d="M984.21,689.1c22.12,22.63,45.87,44.69,84.01,49-80.5-80.77-134.03-172.99-170.25-273.78-.44,88.43,23.38,160.47,86.23,224.78Z"/>
      <path class="cls-1" d="M357.52,1578.39c32.92-19.16,72.35-40.23,100.96-65.02,55.75-92.72,27.34-206.67-49.99-281.8l-4.11,129.75c-2.51,79.32-99.21,146.66-170.02,176.88-51.25,21.87-83.98,65.63-86.97,116.7-2.16,36.87,22.13,65.24,56.91,74.58-10.16-88.07,94.1-116.69,153.21-151.09Z"/>
      <path class="cls-1" d="M501.69,1454.31c37.08-61.9,51.32-185.86,13.51-253.91-82.51-148.53-170.26-93.97-183.31-281.68-44.68,49.68-39.36,114.21-5.02,164.91l149.21,220.32c29.67,43.82,19.38,97.11,25.61,150.36Z"/>
      <path class="cls-1" d="M1648.43,1627.27c27.11-20.3,73.94-37.93,83.89-73.17,14.3-50.64-23.83-108.75-63.79-144.21-132.22-117.35-62.34-24.47-145.88-75.81-44.63-27.43-88.02-51.74-111.93-100.1-50.42-102,147.24-157.02,43.72-267.16-22.81-24.27-37.96-51.74-66.3-69.52,9.04-40.38,98.75,92.41,102.84,99.33,41.56,70.32-62.83,126.65-72.41,190.32-8.64,57.46,41.86,99.59,90.03,126.79,43.22,24.4,90.23,44.34,137.43,21.1,27.05-13.31,50.49-34.05,52.26-55.55,2.53-30.72,6.16-58.9-27.88-75.05,4.67,33.03-4.14,51.99-31.57,67.26-19.31,10.75-50.43,17.83-72.27-4.39-36.75-37.4-29.01-93.48,4.09-132.47,26.12-30.76,56.96-58.55,73.01-95.02,43.41-98.58-75.4-183.26-120.45-259.9-34.58,15.49-60.94,40.17-98.38,45.54-67.91,9.73-187.5,24.28-251.43-12.55,43.85,105.43-23.17,270.01-98.55,335.59-54.07,47.05-50.25,111.81-38.54,182.86,16.91,102.6-23.61,76.42-10.52,153.06,8.78,51.4,38.04,97.08,94.82,117.05,17.73,6.23,27.58,35.97,10.71,46.53-22.75,14.24-35.91,32.19-52.02,50.53-22.09,25.15-21.69,46.68-16.35,76.9,19.21,108.74,108.88,78.48,188.17,128.24,21.53,13.51,36.91,34.21,37.3,53.8.41,20.47-14.8,35.82-33.05,51.7-17.83,15.52-57.26,16.84-74.6-.32-14.01-13.86-3.68-34.53-25.37-49.26.11,24.23-9.86,55.24,4.06,79.93,22.98,40.77,84.39,57.88,127.89,37.32,31.46-14.87,62.34-33.7,75.5-63.4,19.62-44.25,25.17-94.83,17.75-141.06-5.17-32.23-38.97-41.87-60.09-60.14-34.96-30.24-63.56-69.45-50.87-112.01,8.19-27.46,122.29-127.6,87.59-159.95l-90.92-84.77c-35.05-32.68-63.32-91.76-24.08-136.52-22.86,105.13,59.1,166.34,148.54,220.81,38.48,23.44,71.57,68.22,58.31,110.61-7.75,24.77-117.08,84.69-52.18,181.21,6.72-81.99,58.74-142.77,132.37-179.83,71.33-35.9,45.3-122.7,42.39-182.84,31.28,22.08,15.44,56.62,19.38,80.79,9.35,57.35-22.79,87.03-61.9,121.54-45.06,39.76,42.95,150.72,133.51,157.06,29.3,2.05,51.75-37.73,56.99-58.5-19.72,9.94-32.77,20.39-52.44,15.17-14.47-3.84-29.9-11.6-42.03-24.92-36.66-40.27-22.33-98.47,23.23-132.59Z"/>
      <path class="cls-1" d="M1434.59,1650.52c23.35-37.76-20.24-85.59-55.75-102.92-8.33,74.78-87.24,121.11-99.08,157.85-19.47,60.41,65.53,108.35,100.37,137.69-3.95-31.33-18.99-52.23-17.74-76.31,2.63-50.57,48.71-78.31,72.2-116.31Z"/>
      <path class="cls-1" d="M437.89,598.45c3.24-83.79,78.27-201.49,180.87-224.28-22.08-43.36-42.51-78.72-52.67-122.9-3.25-14.12-22.95-15.04-34.04-11.96-50.06,13.89-81.8,45.77-116.94,77.75-34.79,31.67-63.31,63.27-78.77,106.97-18.69,52.81-32.48,106.24-36.24,162.44-2.83,42.33-2.3,84.03-23.88,121.6-11.19-25.99,5.6-46.76,6.46-71.4,3.26-93.4,15.87-190.37,70.45-271.86,25.57-38.19,134.43-142.17,205.04-135.24-9.62-22.23-13.64-48.65-26.74-70.04-9.44-15.41-30.72-2.86-42.44,3.11-139.09,70.75-226.34,194.49-243.46,339.33-5.93,50.22-15.42,101-15.94,152.2-1.93,191.89-87.87,208.33-161.53,364.22-53.43,113.08-15.18,205.49,93.99,272.57,32.1,19.73,55.9,73.57,50.07,106.02-2.73,15.21-18.7,28-38.68,40.23-30.03,18.38-67.12,10.19-83.35-20.7-8.77-16.7-4.31-34.8-8.91-54.73-40.34,30.8-46.81,91.22-7.03,125.92,50.82,44.33,169.31-33.23,211.16-65.18,71.56-54.65,33.7-131.85,59.1-175.78,8.95,47.56,4.31,96.14-15.24,139.16-19.41,42.71-67,65.43-106.72,89.31-79.13,47.57-68.55,15.21-150.77,50.77-22.55,25.28-45.09,57.77-51.69,90.39-11.84,58.51,35.38,106.94,89.2,133.78,40.11,20,80.85,53.82,71.06,100.08-5.91,27.93-56.95,51.88-85.23,49.58-30.49-2.48-33.02-33.25-53.2-49.73-3.99,63.3,71.91,121.06,142.31,106.85,17.21-32.54,34.85-67.46,73.2-86.23,28.7-14.05-17.19-108.8-56.45-134.09-24.19-15.58-57.55-21.36-63.63-53.1-11.79-61.53,23.82-125.19,85.99-154.2,99.55-46.44,178.16-106.45,169.65-219.17-2.5-33.16,4.52-67.28-3.96-99.88-16.02-61.6-110.13-133.68-100.92-220.21,3.9-36.69,24.75-71.88,60.28-86.68.27,56.28,3.49,113.15,48.38,149.85,142.74,116.71,174.61,169.07,143.3,339.98-21.75,118.74-129.18,173.25-139.85,257.12-12.13,95.42,116.97,149.89,176.42,130.03,49.99-16.7,68.23-78.48,42.23-120.13-12.92,20.08-19.08,35.93-34.14,44.28-12.92,7.17-51.13,18.11-59.65.27-30.65-64.21.97-132.91,49.67-183.42,17.75-18.41,39.22-35.22,39.56-61.47.79-60.27,2.08-119.91-1.69-178.97-3.05-47.71-11.91-86.09-49.16-118.71-83.21-72.87-204.86-422.15-125.46-563.75Z"/>
      <path class="cls-1" d="M1629.77,1836.3c-79.93-44.09-122.86-64.06-120.06-159.8-31.94,18.13-63.24,45.29-74.11,78-22.68,68.28,66.96,116.71,26.15,173.45-21.29,29.61-94.53,53.05-99.48,112.01-3.67,43.78,29.79,93.22,82.48,101.68,38.24,6.14,72.5-11.78,94.69-29.48-34.71-1.85-57.66-.67-70.6-23.04-36.55-63.19,102.01-114.38,152.03-135.68,45.97-19.58,53.07-92.78,8.91-117.14Z"/>
      <path class="cls-1" d="M1505.91,771.1c41.24-40.75,44.55-106.79,1.96-150.18-12.49,16.71-6.1,51.1-25.58,55.01-71.63,14.38-131.85-23.72-169.7-74.5l-124.45-166.96-123.72-160.92c-46.96-61.08-76.68-47.29-122.93-68.24-20.63-9.34,73.69-10.71,132.44,59.13,58.71,69.8,111.28,140.59,164.22,214.39,34.5,48.09,65.67,94.96,106.88,138.2,28.85,30.28,63.12,48.43,111.43,48.35-42.88-155.04-93.48-305.8-188.47-440.93-73.05-103.93-285.8-172.81-413.71-204.87-36.8-9.23-81.77-2.61-118.57.66-63.96,5.68-117.78,30.7-155.48,75.5-14.57,17.31-39.93,33.29-40.78,58.08-.73,21.31,15.07,40.52,23.3,59.95,34.33-93.02,189.76-180.87,272.42-106.88-24.87,5.18-40-13.66-62.7-14.28-113.97-3.09-211.9,96.42-200.57,144.41,10.69,45.28,31.45,87.95,56.8,132.07,15.88-35.54,5.88-68.52,40.02-91.37,25.56-17.1,81.65-31.91,112.12-13.59,142.44,85.64,109.4,298.61,311.41,477.02,17.56,15.51,35.47,24.05,55.18,36.2,24.09,14.85,47.7,39.76,81,42.75,82.94,7.45,217.19,10.54,277.48-49.03Z"/>
      <path class="cls-1" d="M1390.3,1860.54c-.91,4.62,1.91,14.56,1.92,18.53l.22,87.82c21.13-17.78,46.39-27.63,60.47-47.81,23.89-34.26-22.8-80.81-33.35-126.53-17.41,24.29-.88,47.5-9.88,67.2-5.78,2.2-18.56-3.38-19.38.79Z"/>
      <path class="cls-1" d="M1649.77,1642.19c83.46-61.99,123.28-69.1,87.39-159.89-20.48-51.81-60.68-86.89-105.63-123.53,59.36-33.55,100.49-74.88,76.46-130.35-7.83-18.08-28.72-40.13-58.7-42.4-3.71,15.69,12.52,21.7,12.96,37.85.74,26.96-48.19,60.24-77.08,42.09-42.2-26.52-35.61-84.14-8.72-117.62,27.86-34.7,61.29-63.68,79.62-102.61,56.09-119.18-111.03-215.31-117.55-283.51-3.57-37.43,54.75-80.49-43.33-172.3-8.54,1.98,3.3,84.55-21.1,73.12-9.63-4.51-39.16-129.7-57.07-171.19-120.79-279.85-139.13-346.97-467.83-457.98-81.14-27.4-155.41-39.97-241.32-21.91-36.36,7.65-76.64,21.37-104.67,46.62-18.15,16.36-43.93,39.32-52.58,58.42-13.46,29.71-31.01,22.34-55.56,34.2-153.83,74.27-246.26,202.3-264,361.6-5.2,46.72-13.6,94.14-15.31,140.98-6.97,191.86-66.14,186-153.35,349.4-27.38,51.3-42.41,112.12-22.12,168.26,15.19,42.02,49.51,83.68,88.65,109.47,43.56,28.71,81.86,66.9,69.05,121.46-4.69,19.96-41.57,37.23-62.01,35.79-17.54-1.24-35.29-16.84-36.95-30.01l-8.41-66.47c-46.53,27.72-60.97,70.13-50.05,119.2,4.61,20.72,22.47,31.58,44.11,47.45-33.16,19.9-51.7,47.94-69.16,79.11-40.11,71.57,27.44,143.36,97.62,177.5,33.07,16.09,65.51,45.73,53.94,83.65-7.77,25.48-53.12,49.83-79.76,37.66-28.98-13.25-26.94-45.85-47.6-68.89-18.84,40.06-6.31,78.93,24.29,108.77,74.36,72.52,134.98,14.56,127.24,68.08-10.32,71.39,46.38,142.03,129.29,147.42,29.51,1.92,62.82-11.32,87.11-24.35,27.1-14.53,35.55-48.66,34.71-74.76-.81-24.82-18.58-56.21-51.42-63.75,6.28,28,31.3,63.04,4.97,81.3-24.28,16.84-62.28-3.52-67.22-25.43-18.33-81.41,85.31-49.14,155.57-87.53,58.89-32.17,60.32-96.41,87.07-145.33,17.56-25.2,65.01-40.28,68.42-77.7,3.15-34.53-1.17-76.4-38.42-97.76-3.42,25.1,5.22,42.43-5.74,54.43-11.57,12.69-33.4,27.41-51.1,22.2-26.2-7.71-19.93-31.62-18.79-48.39,8.56-126.09,104.38-138.47,103.43-207.34-1.38-99.19,15.55-213.25-52.85-284.73-58.85-61.5-66.25-59.67-12.91-.27,33.08,36.84,46.11,71,49.16,118.71,3.78,59.06,2.48,118.7,1.69,178.97-.34,26.25-21.82,43.06-39.56,61.47-48.7,50.51-80.32,119.21-49.67,183.42,8.52,17.84,46.73,6.9,59.65-.27,15.06-8.35,21.21-24.21,34.14-44.28,26,41.65,7.76,103.44-42.23,120.13-59.46,19.86-188.56-34.61-176.42-130.03,10.66-83.87,118.1-138.38,139.85-257.12,31.31-170.91-.56-223.27-143.3-339.98-44.89-36.7-48.11-93.58-48.38-149.85-35.52,14.81-56.37,50-60.28,86.68-9.21,86.53,84.9,158.62,100.92,220.21,8.48,32.6,1.46,66.72,3.96,99.88,8.51,112.72-70.09,172.73-169.65,219.17-62.17,29.01-97.79,92.67-85.99,154.2,6.08,31.74,39.44,37.52,63.63,53.1,39.27,25.29,85.15,120.04,56.45,134.09-38.35,18.78-56,53.7-73.2,86.23-70.4,14.21-146.3-43.55-142.31-106.85,20.18,16.47,22.71,47.25,53.2,49.73,28.28,2.3,79.31-21.65,85.23-49.58,9.79-46.26-30.95-80.07-71.06-100.08-53.82-26.85-101.04-75.27-89.2-133.78,6.6-32.62,29.14-65.11,51.69-90.39,82.23-35.56,71.64-3.2,150.77-50.77,39.72-23.88,87.31-46.6,106.72-89.31,19.55-43.01,24.19-91.6,15.24-139.16-25.4,43.93,12.46,121.13-59.1,175.78-41.85,31.96-160.34,109.51-211.16,65.18-39.78-34.7-33.31-95.12,7.03-125.92,4.6,19.93.14,38.03,8.91,54.73,16.23,30.89,53.32,39.08,83.35,20.7,19.99-12.23,35.95-25.03,38.68-40.23,5.83-32.46-17.96-86.3-50.07-106.02-109.17-67.08-147.42-159.48-93.99-272.57,73.65-155.89,159.6-172.32,161.53-364.22.51-51.2,10-101.98,15.94-152.2,17.12-144.84,104.37-268.58,243.46-339.33,11.72-5.96,33-18.52,42.44-3.11,13.1,21.38,17.12,47.8,26.74,70.04-70.61-6.94-179.46,97.05-205.04,135.24-54.58,81.5-67.19,178.46-70.45,271.86-.86,24.65-17.66,45.41-6.46,71.4,21.58-37.57,21.05-79.27,23.88-121.6,3.76-56.2,17.55-109.62,36.24-162.44,15.46-43.7,43.98-75.3,78.77-106.97,35.14-31.98,66.88-63.87,116.94-77.75,11.09-3.08,30.8-2.15,34.04,11.96,10.16,44.18,30.59,79.53,52.67,122.9-102.6,22.78-177.64,140.49-180.87,224.28,0,0,65.63-150.04,129.78-194.23,25.73-17.73,53.47-21.52,78.92-34.4,69.37-35.1,153-23.58,196.66,38.42,26.32,37.38,44.32,74.41,49.95,119.7,9.57,77.05,48.69,148.94,116.57,196.57,61.2,42.94,146.56,42.27,161.4,116.52,11.82,59.1.66,117.6-21.47,172.6-25.33,62.97-64.31,110.5-109.61,161.24-45.57,51.04-7.7,175.23-13.13,219.53-2.36,19.27-10.74,37.07-11.96,59.16-7.74,139.76,115.74,147.65,115.92,179.47.06,11.31-78.68,48.1-83.53,112.79-1.45,19.29,9.44,41.5,14.23,59.06,17.48,64.02,90.92,69.53,177.27,104.3,33,13.29,46.87,47.14,28.72,73.33-12.91,18.63-51.37,42.85-74.07,20.69-23.5-22.94-18.71-58.22-37.22-81.1-9.81,41.5-26.58,85.33-3.45,125.16,18.22,31.37,67.9,53.16,107.16,49.22,34.09-3.42,56.36-27.54,86.16-38.66,10.55,44.84,40.03,79.95,77.35,91.27,49.6,15.05,90.95-1.86,129.82-29.25,11.08-7.81,35.51-22.43,15.66-34.59-20.93,6.06-51.47,22.01-75.77,10.17-23.99-11.69-20.18-41.35-2.58-56.93,39.15-34.67,87.44-53.05,136.22-73.77,48.65-20.66,54.78-75.94,34.21-118.35,48.49-9.1,105.98-102.6,72.88-134.27-6.48,26.54-23.65,63.82-53.12,62.92-46.55-1.42-68.93-44.77-62.73-80.45,4.06-23.33,12.07-37.86,31.64-52.39ZM326.88,1083.62c-34.33-50.7-39.66-115.23,5.02-164.91,13.04,187.71,100.79,133.15,183.31,281.68,37.8,68.05,23.57,192.01-13.51,253.91-6.23-53.26,4.07-106.55-25.61-150.36l-149.21-220.32ZM204.3,1729.48c-34.78-9.34-59.07-37.71-56.91-74.58,2.99-51.07,35.72-94.83,86.97-116.7,70.81-30.22,167.5-97.56,170.02-176.88l4.11-129.75c77.33,75.12,105.74,189.08,49.99,281.8-28.62,24.79-68.04,45.86-100.96,65.02-59.11,34.41-163.37,63.02-153.21,151.09ZM238.63,1754.56c-32.02-34.36-24.31-82.02,18.35-106.4l172.11-98.39c-77.84,144.89-30.43,129.54-20.36,181.48,4.28,22.09-18.45,58.1-34.75,75.7-23.39,25.24-53.06,33.5-89.68,50.01-8.76-40.5-17.74-72.43-45.66-102.39ZM208.15,1929.78c40.69-81.82,184.77-56.28,213.4-182.89,16.19,7.55,23.59,21.29,39.9,26.51l91.21,29.22c-9.1,54.2-41.76,136.01-102.16,147.73l-94.86,18.41c-31.48,6.11-42.48,40.43-38.5,64.4,4.85,29.17,41.25,53.03,75.98,42.5,36.25-10.99,23.1-44.01,22.48-69.45,21.91,28.66,19.27,81.44-15.25,103.22-37.93,23.93-86.11,28.12-126.97,10.65-85.84-36.7-86.99-146.52-65.22-190.3ZM764.76,343.69c-42.78-9.19-79.52,2.05-120.61,20.78.16-28.95,4.55-57.28,27.79-76.68,21.9-18.28,75.42-29.04,102.18-12.7,44.73,27.31,106.37,115.75,111.26,170.14-35.16-45.38-62.09-88.96-120.62-101.54ZM984.21,689.1c-62.86-64.31-86.67-136.35-86.23-224.78,36.22,100.78,89.75,193.01,170.25,273.78-38.15-4.31-61.89-26.36-84.01-49ZM1147.43,777.37c-19.71-12.15-37.62-20.69-55.18-36.2-202.01-178.41-168.97-391.38-311.41-477.02-30.47-18.32-86.56-3.51-112.12,13.59-34.13,22.84-24.14,55.83-40.02,91.37-25.35-44.13-46.11-86.79-56.8-132.07-11.33-47.99,86.6-147.5,200.57-144.41,22.7.62,37.83,19.46,62.7,14.28-82.66-73.99-238.09,13.86-272.42,106.88-8.22-19.43-24.03-38.64-23.3-59.95.85-24.78,26.21-40.76,40.78-58.08,37.69-44.8,91.52-69.82,155.48-75.5,36.81-3.27,81.77-9.89,118.57-.66,127.91,32.06,340.66,100.95,413.71,204.87,94.99,135.14,145.59,285.89,188.47,440.93-48.31.08-82.58-18.07-111.43-48.35-41.21-43.25-72.38-90.11-106.88-138.2-52.94-73.8-105.51-144.59-164.22-214.39-58.75-69.84-153.06-68.48-132.44-59.13,46.25,20.95,75.97,7.17,122.93,68.24l123.72,160.92,124.45,166.96c37.85,50.78,98.07,88.87,169.7,74.5,19.48-3.91,13.09-38.31,25.58-55.01,42.6,43.38,39.29,109.43-1.96,150.18-60.29,59.57-194.54,56.48-277.48,49.03-33.31-2.99-56.91-27.9-81-42.75ZM1620.86,1953.44c-50.02,21.3-188.58,72.49-152.03,135.68,12.94,22.38,35.89,21.19,70.6,23.04-22.18,17.7-56.45,35.62-94.69,29.48-52.68-8.46-86.15-57.9-82.48-101.68,4.94-58.96,78.18-82.4,99.48-112.01,40.81-56.75-48.83-105.18-26.15-173.45,10.87-32.71,42.17-59.86,74.11-78-2.8,95.73,40.13,115.71,120.06,159.8,44.16,24.36,37.06,97.56-8.91,117.14ZM1419.56,1792.55c10.54,45.72,57.24,92.27,33.35,126.53-14.08,20.19-39.35,30.04-60.47,47.81l-.22-87.82c0-3.97-2.84-13.91-1.92-18.53.83-4.17,13.61,1.41,19.38-.79,9.01-19.71-7.53-42.91,9.88-67.2ZM1625.21,1759.87c12.13,13.32,27.56,21.08,42.03,24.92,19.66,5.22,32.72-5.23,52.44-15.17-5.24,20.77-27.69,60.56-56.99,58.5-90.56-6.34-178.57-117.3-133.51-157.06,39.11-34.51,71.25-64.19,61.9-121.54-3.94-24.17,11.9-58.7-19.38-80.79,2.92,60.15,28.94,146.95-42.39,182.84-73.63,37.06-125.65,97.83-132.37,179.83-64.91-96.51,44.43-156.43,52.18-181.21,13.26-42.39-19.83-87.17-58.31-110.61-89.44-54.47-171.4-115.68-148.54-220.81-39.24,44.76-10.98,103.84,24.08,136.52l90.92,84.77c34.7,32.35-79.4,132.49-87.59,159.95-12.69,42.57,15.91,81.78,50.87,112.01,21.12,18.27,54.93,27.91,60.09,60.14,7.41,46.22,1.86,96.8-17.75,141.06-13.16,29.7-44.04,48.53-75.5,63.4-43.5,20.56-104.91,3.46-127.89-37.32-13.92-24.69-3.95-55.7-4.06-79.93,21.7,14.73,11.36,35.4,25.37,49.26,17.35,17.16,56.77,15.84,74.6.32,18.26-15.88,33.46-31.23,33.05-51.7-.39-19.58-15.77-40.29-37.3-53.8-79.29-49.75-168.96-19.5-188.17-128.24-5.34-30.22-5.74-51.75,16.35-76.9,16.11-18.34,29.27-36.29,52.02-50.53,16.87-10.56,7.01-40.3-10.71-46.53-56.78-19.97-86.04-65.65-94.82-117.05-13.09-76.65,27.43-50.47,10.52-153.06-11.71-71.04-15.53-135.81,38.54-182.86,75.38-65.59,142.4-230.17,98.55-335.59,63.93,36.82,183.53,22.28,251.43,12.55,37.44-5.36,63.8-30.05,98.38-45.54,45.05,76.64,163.86,161.33,120.45,259.9-16.06,36.47-46.89,64.26-73.01,95.02-33.1,38.98-40.84,95.07-4.09,132.47,21.84,22.22,52.96,15.14,72.27,4.39,27.43-15.27,36.23-34.23,31.57-67.26,34.03,16.15,30.41,44.33,27.88,75.05-1.77,21.49-25.21,42.23-52.26,55.55-47.21,23.23-94.21,3.3-137.43-21.1-48.17-27.2-98.67-69.33-90.03-126.79,9.58-63.67,113.97-120,72.41-190.32-4.09-6.92-93.8-139.7-102.84-99.33,28.34,17.79,43.49,45.26,66.3,69.52,103.52,110.14-94.14,165.15-43.72,267.16,23.9,48.36,67.3,72.67,111.93,100.1,83.55,51.35,13.66-41.54,145.88,75.81,39.96,35.46,78.09,93.57,63.79,144.21-9.95,35.23-56.78,52.87-83.89,73.17-45.56,34.12-59.88,92.32-23.23,132.59ZM1380.13,1843.15c-34.84-29.34-119.84-77.28-100.37-137.69,11.84-36.74,90.75-83.07,99.08-157.85,35.52,17.33,79.1,65.16,55.75,102.92-23.5,38-69.58,65.74-72.2,116.31-1.25,24.08,13.79,44.98,17.74,76.31Z"/>
    </g>
  </g>
</svg>