<?xml version="1.0" encoding="UTF-8"?>
<svg id="Hair" xmlns="http://www.w3.org/2000/svg" xmlns:xlink="http://www.w3.org/1999/xlink" viewBox="0 0 1080 1305.21">
  <defs>
    <style>
      .cls-1 {
        fill: #603913;
      }

      .cls-2 {
        fill: #764617;
      }

      .cls-3 {
        fill: #59320c;
      }

      .cls-4 {
        clip-path: url(#clippath);
      }
    </style>
    <clipPath id="clippath">
      <path class="cls-1" d="M598.52,478.59s-66-52.56-138.73-23.78c-72.73,28.78-53.96,92.6-89,115.13,0,0,20.1-26.61,22.6-67.73,2.5-41.13,6.63-44.87,6.63-44.87,0,0-106.95,46.74-105.7,124.63,0,0-10.87-53.85,14.19-83.01,0,0-56.11,17.98-60.19,87.28-4.09,69.3-14.3,109.1-14.3,109.1,0,0-2.31-40.12-5.02-76.07,0,0-24.54,21.55-15.9,105.35,0,0-48.47-85.32-18.24-168.83,0,0-27.36,13.63-35.59,49.84,0,0-3.29-148.39,74.05-188.98,0,0-34.74-6.19-59,17.3,0,0,9.58-188.65,168.59-183.24,0,0-42.45-26.24-74.87-17.75,0,0,149.5-127.36,271.97-16.21,0,0,1.28-27.75-16.47-45.52,0,0,51.64,6.08,54.6,44.44,0,0,28.77-42.91,106.73-29.02,0,0-19.3,3.86-21.61,20.07,0,0,121.19-27.02,204.55,82.59,0,0-24.7-19.3-59.44-13.89,0,0,56.13,14.56,84.88,94.48,0,0-10.78-15.14-47.8-14.3,0,0,109.57,66.57,53.32,179.14,0,0-4.53-42.77-17.99-51.65,0,0,35.08,106.46-18.75,238.6,0,0,5.29-219.63-89.77-238.6,0,0,18.51,17.2,15.14,70.2,0,0-29.48-127.52-188.87-74.69Z"/>
    </clipPath>
  </defs>
  <g>
    <path class="cls-1" d="M598.52,478.59s-66-52.56-138.73-23.78c-72.73,28.78-53.96,92.6-89,115.13,0,0,20.1-26.61,22.6-67.73,2.5-41.13,6.63-44.87,6.63-44.87,0,0-106.95,46.74-105.7,124.63,0,0-10.87-53.85,14.19-83.01,0,0-56.11,17.98-60.19,87.28-4.09,69.3-14.3,109.1-14.3,109.1,0,0-2.31-40.12-5.02-76.07,0,0-24.54,21.55-15.9,105.35,0,0-48.47-85.32-18.24-168.83,0,0-27.36,13.63-35.59,49.84,0,0-3.29-148.39,74.05-188.98,0,0-34.74-6.19-59,17.3,0,0,9.58-188.65,168.59-183.24,0,0-42.45-26.24-74.87-17.75,0,0,149.5-127.36,271.97-16.21,0,0,1.28-27.75-16.47-45.52,0,0,51.64,6.08,54.6,44.44,0,0,28.77-42.91,106.73-29.02,0,0-19.3,3.86-21.61,20.07,0,0,121.19-27.02,204.55,82.59,0,0-24.7-19.3-59.44-13.89,0,0,56.13,14.56,84.88,94.48,0,0-10.78-15.14-47.8-14.3,0,0,109.57,66.57,53.32,179.14,0,0-4.53-42.77-17.99-51.65,0,0,35.08,106.46-18.75,238.6,0,0,5.29-219.63-89.77-238.6,0,0,18.51,17.2,15.14,70.2,0,0-29.48-127.52-188.87-74.69Z"/>
    <g class="cls-4">
      <path class="cls-2" d="M342.91,250.72s-87.66-25.36-145.8,59.45c-58.14,84.81-22.78,123.79-22.78,123.79,0,0,20.19-77.92,56.96-88.05,0,0-8.04,17.6-9.11,38.41,0,0,81.42-118.11,184.62-75.54,0,0-34.83-45.79-105.13-21.93,0,0,7.67-32.27,41.24-36.13"/>
      <path class="cls-2" d="M268.03,232.97s54.99-28.42,100.11-12.84c0,0-13.31-13.31-28.89-13.31,0,0,61.98-35.34,140.74,10.6,0,0,7.06-41.13-49.21-46.11s-162.87,28.93-162.75,61.66"/>
      <path class="cls-2" d="M159.26,605.64s-16.67-122.46,45.19-165.23c0,0-41.52,112.45-32.87,146.19l-12.32,19.05"/>
      <path class="cls-2" d="M188.97,583.64s-28.41,86.72,16.71,143.58l12.24,9.71s-27.03-76.99-17.66-99.78c9.37-22.79,15.44-81.54,15.44-81.54,0,0-10.07,39.76-16.64,51.69-6.57,11.93-6.61-34.6-6.61-34.6l-3.5,10.92Z"/>
      <path class="cls-2" d="M867.79,289.31s-84.96-106.28-188.7-49.04c0,0-15.33-42.93,62.35-43.95,77.68-1.02,126.35,93,126.35,93Z"/>
      <path class="cls-2" d="M893.24,369.9s-30.53-57.08-126.24-51.51c0,0,15.52-45.92,73.18-29.57,57.65,16.35,53.07,81.08,53.07,81.08Z"/>
      <path class="cls-2" d="M898.76,534.74s-4.71-113.91-51.79-128.71c0,0-5.37-66.61,26.32-41.06,31.69,25.55,89.44,140.54,63.88,160.98-25.55,20.44-38.42,8.79-38.42,8.79Z"/>
      <path class="cls-2" d="M862.02,721.69s34.26-165.57-33-238.6c0,0,53,15.7,53,85.32s13.61,78.52,13.61,78.52l-33.61,74.76Z"/>
      <path class="cls-2" d="M684.86,186.65s-84.9,6.88-79.92,53.13c0,0-52.65-30.95-11.03-57.98,41.62-27.04,90.95,4.86,90.95,4.86Z"/>
      <path class="cls-3" d="M867.79,289.31s-87.72-32.37-158.33-3.85c0,0,66.8-82.68,158.33,3.85Z"/>
      <path class="cls-3" d="M268.03,232.97s71.08,2.93,109.7,41.55c0,0-12.4-35.08-34.84-39.25,0,0,27.91-8.54,69.14,9.47,0,0-31.97-24.64-82.56-22.38s-61.44,10.61-61.44,10.61Z"/>
      <path class="cls-3" d="M530.88,184.21s40.26,17.8,23.23,69.66l-14.11-37.11-9.12-32.54Z"/>
      <path class="cls-3" d="M174.32,433.96s9.5-34,42.87-34.49c33.37-.49,51.53-15.2,51.53-15.2l-35.4,32.39-59,17.3Z"/>
      <path class="cls-3" d="M180.87,567.79c0-2.45,2.94-49.56,19.14-63.79,0,0,9.96,52.99,3.02,68.21-6.94,15.22-8.18-16.4-8.18-16.4l-13.97,11.99Z"/>
      <path class="cls-3" d="M234.01,695.35s2.3-84.2-2.39-103.51c-4.69-19.32,3.67-38.03,3.67-38.03,0,0-15.28,22.08-18.87,44.03-3.58,21.95-16.41,81.97-2.21,104.42,14.2,22.45,19.8-6.9,19.8-6.9Z"/>
      <path class="cls-3" d="M893.24,369.9s-43.23-52.46-137.7-37.74c0,0,100.57,33.76,137.7,37.74Z"/>
    </g>
  </g>
  <g>
    <path class="cls-3" d="M574.72,486.52c-17.69-13.57-48.52-29.17-70.96-22.92-13.93,3.67-23.61,17.05-29.24,29.94-10.76,26.28-24.46,53.9-49.99,69.04-11.17,6.97-26.35,10.19-37.65,13.33-11.09,2.98-19.09,8.86-24.73,18.37-10.76,16.73-13.44,37.53-10.45,57.15,1.23,8.1,3.26,16.19,6.41,23.91-8.63-14.59-13.88-31.2-14.93-48.3-.92-17.7,3.09-36.81,13.92-51.34,5.73-7.7,14.6-13.54,23.17-17.22,7.67-3.42,15.33-5.94,22.35-9.71,6.44-3.42,11.75-7.61,16.29-12.81,12-13.87,18.25-32.51,22.93-50.3.86-3.19,2-7.06,3.08-10.2,7.27-21.49,21.84-41.13,43.04-50.75,35.92-16.31,77.54-4.91,110.98,11.54,2.36,1.24,4.74,2.42,7.06,3.85,29.96,21.97.34,65.97-31.3,46.44h0Z"/>
    <path class="cls-3" d="M573.8,439.94c48.33-29.88,119.08-44.79,154.11,12.14,3.97,6.48,6.97,13.13,9.51,20.12.78,1.89,1.55,4.74,2.23,6.69,5.39,17.59,12.38,35.96,24.93,49.34,7.29,7.91,17.02,12.9,27.43,16.52,8.21,2.97,17.1,5.8,24.83,10.88,19.66,12.79,27.26,38.29,27.07,60.58-.36,17.13-4.94,33.94-12.98,48.86,2.85-7.84,4.54-16.01,5.45-24.15,2.62-23.13-2.84-48.32-19.69-64.93-11.89-10.77-27.66-9.74-43.37-15.26-32.64-10.13-52.04-41.44-65.1-70.82-1.01-2.11-2.25-4.49-3.39-6.54-14.91-26.38-35.51-30.28-62.78-19.39-12.31,5-24.59,12.38-34.98,20.94-12.09,9.35-30.19,6.73-39.3-5.83-9.15-12.47-6.46-29.99,6.01-39.14h0Z"/>
    <path class="cls-3" d="M572.19,476.56c-17.98-25.51-45.32-53.74-75.28-63.18-30.49-9.71-55.08,7.96-73.13,31.7-18.34,23.15-39.17,44.91-64.25,60.97-10.26,6.84-22.85,12.37-32.75,18.64-9.8,6.09-11.92,15.83-12.86,27-.61,7.38-.45,15.37-.16,22.96,2.3,65.57-23.22,138.18-50.43,197.12,4.83-11.66,9.14-23.52,13.18-35.46,15.58-47.37,28.1-96.97,26.93-147.02-.3-12.84-2.79-25.11-2.73-38.09-.06-10.74,1.46-22.47,8.23-31.41,6.33-8.54,16.47-14.04,24.51-19.33,5.22-3.35,10.18-6.74,14.94-10.38,22.68-17.25,40.88-40.54,56.65-64.62,4.92-7.22,10.26-13.93,16.56-20.3,61.08-61.37,139.56-11.21,185.05,42.54,1.09,1.27,2.26,2.83,3.3,4.12,7.74,9.83,6.04,24.08-3.79,31.81-10.85,8.72-27.48,5.22-33.96-7.07h0Z"/>
  </g>
  <g>
    <path class="cls-2" d="M574.72,479.95c-17.69-13.56-48.52-29.17-70.96-22.92-13.93,3.67-23.61,17.05-29.24,29.94-10.76,26.28-24.46,53.9-49.99,69.04-11.17,6.97-26.35,10.19-37.65,13.33-11.09,2.98-19.09,8.86-24.73,18.37-10.76,16.73-13.44,37.53-10.45,57.15,1.23,8.1,3.26,16.19,6.41,23.91-8.63-14.58-13.88-31.2-14.93-48.3-.92-17.7,3.09-36.81,13.92-51.34,5.73-7.7,14.6-13.54,23.17-17.22,7.67-3.42,15.33-5.94,22.35-9.71,6.44-3.42,11.75-7.61,16.29-12.81,12-13.87,18.25-32.51,22.93-50.3.86-3.19,2-7.06,3.08-10.2,7.27-21.49,21.84-41.13,43.04-50.75,35.92-16.31,77.54-4.91,110.98,11.54,2.36,1.24,4.74,2.42,7.06,3.85,29.96,21.97.34,65.97-31.3,46.44h0Z"/>
    <path class="cls-2" d="M573.8,433.37c48.33-29.88,119.08-44.79,154.11,12.14,3.97,6.48,6.97,13.13,9.51,20.12.78,1.89,1.55,4.74,2.23,6.69,5.39,17.59,12.38,35.96,24.93,49.34,7.29,7.91,17.02,12.9,27.43,16.52,8.21,2.97,17.1,5.8,24.83,10.88,19.66,12.79,27.26,38.29,27.07,60.58-.36,17.13-4.94,33.94-12.98,48.86,2.85-7.84,4.54-16.01,5.45-24.15,2.62-23.13-2.84-48.32-19.69-64.93-11.89-10.77-27.66-9.74-43.37-15.26-32.64-10.13-52.04-41.44-65.1-70.82-1.01-2.11-2.25-4.49-3.39-6.54-14.91-26.38-35.51-30.28-62.78-19.39-12.31,5-24.59,12.38-34.98,20.94-12.09,9.35-30.19,6.73-39.3-5.83-9.15-12.47-6.46-29.99,6.01-39.14h0Z"/>
    <path class="cls-2" d="M572.19,470c-17.98-25.51-45.32-53.74-75.28-63.18-30.49-9.71-55.08,7.96-73.13,31.7-18.34,23.15-39.17,44.91-64.25,60.97-10.26,6.84-22.85,12.37-32.75,18.64-9.8,6.09-11.92,15.83-12.86,27-.61,7.38-.45,15.37-.16,22.96,2.3,65.57-23.22,138.18-50.43,197.12,4.83-11.66,9.14-23.52,13.18-35.46,15.58-47.37,28.1-96.97,26.93-147.02-.3-12.84-2.79-25.11-2.73-38.09-.06-10.74,1.46-22.47,8.23-31.41,6.33-8.54,16.47-14.04,24.51-19.33,5.22-3.35,10.18-6.74,14.94-10.38,22.68-17.25,40.88-40.54,56.65-64.62,4.92-7.22,10.26-13.93,16.56-20.3,61.08-61.37,139.56-11.21,185.05,42.54,1.09,1.27,2.26,2.83,3.3,4.12,7.74,9.83,6.04,24.08-3.79,31.81-10.85,8.72-27.48,5.22-33.96-7.07h0Z"/>
  </g>
  <path class="cls-2" d="M586.32,295.95c-25.18-20.46-56.27-33.4-87.9-39.32-31.61-5.91-64.02-4.53-95.65,1.24v-14.25c5.21,1.33,10.12,2.95,15.15,4.74,33.01,12.35,68.49,34.14,78.45,70.03-18.21-34.59-60.31-52.32-96.66-60.52,0,0-33.08-6.07-33.08-6.07l33.07-8.18c49.46-12.53,105.16-8.96,149.24,18.35,14.34,8.96,27.8,20.01,37.39,33.98h0Z"/>
  <path class="cls-2" d="M621.32,343.21c16.56-14.88,38.33-24.2,60.71-25.44,23.29-1.46,46.57,8.27,63.38,24.17,16.39,14.76,26.93,35.45,36.92,54.5,0,0-17.94-9.56-17.94-9.56-5.79-2.65-12.02-4.37-18.28-5.64-19.89-4.08-40.61-1.58-59.5,6.08,22.58-17.68,54.5-21.73,81.47-12.51.48.17.88.32,1.51.57l-8.07,8.89c-34.1-56.3-81.11-69.66-140.21-41.07h0Z"/>
  <path class="cls-2" d="M434.02,345.14c-27.92.3-55.61,7.83-80.33,20.24-24.53,12.29-45.96,29.55-65.09,49.29l-10.47-14.17c2.25-.9,4.47-1.67,6.73-2.42,30.94-9.9,71.78-13.75,98,8.89-30.5-12.87-65.62-3.66-94.71,8.71,0,0-1.37.63-1.37.63-.43.2-.94.45-1.23.6l-38.52,20.49,28.06-34.66c27.94-34.94,69.69-61.46,115.15-63.88,14.81-.69,30.01.56,43.78,6.27h0Z"/>
  <path class="cls-2" d="M234.71,445.19c-15.85,31.85-12.39,69.43,1.35,101.33,0,0-7.57,1.68-7.57,1.68.21-5.75,1-11.29,2.18-16.88,3.51-16.05,11.18-33.34,26.38-41.26-16.22,13.81-20.5,37.8-20.64,58.09,0,0,.57,18.09.57,18.09l-8.13-16.41c-12.37-24.66-17-54.47-7.73-80.93,3.07-8.58,7.34-17.01,13.58-23.7h0Z"/>
  <path class="cls-2" d="M614.01,291.53c22.21-22.35,54.23-36.94,85.71-39.43,10.87-.79,21.97-.06,32.61,2.62l17.01,4.29-15.57,6.92c-15.59,7.18-31.34,17.35-41.2,31.69-1.43,2.14-2.68,4.41-3.84,6.8.56-5.34,2.37-10.55,4.85-15.34,3.84-7.24,9.15-13.67,15.13-19.25,5.48-5.16,11.57-9.67,18.02-13.55.62-.37,1.17-.69,1.92-1.08l1.44,11.21c-40.31-4.95-79.36,9.59-116.07,25.13h0Z"/>
  <path class="cls-2" d="M566.73,368.59c-4.68-7.3-11.26-13.04-19.04-16.64-4.89-2.4-15.64-5.08-20.93-6.73,0,0,13.32-2.9,13.32-2.9,11.9-2.43,28.63-3.17,38.05,5.73-6.05-2.06-12.14-2.04-18.35-1.61-6.03.47-12.19,1.39-18.07,2.69,0,0,.14-6.77.14-6.77,1.54.46,3.06.97,4.56,1.58,10.18,4.14,19.25,13.38,20.33,24.66h0Z"/>
  <path class="cls-2" d="M790.08,433.22c11-2.73,22.72,2.76,30.01,10.99,1.07,1.21,2.06,2.48,3,3.78l-6.34,2.38c-.73-5.98-1.9-12.1-3.46-17.94-1.66-6-3.66-11.76-7.61-16.77,11.52,5.93,16.38,21.96,18.03,33.99,0,0,1.69,13.53,1.69,13.53-3.36-4.51-9.38-13.66-13.3-17.51-5.98-6.14-13.57-10.45-22.02-12.44h0Z"/>
  <path class="cls-3" d="M639.13,393.89s-49.61,1.26-47.05,31.98c2.56,30.72,2.87-3.7,38.72,0,0,0-29.76,1.6-30.08,29.12-.32,27.52,12.16,19.84,12.16,19.84l-11.2,12.16-16.32,1.92-19.2-12.16s26.44-5.13,20.16-15.99c-15.81-27.36-66.66-48.58-66.66-48.58,0,0,59.73,17.28,70.71,44.54,0,0,0-22.14-12.24-32.46l12.24,8.84s-2.77-44.05-29.33-48.85c0,0,23.68,1.6,29.33,21.12,0,0,33.4-16.6,48.76-11.5Z"/>
  <path class="cls-3" d="M355.93,416.9s-47.8,5.03-73.63,58.78c0,0,26.61-42.72,82.69-37.46,0,0,1.37-23.68-9.05-21.32Z"/>
  <path class="cls-3" d="M420.83,364.05c-8.37,3.14-20.22,6.92-28.73,9.82-9.25,3.18-18.44,6.53-27.15,10.81,0,0-2.07-9-2.07-9,10.61,1.03,32.15,5.96,34.49,18.21-7.75-10.25-40.74-8.34-53.25-8.92,7.1-3.63,19.73-11.07,26.95-13.96,15.74-6.14,32.94-8.99,49.77-6.95h0Z"/>
  <path class="cls-3" d="M508,345.12c-8.47-2.88-20.02-7.47-28.44-10.64-9.17-3.41-18.4-6.65-27.85-8.87,0,0,4.11-8.27,4.11-8.27,7.54,7.53,21.07,25,15.11,35.96.51-12.84-26.2-32.29-35.5-40.68,0,0,18.05,3.56,18.05,3.56,5.18.86,10.44,2.22,15.39,3.99,14.62,5.44,28.34,13.6,39.13,24.95h0Z"/>
  <path class="cls-3" d="M559.51,301.02c-8.68-2.16-20.58-5.76-29.24-8.2-9.42-2.62-18.89-5.07-28.5-6.49,0,0,3.4-8.59,3.4-8.59,8.15,6.87,23.1,23.13,18.09,34.55-.57-12.83-28.83-29.96-38.81-37.54,0,0,18.28,2.03,18.28,2.03,5.23.42,10.59,1.33,15.67,2.68,15.03,4.19,29.38,11.16,41.1,21.55h0Z"/>
  <path class="cls-3" d="M615.36,307.11c11.72-10.39,26.07-17.37,41.1-21.55,5.08-1.35,10.43-2.26,15.67-2.68,0,0,18.28-2.03,18.28-2.03-9.94,7.55-38.25,24.72-38.81,37.54-5.01-11.41,9.93-27.68,18.09-34.55,0,0,3.4,8.59,3.4,8.59-9.61,1.42-19.07,3.86-28.5,6.49-8.68,2.45-20.51,6.03-29.24,8.2h0Z"/>
  <path class="cls-3" d="M628.12,359.04c14.67-8.49,31.61-12.62,48.5-13.16,7.71-.18,22.41,1.72,30.27,2.26-11.24,5.43-42.38,16.66-45.47,29.12-2.65-12.18,15.2-25.17,24.57-30.29,0,0,1.63,9.09,1.63,9.09-9.7-.51-19.46.01-29.22.72-9,.69-21.3,1.85-30.28,2.26h0Z"/>
  <path class="cls-3" d="M730.45,392.21c13.35,8.19,24.19,19.9,32.57,33.07,2.77,4.47,5.19,9.33,7.12,14.22,0,0,7.25,16.91,7.25,16.91-10.14-7.33-34.72-29.4-47.2-26.23,9.52-8.11,29.32,1.45,38.32,7.27,0,0-7.23,5.74-7.23,5.74-4.15-8.78-9.24-17.13-14.48-25.38-4.87-7.6-11.73-17.87-16.34-25.59h0Z"/>
  <path class="cls-3" d="M416.65,323.27s-90.99-42.64-153.33,48.26c0,0,61.24-60.28,153.33-48.26Z"/>
  <path class="cls-3" d="M865.95,446.21s-18.4-28.17-36.19-45.96c-17.79-17.79-26.99-28.72-26.99-28.72,0,0,23.92.44,33.74,12.74,0,0-5.97-24.74-50.91-30.98-44.94-6.23,80.36,92.92,80.36,92.92Z"/>
  <path class="cls-3" d="M599.48,373.11s7.23-15.89,28.65-4.52c0,0-7.39-12.28-28.65-8.51,0,0-3.43-37.29,24.34-36.81,0,0-15.7-4.67-24.48,3.56,0,0-6.38-59.32,26.54-64.8,0,0-18.41-1.37-27.03,17.83-8.63,19.2-8.48,38.54-8.48,38.54,0,0-8.42-9.39-30.86-7.34,0,0,25.18-.69,30.86,23.66,0,0-13.22-18.86-59.48-7.89,0,0,50.08-6.17,57.62,18.86,7.54,25.03-15.43,12-15.43,12,0,0,20.29,16.51,26.4,15.43Z"/>
</svg>