<?xml version="1.0" encoding="UTF-8"?>
<svg id="Hair" xmlns="http://www.w3.org/2000/svg" xmlns:xlink="http://www.w3.org/1999/xlink" viewBox="0 0 1080 1305.21">
  <defs>
    <style>
      .cls-1 {
        fill: none;
      }

      .cls-2 {
        fill: #9b8579;
      }

      .cls-3 {
        clip-path: url(#clippath);
      }
    </style>
    <clipPath id="clippath">
      <path class="cls-1" d="M540,1305.21c78.61,0,118.91-25.5,174.59-98.57,46.87-61.52,113.34-130,131.6-245.15,18.25-115.14,41.67-203.19,21.76-317.67-19.91-114.48,42.6-418.61-327.95-418.61-370.55,0-308.04,304.14-327.95,418.61-19.91,114.48,3.51,202.53,21.76,317.67,18.25,115.14,84.72,183.63,131.6,245.15,55.68,73.07,95.98,98.57,174.59,98.57Z"/>
    </clipPath>
  </defs>
  <g class="cls-3">
    <path class="cls-2" d="M540,183.09c448.41,0,327.95,460.73,327.95,460.73,0,0-40.04-14.41-40.04-80.19,0-112.13-137.75-107.75-287.9-107.75-150.15,0-287.9-4.38-287.9,107.75,0,65.78-40.04,80.19-40.04,80.19,0,0-120.47-460.73,327.95-460.73h0Z"/>
  </g>
</svg>