<?xml version="1.0" encoding="UTF-8"?>
<svg id="Layer_2" data-name="Layer 2" xmlns="http://www.w3.org/2000/svg" viewBox="0 0 1717.19 1566.24">
  <g id="Layer_1-2" data-name="Layer 1">
    <path d="M844.42,664.59c-29.85.59-55.11,8.96-83.75-.82-5.6-1.91-16.24,12.58-21.86,8.98-21.45-13.75-6.43-30.69-14.83-54.54l-23.61,47.4-23.32-135.15c-18.95,10.24,17.87,95.06-4.82,140.05l-46.71-14.22-13.63,12.1c-3.53,3.13-9.84-4.26-14.95-10.23-10.46,4.54-15.11,15.27-26.63,18.64-44.49-31.62,23.2-169.88,2.11-228.94-77.67,89.27-71.87,272.21-1.97,359.32-24.74,4.67-24.88-17.69-35.34-28.35-32.18-32.84-42.61-70.29-60.12-113.64-18.84,32.74-7.39,65.18,2.86,95.16l42.87,125.37c26.28,76.85,48.32,159.69,29.73,240.97-12.74,55.69-44.43,106.25-70.3,155.95-27.27,52.37-86.67,76.51-136.69,102.87-23.78,52.12-4.14,118.36,7.52,180.65-57.66-38.84-63.51-103.25-64.54-164.99-22.53,36.21-10.38,74.1-5.92,121.96-22.58-21.12-40.06-49.92-46.96-82.38-3.83-18.02,13.12-32.84,6.1-53.74-20.52,9.04-31.95,24.69-52.32,22.86-37.89-19.92,40.05-30.04,55.28-76.78-19.03-2.34-30.7,9.71-43.33-1.24,8.66-18.13,26.01-25.61,38.42-40.41,6.04-7.21-1.17-26.13-8.86-24.25-15.56,3.8-23.59,25.69-45.11,21.35,7.77-17.66,37.01-25.23,34.19-44.01-3.71-24.71-22.57-46.93-24.93-72.42-8.97-96.71,15.85-156.55-3.71-253.23-44.74,31.2-31.44,163.41-24.21,211.39-44.25-64.79-57.6-123.94-24.64-198.67-18.04,1.5-19.3,16.44-28.97,18.42-12.49,2.57-21.01-3.87-27.09-13.09-35.4,55.81-14.16,111.1,16.24,168.39-45.4-11.02-54.78-52.98-63.72-86.75-11.86-44.79,7.23-87.21,18.85-131.57-20.07-2.71-38.01,3.88-55.79-7.42,89.5-53.6,159.2-75.77,142.51-192.1-32.81,34.85-46.02,72.92-88.5,93.39,17.24-54.89,88.65-71.43,88.55-164-7.12,7.27-125.83,149.06-120.13,101.04.95-8.03,85.78-69.86,92.56-178.38,4.97-79.59,6.55-159.18,34.01-234.69,39.43-108.42,116.88-197.98,223.58-248.81,52.11-24.82,95.71-26.41,148.48-9.14,49.4,16.16,99.05,33.01,124.91,81.28,114.57-64.61,317.73-59.37,441.58-17.74,45.03-123.83,229.92-137.64,323.42-70.68,170.78,122.31,171.43,265.37,188.74,428.23l9.26,87.17c13.27,124.83,53.55,127,64.48,174.87.59,2.6-6.55,4.67-9.78,3.5-2.58-.93-6.29-3.68-9.07-8.07l-73.33-115.34c-30.15,73.21,81.84,160.07,59.67,178.24-19.29,15.8-44.91-65.41-68.72-81.77-6.72,58.82,32.73,111.39,86.61,143.2,19.73,11.65,42.37,18.21,58.37,35.25-15.83,25.99-40.24,15.57-67.72,7.76,48.75,65.27,14.31,199.24-18.06,198.2-21.83-.7,16.86-78.07-4.65-140.53-14.24-41.34-36.28-79.28-69.11-111.07,11.71,69.61,86.12,260.17-1.87,299.87,16.29-82.99,16.33-159.59-27.58-230.04,15.03,113.32,8.99,215.22-25.7,319.27,10.79,37.9,59.73,49.9,42.35,63.89-4.17,3.36-11.48-.05-15.47-4.95l-36.56-44.95c-7.44,9.05-24.04,24.39-18.71,38.46,8.57,22.62,34.97,32.12,50.11,50.98-15.86,18.64-26.85-9.81-44.9-4.1-18.14,5.74,91.41,89.88,58.11,101.46-16.93,5.89-60.51-58.19-79.86-57.06,16.09,47.31,31.32,88.47,3.46,128.37-13.79-5.94-2.17-18.03-10.27-27.85-13.27,38.26-38.29,76.63-86.77,93.45,110.13-167.67-53.54-242.61-110.88-320.46-56.05-76.1-63.23-172.99-67.52-263.05-6.75-141.77,78.54-173.73,86.16-300.19.68-11.24-3.6-22.46-13.4-25.29-49.57-14.36-67.06,162.65-93,148.14,27.9-141.87,54.34-154.03,10.05-301.72-1.64,51.97,14.69,107.69-3.5,159.96-13.62-4.75-19.82-2.11-38.5,8.91-1.84-55-8.44-104.75-19.37-156.39l-8.17,149.24c-77.18-22.02-68.6,8.77-111.85-5.82-10.71-3.61-8.44-154.91-18.84-179.18-18.83,16.03-4.17,33.78-2.85,50.48,3.19,40.28.99,78.98,1.06,119.36.02,9.58-10.29,13.98-16.68,14.44-38.26,2.72,4.53-131.15-38.64-164.77l-8.4,165.95c-20.53,11.29-42.8-1.7-65.27-1.26Z"/>
  </g>
</svg>