<?xml version="1.0" encoding="UTF-8"?>
<svg id="Hair" xmlns="http://www.w3.org/2000/svg" viewBox="0 0 1080 1305.21">
  <defs>
    <style>
      .cls-1 {
        fill: #603913;
      }

      .cls-2 {
        fill: #764617;
      }

      .cls-3 {
        fill: #59320c;
      }
    </style>
  </defs>
  <path class="cls-1" d="M622.43,471.01c-15.35,6.53-32.79,5.29-47.37-2.8-16.83-9.34-44.45-17.29-85.36-8.23-47.07,10.42-70.7,44.44-81.87,68.79-4.82,10.51-20.02,9.45-23.49-1.57-7.32-23.29-3.34-43.87-1.42-51.27.31-1.19-.93-2.18-2.03-1.62-9.29,4.74-37.76,23.86-34.91,79.17.6,11.56-13.72,17.39-21.36,8.7-11.24-12.78-21.4-31.08-18.82-54.1.12-1.06-.95-1.86-1.94-1.46-9.43,3.79-45.66,22.2-49.21,82.42-.92,15.53-2.58,29.78-4.61,42.54-2.17,13.66-22.11,12.83-23.13-.97-.03-.36-.05-.72-.08-1.09-.1-1.31-1.77-1.8-2.55-.75-4.63,6.2-14.71,24.25-15.41,64.62-.16,9.04-12.58,11.41-16.03,3.06-12.78-30.95-25.42-78.49-11.06-126.28.47-1.57-1.64-2.58-2.54-1.21-.06.1-.13.19-.19.29-3.94,6.09-13.38,3.54-13.64-3.71-1.45-40.77,1.55-110.94,36.48-135.43,1.33-.94.32-3-1.24-2.52-.1.03-.2.06-.3.09-11.91,3.81-23.41-6.85-20.53-19.02,12.08-50.99,43.15-136.32,117.14-149.32,1.74-.31,1.51-2.86-.25-2.83-.25,0-.49.01-.74.02-9.9.24-14.63-12.1-7.03-18.45,39.69-33.14,125.37-83.22,233.07-20.73,1.16.67,2.52-.46,2.06-1.71-.03-.07-.05-.14-.08-.22-4.09-10.83,6.6-21.34,17.45-17.3,13.16,4.9,26.38,12.22,33.4,22.98.47.72,1.47.84,2.11.28,6.01-5.3,33.2-27.33,67.9-24.67,7.39.57,10.8,9.34,6,14.99-.06.07-.12.14-.17.21-.81,1,.09,2.48,1.36,2.27,17.76-2.99,115.99-15.54,190.98,56.77,7.4,7.13,2.22,19.67-8.06,19.48-.27,0-.55,0-.83-.01-1.35-.02-1.98,1.68-.93,2.52,7.62,6.15,26.88,23.1,40.1,46.87,5.73,10.3-3.32,22.41-14.89,20.19-.17-.03-.34-.06-.52-.09-1.31-.2-2.14,1.38-1.25,2.37,12.95,14.31,76.57,90.35,53.02,179.6-2.12,8.04-13.69,7.57-15.21-.61-.04-.22-.08-.44-.13-.67-.34-1.8-3.04-1.35-2.8.47,2.71,20.68,4.09,59.88-9.54,117.11-1.95,8.2-13.9,7.2-14.49-1.21-4.65-66.64-28.07-178.43-131.64-195.5-1.08-.18-1.95.9-1.55,1.92,1.13,2.9,2.99,8.42,4.26,15.89,2.56,15.1-16.56,23.59-26.14,11.64-16.88-21.04-45.33-38.9-90.01-19.9Z"/>
  <g>
    <g>
      <path class="cls-3" d="M557.94,375.56c-7.87-8.88-13.84-19.34-19.89-29.29-3.3-5.5-6.63-10.75-11.01-14.87-3.81-1.9-13.87,7.46-17.38,9.89-.85.65-1.7,1.31-2.65,1.94-.12-2.21.03-4.38.33-6.57,2.61-19.59,20.27-30.89,36.37-16.05,13.46,13.17,18.54,37.05,14.23,54.95h0Z"/>
      <path class="cls-3" d="M462.79,319.5c12.74,7.47,24.48,19.14,35.86,27.46,2.56,1.82,5.04,3.34,7.13,4.26,2.04.84,3.46,1.41,5.64,1.29,2.66-.23,5.39-1.8,7.82-3.52,2.36-1.7,4.56-3.64,6.79-5.58.8-.69,1.58-1.42,2.48-2.11.31,2.21.34,4.4.12,6.58-2.61,22.99-24.6,27.69-41.45,15.13-13.52-9.97-23.18-26.79-24.38-43.5h0Z"/>
    </g>
    <g>
      <path class="cls-3" d="M496.08,313.3c-7.87-8.88-13.84-19.34-19.89-29.29-3.3-5.5-6.63-10.75-11.01-14.87-3.81-1.9-13.87,7.46-17.38,9.89-.85.65-1.7,1.31-2.65,1.94-.12-2.22.03-4.38.33-6.57,2.61-19.59,20.27-30.89,36.37-16.05,13.46,13.17,18.54,37.05,14.23,54.95h0Z"/>
      <path class="cls-3" d="M400.93,257.25c12.74,7.47,24.48,19.14,35.86,27.46,2.56,1.82,5.04,3.34,7.13,4.26,2.04.84,3.46,1.41,5.64,1.29,2.66-.23,5.39-1.8,7.82-3.52,2.36-1.7,4.56-3.64,6.79-5.58.8-.69,1.58-1.42,2.48-2.11.31,2.21.34,4.4.12,6.58-2.61,22.99-24.6,27.68-41.45,15.13-13.52-9.97-23.18-26.79-24.38-43.5h0Z"/>
    </g>
  </g>
  <g>
    <g>
      <path class="cls-3" d="M827.45,395.63c-10.13-6.18-18.91-14.43-27.61-22.16-4.78-4.3-9.48-8.32-14.89-10.98-4.16-.73-11.09,11.23-13.72,14.55-.62.87-1.24,1.75-1.96,2.63-.77-2.08-1.25-4.2-1.61-6.38-3.25-19.5,10.32-35.48,30.06-26.02,16.71,8.61,28.61,30.02,29.73,48.35h0Z"/>
      <path class="cls-3" d="M720.03,369.96c14.37,3.4,29.02,11.11,42.34,15.73,2.99.99,5.8,1.71,8.07,1.98,2.2.21,3.72.33,5.77-.42,2.48-1,4.62-3.3,6.44-5.65,2.44-3.18,4.36-6.7,6.6-10.08.95,2.02,1.61,4.11,2.05,6.26,4.25,22.74-15.39,33.68-35.19,26.63-15.85-5.56-30.02-18.81-36.07-34.43h0Z"/>
    </g>
    <g>
      <path class="cls-3" d="M750.04,354.27c-10.13-6.18-18.91-14.43-27.61-22.16-4.78-4.29-9.48-8.33-14.89-10.98-4.16-.74-11.09,11.23-13.72,14.55-.62.87-1.24,1.75-1.96,2.63-.77-2.08-1.25-4.2-1.61-6.38-3.25-19.5,10.32-35.48,30.06-26.02,16.71,8.61,28.61,30.02,29.73,48.35h0Z"/>
      <path class="cls-3" d="M642.63,328.6c14.37,3.4,29.02,11.11,42.34,15.73,2.99.99,5.8,1.71,8.07,1.98,2.2.21,3.72.33,5.77-.42,2.48-1,4.62-3.3,6.44-5.65,2.44-3.18,4.36-6.7,6.6-10.08.95,2.02,1.61,4.11,2.05,6.26,4.25,22.74-15.39,33.68-35.19,26.62-15.85-5.56-30.02-18.81-36.07-34.43h0Z"/>
    </g>
  </g>
  <g>
    <path class="cls-3" d="M871.66,358.48c-7.52-9.18-13.07-19.87-18.72-30.05-3.08-5.62-6.2-11.01-10.42-15.29-3.68-2.07-14.18,6.93-17.76,9.2-.87.61-1.75,1.24-2.72,1.83-.03-2.22.21-4.38.59-6.55,3.38-19.48,21.47-30.07,36.98-14.61,12.93,13.69,17.06,37.75,12.06,55.47h0Z"/>
    <path class="cls-3" d="M778.79,298.72c12.44,7.96,23.71,20.09,34.75,28.85,2.49,1.92,4.91,3.53,6.96,4.54,2,.92,3.4,1.54,5.58,1.51,2.67-.12,5.46-1.59,7.95-3.2,2.43-1.6,4.7-3.46,7-5.31.83-.66,1.63-1.35,2.56-2.01.22,2.22.16,4.41-.14,6.58-3.53,22.88-25.65,26.69-42.02,13.48-13.12-10.49-22.11-27.68-22.65-44.43h0Z"/>
  </g>
  <g>
    <path class="cls-3" d="M896.21,427.84c-7.52-9.18-13.07-19.87-18.72-30.05-3.08-5.62-6.2-11.01-10.42-15.29-3.68-2.07-14.18,6.93-17.76,9.2-.87.61-1.75,1.24-2.72,1.83-.04-2.22.21-4.38.59-6.55,3.38-19.48,21.47-30.07,36.98-14.61,12.93,13.69,17.06,37.75,12.06,55.47h0Z"/>
    <path class="cls-3" d="M842.37,410.49c12.44,7.96,23.71,20.09,34.75,28.85,2.49,1.92,4.91,3.53,6.96,4.54,2,.92,3.4,1.54,5.58,1.51,2.67-.12,5.46-1.59,7.95-3.2,2.43-1.6,4.7-3.46,7-5.31.83-.66,1.63-1.35,2.56-2.01.22,2.22.16,4.41-.14,6.58-3.53,22.88-25.65,26.69-42.02,13.48-13.12-10.49-22.11-27.68-22.65-44.43h0Z"/>
  </g>
  <g>
    <g>
      <path class="cls-3" d="M819.91,243.78c-11.87.25-23.7-1.97-35.2-3.8-6.33-1.05-12.48-1.91-18.46-1.23-3.9,1.62-3.3,15.43-3.72,19.65-.05,1.07-.1,2.14-.24,3.27-1.77-1.34-3.32-2.86-4.79-4.51-13.24-14.68-10.42-35.45,11.32-38.11,18.71-1.74,40.28,9.88,51.09,24.73h0Z"/>
      <path class="cls-3" d="M715.58,280c13.94-4.88,30.44-6.27,44.14-9.55,3.05-.77,5.81-1.68,7.87-2.68,1.96-1.01,3.32-1.73,4.63-3.46,1.55-2.17,2.12-5.27,2.38-8.23.34-4,.07-7.99.13-12.05,1.89,1.19,3.57,2.59,5.09,4.17,15.83,16.89,5.19,36.65-15.31,41.39-16.39,3.85-35.39.34-48.94-9.58h0Z"/>
    </g>
    <g>
      <path class="cls-3" d="M732.41,250.62c-11.87.25-23.7-1.97-35.2-3.8-6.32-1.04-12.49-1.91-18.46-1.23-3.9,1.62-3.3,15.44-3.72,19.65-.05,1.07-.1,2.14-.24,3.27-1.77-1.34-3.32-2.86-4.79-4.51-13.24-14.68-10.41-35.45,11.32-38.11,18.71-1.74,40.27,9.88,51.09,24.73h0Z"/>
      <path class="cls-3" d="M628.08,286.84c13.94-4.88,30.44-6.27,44.14-9.55,3.05-.77,5.81-1.68,7.87-2.68,1.96-1.01,3.32-1.73,4.63-3.46,1.55-2.17,2.12-5.27,2.38-8.23.34-4,.07-7.99.13-12.05,1.89,1.19,3.57,2.59,5.09,4.17,15.83,16.89,5.19,36.65-15.31,41.39-16.39,3.85-35.39.34-48.94-9.58h0Z"/>
    </g>
  </g>
  <g>
    <g>
      <path class="cls-3" d="M592.33,362.12c2.62-11.58,7.64-22.52,12.19-33.24,2.55-5.9,4.86-11.64,5.65-17.61-.63-4.18-14.18-6.93-18.17-8.35-1.02-.31-2.05-.61-3.12-1.02,1.73-1.39,3.58-2.53,5.53-3.56,17.44-9.31,36.91-1.55,34.25,20.18-2.83,18.58-19.32,36.7-36.33,43.61h0Z"/>
      <path class="cls-3" d="M582.37,252.13c1.36,14.71-1.27,31.05-1.39,45.14.01,3.15.23,6.04.7,8.28.5,2.15.88,3.63,2.24,5.33,1.73,2.03,4.61,3.33,7.42,4.3,3.8,1.29,7.74,1.99,11.66,3.04-1.61,1.54-3.38,2.84-5.28,3.94-20.2,11.29-36.84-3.83-36.47-24.85.21-16.8,8.24-34.45,21.12-45.18h0Z"/>
    </g>
    <g>
      <path class="cls-3" d="M606.82,275.56c2.62-11.58,7.64-22.52,12.19-33.24,2.55-5.9,4.86-11.64,5.65-17.61-.63-4.18-14.18-6.93-18.17-8.35-1.02-.31-2.05-.61-3.12-1.02,1.73-1.39,3.58-2.53,5.53-3.56,17.44-9.31,36.91-1.55,34.25,20.18-2.83,18.58-19.32,36.7-36.33,43.61h0Z"/>
      <path class="cls-3" d="M596.85,165.57c1.37,14.71-1.27,31.05-1.39,45.14.01,3.15.23,6.04.7,8.28.5,2.15.88,3.63,2.24,5.33,1.73,2.03,4.61,3.33,7.42,4.3,3.8,1.29,7.74,2,11.66,3.04-1.61,1.54-3.38,2.84-5.28,3.94-20.2,11.29-36.84-3.84-36.47-24.85.21-16.8,8.24-34.45,21.12-45.18h0Z"/>
    </g>
  </g>
  <g>
    <path class="cls-3" d="M565.68,263.16c-7.59-9.13-13.22-19.77-18.95-29.91-3.12-5.6-6.28-10.96-10.53-15.21-3.37-1.85-11.98,5.37-15.16,7.48-1.71,1.27-3.4,2.53-5.24,3.7-.05-2.22.17-4.38.54-6.56,3.23-19.5,21.25-30.23,36.87-14.88,13.03,13.6,17.35,37.62,12.47,55.37h0Z"/>
    <path class="cls-3" d="M472.36,204.09c12.5,7.87,23.86,19.91,34.96,28.59,2.5,1.9,4.94,3.5,6.99,4.49,2.01.91,3.42,1.52,5.59,1.47,2.67-.14,5.44-1.63,7.93-3.26,2.41-1.62,4.68-3.49,6.96-5.36.83-.66,1.62-1.36,2.54-2.03.24,2.22.2,4.41-.09,6.58-3.36,22.91-25.45,26.89-41.92,13.8-13.2-10.39-22.32-27.51-22.98-44.26h0Z"/>
  </g>
  <g>
    <path class="cls-3" d="M433.99,263.01c-7.59-9.13-13.22-19.77-18.95-29.91-3.12-5.6-6.28-10.96-10.53-15.21-3.37-1.85-11.98,5.37-15.16,7.48-1.71,1.27-3.4,2.53-5.24,3.7-.05-2.22.17-4.38.54-6.56,3.23-19.5,21.25-30.23,36.87-14.88,13.03,13.6,17.35,37.62,12.47,55.37h0Z"/>
    <path class="cls-3" d="M340.67,203.95c12.5,7.87,23.86,19.91,34.96,28.59,2.5,1.9,4.94,3.5,6.99,4.49,2.01.91,3.42,1.52,5.59,1.47,2.66-.14,5.44-1.63,7.93-3.26,2.41-1.62,4.68-3.49,6.96-5.37.83-.66,1.62-1.36,2.54-2.03.24,2.22.2,4.41-.09,6.58-3.36,22.91-25.45,26.89-41.92,13.8-13.2-10.39-22.32-27.51-22.98-44.26h0Z"/>
  </g>
  <g>
    <g>
      <path class="cls-3" d="M396.22,283.82c-10.27,5.95-21.71,9.71-32.67,13.66-6.04,2.14-11.86,4.35-16.76,7.83-2.63,3.3,4.56,15.11,6.23,19.01.47.96.95,1.92,1.37,2.98-2.19-.32-4.29-.91-6.37-1.63-18.68-6.46-26.23-26.02-8.48-38.84,15.59-10.56,40-10.78,56.68-3h0Z"/>
      <path class="cls-3" d="M322.33,365.9c9.86-11,23.63-20.18,34.05-29.67,2.3-2.15,4.28-4.28,5.6-6.14,1.23-1.83,2.07-3.11,2.39-5.27.31-2.65-.69-5.64-1.89-8.36-1.19-2.65-2.66-5.2-4.12-7.77-.52-.93-1.07-1.83-1.58-2.85,2.23.14,4.38.55,6.47,1.19,22.02,7.16,22.23,29.6,6.56,43.64-12.5,11.28-30.83,17.37-47.49,15.23h0Z"/>
    </g>
    <g>
      <path class="cls-3" d="M322.89,332.03c-10.27,5.95-21.71,9.71-32.67,13.66-6.04,2.14-11.86,4.35-16.76,7.83-2.63,3.3,4.56,15.11,6.23,19.01.47.96.95,1.92,1.37,2.98-2.19-.32-4.29-.91-6.37-1.63-18.68-6.46-26.23-26.02-8.48-38.84,15.59-10.57,40-10.78,56.68-3h0Z"/>
      <path class="cls-3" d="M249,414.11c9.86-11,23.63-20.18,34.05-29.67,2.3-2.15,4.28-4.28,5.6-6.14,1.23-1.83,2.07-3.11,2.39-5.27.31-2.65-.69-5.64-1.89-8.36-1.19-2.65-2.66-5.2-4.12-7.77-.52-.93-1.07-1.83-1.58-2.85,2.23.14,4.38.55,6.47,1.19,22.02,7.16,22.23,29.6,6.56,43.64-12.5,11.28-30.83,17.37-47.49,15.23h0Z"/>
    </g>
  </g>
  <g>
    <path class="cls-3" d="M248.99,316.28c-7.7,12.6-19.58,24.14-28.1,35.36-1.87,2.53-3.43,4.98-4.39,7.06-.88,2.02-1.47,3.44-1.39,5.61.18,2.66,1.7,5.42,3.37,7.88,1.66,2.39,3.56,4.63,5.46,6.89.68.82,1.39,1.6,2.07,2.52-2.21.27-4.4.26-6.58,0-22.94-3.02-27.24-25.09-14.38-41.72,10.21-13.34,27.2-22.7,43.93-23.6h0Z"/>
    <path class="cls-3" d="M312.35,255.54c-7.7,12.6-19.58,24.14-28.1,35.36-1.87,2.53-3.43,4.98-4.39,7.06-.88,2.02-1.47,3.44-1.39,5.61.18,2.66,1.7,5.42,3.37,7.88,1.66,2.39,3.56,4.63,5.46,6.89.67.82,1.39,1.6,2.07,2.52-2.21.27-4.4.26-6.58,0-22.94-3.02-27.24-25.09-14.38-41.72,10.21-13.34,27.2-22.7,43.93-23.6h0Z"/>
  </g>
  <g>
    <g>
      <path class="cls-3" d="M542.23,404.41c-6.23,7.76-13.12,13.36-20.11,19.56-3.22,2.82-7.67,6.79-9.49,9.86-.65,1.01-1.01.85-.47,2.35,1.67,3.5,5.27,6.24,8.15,8.97,1.26,1.12,2.51,2.23,3.72,3.46-1.73.41-3.45.59-5.17.65-15.59.71-26.91-11.63-17.54-26.16,8.52-12.38,26.24-19.53,40.9-18.68h0Z"/>
      <path class="cls-3" d="M511.62,486.37c2.47-6.51,5.51-11.9,8.42-17.14,3.59-6.91,11.95-18.49,10.63-25.34-1.04-3.51-4.35-6.18-7.21-8.6-1.23-1.02-2.54-2.01-3.89-3.18,1.68-.55,3.38-.87,5.12-1,18.23-1.2,25.02,15.46,17.52,30.25-6.17,12.22-17.62,21.67-30.57,25.02h0Z"/>
    </g>
    <g>
      <path class="cls-3" d="M502.19,461.25c-6.23,7.76-13.12,13.36-20.11,19.56-3.22,2.82-7.67,6.79-9.49,9.86-.65,1.01-1.01.85-.47,2.35,1.67,3.5,5.27,6.24,8.15,8.97,1.26,1.12,2.51,2.23,3.72,3.46-1.73.41-3.45.59-5.17.65-15.59.71-26.91-11.63-17.54-26.16,8.52-12.38,26.24-19.52,40.9-18.68h0Z"/>
      <path class="cls-3" d="M471.58,543.21c2.47-6.51,5.51-11.9,8.42-17.14,3.59-6.91,11.95-18.49,10.63-25.34-1.04-3.51-4.35-6.18-7.21-8.6-1.23-1.02-2.54-2.01-3.89-3.18,1.68-.55,3.38-.87,5.12-1,18.23-1.2,25.01,15.46,17.52,30.25-6.17,12.22-17.62,21.67-30.57,25.02h0Z"/>
    </g>
  </g>
  <g>
    <g>
      <path class="cls-3" d="M750.87,520.53c-7.87-8.88-13.84-19.34-19.89-29.29-3.3-5.5-6.63-10.75-11.01-14.87-3.81-1.9-13.87,7.46-17.38,9.89-.85.65-1.7,1.31-2.65,1.94-.12-2.21.03-4.38.33-6.57,2.61-19.59,20.27-30.89,36.37-16.05,13.46,13.17,18.54,37.05,14.23,54.95h0Z"/>
      <path class="cls-3" d="M655.72,464.47c12.74,7.47,24.48,19.14,35.86,27.46,2.56,1.82,5.04,3.34,7.13,4.26,2.04.84,3.46,1.41,5.64,1.29,2.66-.23,5.39-1.8,7.82-3.52,2.36-1.7,4.56-3.64,6.79-5.58.8-.69,1.58-1.42,2.48-2.11.31,2.21.34,4.4.12,6.58-2.61,22.99-24.6,27.69-41.45,15.13-13.52-9.97-23.18-26.79-24.38-43.5h0Z"/>
    </g>
    <g>
      <path class="cls-3" d="M689.01,458.27c-7.87-8.88-13.84-19.34-19.89-29.29-3.3-5.5-6.63-10.75-11.01-14.87-3.81-1.9-13.87,7.46-17.38,9.89-.85.65-1.7,1.31-2.65,1.94-.12-2.21.03-4.38.33-6.57,2.61-19.59,20.27-30.89,36.37-16.05,13.46,13.17,18.54,37.05,14.23,54.95h0Z"/>
      <path class="cls-3" d="M593.85,402.21c12.74,7.47,24.48,19.14,35.86,27.46,2.56,1.82,5.04,3.34,7.13,4.26,2.04.84,3.46,1.41,5.64,1.29,2.66-.23,5.39-1.8,7.82-3.52,2.36-1.7,4.56-3.64,6.79-5.58.8-.69,1.58-1.42,2.48-2.11.31,2.21.34,4.4.12,6.58-2.61,22.99-24.6,27.69-41.45,15.13-13.52-9.97-23.18-26.79-24.38-43.5h0Z"/>
    </g>
  </g>
  <g>
    <g>
      <path class="cls-3" d="M905.96,556.52c-7.87-8.88-13.84-19.34-19.89-29.29-3.3-5.49-6.63-10.76-11.01-14.87-3.8-1.9-13.87,7.46-17.38,9.89-.85.65-1.7,1.31-2.65,1.94-.12-2.22.03-4.38.33-6.57,2.61-19.59,20.27-30.89,36.37-16.05,13.46,13.17,18.54,37.05,14.23,54.95h0Z"/>
      <path class="cls-3" d="M810.8,500.47c12.74,7.47,24.48,19.14,35.86,27.46,2.56,1.82,5.04,3.34,7.13,4.26,2.04.84,3.46,1.41,5.64,1.29,2.66-.23,5.39-1.8,7.82-3.52,2.36-1.7,4.56-3.64,6.79-5.58.8-.69,1.58-1.42,2.48-2.11.31,2.21.34,4.4.12,6.58-2.61,22.99-24.6,27.68-41.45,15.13-13.52-9.97-23.18-26.79-24.38-43.5h0Z"/>
    </g>
    <g>
      <path class="cls-3" d="M844.09,494.27c-7.87-8.88-13.84-19.34-19.89-29.29-3.3-5.49-6.63-10.76-11.01-14.87-3.8-1.9-13.87,7.46-17.38,9.89-.85.65-1.7,1.31-2.65,1.94-.12-2.22.03-4.38.33-6.57,2.61-19.59,20.27-30.89,36.37-16.05,13.46,13.17,18.54,37.05,14.23,54.95h0Z"/>
      <path class="cls-3" d="M748.94,438.21c12.74,7.47,24.48,19.14,35.86,27.46,2.56,1.82,5.04,3.34,7.13,4.26,2.04.84,3.46,1.41,5.64,1.29,2.66-.23,5.39-1.8,7.82-3.52,2.36-1.7,4.57-3.64,6.79-5.58.8-.69,1.58-1.42,2.48-2.11.31,2.21.34,4.4.12,6.58-2.61,22.99-24.6,27.68-41.45,15.13-13.52-9.97-23.18-26.79-24.38-43.5h0Z"/>
    </g>
  </g>
  <g>
    <g>
      <path class="cls-3" d="M458.98,369.27c-9.24,1.81-18.8,2.17-28.01,2.36-9.88.29-20.01-.37-29.42,1.17-1.43.25-2.57.6-3.3.81-1.68.51-1.91-.05-2.76,2.14-1.67,6.6.29,14.36.93,21.27.14,1.23.3,2.46.36,3.78-3.39-1.78-6.4-4.09-9.17-6.71-15.7-14.74-13.76-36.72,8.36-43.12,20.89-5.62,47.9,3.5,63.01,18.3h0Z"/>
      <path class="cls-3" d="M347.09,430.74c14.94-8.26,33.48-13.03,48.46-19.43,3.33-1.47,6.3-3.04,8.45-4.57,2.04-1.53,3.44-2.61,4.61-4.84,1.36-2.78,1.37-6.41,1.12-9.84-.39-4.62-1.47-9.12-2.18-13.76,2.38,1,4.57,2.26,6.61,3.77,9.93,6.93,15.57,20.07,10.36,31.84-3.54,8.67-12.12,15.03-19.8,18.29-17.81,7.55-40.39,7.22-57.63-1.45h0Z"/>
    </g>
    <g>
      <path class="cls-3" d="M375.35,410.51c-9.24,1.81-18.8,2.17-28.01,2.36-9.88.29-20.01-.37-29.42,1.17-1.43.25-2.57.6-3.3.81-1.69.51-1.91-.05-2.76,2.14-1.67,6.6.29,14.36.93,21.27.14,1.23.3,2.46.36,3.78-3.39-1.78-6.4-4.09-9.17-6.71-15.7-14.74-13.76-36.73,8.36-43.12,20.89-5.63,47.9,3.5,63.01,18.3h0Z"/>
      <path class="cls-3" d="M263.45,471.98c14.94-8.26,33.48-13.03,48.46-19.43,3.33-1.47,6.3-3.04,8.45-4.57,2.04-1.53,3.44-2.61,4.61-4.84,1.36-2.78,1.37-6.41,1.12-9.84-.39-4.62-1.47-9.12-2.18-13.76,2.38,1,4.57,2.26,6.61,3.77,9.93,6.93,15.57,20.07,10.36,31.84-3.54,8.67-12.12,15.03-19.8,18.29-17.81,7.55-40.39,7.22-57.63-1.45h0Z"/>
    </g>
  </g>
  <g>
    <g>
      <path class="cls-3" d="M265.36,457.14c-6.59,6.73-14.26,12.44-21.74,17.83-7.98,5.84-16.69,11.04-23.58,17.64-1.03,1.02-1.78,1.95-2.26,2.54-1.1,1.38-1.6,1.04-1.06,3.33,2.36,6.38,8.38,11.66,12.82,17,.81.93,1.64,1.86,2.44,2.91-3.8.45-7.59.26-11.36-.33-21.29-3.24-32.16-22.45-17.56-40.26,14.02-16.48,41.45-24.27,62.28-20.65h0Z"/>
      <path class="cls-3" d="M208.03,571.21c7.63-15.27,20.19-29.71,28.91-43.48,1.91-3.1,3.46-6.08,4.36-8.56.82-2.42,1.36-4.1,1.05-6.6-.46-3.06-2.5-6.06-4.66-8.75-2.14-2.59-4.55-4.98-6.96-7.4-.86-.87-1.75-1.71-2.63-2.7,2.52-.53,5.05-.73,7.58-.65,12.1.08,24.2,7.7,26.58,20.36,2,9.15-1.46,19.25-5.94,26.29-10.36,16.29-29.21,28.86-48.3,31.47h0Z"/>
    </g>
    <g>
      <path class="cls-3" d="M219.84,538.53c-6.59,6.73-14.26,12.44-21.74,17.83-7.98,5.84-16.69,11.04-23.58,17.64-1.03,1.02-1.78,1.95-2.26,2.54-1.1,1.38-1.6,1.04-1.06,3.33,2.36,6.38,8.38,11.66,12.82,17,.81.93,1.64,1.86,2.44,2.91-3.8.45-7.59.26-11.36-.33-21.29-3.24-32.16-22.45-17.56-40.26,14.02-16.48,41.45-24.27,62.28-20.65h0Z"/>
      <path class="cls-3" d="M162.52,652.6c7.63-15.27,20.19-29.71,28.91-43.47,1.91-3.1,3.46-6.08,4.36-8.56.82-2.42,1.36-4.1,1.05-6.6-.46-3.06-2.5-6.06-4.66-8.75-2.14-2.59-4.55-4.98-6.96-7.4-.86-.87-1.75-1.71-2.63-2.7,2.52-.53,5.05-.73,7.58-.65,12.1.08,24.2,7.7,26.58,20.36,2,9.15-1.46,19.25-5.94,26.29-10.36,16.29-29.21,28.86-48.3,31.47h0Z"/>
    </g>
  </g>
  <g>
    <g>
      <path class="cls-3" d="M456.17,482.94c-9.13,2.32-18.65,3.21-27.84,3.92-9.85.84-20,.75-29.31,2.81-1.41.33-2.53.74-3.25,1-1.65.6-1.91.06-2.63,2.29-1.3,6.68,1.09,14.32,2.11,21.19.21,1.22.44,2.44.57,3.75-3.48-1.59-6.62-3.73-9.53-6.19-16.5-13.84-15.79-35.9,5.94-43.52,20.55-6.78,48.02.83,63.93,14.76h0Z"/>
      <path class="cls-3" d="M347.88,550.56c14.46-9.08,32.7-14.88,47.3-22.1,3.24-1.65,6.12-3.39,8.18-5.04,1.95-1.64,3.29-2.8,4.33-5.09,1.2-2.85,1.01-6.48.57-9.89-.64-4.59-1.97-9.02-2.94-13.61,2.43.86,4.69,2,6.81,3.39,10.3,6.36,16.66,19.17,12.11,31.21-3.05,8.85-11.26,15.68-18.75,19.37-17.36,8.53-39.93,9.46-57.62,1.76h0Z"/>
    </g>
    <g>
      <path class="cls-3" d="M374.97,528.78c-9.13,2.32-18.65,3.21-27.84,3.92-9.85.84-20,.75-29.31,2.81-1.41.33-2.53.74-3.25,1-1.65.6-1.91.06-2.63,2.29-1.3,6.68,1.09,14.32,2.11,21.18.21,1.22.44,2.44.57,3.75-3.48-1.59-6.61-3.73-9.53-6.19-16.5-13.84-15.79-35.9,5.94-43.52,20.55-6.78,48.02.83,63.93,14.76h0Z"/>
      <path class="cls-3" d="M266.67,596.4c14.46-9.08,32.7-14.88,47.3-22.1,3.24-1.65,6.12-3.39,8.18-5.04,1.95-1.64,3.29-2.8,4.33-5.09,1.2-2.85,1.01-6.48.57-9.89-.64-4.59-1.97-9.02-2.94-13.61,2.43.86,4.69,2,6.81,3.39,10.3,6.36,16.66,19.17,12.11,31.21-3.05,8.85-11.26,15.68-18.75,19.37-17.36,8.53-39.93,9.46-57.62,1.76h0Z"/>
    </g>
  </g>
  <g>
    <g>
      <path class="cls-2" d="M548.43,370.38c-17.99.11-35.3-2.88-52.95-1.79-5.46.61-11.87,1.31-13.73,6.16-1.31,3.79-.42,8.37.39,12.38,1.11,4.95,2.76,9.85,4.1,14.79-9.14-7.57-19.52-21.3-14.16-34.14,3.87-8.7,13.76-11.84,22.3-12.52,18.2-1.21,38.99,5.15,54.07,15.13h0Z"/>
      <path class="cls-2" d="M436.54,431.85c16.88-5.46,34.55-8.43,50.35-15.11,11.64-5.16,17.92-11.11,14.38-24.56-1.01-4.12-2.64-8.34-4.28-12.78,4,2.69,7.41,6.03,10.24,9.99,6.98,9.76,6.76,22.1-1.88,30.83-16,16-48.4,17.59-68.81,11.62h0Z"/>
    </g>
    <g>
      <path class="cls-2" d="M464.8,411.62c-17.99.12-35.3-2.88-52.95-1.79-5.46.61-11.88,1.31-13.73,6.16-1.31,3.79-.42,8.37.39,12.38,1.11,4.95,2.76,9.85,4.1,14.79-9.14-7.57-19.52-21.3-14.16-34.14,3.87-8.7,13.76-11.84,22.3-12.52,18.2-1.21,38.99,5.15,54.07,15.13h0Z"/>
      <path class="cls-2" d="M352.9,473.09c16.88-5.46,34.55-8.43,50.35-15.11,11.64-5.16,17.92-11.11,14.38-24.56-1.01-4.12-2.64-8.34-4.28-12.78,4,2.69,7.41,6.03,10.24,9.99,6.98,9.76,6.76,22.1-1.88,30.83-16,16-48.41,17.59-68.81,11.62h0Z"/>
    </g>
  </g>
  <g>
    <g>
      <path class="cls-2" d="M546.62,341.9c-3.38-11.61-5.24-22.73-8.15-34.09-1.64-6.12-3.66-13.81-7.58-18.2-1.68-1.84-3.63-2.33-5.98-1.94-7.21,1.49-13.11,6.37-19.53,10.2,1.59-3.8,3.71-7.31,6.34-10.58,6.19-7.99,17.22-13.62,26.46-5.89,14.29,12.58,13.84,43.83,8.44,60.5h0Z"/>
      <path class="cls-2" d="M468.5,263.84c8.63,12.7,15.35,26.66,24.73,38.17,7.02,8.4,13.65,12.19,23.87,6,3.17-1.84,6.29-4.2,9.58-6.64-1.24,3.91-3.18,7.55-5.82,10.92-6.4,8.15-16.72,10.97-26.06,5.89-17.19-9.47-26.29-35.88-26.3-54.34h0Z"/>
    </g>
    <g>
      <path class="cls-2" d="M492.13,282.42c-3.38-11.61-5.24-22.73-8.15-34.09-1.64-6.12-3.66-13.81-7.58-18.2-1.68-1.84-3.63-2.33-5.98-1.94-7.21,1.49-13.11,6.37-19.53,10.2,1.59-3.8,3.71-7.31,6.34-10.58,6.19-7.99,17.22-13.62,26.46-5.89,14.29,12.58,13.84,43.83,8.44,60.5h0Z"/>
      <path class="cls-2" d="M414.01,204.35c8.63,12.7,15.35,26.66,24.73,38.16,7.02,8.4,13.65,12.19,23.87,6,3.17-1.84,6.29-4.2,9.58-6.64-1.24,3.91-3.18,7.55-5.82,10.92-6.4,8.15-16.72,10.97-26.06,5.89-17.19-9.47-26.29-35.88-26.3-54.34h0Z"/>
    </g>
  </g>
  <g>
    <g>
      <path class="cls-2" d="M405.33,225.52c-5.74-4.13-10.86-8.54-16-12.73-3.79-3.08-7.45-6.11-11.46-8.73-2.14-1.39-4.78-2.94-7.06-3.35-1.74-.32-2.41.02-3.62,1.74-3.76,6.87-4.05,15.38-5.99,23.13-1.35-3.29-2.25-6.68-2.86-10.17-1.13-7.7-1.62-17.51,5.83-22.74,15.85-9,36.83,19.9,41.15,32.85h0Z"/>
      <path class="cls-2" d="M324.61,229.29c6.46,1.88,12.46,4.04,18.4,5.81,6.57,1.79,13.51,4.19,20.19,2.52,6.27-1.86,7.69-9.53,8.94-15.57.58-3.09.98-6.31,1.58-9.65,3.05,6.28,4.61,12.99,3.68,20.14-2.08,14.47-15.8,18.09-28.06,13.88-9.71-3.28-18.32-9.18-24.72-17.13h0Z"/>
    </g>
    <g>
      <path class="cls-2" d="M348.55,228.01c-5.45-3.03-10.39-6.36-15.32-9.52-4.79-2.82-17.69-12.38-22.7-9.2-2.68,2.24-3.4,6.16-4.34,9.87-.64,2.84-1.09,5.83-1.75,8.9-1.26-2.88-2.1-5.87-2.59-9.01-1.26-7.1.51-16.94,9.14-18.66,14.47-2.5,31.68,15.8,37.57,27.63h0Z"/>
      <path class="cls-2" d="M267.83,231.01c6.03,1.15,11.66,2.65,17.24,3.92,7.97,1.57,22.61,6.01,27.84-1.56,2.87-4.3,3.28-10.4,4.03-15.78,1.48,2.71,2.48,5.64,3.02,8.78,2.18,12.61-6.64,20.73-19.07,20.03-12.33-.79-24.33-6.83-33.05-15.39h0Z"/>
    </g>
  </g>
  <g>
    <g>
      <path class="cls-2" d="M505.2,231.05c3.95-3.23,19.84-11.43,18.59-16.28-.83-2.3-3.06-3.87-5.24-5.54-3.38-2.47-7.27-4.65-11.07-7.37,7.73.15,19.22,2.67,22.6,10.76,3.62,12.3-15.59,18.51-24.89,18.44h0Z"/>
      <path class="cls-2" d="M506.9,176.63c-3.56,6.82-8.82,14.47-7.72,21.85.63,3.42,3.1,6.01,5.89,8.25,3.09,2.5,6.88,4.52,10.7,6.99-2.28.14-4.53-.01-6.79-.39-23.22-4.5-20.38-27.46-2.08-36.7h0Z"/>
    </g>
    <g>
      <path class="cls-2" d="M473.07,216.3c.63-5.54,1.58-10.77,2.08-15.83.3-3.52.61-6.96-.34-10.11-1.29-4.67-8.47-2.58-12.23-1.91-4.94,1.1-10.01,2.8-15.49,3.96,6.48-6.87,17.19-14.25,27.14-12.42,16.13,4.73,6.71,27.86-1.17,36.3h0Z"/>
      <path class="cls-2" d="M422.6,174.04c3.49,8.57,6.72,19.19,14.91,23.2,4,1.87,8.26,1.47,12.65.75,4.76-.87,9.64-2.58,14.95-3.98-3.05,3.73-6.82,6.89-11.11,9.11-21.31,11.14-36.41-8.58-31.4-29.07h0Z"/>
    </g>
  </g>
  <g>
    <g>
      <path class="cls-2" d="M444.52,272.84c-17.98-2.16-35.29-7.11-52.76-9.48-5.91-.59-15.57-1.98-19.7,2.26-2.12,2.85-2.02,6.43-1.89,10.05.29,4.26,1.16,8.75,1.95,13.43-.82-.85-1.61-1.74-2.37-2.66-2.28-2.83-4.19-5.8-5.73-9.18-3.95-8.67-3.11-18.62,5.91-23.75,20.39-10.85,58.43,5.63,74.59,19.32h0Z"/>
      <path class="cls-2" d="M313.26,306.12c18.02-2.46,36-2.25,53.58-4.53,7.46-1.23,15.46-2.12,21.04-7.23,2.47-2.52,3.07-5.77,2.94-9.43-.14-4.11-1.38-8.52-2.59-13.11,3.71,3.21,6.79,6.98,8.76,11.6,5.26,12.22-2.45,22.73-13.88,27.24-20.67,8.16-50.09,4.45-69.84-4.54h0Z"/>
    </g>
    <g>
      <path class="cls-2" d="M347.39,293.72c-17.98-2.16-35.29-7.11-52.76-9.48-5.91-.59-15.57-1.98-19.7,2.26-2.12,2.85-2.02,6.43-1.89,10.05.29,4.26,1.16,8.75,1.95,13.43-.82-.85-1.61-1.74-2.37-2.66-2.28-2.83-4.19-5.8-5.73-9.18-3.95-8.67-3.11-18.62,5.91-23.75,20.4-10.85,58.43,5.63,74.59,19.32h0Z"/>
      <path class="cls-2" d="M216.14,327c18.02-2.46,36-2.25,53.58-4.53,7.46-1.23,15.46-2.12,21.04-7.23,2.47-2.52,3.07-5.77,2.94-9.43-.14-4.11-1.38-8.52-2.59-13.11,3.71,3.21,6.79,6.98,8.76,11.6,5.26,12.22-2.44,22.73-13.88,27.24-20.67,8.16-50.09,4.45-69.84-4.54h0Z"/>
    </g>
  </g>
  <g>
    <g>
      <path class="cls-2" d="M304.34,344.97c-12.43,2.5-24.97,3.04-37.11,5.28-4.41.91-11,2.18-13.49,5.79-1.19,1.9-.83,4.55-.13,6.86.81,2.82,2.22,5.69,3.59,8.7-1.41-.86-2.78-1.81-4.03-2.93-9.17-7.74-8.82-18.54,2.35-24.04,14.06-6.61,34.67-5.02,48.82.34h0Z"/>
      <path class="cls-2" d="M219.46,395.76c11.68-5.59,23.84-9.4,35.36-14.63,4.8-2.25,10.65-5.07,13.71-9.23,2.48-3.3,1.31-7.51-.49-11-.7-1.42-1.56-2.81-2.42-4.27,3.04,1.44,5.9,3.46,8.04,6.56,6.38,9.54-2.2,19.21-10.48,23.76-13.12,7.22-28.94,10.24-43.73,8.81h0Z"/>
    </g>
    <g>
      <path class="cls-2" d="M240.97,380.07c-12.43,2.5-24.97,3.04-37.11,5.28-4.41.91-11,2.18-13.49,5.79-1.19,1.9-.83,4.55-.13,6.86.81,2.82,2.22,5.69,3.59,8.7-1.41-.86-2.78-1.81-4.03-2.93-9.16-7.74-8.82-18.54,2.35-24.04,14.06-6.61,34.67-5.02,48.82.34h0Z"/>
      <path class="cls-2" d="M156.1,430.87c11.68-5.59,23.84-9.4,35.36-14.63,4.8-2.25,10.65-5.07,13.71-9.23,2.48-3.3,1.31-7.51-.49-11-.7-1.42-1.56-2.81-2.42-4.27,3.04,1.44,5.9,3.46,8.04,6.56,5.16,7.46.43,16.05-6.05,20.78-12.9,9.53-32.44,13.36-48.16,11.79h0Z"/>
    </g>
  </g>
  <g>
    <g>
      <path class="cls-2" d="M577.95,326.69c2.04-15.57,7.7-29.5,10.69-44.32.68-4.1.95-6.71.19-9.48-2.58-4.34-15.09-4.2-20.05-4.89-1.04-.1-2.09-.18-3.18-.36,2.33-2.24,4.97-4.07,7.78-5.65,15.36-8.73,32.4-3.13,32.73,16.16-.1,18.3-13.34,38.57-28.16,48.54h0Z"/>
      <path class="cls-2" d="M551.77,219.4c2.75,15.32,2,30.58,4.03,45.04,1.85,11.77,4.82,16.19,17.07,16.88,3.05.25,5.91.2,9.11.37-1.42,1.63-3.01,3.06-4.75,4.33-18.13,12.97-35.63,1.3-38.34-19.01-2.23-16.36,2.67-34.72,12.87-47.61h0Z"/>
    </g>
    <path class="cls-2" d="M562.31,247.55c2.04-15.57,7.7-29.5,10.69-44.32.68-4.1.95-6.71.19-9.48-2.58-4.34-15.09-4.2-20.05-4.89-1.04-.1-2.09-.18-3.18-.36,2.33-2.24,4.97-4.07,7.78-5.65,15.36-8.73,32.41-3.13,32.73,16.16-.1,18.3-13.33,38.57-28.16,48.54h0Z"/>
  </g>
  <g>
    <g>
      <path class="cls-2" d="M752.66,196.21c-14.47,6.1-29.35,8.26-43.65,13.16-3.88,1.48-6.27,2.57-8.27,4.63-2.44,4.42,3.99,15.15,5.9,19.77.44.95.9,1.9,1.3,2.92-3.11-.88-6.02-2.23-8.8-3.86-15.29-8.85-19.07-26.39-2.58-36.41,15.89-9.16,39.98-7.97,56.11-.21h0Z"/>
      <path class="cls-2" d="M673.28,273c11.83-10.11,25.38-17.18,36.84-26.23,9.22-7.55,11.54-12.34,5.94-23.26-1.32-2.76-2.82-5.2-4.28-8.05,2.13.41,4.16,1.05,6.13,1.91,20.35,9.1,19.11,30.09,2.96,42.69-13.03,10.2-31.28,15.23-47.6,12.94h0Z"/>
    </g>
    <path class="cls-2" d="M692.26,249.68c-14.47,6.1-29.35,8.26-43.65,13.16-3.88,1.48-6.27,2.57-8.27,4.63-2.44,4.42,3.99,15.15,5.9,19.77.44.95.9,1.9,1.3,2.92-3.11-.88-6.02-2.23-8.8-3.86-15.29-8.85-19.07-26.39-2.58-36.41,15.89-9.16,39.99-7.97,56.11-.21h0Z"/>
  </g>
  <g>
    <g>
      <path class="cls-2" d="M684.16,359.32c14.05-7.02,28.76-10.12,42.72-15.93,3.78-1.73,6.09-2.97,7.96-5.15,2.16-4.56-4.95-14.86-7.16-19.35-.5-.92-1.02-1.83-1.48-2.83,3.16.68,6.15,1.84,9.03,3.29,15.83,7.85,20.72,25.11,4.91,36.17-15.26,10.16-39.39,10.52-55.98,3.81h0Z"/>
      <path class="cls-2" d="M758.45,277.6c-11.16,10.85-24.23,18.77-35.08,28.54-8.72,8.12-10.72,13.05-4.44,23.59,1.49,2.67,3.15,5.01,4.79,7.76-2.15-.27-4.22-.78-6.24-1.51-20.89-7.78-21-28.8-5.69-42.41,12.32-11,30.27-17.21,46.67-15.96h0Z"/>
    </g>
    <g>
      <path class="cls-2" d="M741.01,302.09c14.05-7.02,28.76-10.12,42.72-15.93,3.78-1.73,6.09-2.97,7.96-5.15,2.16-4.56-4.95-14.86-7.16-19.35-.5-.92-1.02-1.83-1.48-2.83,3.16.68,6.15,1.84,9.03,3.29,15.83,7.85,20.72,25.11,4.91,36.17-15.26,10.16-39.39,10.52-55.98,3.81h0Z"/>
      <path class="cls-2" d="M815.3,220.37c-11.16,10.85-24.23,18.77-35.08,28.54-8.72,8.12-10.73,13.05-4.44,23.59,1.49,2.67,3.15,5.01,4.79,7.76-2.15-.27-4.22-.78-6.24-1.51-20.89-7.78-21-28.8-5.69-42.41,12.32-11,30.28-17.21,46.67-15.96h0Z"/>
    </g>
  </g>
  <g>
    <g>
      <path class="cls-2" d="M727.1,380.5c1.63,6.96,2.21,13.48,2.82,19.83.47,5.04,1,13.06,1.91,17.81.46,2.61,1.2,4.97,1.87,6.19.77,1.36.85,1.69,2.65,2.04,5.91.5,11.94-2.33,17.75-3.56-5.24,11.37-20.52,21.78-31.07,9.8-10.76-13.47-5.27-39.19,4.07-52.11h0Z"/>
      <path class="cls-2" d="M779.07,456.27c-6.65-11.11-10.57-23.21-16.4-33.86-4.02-6.96-7.39-11.05-16.03-8.71-3.14.75-6.21,1.96-9.42,3,.63-1.69,1.44-3.27,2.42-4.77,10.21-15.41,27.41-11.48,35.43,3.5,6.65,12.46,8.11,27.65,4,40.84h0Z"/>
    </g>
    <g>
      <path class="cls-2" d="M762.58,437.47c1.63,6.96,2.21,13.48,2.82,19.83.47,5.04,1,13.06,1.91,17.81.46,2.61,1.2,4.97,1.87,6.19.77,1.36.85,1.69,2.65,2.04,5.91.5,11.94-2.33,17.75-3.56-5.24,11.37-20.53,21.78-31.07,9.8-10.76-13.47-5.27-39.19,4.07-52.11h0Z"/>
      <path class="cls-2" d="M814.54,513.24c-6.65-11.11-10.57-23.21-16.4-33.86-4.02-6.96-7.39-11.05-16.03-8.71-3.14.75-6.21,1.96-9.42,3,.63-1.69,1.44-3.27,2.42-4.77,10.21-15.41,27.41-11.48,35.43,3.5,6.65,12.46,8.11,27.65,4,40.84h0Z"/>
    </g>
  </g>
  <g>
    <g>
      <g>
        <path class="cls-2" d="M655.21,407.27c4.67,15,5.37,30.01,8.87,44.72,1.1,4.01,1.95,6.49,3.8,8.68,4.16,2.86,15.46-2.5,20.25-3.96.98-.35,1.97-.71,3.04-1.01-1.18,3.01-2.8,5.78-4.7,8.39-10.29,14.36-28.11,16.42-36.49-.96-7.57-16.7-4.06-40.57,5.23-55.87h0Z"/>
        <path class="cls-2" d="M723.94,493.71c-8.91-12.76-14.64-26.93-22.53-39.21-6.62-9.91-11.16-12.68-22.57-8.17-2.87,1.05-5.45,2.3-8.43,3.48.61-2.08,1.45-4.04,2.5-5.92,11.03-19.37,31.8-16.11,42.78,1.19,8.89,13.96,12.12,32.61,8.26,48.63h0Z"/>
      </g>
      <g>
        <path class="cls-2" d="M702.57,472.57c4.67,15,5.37,30.01,8.87,44.72,1.1,4.01,1.95,6.49,3.8,8.68,4.16,2.86,15.46-2.5,20.25-3.96.98-.35,1.97-.71,3.04-1.01-1.18,3.01-2.8,5.78-4.7,8.39-10.29,14.36-28.11,16.42-36.49-.96-7.57-16.7-4.06-40.57,5.23-55.87h0Z"/>
        <path class="cls-2" d="M771.3,559.01c-8.91-12.76-14.64-26.93-22.53-39.21-6.62-9.91-11.16-12.68-22.57-8.17-2.87,1.05-5.45,2.3-8.43,3.48.61-2.08,1.45-4.04,2.5-5.92,11.03-19.37,31.8-16.11,42.78,1.19,8.89,13.96,12.12,32.61,8.26,48.63h0Z"/>
      </g>
    </g>
    <path class="cls-2" d="M680.33,424.9c-8.91-12.76-14.64-26.93-22.53-39.21-6.62-9.91-11.16-12.68-22.57-8.17-2.87,1.05-5.45,2.3-8.43,3.48.61-2.08,1.45-4.04,2.5-5.92,11.03-19.37,31.8-16.11,42.78,1.19,8.89,13.96,12.12,32.61,8.26,48.63h0Z"/>
  </g>
  <g>
    <path class="cls-2" d="M832.67,305.44c4.67,14.99,5.37,30.01,8.87,44.72,1.1,4.01,1.95,6.49,3.8,8.68,4.16,2.86,15.46-2.5,20.25-3.96.98-.35,1.97-.71,3.04-1.01-1.18,3.01-2.8,5.78-4.7,8.39-10.29,14.36-28.11,16.42-36.49-.96-7.57-16.7-4.06-40.57,5.23-55.87h0Z"/>
    <path class="cls-2" d="M901.41,391.89c-8.91-12.76-14.64-26.93-22.53-39.21-6.62-9.91-11.16-12.68-22.57-8.17-2.87,1.05-5.45,2.3-8.43,3.48.61-2.08,1.45-4.04,2.5-5.92,11.03-19.37,31.8-16.11,42.78,1.19,8.89,13.96,12.12,32.61,8.26,48.63h0Z"/>
  </g>
  <path class="cls-2" d="M880.04,370.74c4.67,14.99,5.37,30.01,8.87,44.72,1.1,4.01,1.95,6.49,3.8,8.68,4.16,2.86,15.46-2.5,20.25-3.96.98-.35,1.97-.71,3.04-1.01-1.18,3.01-2.8,5.78-4.7,8.39-10.29,14.36-28.11,16.42-36.49-.96-7.57-16.7-4.06-40.57,5.23-55.87h0Z"/>
  <path class="cls-2" d="M857.79,323.08c-8.91-12.76-14.64-26.93-22.53-39.21-6.62-9.91-11.16-12.68-22.57-8.17-2.87,1.05-5.45,2.3-8.43,3.48.61-2.08,1.45-4.04,2.5-5.92,11.03-19.37,31.8-16.11,42.78,1.19,8.89,13.96,12.12,32.61,8.26,48.63h0Z"/>
  <g>
    <g>
      <g>
        <path class="cls-2" d="M835.44,426.67c4.67,15,5.37,30.01,8.87,44.72,1.1,4.01,1.95,6.49,3.8,8.68,4.16,2.86,15.46-2.5,20.25-3.96.98-.35,1.97-.71,3.04-1.01-1.18,3.01-2.8,5.78-4.7,8.39-10.29,14.36-28.11,16.42-36.49-.96-7.57-16.7-4.06-40.57,5.23-55.87h0Z"/>
        <path class="cls-2" d="M904.18,513.11c-8.91-12.76-14.64-26.93-22.53-39.21-6.62-9.91-11.16-12.68-22.57-8.17-2.87,1.05-5.45,2.3-8.43,3.48.61-2.08,1.45-4.04,2.5-5.92,11.03-19.37,31.8-16.11,42.78,1.19,8.89,13.96,12.12,32.61,8.26,48.63h0Z"/>
      </g>
      <path class="cls-2" d="M882.8,491.97c4.67,15,5.37,30.01,8.87,44.72,1.1,4.01,1.95,6.49,3.8,8.68,4.16,2.86,15.46-2.5,20.25-3.96.98-.35,1.97-.71,3.04-1.01-1.18,3.01-2.8,5.78-4.7,8.39-10.29,14.36-28.11,16.42-36.49-.96-7.57-16.7-4.06-40.57,5.23-55.87h0Z"/>
    </g>
    <path class="cls-2" d="M860.56,444.31c-8.91-12.76-14.64-26.93-22.53-39.21-6.62-9.91-11.16-12.68-22.57-8.17-2.87,1.05-5.45,2.3-8.43,3.48.61-2.08,1.45-4.04,2.5-5.92,11.03-19.37,31.8-16.11,42.78,1.19,8.89,13.96,12.12,32.61,8.26,48.63h0Z"/>
  </g>
  <g>
    <g>
      <g>
        <path class="cls-2" d="M843.49,550.04c1.68,9.57,1.62,18.64,2.02,27.88.32,5.09.33,11.48,2.77,15.39,3.39,2.88,14.09-1.02,18.81-1.65-5.55,10.57-20.62,19.72-30.06,7.79-9.58-13.37-3.09-37.53,6.45-49.4h0Z"/>
        <path class="cls-2" d="M889.22,624.74c-5.78-10.9-8.91-22.62-13.94-33.05-3.46-6.8-6.52-10.89-14.83-9.09-2.82.52-5.82,1.48-9.12,2.39.68-1.57,1.53-3.04,2.54-4.42,10.49-14.17,26.66-9.57,33.55,5.09,5.72,12.22,6.35,26.67,1.79,39.08h0Z"/>
      </g>
      <path class="cls-2" d="M874.44,606.03c1.68,9.57,1.62,18.64,2.02,27.88.32,5.09.33,11.48,2.77,15.39,3.39,2.89,14.09-1.02,18.81-1.65-5.55,10.57-20.62,19.72-30.06,7.79-9.58-13.37-3.09-37.53,6.45-49.4h0Z"/>
    </g>
    <path class="cls-2" d="M861.56,566.36c-5.78-10.9-8.91-22.62-13.94-33.05-3.46-6.8-6.52-10.89-14.83-9.09-2.82.52-5.82,1.48-9.12,2.39.68-1.57,1.53-3.04,2.54-4.42,10.49-14.17,26.66-9.57,33.55,5.09,5.72,12.22,6.35,26.67,1.79,39.08h0Z"/>
  </g>
  <path class="cls-2" d="M583.86,368.7c10.73-2.82,21.87-2.89,32.05-4.86,2.88-.65,4.67-1.18,6.29-2.42.27-.23.55-.77.65-1.62.24-1.71-.27-4.24-.98-6.8-.69-2.6-1.66-5.3-2.45-8.28,9.81,4.19,19.05,17.11,9.04,26.32-11.33,9.49-33.28,5.36-44.6-2.35h0Z"/>
  <path class="cls-2" d="M635.96,318.57c-9.35,5.92-19.6,9.52-28.57,14.74-5.82,3.53-9.3,6.61-7.1,13.88.66,2.48,1.73,5.1,2.76,7.98-10.79-3.69-17.06-15.46-9.65-25.45,9.09-11.91,29.06-15.11,42.55-11.15h0Z"/>
  <path class="cls-2" d="M819.72,369.97c-9.35,5.92-19.6,9.52-28.57,14.74-5.82,3.53-9.3,6.61-7.1,13.88.66,2.48,1.73,5.1,2.76,7.98-10.79-3.69-17.06-15.46-9.65-25.45,9.09-11.91,29.06-15.11,42.55-11.15h0Z"/>
  <path class="cls-2" d="M748.05,368.29c12.02-8.83,25.47-14.63,37.06-22.48,7.7-5.46,11.81-9.78,8.26-19.33-1.2-3.52-2.92-6.91-4.46-10.48,2,.54,3.91,1.3,5.73,2.26,18.8,10.09,16.14,30.15-.18,41.01-13.21,8.84-30.94,12.35-46.41,9.01h0Z"/>
  <path class="cls-2" d="M840.15,413.8c-9.35,5.92-19.6,9.52-28.57,14.74-5.82,3.53-9.3,6.61-7.1,13.88.66,2.48,1.73,5.1,2.76,7.98-10.79-3.69-17.06-15.46-9.65-25.45,9.09-11.91,29.06-15.11,42.55-11.15h0Z"/>
  <path class="cls-2" d="M540.25,450.06c-9.35,5.92-19.6,9.52-28.57,14.74-5.82,3.53-9.3,6.61-7.1,13.88.66,2.48,1.73,5.1,2.76,7.98-10.79-3.69-17.06-15.46-9.65-25.45,9.09-11.91,29.06-15.11,42.55-11.15h0Z"/>
  <g>
    <path class="cls-2" d="M629.6,334.26c10.73-2.82,21.87-2.89,32.05-4.86,2.88-.65,4.67-1.18,6.29-2.42.27-.23.55-.77.65-1.62.24-1.71-.27-4.24-.98-6.8-.69-2.6-1.66-5.3-2.45-8.28,9.81,4.19,19.05,17.11,9.04,26.32-11.33,9.49-33.29,5.36-44.6-2.35h0Z"/>
    <path class="cls-2" d="M693.21,288.24c-9.35,5.92-19.6,9.52-28.57,14.74-5.82,3.53-9.3,6.61-7.1,13.88.66,2.48,1.73,5.1,2.76,7.98-10.79-3.69-17.06-15.46-9.65-25.45,9.09-11.91,29.06-15.11,42.55-11.15h0Z"/>
  </g>
  <path class="cls-2" d="M578.95,351.52c.67,11.04-1.13,21.76-.9,32.14.28,6.8,1.3,11.34,8.72,12.92,2.49.62,5.3.95,8.33,1.44-8.44,7.66-21.78,7.47-26.95-3.85-6.04-13.72.81-32.74,10.8-42.65h0Z"/>
  <g>
    <g>
      <g>
        <path class="cls-2" d="M572.33,448.78c4.41,11.04,5.94,22.88,9.36,33.44,1.07,2.98,1.87,4.81,3.4,6.37.28.27.89.46,1.8.47,1.86.04,4.48-.84,7.1-1.92,2.68-1.07,5.42-2.46,8.49-3.69-3.18,10.98-15.69,22.5-26.81,13.06-11.57-10.81-10.06-34.69-3.34-47.73h0Z"/>
        <path class="cls-2" d="M629.6,510.38c-7.52-9.16-12.7-19.59-19.42-28.45-4.52-5.73-8.25-9.02-15.69-5.73-2.55,1.03-5.19,2.5-8.13,3.99,2.51-11.96,14.2-20.17,25.8-13.6,13.86,8.11,19.87,28.92,17.43,43.79h0Z"/>
      </g>
      <path class="cls-2" d="M610.03,493.39c1.59,5.17,2.47,9.98,3.5,14.52.9,3.88,1.85,8.38,3.68,11.54,1.86,3.76,5.98,3.25,9.92,2.65,2.13-.4,4.93-1.04,7.06-1.51,4.68-1.04,4.51-1.49,1.7,2.61-5.93,8.02-17.75,13.24-25.89,5.16-8.43-9.15-6.28-25.34.02-34.96h0Z"/>
    </g>
    <path class="cls-2" d="M592.44,460.69c-7.52-9.16-12.7-19.59-19.42-28.45-4.52-5.73-8.26-9.02-15.69-5.73-2.55,1.03-5.19,2.5-8.13,3.99,2.51-11.96,14.2-20.17,25.8-13.6,13.86,8.11,19.87,28.92,17.43,43.79h0Z"/>
  </g>
  <g>
    <g>
      <path class="cls-2" d="M369.06,444.53c-13.82,11.53-29.08,20.22-42.02,32.28-3.84,3.96-8.32,8.52-6.69,13.48,1.4,3.76,4.99,6.73,8.17,9.31,4,3.11,8.39,5.85,12.56,8.81-11.87-.03-28.61-4.04-32.64-17.35-2.54-9.18,3.1-17.89,9.25-23.83,13.28-12.51,33.37-20.81,51.35-22.69h0Z"/>
      <path class="cls-2" d="M321.76,563.11c9.56-14.95,21.31-28.47,29.26-43.67,5.71-11.39,6.77-19.96-4.51-28.1-3.4-2.54-7.33-4.76-11.42-7.15,4.8-.46,9.55-.06,14.25,1.21,11.59,3.09,19.27,12.76,18.15,25-2.18,22.52-26.19,44.34-45.74,52.71h0Z"/>
    </g>
    <g>
      <path class="cls-2" d="M330.71,529.54c-13.82,11.53-29.08,20.22-42.02,32.28-3.84,3.96-8.32,8.52-6.69,13.48,1.4,3.76,4.99,6.73,8.17,9.31,4,3.11,8.39,5.85,12.56,8.81-11.87-.03-28.61-4.04-32.64-17.35-2.54-9.18,3.1-17.89,9.25-23.83,13.28-12.51,33.37-20.81,51.35-22.69h0Z"/>
      <path class="cls-2" d="M283.41,648.12c9.56-14.95,21.31-28.47,29.26-43.67,5.71-11.39,6.77-19.96-4.51-28.1-3.4-2.54-7.33-4.76-11.42-7.14,4.8-.47,9.55-.06,14.25,1.21,11.59,3.09,19.27,12.76,18.15,25-2.18,22.52-26.19,44.35-45.74,52.71h0Z"/>
    </g>
  </g>
  <g>
    <g>
      <path class="cls-2" d="M463.95,323.75c-17.99.12-35.3-2.88-52.95-1.79-5.46.61-11.88,1.31-13.73,6.16-1.31,3.79-.42,8.37.39,12.38,1.11,4.95,2.76,9.85,4.1,14.79-9.14-7.57-19.52-21.3-14.16-34.14,3.87-8.7,13.76-11.84,22.3-12.52,18.2-1.21,38.99,5.15,54.07,15.13h0Z"/>
      <path class="cls-2" d="M352.06,385.22c16.88-5.46,34.55-8.43,50.35-15.11,11.64-5.16,17.92-11.11,14.38-24.56-1.01-4.12-2.64-8.34-4.28-12.78,4,2.69,7.41,6.03,10.24,9.99,6.98,9.76,6.76,22.1-1.88,30.83-16,16-48.4,17.59-68.81,11.62h0Z"/>
    </g>
    <g>
      <path class="cls-2" d="M380.32,364.99c-17.99.12-35.3-2.88-52.95-1.79-5.46.61-11.88,1.31-13.73,6.16-1.31,3.79-.42,8.37.39,12.38,1.11,4.95,2.76,9.85,4.1,14.79-9.14-7.57-19.52-21.3-14.16-34.14,3.87-8.7,13.76-11.84,22.3-12.52,18.2-1.21,38.99,5.15,54.07,15.13h0Z"/>
      <path class="cls-2" d="M268.42,426.47c16.88-5.46,34.55-8.43,50.35-15.11,11.64-5.16,17.92-11.11,14.38-24.56-1.01-4.12-2.64-8.34-4.28-12.78,4,2.69,7.41,6.03,10.24,9.99,6.98,9.76,6.76,22.1-1.88,30.83-16,16-48.4,17.59-68.81,11.62h0Z"/>
    </g>
  </g>
  <g>
    <g>
      <path class="cls-2" d="M263.44,402.34c-13.82,11.53-29.08,20.22-42.02,32.28-3.84,3.97-8.32,8.52-6.69,13.48,1.4,3.76,4.99,6.73,8.17,9.31,4,3.11,8.39,5.85,12.56,8.81-11.87-.03-28.61-4.04-32.64-17.35-2.54-9.18,3.1-17.89,9.25-23.83,13.28-12.51,33.37-20.81,51.35-22.69h0Z"/>
      <path class="cls-2" d="M216.14,520.92c9.56-14.95,21.31-28.47,29.26-43.67,5.71-11.39,6.77-19.96-4.51-28.1-3.4-2.54-7.33-4.76-11.42-7.15,4.8-.46,9.55-.06,14.25,1.21,11.59,3.09,19.27,12.76,18.15,25-2.18,22.52-26.19,44.34-45.74,52.71h0Z"/>
    </g>
    <g>
      <path class="cls-2" d="M225.09,487.34c-13.82,11.53-29.08,20.22-42.02,32.28-3.84,3.96-8.32,8.52-6.69,13.48,1.4,3.76,4.99,6.73,8.17,9.31,4,3.11,8.39,5.85,12.56,8.81-11.87-.03-28.61-4.04-32.64-17.35-2.54-9.18,3.1-17.89,9.25-23.83,13.28-12.51,33.37-20.81,51.35-22.69h0Z"/>
      <path class="cls-2" d="M177.79,605.93c9.56-14.95,21.31-28.47,29.26-43.67,5.71-11.39,6.77-19.96-4.51-28.1-3.4-2.54-7.33-4.76-11.42-7.15,4.8-.46,9.55-.06,14.25,1.21,11.59,3.09,19.27,12.76,18.15,25-2.18,22.52-26.19,44.34-45.74,52.71h0Z"/>
    </g>
  </g>
</svg>