<?xml version="1.0" encoding="UTF-8"?>
<svg id="Layer_2" data-name="Layer 2" xmlns="http://www.w3.org/2000/svg" viewBox="0 0 1358.87 2889.66">
  <g id="Layer_1-2" data-name="Layer 1">
    <path d="M898.03,612.07c-2.75,27.78-4.59,53.27-17.22,80.86l-57.04-63.27c-7.71,17.72.04,33.2-6.19,52.96l-133.78-1.97c-15.16-65.41-37.82-120.86-57.71-179.39-7.43,56.95-2.37,107.19-18.36,163.91-23.46-76.07-24.36-142.26-59.83-210.45-17.83,48.29-56.72,84.56-85.9,130.07-118.14,184.21-179.87,155.39-149.6,274.34,19.41,76.31,36.02,149.77,89.33,211.13l104.78,120.6c52.31,60.21,37.79,237.01,8.28,263.34l-74.76,66.71c-22.72,20.28-12.27,73.26-10.09,104.84,5.88,85.28,4.87,164.96.03,250.26-15.07,265.21,37.8,508.96,16.66,798.38-4.44,60.8-14.64,117.23-51.13,168.64l-15.17-52.84c-11.54,41.07-34.05,54.28-70.57,52.04-25.76-1.58-56.69,9.74-78.94-8.46-31.5-25.77-39.06-66.84-49.83-103.2l-9.88,109.81c-66.22-137.23-127.11-275.67-150.19-427.15C9.58,2338.9-.81,2265.96.05,2188.99c2.97-265.08,28.35-524.13,68.74-785.31l34.88-225.51,23.93-188.34,45.95-328.4,32.3-173.01c15.27-81.79,51.4-154.31,82.48-229.8,32.74-79.52,85.9-137.8,151.24-191.36C524.91-2.68,629.63-11.91,734.6,11.6c52.9,11.85,114.11-1.74,164.19,27.58,134.18,78.54,197,158.73,263.72,297.65,46.66,97.15,76.35,193.84,100.81,298.48,63.55,271.84,123.19,576.32,81.88,853.89-10.67,71.69-36.72,135.69-51.44,206.34-29.26,140.42-45.86,278.77-57.93,422.16-14.59,173.26,4,385.22-5.67,573.91-3.43,66.85-54.09,194.44-87.85,198.03-4.84.51-12.18-6.88-9.7-16.01,16.1-59.34-5.94-225.85-22.16-265.96-8.91,71.49-.49,129.87,9.14,193.74-26.63,4.65-45.17-9.69-66.38-7.18-94.16,11.16-131.46-63.12-152.99-134.43l-6.52,65.92c-69.59-66.96-58.04-286.39-55.58-386.63,9.4-382.89,95.22-464.73,131.65-681.53l11.88-70.7c-72.02-72.72-127.33-139.23-141.37-243.46-21.91-162.68,50.98-159.22,131.54-271.87,34.24-47.88,55.87-99.92,53.03-161.66-2.94-63.78,2.15-130.19-7.69-189.75-10.24-27.84-62.8-13.2-77.11-26.43-17.96-20.97-15.59-63.42-42.02-81.61Z"/>
  </g>
</svg>