<?xml version="1.0" encoding="UTF-8"?>
<svg id="Hair" xmlns="http://www.w3.org/2000/svg" xmlns:xlink="http://www.w3.org/1999/xlink" viewBox="0 0 1080 1305.21">
  <defs>
    <style>
      .cls-1 {
        fill: #603913;
      }

      .cls-2 {
        fill: #764617;
      }

      .cls-3 {
        fill: #59320c;
      }

      .cls-4 {
        clip-path: url(#clippath);
      }
    </style>
    <clipPath id="clippath">
      <path class="cls-1" d="M540,10.09c0,80.65-136.7,218.44-240.57,279.17-103.86,60.74-81.89,315.03-81.89,315.03,0,0,65.72-200,322.46-200s322.46,200,322.46,200c0,0,21.97-254.29-81.89-315.03-103.86-60.74-240.57-198.52-240.57-279.17Z"/>
    </clipPath>
  </defs>
  <g>
    <path class="cls-1" d="M540,10.09c0,80.65-136.7,218.44-240.57,279.17-103.86,60.74-81.89,315.03-81.89,315.03,0,0,65.72-200,322.46-200s322.46,200,322.46,200c0,0,21.97-254.29-81.89-315.03-103.86-60.74-240.57-198.52-240.57-279.17Z"/>
    <g class="cls-4">
      <path class="cls-2" d="M528.6-7.89s-19.05,100.92-71.57,147.78c0,0,43.25-15.45,49.43-27.29s-2.57,31.92-22.66,48.92,32.44-2.06,35.01-11.84c2.57-9.78,10.28,35.69-1.03,62.82,0,0,20.74-20.6,22.21-50.97,1.47-30.38,6.62-42.22,36.48,12.36,0,0-13.9-21.63-13.9-60.24,0,0,33.98,70.54,66.42,70.54,0,0-81.87-135.16-78.26-187.42l-22.14-4.63Z"/>
      <path class="cls-2" d="M240.92,463.58c.17.27.36-71.48,14.21-106.13,14.51-33.46,10.88,125.64,25.85,86.28,14.97-40.04,48.06-165.24,54.15-141.47,5.88,21.94,36.24,97.15,55.51,44.69,9.65-26.92,24.55-42.79,36.87-44.08,12.49-1.59,22.39,11.39,25.9,35.02,7.14,47.33-6.75,82.2-13.97,47.42-6.71-35.67-23.41-60.02-22.26-16.83.95,21.59-18.44,20.87-39.75,21.04-21.09-1.06-44.12-1.23-45.34-7.08-3.28-12.86-32.27,35.26-40.98,76.26-4.48,19.77-18.48,18.47-29.78,14.99-11.55-3.92-20.41-10.02-20.39-10.12Z"/>
      <path class="cls-2" d="M825.83,463.58c-.17.27-.36-71.48-14.21-106.13-14.51-33.46-10.88,125.64-25.85,86.28-14.97-40.04-48.06-165.24-54.15-141.47-5.88,21.94-36.24,97.15-55.51,44.69-9.65-26.92-24.55-42.79-36.87-44.08-12.49-1.59-22.39,11.39-25.9,35.02-7.14,47.33,6.75,82.2,13.97,47.42,6.71-35.67,23.41-60.02,22.26-16.83-.95,21.59,18.44,20.87,39.75,21.04,21.09-1.06,44.12-1.23,45.34-7.08,3.28-12.86,32.27,35.26,40.98,76.26,4.48,19.77,18.48,18.47,29.78,14.99,11.55-3.92,20.41-10.02,20.39-10.12Z"/>
    </g>
  </g>
  <path class="cls-3" d="M371.61,263.6s66.15-50.8,89.78-84.46c0,0-12.84,32.49-31.82,53.16,0,0,46.59-21.85,51.9-40.76,0,0-11.81,44.89-48.43,79.74,0,0,18.3-25.87,18.31-38.39,0,0-45.48,22.45-79.74,30.71Z"/>
  <path class="cls-3" d="M689.39,263.6s-66.15-50.8-89.78-84.46c0,0,12.84,32.49,31.82,53.16,0,0-46.59-21.85-51.9-40.76,0,0,11.81,44.89,48.43,79.74,0,0-18.3-25.87-18.31-38.39,0,0,45.48,22.45,79.74,30.71Z"/>
</svg>