<?xml version="1.0" encoding="UTF-8"?>
<svg id="Layer_2" data-name="Layer 2" xmlns="http://www.w3.org/2000/svg" viewBox="0 0 2155.78 1947.57">
  <g id="Layer_1-2" data-name="Layer 1">
    <path d="M1337.49,724.61c29.47-90.11-60.43-28.01-82.7-88.26-18.3-49.5,72.48-95.45,1.11-103.08-43.83-4.69-70.54-40.56-59.23-81.48,5.03-18.19,14.23-33.34,18.38-52.53-37.08-1.43-72.32-.98-109.06-7.22-10.1-1.71-18.66-14.75-30.42-11.17-22.8,6.94-44.4,17.23-69.5,15.24-25.35-2-53.17-10-75.75,3.23,25.78,29.86,50.64,63.77,33.24,98.25-19.97,39.56-88.28,46.09-100.26,67.29-18.19,32.19,31.8,20.25,38.44,52.04,3.02,14.44-5.11,24.68-16.09,35.95-15.38,15.79-41.48,5.36-57.44,14.22-21.56,11.96.51,33.82,14.23,50.21-39.45,6.58-63.15-31.43-61.18-66.72-134.11,56.18,34.73,91.74-58.77,173.43-34.33,29.99-19.57,65.05,4.04,91.47,23.58,26.4-.23,64.62,3.85,93.1,15.99,111.55,77.64,213.36,164.46,287.14-2.87,43.03,7.22,153.24-19.8,179.45-14.37,13.93-27.5,25.37-26.21,44.04,3.98,57.53,62.24,39.38,49.76,98.7-11.5,54.71-76.41,17.85-82.61,55.95-5.06,31.07,46.22,21.25,30.87,62.33-9.19,24.58-43.76,22.38-54.49,31.08-16.7,13.55,34.24,42.1,30.35,64.89-5.16,30.24-35.71,51.75-61.24,63.23,8.55-19.74,27.28-46.3,6.19-52.24-11.37-3.21-26.81,8.11-35.66.25-36.81-32.71-.91-69.03-25.76-70.01-8.83-.35-25.54-1.67-31.09,10.55-8.41,18.5,29.35,43.97,32.38,52.92,12.82,37.83-55.56,31-61.97,110.73-18.87-1.77-25.55-20.05-30.61-30.69-8.24-17.33,10.4-30.67,16.25-44.4,9.61-22.57-24.02-27.31-39.11-34.25-46.01-21.15,32.66-91.48,6.72-104.97l-38.36,54.9c-74.38-37.29-7.09,76.28-91.41,92.86,7.32-24.5,19.12-49.24,1.18-67.56-8.66-8.84-26.08-2.42-36.51-8.44-12.71-16.82-12.28-35.98-18.5-59.63-31.17,20.66-23.22,51.98-3.03,81.84-24.93-4.73-49.18-16.19-59.53-36.03-13.7-26.28,44.45-75.4,19.74-90.3-19.56-11.79-52.49-4.17-69.36-24.35-38.99-46.65,63.46-92.85,15.99-128.92-39.27,93.22-62.64,32.36-68.39,130.34-11.49,9.5-39.99-9.73-46.06-22.61-8.61-18.28.81-46.25,23.5-56.98,13.74-6.5,31.01-36.74,14.96-43.62-22.39-9.59-50.59,3.55-68.26-13.89-11.77-11.61-4.24-32.97-24.75-41.34-13.89,20.65.86,37.63-7.78,57.01-24.91-8.02-31.57-31.27-27.17-52.52,9.84-47.57,58.02-62.75,51.89-93.69-7.72-38.95-87.98-24.66-63.22-111.53-40.27,7.26-28.54,39.4-31.39,72.12-34.37-17.69-48.21-66.62-18.89-92.44,10.95-9.64,24.59-14.58,26.31-25.35,5.25-32.84-58.62-85.12-11.86-115.31,14.17-9.15,30.96-12.15,35.83-24.14,6.4-15.78,8.71-30.98-1.69-45.39-12.12,29.86-23.31,50.95-52.58,48.31C26.29,1114.51-.22,1099.35,0,1072.07c18.62-4.44,35.5,15.2,51.1,8.15,35.44-16-43.38-82.88-12.72-113.88,14.5-14.66,32.36-21.74,33.44-47.45.89-21.14,13.63-39.84,30.47-54.83-51.57-18.8-47.57,45.76-65.56,48.9-10.79-34.04-2.59-77.46,25.78-102.89,11.7-10.5,35.33-4.36,45.48-15.38,28.73-31.17-49.31-115.13,50.99-178.06,84.37-52.94-18.58-114.08,52.69-172.75,29.77-24.51,72.89,11.18,92.13-15.69,21.14-29.53-23.42-67.24,14.42-113.4,27.25-33.24,93.22-14.21,113.59-34.4,18.54-18.38-8.1-68.78,18.12-98.14,30.24-33.87,88.18-16.96,135.88-22.92,41.95-5.25,48.17-74.55,73.65-96.94,32.42-28.49,79.21-20.93,114.87-2,11.91,6.32,25.81,2.84,33.78,1.83,16.31-2.07,14.19-21.68,22.46-30.55,72.05-77.33,201.7,3.24,246.33,69.11,23.98-24.21,45.06-60.99,78.37-72.07,39.41-13.12,90.86.73,126.39,16.43,17.91,7.92,25.93,28.07,47.79,24.1,35.41-6.45,74.76-35.82,112.9-26.26,36.86,9.24,60.39,52.48,78.75,80.81,63.11,97.43,175.75-12.79,203.27,128.19,10.88,55.74,82.08,5.02,125.92,68.7,46.54,67.61-42.77,133.12,54.54,126.1,43.06-3.11,70.71,35.31,64.73,74.96-2.05,13.59-6.64,34.69,9.21,38.81,9.82.82,11.31-16.99,15.28-26.26,16.9,1.13,24.72,17.4,28.19,31.06,4.17,16.41-9.51,28.27-25.92,39.01,15,12.89,32.13,15.46,40.56,28.43,52.64,81.02-30.68,125.44,2.67,168.43,21.24,27.39,70.24,12.56,80.01,42.94,7.21,22.42,5.37,49.26-5.78,70.08-18.93-24.62-19.55-56.91-59.43-60.26,5.77,24.05,23.43,42.69,39.43,60.95,51.3,58.59-3.55,89.9-4.84,130.69-.88,27.58,58.74,16.95,65.8,31.84,6.43,13.59-15.76,43.72-61.02,39.35-21.18-2.04-34.46-20.34-54.24-34.56,2.6,32.62,40.3,36.58,56.84,56.07,29.45,34.7,2.77,79.34-33.92,96.61-24.02,26.05,64.69,23.76,57.02,82.19-2.07,15.8-21.06,40.52-45.98,37.98,3.53-10.44,13.56-14.59,13.89-23.09.45-11.46-6.87-18.36-15.85-28.23-10.67-11.73-43.76-22.92-44.1-1.66-.27,16.59,21.02,30.53,15.34,47.66-15.1,45.49-51.7,36.95-51.44,66.3.31,35.29,90.83,50.93,56.09,120.65-3.92,7.88-13.43,14.94-24.9,13.53,0-17.29,7.15-30.5,2.01-47.33-2.52-8.26-14.54-7.74-21.52-6.05-16.91,4.09-3.95,44.78-85.67,64.04-5.74,28.53,47.57,34.49,57.01,53.1,6.29,12.38,6.47,28.02-.8,39.76-11.88,19.2-31.61,36.08-56.82,36.46,13.25-96.49-51.24-37.4-66.23-129.7-57.87,30.07,24.52,51.18,3.97,103.75-15.47,39.59-62.53,34.85-71.56,68.93-3.46,13.05,10.25,22.12,18.73,34.63,11.04,16.28,2.24,34.84-11.71,47.6-9.7,8.87-25.4,21.7-48.47,15.36,12.34-14.92,28.03-32.91,18.44-53.2-6.92-14.66-33.84-17.92-45.82-13.75.79,24.69,7.65,49.23-11.86,60.35-10.76,6.13-24.35,8.51-27.89,18.65-4.13,11.83,5.11,23.27,17.07,34.51-28.79,24.48-60.49-23.82-78.1-47.81-11.91,7.25-7.64,22.06-23.88,26.38l17.64-70.8-53.76-47.63c-26.02,32.6,25.04,27.16,19.67,77.72-1.99,18.8-31.81,25.12-45.35,41.81-14.6,18,16.69,29.85,11.03,61.3-1.73,9.6-8.36,21.94-26.9,24.26-20.69-73.27-50.62-47.26-54.38-94.3-1.37-17.08,40.45-24.77,26.66-56.66-4.28-9.89-15.76-19.71-34.04-17.55,18.62,84.5-89.9,45.17-39.03,106.71-8.57,11.32-56.79-11.79-60.37-27.03-6.56-27.92,34.68-21.98,34.6-50.94-.12-41.87-54.83-23.37-69.82-56.35-5.18-11.39-13.5-29.92,1.31-42.78,9.42-8.18,21.06-13.74,22.26-23.9,1.56-13.18-.2-28.46-16.6-34.42-14.37-5.23-35.73-6.29-41.31-23.43-5.37-16.48-12.59-47.75-.93-61.54,11.69-13.82,33.1-16.24,35.16-30.61,2.72-18.91,6.8-35.67-10.45-48.75-8.56-6.5-31.99-10.99-33.36-24.11-4.9-47.06-2.29-93.84-1.2-140.84.71-30.54,17.74-52.86,38.52-71.46,51-45.65,72.89-104.44,103.27-162.12,17.46-33.15,47.49-70.82,25.88-108.19-9.3-16.09-22.36-29.26-20.83-48.78,3.16-40.2,51.09-40.69,46.53-71.08-4.13-27.58-84.06-49.72-52.76-101.34,11.87-19.58,27.38-35.23,22.17-59.31-7.79-36.02-59.97-58.76-66.75-75.69-16.13-40.28,46.63-87.98-17.82-106.42,26.97,62.65-28.98,78.75-32.39,104.08-3.99,29.57,51.69-1.89,56.16,58.71,1.7,23.12-7.94,56.67-34.68,50.16Z"/>
  </g>
</svg>