<?xml version="1.0" encoding="UTF-8"?>
<svg id="Hair" xmlns="http://www.w3.org/2000/svg" viewBox="0 0 1080 1305.21">
  <defs>
    <style>
      .cls-1 {
        fill: #603913;
      }

      .cls-2 {
        fill: #764617;
      }

      .cls-3 {
        fill: #59320c;
      }
    </style>
  </defs>
  <path class="cls-1" d="M616.11,245.43c3.98-9.66,6.19-20.24,6.19-31.33,0-45.46-36.85-82.3-82.3-82.3-26.35,0-49.78,12.39-64.85,31.66-20.07-11.74-44.95-14.97-68.63-6.73-24.89,8.66-42.95,28.06-50.85,51.2-22.81-4.5-47.37.63-67.03,16.18-20.66,16.35-31.35,40.61-31.21,65.07-23.02,3.25-44.53,16.15-57.99,37.31-14.14,22.23-16.26,48.66-8.1,71.71-20.68,10.63-36.76,29.89-42.52,54.29-6.05,25.64.62,51.3,15.91,70.39-16.04,16.83-24.9,40.3-22.32,65.24,4.67,45.22,66.78,105.46,86.52,64.52,13.21-27.4,22.08-33.2,20.53-66.22.75-1.5,1.54-3.04,2.39-4.61,17.36-.03,34.84-5.51,49.71-16.84,15.92-12.14,28.51-35.3,33.76-57.03,22.67,18.27,62.39,14.97,94.53-9.54,8.2-6.25,15.97-14.83,22.61-24.25,1.15-.12,2.29-.24,3.45-.35,19.75,14.12,50.81,13.26,78.93-2.35,82.3-1.08,145.17-38.76,153.79-104.03,6.35-48.15-23.54-98.47-72.52-121.94Z"/>
  <path class="cls-1" d="M463.89,245.43c-3.98-9.66-6.19-20.24-6.19-31.33,0-45.46,36.85-82.3,82.3-82.3,26.35,0,49.78,12.39,64.85,31.66,20.07-11.74,44.95-14.97,68.63-6.73,24.89,8.66,42.95,28.06,50.85,51.2,22.81-4.5,47.37.63,67.03,16.18,20.66,16.35,31.35,40.61,31.21,65.07,23.02,3.25,44.53,16.15,57.99,37.31,14.14,22.23,16.26,48.66,8.1,71.71,20.68,10.63,36.76,29.89,42.52,54.29,6.05,25.64-.62,51.3-15.91,70.39,16.04,16.83,24.9,40.3,22.32,65.24-4.67,45.22-66.78,105.46-86.52,64.52-13.21-27.4-22.08-33.2-20.53-66.22-.75-1.5-1.54-3.04-2.39-4.61-17.36-.03-34.84-5.51-49.71-16.84-15.92-12.14-28.51-35.3-33.76-57.03-22.67,18.27-62.39,14.97-94.53-9.54-8.2-6.25-15.97-14.83-22.61-24.25-1.15-.12-2.29-.24-3.45-.35-19.75,14.12-50.81,13.26-78.93-2.35-82.3-1.08-145.17-38.76-153.79-104.03-6.35-48.15,23.54-98.47,72.52-121.94Z"/>
  <path class="cls-2" d="M360.37,229.84c0,5.77-12.19,2.69-25.77,2.69s-45.66,22.04-45.66,16.27,18.98-29.41,32.57-29.41,38.87,4.68,38.87,10.44Z"/>
  <path class="cls-2" d="M453.89,165.89c0,4.47-9.44,2.09-19.96,2.09s-35.35,17.07-35.35,12.6,14.7-22.78,25.22-22.78,30.1,3.62,30.1,8.09Z"/>
  <path class="cls-2" d="M457.49,450.33c1.38-4.25,9.62.94,19.62,4.2,10,3.26,38.9-5.28,37.52-1.03-1.38,4.25-21.03,17.1-31.03,13.84-10-3.26-27.49-12.76-26.11-17.01Z"/>
  <path class="cls-2" d="M563.13,459.9c1.38-4.25,9.62.94,19.62,4.2,10,3.26,38.9-5.28,37.52-1.03-1.38,4.25-21.03,17.1-31.03,13.84-10-3.26-27.49-12.76-26.11-17.01Z"/>
  <path class="cls-2" d="M334,487.03c1.55-6.06,14.64.72,30.15,4.68s58.03-9.85,56.49-3.78c-1.55,6.06-29.56,25.37-45.07,21.41s-43.11-16.25-41.56-22.31Z"/>
  <path class="cls-2" d="M318.99,514.49c-4.94-3.83-11.11,9.55-20.93,22.2-9.81,12.65-51.86,27.84-46.92,31.67s38.91,1.89,48.72-10.76c9.81-12.65,24.07-39.28,19.13-43.12Z"/>
  <path class="cls-2" d="M575.72,153.06c0,5.77-12.19,2.69-25.77,2.69s-45.66,22.04-45.66,16.27,18.98-29.41,32.57-29.41,38.87,4.68,38.87,10.44Z"/>
  <path class="cls-3" d="M870.39,544.91c-3.48,1.06-4.06-7.49-6.78-16.4-2.72-8.91-22.42-25.88-18.94-26.94,3.48-1.06,21.54,7.03,24.25,15.94,2.72,8.91,4.95,26.34,1.47,27.4Z"/>
  <path class="cls-3" d="M629.42,398.45c-1.65,3.24-8.22-2.27-16.52-6.49-8.3-4.22-34.19-1.78-32.54-5.03,1.65-3.24,20-10.65,28.3-6.43,8.3,4.22,22.41,14.7,20.76,17.94Z"/>
  <path class="cls-3" d="M233.11,573.65c-1.65,3.24-8.22-2.27-16.52-6.49-8.3-4.22-34.19-1.78-32.54-5.03s20-10.65,28.3-6.43c8.3,4.22,22.41,14.7,20.76,17.94Z"/>
  <path class="cls-3" d="M777.85,437.4c-3.49-1.01.69-8.5,3.28-17.44,2.59-8.94-4.65-33.92-1.15-32.91,3.49,1.01,14.2,17.66,11.61,26.6s-10.24,24.76-13.74,23.75Z"/>
  <path class="cls-3" d="M718.92,259.24c3.1-1.9,5.82,6.23,10.69,14.17s28.21,19.4,25.11,21.3-22.62-1.39-27.48-9.32c-4.87-7.94-11.41-24.25-8.31-26.15Z"/>
  <path class="cls-3" d="M610.2,284.34c-4.39.67-3.6-9.77-5.33-21-1.73-11.24-22.58-35.18-18.19-35.86,4.39-.67,24.8,12.26,26.53,23.49,1.73,11.24,1.38,32.69-3.01,33.37Z"/>
  <path class="cls-3" d="M503.66,350.08c-5.35,3.76,4.9,12.29,13.14,24.04,8.25,11.75,7.26,53.83,12.61,50.08,5.35-3.76,15.77-35.57,7.53-47.31-8.25-11.75-27.93-30.56-33.28-26.8Z"/>
  <path class="cls-3" d="M425.9,338.59c-4.02,1.9-6.23-8.34-11.08-18.62s-31.66-27.31-27.64-29.2,27.27,4.7,32.12,14.98c4.85,10.28,10.62,30.95,6.6,32.85Z"/>
  <path class="cls-3" d="M252.56,337.65c3.96,5.2,12.09-5.38,23.51-14.08s53.51-9.37,49.54-14.57-36.16-14.36-47.57-5.66c-11.41,8.7-29.44,29.11-25.47,34.31Z"/>
  <path class="cls-3" d="M453.24,344.22c3.96,5.2,12.09-5.38,23.51-14.08,11.41-8.7,53.51-9.37,49.54-14.57s-36.16-14.36-47.57-5.66c-11.41,8.7-29.44,29.11-25.47,34.31Z"/>
  <path class="cls-3" d="M283.51,482.26c-4.02,1.9-6.23-8.34-11.08-18.62-4.85-10.28-31.66-27.31-27.64-29.2,4.02-1.9,27.27,4.7,32.12,14.98,4.85,10.28,10.62,30.95,6.6,32.85Z"/>
  <path class="cls-3" d="M309.15,390.53c-4.06,5.12,8.19,10.39,19.44,19.31,11.25,8.92,22.27,49.55,26.33,44.42,4.06-5.12,5.01-38.58-6.24-47.5-11.25-8.92-35.46-21.36-39.53-16.23Z"/>
  <path class="cls-3" d="M671.39,350.16c-6.46,1-1.04,13.19,1.16,27.38,2.2,14.18-17.3,51.49-10.84,50.49s29.88-24.92,27.67-39.11c-2.2-14.18-11.53-39.76-17.99-38.76Z"/>
  <g>
    <path class="cls-2" d="M222.05,504.38c3.48,1.06,4.06-7.49,6.78-16.4,2.72-8.91,22.42-25.88,18.94-26.94-3.48-1.06-21.54,7.03-24.25,15.94-2.72,8.91-4.95,26.34-1.47,27.4Z"/>
    <path class="cls-2" d="M447.02,388.14c1.65,3.24,8.22-2.27,16.52-6.49,8.3-4.22,34.19-1.78,32.54-5.03-1.65-3.24-20-10.65-28.3-6.43-8.3,4.22-22.41,14.7-20.76,17.94Z"/>
    <path class="cls-2" d="M299,378.98c3.49-1.01-.69-8.5-3.28-17.44-2.59-8.94,4.65-33.92,1.15-32.91s-14.2,17.66-11.61,26.6,10.24,24.76,13.74,23.75Z"/>
    <path class="cls-2" d="M393.26,248.37c-3.1-1.9-5.82,6.23-10.69,14.17-4.87,7.94-28.21,19.4-25.11,21.3,3.1,1.9,22.62-1.39,27.48-9.32,4.87-7.94,11.41-24.25,8.31-26.15Z"/>
    <path class="cls-2" d="M461.45,294.96c4.39.67,3.6-9.77,5.33-21,1.73-11.24,22.58-35.18,18.19-35.86s-24.8,12.26-26.53,23.49-1.38,32.69,3.01,33.37Z"/>
    <path class="cls-2" d="M590.2,350.08c5.35,3.76-4.9,12.29-13.14,24.04-8.25,11.75-7.26,53.83-12.61,50.08-5.35-3.76-15.77-35.57-7.53-47.31,8.25-11.75,27.93-30.56,33.28-26.8Z"/>
    <path class="cls-2" d="M640.69,301.06c4.02,1.9,6.23-8.34,11.08-18.62,4.85-10.28,31.66-27.31,27.64-29.2s-27.27,4.7-32.12,14.98c-4.85,10.28-10.62,30.95-6.6,32.85Z"/>
    <path class="cls-2" d="M791.43,358.96c-3.96,5.2-12.09-5.38-23.51-14.08-11.41-8.7-53.51-9.37-49.54-14.57,3.96-5.2,36.16-14.36,47.57-5.66,11.41,8.7,29.44,29.11,25.47,34.31Z"/>
    <path class="cls-2" d="M604.36,313.25c-3.96,5.2-12.09-5.38-23.51-14.08-11.41-8.7-53.51-9.37-49.54-14.57,3.96-5.2,36.16-14.36,47.57-5.66,11.41,8.7,29.44,29.11,25.47,34.31Z"/>
    <path class="cls-2" d="M798.2,509.1c4.02,1.9,6.23-8.34,11.08-18.62,4.85-10.28,31.66-27.31,27.64-29.2-4.02-1.9-27.27,4.7-32.12,14.98-4.85,10.28-10.62,30.95-6.6,32.85Z"/>
    <path class="cls-2" d="M748.45,390.53c4.06,5.12-8.19,10.39-19.44,19.31-11.25,8.92-22.27,49.55-26.33,44.42-4.06-5.12-5.01-38.58,6.24-47.5,11.25-8.92,35.46-21.36,39.53-16.23Z"/>
    <path class="cls-2" d="M386.21,350.16c6.46,1,1.04,13.19-1.16,27.38-2.2,14.18,17.3,51.49,10.84,50.49-6.46-1-29.88-24.92-27.67-39.11,2.2-14.18,11.53-39.76,17.99-38.76Z"/>
  </g>
  <path class="cls-2" d="M689.75,179.67c0,7.48-15.8,3.49-33.41,3.49s-59.19,28.57-59.19,21.1,24.6-38.13,42.22-38.13,50.38,6.06,50.38,13.54Z"/>
  <path class="cls-2" d="M782.8,227.3c0,4.36-9.22,2.04-19.49,2.04s-34.52,16.67-34.52,12.3,14.35-22.24,24.62-22.24,29.39,3.54,29.39,7.9Z"/>
  <path class="cls-2" d="M861.7,353.53c-7.25,2.14-6.16-8.4-9.25-18.88-3.09-10.48-38.09-27.05-30.84-29.19,7.25-2.14,41.3,3.74,44.39,14.22,3.09,10.48,2.96,31.71-4.3,33.85Z"/>
  <path class="cls-2" d="M910.12,481.22c-8.26,2.44-7.02-9.58-10.54-21.52-3.52-11.94-43.41-30.83-35.14-33.26,8.26-2.44,47.06,4.26,50.58,16.21,3.52,11.94,3.37,36.14-4.9,38.57Z"/>
  <path class="cls-2" d="M659.85,473.15c2.49-2.77,9.48,6.16,18.74,14.48s40.65,17.34,38.16,20.11c-2.49,2.77-25.64,2.53-34.9-5.78-9.27-8.31-24.49-26.03-22-28.81Z"/>
  <path class="cls-2" d="M768.46,524.14c2.49-2.77,9.48,6.16,18.74,14.48s40.65,17.34,38.16,20.11c-2.49,2.77-25.64,2.53-34.9-5.78-9.27-8.31-24.49-26.03-22-28.81Z"/>
  <path class="cls-2" d="M866.08,635.37c-6.91-7.81,6.72-12.45,17.8-22.26,11.08-9.81,10.85-62.79,17.76-54.99s19.74,53.51,8.66,63.32-37.31,21.74-44.22,13.93Z"/>
  <path class="cls-2" d="M232.92,313.83c4.78,3.23-4.6,11.6-12.22,22.85s-7.36,50.16-12.13,46.93c-4.78-3.23-13.71-32.21-6.09-43.46,7.62-11.25,25.67-29.55,30.44-26.32Z"/>
  <path class="cls-2" d="M190.01,414.19c4.78,3.23-4.6,11.6-12.22,22.85-7.62,11.25-7.36,50.16-12.13,46.93s-13.71-32.21-6.09-43.46c7.62-11.25,25.67-29.55,30.44-26.32Z"/>
  <path class="cls-2" d="M159.29,554.45c3.88-.47,3.76,15.82,5.93,33.7,2.17,17.88,22.14,58.28,18.25,58.76-3.88.47-22.84-22.57-25.01-40.45-2.17-17.88-3.06-51.53.82-52Z"/>
</svg>