<?xml version="1.0" encoding="UTF-8"?>
<svg id="Layer_2" data-name="Layer 2" xmlns="http://www.w3.org/2000/svg" viewBox="0 0 1098.4 1831.43">
  <defs>
    <style>
      .cls-1 {
        fill: #603813;
      }

      .cls-1, .cls-2 {
        stroke: #42210b;
        stroke-miterlimit: 10;
        stroke-width: 2px;
      }

      .cls-2 {
        fill: #764617;
      }
    </style>
  </defs>
  <g id="Layer_1-2" data-name="Layer 1">
    <g>
      <path class="cls-2" d="M123.41,1145.06c-3.61-46.54,23.27-54.26-19.2-148.39-14.96,27.69-10.99,55.28-17.3,84.57-21.97,101.97,22.64,230.37,102.45,315.19l-34.02-91.95c-19.56-52.86-27.75-105.64-31.92-159.43Z"/>
      <path class="cls-2" d="M741.9,209.18c17.84-18.62,49.29-19.38,66.75-30.47,21.45-27.9-71.94-83.83-104.93-101.34,23.24,42.44,34.81,80.76,38.17,131.81Z"/>
      <path class="cls-1" d="M86.94,627.68c-15.98,75.45-21.96,151.9-9.47,228.13,3.92,23.94,18.97,44.08,24.89,68.93,19.36-9.88,18.04-21.63,19.61-36.15,12.98-119.99,59.22-237.41,155.83-333.22,64.09-63.55,165.3-96.7,263.51-105.39,62.68-5.55,122.97-5.48,180.99,9.57,69.64,18.06,123.52,46.46,162.58,94.74,16.54,20.44,43.05,36.37,49.57,61.2l27.76,105.74c21.15,80.55,49.66,155.76,61.2,240.29,28.74-39.11,18.64-78.83,29.69-117.09,8.21-28.44-1.96-53.85-1.58-82.56,2-153.9-74.65-299.43-226.69-397.43,40.21-35.67,52.57-127.73,42.49-173.63-21.76-99.08-169.12-133.07-138.54-111.24,31.87,22.75,117.96,67.33,88.86,107.54-85.63,18.52-70.43,45.39-104.66,98.78-16.68-15.1,3.71-29.1,7.56-44.52,22.51-90.21-27.15-202.24-137.83-229.24-69.18-16.87-167.22,44.13-195.03,93.94,69.12-25.26,93.1-60.77,151.02-18.2,30.72,22.58,50.76,46.41,62.31,78.52,2.84,7.91,38.5,56.91,21.6,63.41-15.12,5.81-25.1-41.45-28.8-47.63-13.54-22.66-36.1-42.79-59.18-58.55-27.7-18.92-56.72-25.14-93.23-22.21-30.6,2.46-46.62,25.02-71.11,38.23-75.83,40.88-92.53,135.75-51.14,203.65,5.02,8.23,5.72,16.74,17.32,20.58,10.66,3.53,18.37-4.35,29.87-6.12l58.04-8.97,102.54-2.38,102.09-10.01c32.72-3.21,170.25-8.92,187.79,27.33-72.5-41.74-228.85-10.93-299.89-9.73-85.11,1.44-161.03,9.3-235.72,44.54-24.91,11.75-51.76,18.98-74.31,43-.02-.36,0-.71-.01-1.07-51.21,36.96-108.86,134.98-119.92,187.2Z"/>
      <path class="cls-1" d="M783.51,1500.96l28.92,127.08c12.12,53.25-88.78,103.22-67.44,151.36,9.77-15.95,21.83-29.44,42.35-41.35,51.19-36.75,99.17-57.34,67.62-115.01-33.62-61.45-59.01-134.2-26.83-198.6,6.68-13.37,13.27-27.47,5.5-43.77-39.8,32.19-60.47,74.84-50.12,120.29Z"/>
      <path class="cls-1" d="M211.68,1189.19c-23.24-32.93-51.14-61.16-68.79-95.77-12.6,52.58.97,98.66,10.33,148.53,13.74,73.24,39.67,140.29,93.95,204.5,19.54-43.38,31.66-89.08,22.14-139.4-19.53-41.12-32.03-81.6-57.63-117.86Z"/>
      <path class="cls-2" d="M949.56,732.71l-31.97-116.06c-6.37-23.13-33.66-38.42-49.12-57.53-32.33-39.96-76.3-64.87-131.23-81.55-88.57-26.9-227.23-29.99-313.86,5.4-54.36,22.2-108.18,47.69-144.05,88.02-83.34,93.7-130.69,199.9-140.65,313.76-2.88,33-17.28,63.84-15.68,96.05,3.67,74.3,51.95,136.47,99.28,198,29.66,38.56,43.27,83.34,60.1,125.82,10.69,26.97-3.69,52.74,4.7,82.6,11.03-15.27,29.63-34.61,26.24-55.6-22.63-140.03-80.31-159.46-115.88-266.9-31.72-95.82-26.45-140.02,32.5-226.76,10.25,8.21,6.75,16.89,13.43,18.78-2.19-.62,53.08,7.62,59.85-3.21,11.26-18.03,9.86-39.48,33.41-52.95,16.71,13.37-9.11,59.69,23.1,57.54,35.97-2.4,67.03,1.33,105.77,5.69-9.94-16.39-9.67-32.6,10.5-38.61,17.24,7.62,17.45,27.91,34.97,34.21,19.31,6.94,45.55-1.4,65.86,1.68-9.05-39.9-17.66-73.02,10.66-105.97,13.84,20.72-10.72,101.64,27.39,106.21,9.53,1.14,32.24,4.66,37.92-5.27,17.37-30.37,13.36-63.25,17.7-96.17,34.04,4.05-11.77,67.4,19.43,103.28,10.45,12.02,38.02-2.4,52.6-.47,65.4,8.65,127.77,2.19,189.51-15.39,20.73,40.8,18.62,79.27,20.53,119.59,1.6,33.72,8.27,66.02,2.4,100.26l-19.91,116.17c-4.71,27.47-50.06,97.93-32.33,113.8,106.55-130.81,122.3-230.05,97.12-384.44-10.2-62.57-33.48-118.95-50.3-179.98Z"/>
      <path class="cls-2" d="M207.08,440.32c-.07,0-.14-.01-.21-.02,0,.06,0,.12,0,.18.07-.05.14-.11.21-.16Z"/>
      <path class="cls-1" d="M1045.73,958.96c16.46-73.56,28.55-141.02,22.23-215.25-6.32-74.28-19.67-145.62-61.85-211.92-40.83-64.17-86.64-122.72-164.91-164.56,33.73-58.43,50.23-117.92,37.03-178.83-16.48-75.99-102.53-125.88-197.12-132.7-33.02-26.89-69.26-54.3-117.53-54.69-68.98-.56-120.48,34.72-163.35,71.58-19.69,16.93-24.65,38.5-40.67,55.01-81.25,83.79-102.39,141-32.56,240.78-34.44,21.67-120.08,32.24-120.13,71.91.07,0,.14.01.21.02-.07.05-.14.11-.21.16,0,.36,0,.71.01,1.07,22.54-24.02,49.4-31.25,74.31-43,74.69-35.25,150.6-43.1,235.72-44.54,71.04-1.2,227.39-32.01,299.89,9.73-17.55-36.25-155.07-30.54-187.79-27.33l-102.09,10.01-102.54,2.38-58.04,8.97c-11.49,1.78-19.21,9.66-29.87,6.12-11.59-3.84-12.3-12.35-17.32-20.58-41.39-67.9-24.69-162.77,51.14-203.65,24.5-13.21,40.51-35.77,71.11-38.23,36.5-2.94,65.53,3.29,93.23,22.21,23.08,15.76,45.64,35.89,59.18,58.55,3.7,6.19,13.68,53.44,28.8,47.63,16.9-6.5-18.76-55.51-21.6-63.41-11.55-32.11-31.6-55.94-62.31-78.52-57.92-42.57-81.9-7.06-151.02,18.2,27.81-49.81,125.85-110.82,195.03-93.94,110.69,27,160.34,139.03,137.83,229.24-3.85,15.42-24.24,29.41-7.56,44.52,34.23-53.39,19.03-80.25,104.66-98.78,29.1-40.21-56.99-84.79-88.86-107.54-30.58-21.83,116.79,12.16,138.54,111.24,10.08,45.89-2.28,137.95-42.49,173.63,152.04,97.99,228.69,243.53,226.69,397.43-.37,28.71,9.8,54.12,1.58,82.56-11.05,38.26-.95,77.99-29.69,117.09-11.54-84.53-40.04-159.74-61.2-240.29l-27.76-105.74c-6.52-24.83-33.03-40.76-49.57-61.2-39.07-48.28-92.95-76.68-162.58-94.74-58.02-15.05-118.31-15.12-180.99-9.57-98.21,8.69-199.42,41.84-263.51,105.39-96.61,95.81-142.86,213.23-155.83,333.22-1.57,14.52-.25,26.27-19.61,36.15-5.92-24.86-20.96-44.99-24.89-68.93-12.49-76.23-6.5-152.68,9.47-228.13,11.06-52.23,68.71-150.25,119.92-187.2,0-.06,0-.12,0-.18-18.95-2.36-19.51,13.47-28.39,19.35-32.6,21.56-47.8,50.02-66.97,78.64-19.88,29.68-32.6,58.62-40.34,91.77-18.94,81.17-33.46,234.36,26.26,309.05-54.2,64.29-83.12,138.28-93.48,217.44-8.4,64.21-.14,124.98,42.14,181.57,5.98,8.01,48.42,79.51,58.81,69.14,2.93-2.93,7.93-4.75,2.91-7-1.65-.74-10.05-.82-11.28-2.69-23.61-36.08-47.39-70.87-64.15-109.72-37.3-86.51-2.68-256.7,74.45-332.85-16.27,53-28.7,99-34.35,149.83-24.34,218.98,167.71,362.23,168.58,364.81,12.87,37.96,44.61,21.11,84.98,94.92,30.75,56.22-58.09,83.78-12.83,163.33,37.81,8.37-29.52-31.46,23.24-81.84,59.32-56.64-22.07-114.7-63.91-172.79-17.65-24.51,8.41-62.04,26.74-81.79,30.38-32.72,29.29-64.8,20.25-101.14-30.55-122.88-122.44-185.65-127.32-323.26-1.36-38.43,19.23-75.77,42.23-107,30.01,5.56,51.6,10.68,75.69,4.47,8.36-13.59,8.81-27.92,18.74-39.21,6.3,13.06-.87,32.32,15.84,38.24,22.36,7.92,49.05.78,72.87,3.42,23.11,2.57,44.79,9.17,66.33,2.21-3.47-13.16-17.54-18.3-12.74-30.69,16.12,4.9,15.71,19.93,28.76,26.96,9.09,4.9,98.53,10.46,88.9-7.69,21.28,18.19,56.61,19.43,80.89-.53,21.35,34.73,34,9.57,107.82,17.57,47.11,5.1,92.5-4.82,137.32-11.65l11.69,105.96c3.72,33.75.8,66.42.87,98.35-14.5-9.99,1.19-20.16-7.67-31.95-19.42,73.57,3.01,65.66-39.91,148.91-29.42,57.06-22.75,124.45-53.24,179.35-25.84,46.52-72.43,82.88-54.23,143.44,8.48,28.21,11.91,64.32,23.1,94.08,26.63,70.81-46.21,98.72-61.2,146.96-7.63,24.56-1.68,85.97,9.86,81.99,9.29-3.21-1.48-46.53,35.73-72.67l67.19-47.2c80.55-56.59-15.62-111.98-17.37-214.14-.43-25.02-1.41-49.82,17.79-70.92,21.03,36.68,42.23,66.58,74.64,93.69,42.14,10.76-60.85-66.67-53.25-92.74,35.01,14.23,102.06,96.4,118.93,73.74,6.6-8.87-111.11-102.36-81.78-172.72,25.37-60.87,82.86-109.87,100.72-174.37,15.56-56.2,20.23-111.68,22.32-168.95,24.83,49.44,5.47,98.4,1.03,147.88-5.8,64.6-35.33,119.71-81.06,173.1,93.1-70.86,85.76-157.21,109.92-247.95,36.4,89.05,25.33,176.13,10.2,269.95-6.92,42.87-31.73,76.27-73.01,105.06,88.43-19.14,89.1-119.68,96.19-167.31,26.18-175.92-58.19-253.97-46.61-305.73ZM808.66,178.72c-17.47,11.09-48.92,11.85-66.75,30.47-3.36-51.05-14.93-89.37-38.17-131.81,32.98,17.51,126.38,73.44,104.93,101.34ZM828.13,1424.44c-32.18,64.4-6.79,137.15,26.83,198.6,31.55,57.68-16.42,78.26-67.62,115.01-20.52,11.91-32.58,25.4-42.35,41.35-21.34-48.14,79.56-98.11,67.44-151.36l-28.92-127.08c-10.34-45.46,10.33-88.1,50.12-120.29,7.76,16.3,1.18,30.4-5.5,43.77ZM86.91,1081.24c6.31-29.29,2.34-56.88,17.3-84.57,42.47,94.13,15.6,101.85,19.2,148.39,4.17,53.79,12.36,106.57,31.92,159.43l34.02,91.95c-79.81-84.82-124.41-213.23-102.45-315.19ZM247.16,1446.45c-54.28-64.21-80.21-131.26-93.95-204.5-9.36-49.87-22.93-95.95-10.33-148.53,17.65,34.61,45.55,62.84,68.79,95.77,25.59,36.26,38.1,76.74,57.63,117.86,9.52,50.32-2.6,96.02-22.14,139.4ZM902.73,1297.13c-17.73-15.87,27.62-86.33,32.33-113.8l19.91-116.17c5.87-34.24-.8-66.54-2.4-100.26-1.91-40.32.2-78.79-20.53-119.59-61.75,17.57-124.11,24.04-189.51,15.39-14.59-1.93-42.15,12.5-52.6.47-31.2-35.89,14.62-99.24-19.43-103.28-4.33,32.92-.32,65.8-17.7,96.17-5.68,9.93-28.39,6.41-37.92,5.27-38.11-4.57-13.56-85.48-27.39-106.21-28.32,32.95-19.72,66.07-10.66,105.97-20.32-3.08-46.55,5.26-65.86-1.68-17.52-6.29-17.73-26.58-34.97-34.21-20.16,6.01-20.43,22.22-10.5,38.61-38.74-4.36-69.8-8.09-105.77-5.69-32.21,2.15-6.39-44.17-23.1-57.54-23.55,13.47-22.15,34.92-33.41,52.95-6.77,10.83-62.04,2.59-59.85,3.21-6.67-1.89-3.18-10.57-13.43-18.78-58.95,86.74-64.22,130.94-32.5,226.76,35.56,107.44,93.25,126.87,115.88,266.9,3.39,20.99-15.21,40.33-26.24,55.6-8.39-29.86,5.99-55.63-4.7-82.6-16.83-42.48-30.44-87.26-60.1-125.82-47.33-61.53-95.6-123.7-99.28-198-1.59-32.22,12.8-63.06,15.68-96.05,9.95-113.86,57.31-220.06,140.65-313.76,35.86-40.32,89.69-65.82,144.05-88.02,86.63-35.38,225.29-32.3,313.86-5.4,54.93,16.68,98.91,41.59,131.23,81.55,15.45,19.1,42.74,34.39,49.12,57.53l31.97,116.06c16.81,61.03,40.09,117.41,50.3,179.98,25.17,154.38,9.42,253.63-97.12,384.44Z"/>
    </g>
  </g>
</svg>