<?xml version="1.0" encoding="UTF-8"?>
<svg id="Layer_2" data-name="Layer 2" xmlns="http://www.w3.org/2000/svg" viewBox="0 0 1070.59 1248.26">
  <g id="Layer_1-2" data-name="Layer 1">
    <path d="M631.28,637.03c-16.53-21.97-.03-85.04-18.42-130.5-6.31,44.66-9.6,88.07-8,138.53l-143.79-6.18c-13.51-84.9,9.09-110.09-2.03-168.58l-18.57,148.57c-67.23-44.27-109.51,56.84-126.99-34.54l-14.65,42.67c-3.07,8.93-19.7-8.25-18.78-19.47,2.4-29.32,8.75-55.98.9-86.64-25.45,132.93-88.43,206.13-75.52,345.92,26.91,291.33,178.44,363.93,189.34,381.46-180.08-23.96-349.89-196.66-380.39-397.51C-36.59,515.12,49.52,295.88,247.96,121.49,507.32-95.75,872.28-19.68,1004.71,333.84c142.38,323.08,59.89,873.16-305.47,906.55,209.56-160.8,150.39-502.32,126.23-684.27-9.83-16.48-14.52,122.85-25.12,81.72-11.08-43.01,2.82-102.47-15.72-146.51-6.06,43.86,4.34,81.25-9.8,125.48-15.58-41.59-6.12-82.72-13.81-124.61-6.45,48.39-.02,94.19-11.47,139.11-19.86,8.03-38.33,4.47-59.65,5.08-15.67.45-45.36,18.27-58.63.64Z"/>
  </g>
</svg>