<?xml version="1.0" encoding="UTF-8"?>
<svg id="Layer_2" data-name="Layer 2" xmlns="http://www.w3.org/2000/svg" viewBox="0 0 1403.82 676.07">
  <defs>
    <style>
      .cls-1 {
        fill: #ffd1b5;
      }

      .cls-2 {
        fill: #f15a24;
      }

      .cls-3 {
        fill: #962e1c;
      }

      .cls-4 {
        fill: #f3c0a1;
      }
    </style>
  </defs>
  <g id="Layer_1-2" data-name="Layer 1">
    <g>
      <g>
        <path class="cls-1" d="M981.29,438.95s-27.04,53.16-277.75,53.16-277.75-53.16-277.75-53.16c14.66-15.06,28.2-31.53,40.36-49.35,42.07-61.57,67.72-139.22,66.21-230.11-.11-6.67-.37-13.41-.78-20.23-2.61-43.63-11.4-90.16-27.49-139.26h398.9c-18.61,56.77-27.45,110.09-28.27,159.49-1.95,117.2,41.27,212.38,106.57,279.46Z"/>
        <path class="cls-4" d="M504.09,0c16.09,49.11,24.88,95.63,27.49,139.26h0c.09,1.52.18,3.03.25,4.55.01.28.03.56.04.83.05,1.11.1,2.21.15,3.31.03.64.06,1.28.08,1.91.03.79.05,1.58.08,2.37.03.85.06,1.7.08,2.54.04,1.58.08,3.15.1,4.71,1.52,90.9-24.14,168.54-66.21,230.11,30.04-23.29,64.61-58.52,81.38-105.71,18.34-51.58,45.24-65.72,65.61-68.06,27.66,11.75,57.95,18.17,90.39,18.17,67.99,0,126.51-28.19,171.18-74.52.82-49.4,9.67-102.72,28.27-159.49h-398.9Z"/>
      </g>
      <g>
        <g>
          <path class="cls-2" d="M710.58,465.08v210.99H0c6.59-17.64,14.45-35.37,23.74-53.07,54.71-104.18,134.04-159.26,155.25-173.3,104.64-69.28,212.01-78.33,272.66-77.09-.25,1.53-.37,3.07-.37,4.61,0,3.55.65,7.06,1.91,10.5.03.1.06.2.1.3.02.05.04.1.06.15,1.39,3.67,3.48,7.26,6.21,10.77,28.14,36.16,124.89,63.36,242.35,65.99,2.87.07,5.77.12,8.67.15Z"/>
          <path class="cls-2" d="M1403.82,676.07h-710.57v-210.99c2.89-.03,5.79-.08,8.66-.15,118.76-2.66,216.35-30.44,243.26-67.19.02-.02.03-.03.04-.05,4.79-6.57,7.33-13.42,7.33-20.47,0-1.54-.13-3.08-.37-4.61,60.64-1.24,168.01,7.81,272.66,77.09,21.21,14.04,100.54,69.12,155.25,173.3,9.29,17.7,17.15,35.43,23.74,53.07Z"/>
        </g>
        <path class="cls-3" d="M952.17,372.61l-21.94.41,14.94,24.72c1.74-1.77,5.41-5.98,7-12.56,1.34-5.55.57-10.18,0-12.56Z"/>
        <path class="cls-3" d="M451.65,372.61l24.67,1.27-16.76,25.06c-1.87-2.19-4.5-5.83-6.27-10.92-2.29-6.57-2.02-12.29-1.64-15.41Z"/>
      </g>
    </g>
  </g>
</svg>