<svg width="150" height="140" viewBox="0 0 150 140" fill="none" xmlns="http://www.w3.org/2000/svg">
<path d="M73.3807 0.029188C92.7338 -0.520857 114.803 6.68817 126.49 22.9351C138.776 39.9989 138.563 57.9338 135.462 77.8729C157.531 77.7677 151.495 111.064 125.693 111.192C124.221 113.435 122.647 115.614 120.983 117.721C108.876 133.007 93.9989 137.138 75.6357 139.244C51.8001 136.851 38.1464 130.938 24.2726 110.86L23.1589 110.932C16.8958 111.304 11.9664 110.399 7.40825 105.763C-3.1655 95.0027 -3.83235 78.0737 14.7439 77.8715C8.6114 48.429 15.5758 18.8215 45.1864 5.97449C54.6395 1.87459 63.2332 0.949825 73.3807 0.029188Z" fill="#6F5348"/>
<path d="M66.5951 3.41404C79.5613 1.31562 97.9107 4.5437 109.309 11.1408C122.688 18.8882 130.711 31.3384 133.681 46.2226C134.781 51.5911 135.173 57.0798 134.857 62.5507C134.176 73.9923 130.416 84.9987 128.023 96.1289C123.039 119.271 106.243 131.472 83.8032 135.773C56.3789 138.235 30.5702 126.205 21.7083 98.2473C20.622 94.7572 20.5945 89.3249 19.577 86.0665C6.6383 44.6818 21.227 8.96055 66.5951 3.41404Z" fill="#FEE6CF"/>
<path d="M9.40895 80.0834C11.8977 80.016 12.7846 79.8475 15.0739 81.0095C16.4558 82.7559 16.9508 83.2351 17.6108 85.4511C16.057 88.1326 13.0389 84.4624 8.0958 87.2367L7.82078 88.2144C9.89703 89.0532 14.5721 89.3915 15.1015 89.736C17.8033 91.4906 20.3746 101.953 21.5365 105.396C22.1208 106.114 22.0452 106.633 22.1415 107.581C14.4346 112.365 -9.53168 92.1383 9.40895 80.0834Z" fill="#FEE6CF"/>
<path d="M134.575 80.0236C153.392 79.7059 148.112 105.173 128.621 109.066C128.092 108.322 128.085 107.905 127.838 106.998C128.876 101.955 130.567 92.2559 134.465 89.1248C136.562 88.2646 137.903 88.8614 140.158 89.4046C141.258 88.3458 140.914 88.715 141.134 86.7967C139.45 85.3116 136.431 87.4485 133.681 85.3191C133.159 82.8756 133.674 82.7683 134.575 80.0236Z" fill="#FEE6CF"/>
</svg>
