<svg width="149" height="139" viewBox="0 0 149 139" fill="none" xmlns="http://www.w3.org/2000/svg">
<path d="M72.4551 0.00241713C121.475 -0.326235 142.731 32.8937 134.002 78.7771C138.287 78.773 141.642 78.7702 144.854 81.8388C154.536 91.0905 144.459 108.473 133.488 111.492C131.108 112.146 128.46 112.223 126.076 112.328C125.292 113.442 124.456 114.52 123.571 115.558C119.822 119.889 88.0937 134.486 81.088 138.21C80.3435 138.606 77.0476 138.931 75.9421 139.004C72.4262 138.7 68.8327 137.514 65.5835 136.135C53.5722 131.041 40.6211 127.041 29.2224 120.755C27.4933 119.802 23.338 114.395 21.9238 112.625C16.1282 111.78 13.1727 111.744 8.64755 107.764C-2.40057 98.0465 -5.04815 79.5128 13.865 78.6939C13.0496 75.0086 12.4432 71.28 12.0493 67.5259C9.50005 41.2881 18.397 16.9631 44.214 5.92434C53.8128 1.82032 62.1117 0.919617 72.4551 0.00241713Z" fill="#6F5348"/>
<path d="M65.5059 3.39806C105.137 -2.78788 139.257 26.0544 133.504 66.7144C132.472 74.0073 130.326 81.1043 128.811 88.3965C127.074 96.7537 128 107.737 121.239 113.987C109.093 121.971 94.5094 128.466 81.3472 135.205C79.0819 136.455 73.9037 136.65 71.5394 135.616C58.349 129.712 43.3223 125.659 30.7197 118.804C22.909 114.557 21.5533 102.883 20.0882 95.642C15.0021 70.4974 7.71735 46.0534 25.1929 23.4513C35.3775 10.2784 49.6507 5.35553 65.5059 3.39806Z" fill="#FEE6CF"/>
<path d="M135.37 80.7344C136.373 80.7921 137.367 80.94 138.344 81.1765C157.418 85.638 138.948 112.086 128.591 109.394L128.316 107.947C129.1 102.309 129.4 93.3098 134.705 89.9627C136.38 88.9053 138.75 90.0405 140.768 90.5561L141.339 89.8026C140.612 88.0809 140.473 88.0479 138.962 86.8509C136.808 86.2025 135.044 87.2015 132.807 88.0163L131.937 87.383C131.771 83.0886 132.292 83.0336 135.37 80.7344Z" fill="#FEE6CF"/>
<path d="M10.7252 80.7392C12.6337 80.8691 12.932 80.8657 14.5745 81.8221C15.68 83.783 15.8704 84.0669 15.8725 86.3001C13.1397 88.6172 10.62 85.5528 7.86174 87.9695L7.8865 89.7489C9.696 91.9931 9.44092 88.71 14.2342 89.9352C18.4685 93.5635 18.5517 101.089 19.3746 106.81L19.7342 108.648L18.7497 109.366C9.44366 109.502 -8.36052 89.0827 10.7252 80.7392Z" fill="#FEE6CF"/>
</svg>
