<svg width="149" height="132" viewBox="0 0 149 132" fill="none" xmlns="http://www.w3.org/2000/svg">
<path d="M68.0576 0.340791C69.3364 -0.00229904 71.8457 -0.00917274 73.2689 0.00320327C99.5589 0.228722 124.845 11.8024 132.958 38.573C137.241 52.6961 136.196 63.816 134.003 77.752C137.743 77.8201 140.245 77.64 143.332 79.924C145.951 81.8451 147.691 84.7369 148.165 87.9512C150.049 100.416 139.296 109.825 127.629 111.488C127.678 113.909 128.076 120.006 126.186 121.441C117.303 128.187 91.412 130.776 81.3951 131.259C65.5482 131.666 38.4628 132.209 23.4127 123.169C19.6927 120.933 21.177 113.199 18.3575 111.662C13.8118 109.455 10.6356 108.763 6.43081 105.504C-0.144438 100.408 -2.24819 87.7326 2.81594 81.0963C4.91419 78.3475 9.79406 77.8586 13.2577 77.6943C4.64193 34.1184 23.2622 5.30494 68.0576 0.340791Z" fill="#6F5348"/>
<path d="M67.8032 3.08491C102.646 0.574645 132.284 19.2054 133.535 56.4984C134.051 72.0055 127.698 86.9661 126.254 102.355C125.691 108.324 125.072 114.308 124.384 120.271C108.593 126.406 95.8532 127.816 78.927 128.989C63.4926 130.734 36.5412 128.345 22.9315 119.666C22.53 117.298 22.1917 114.411 21.9841 111.958C19.408 81.6093 3.23594 50.7559 24.9321 23.2702C36.1919 9.00546 51.0688 4.953 67.8032 3.08491Z" fill="#FEE6CF"/>
<path d="M134.628 79.667C157.68 82.1848 140.719 109.347 128.977 108.487L128.111 107.316C128.881 100.757 128.874 93.7584 133.769 89.2577C135.735 88.181 137.818 88.9187 140.053 89.3821C140.809 87.5161 140.692 88.3164 140.293 86.2847C137.749 84.9199 135.549 87.4666 132.002 86.2393L131.638 84.7322C132.284 81.8995 132.463 81.6045 134.628 79.667Z" fill="#FEE6CF"/>
<path d="M10.2635 79.724C12.1796 79.812 12.4897 79.7907 14.0427 80.8846C14.8774 82.6888 15.3882 83.4485 15.2012 85.4761C13.3559 86.7288 11.488 85.6941 8.22718 86.1596C7.12787 87.7568 7.36851 87.0025 7.67858 89.2872C10.8679 89.7871 9.95486 87.983 14.1967 89.2206C17.8467 92.7408 17.9587 99.8192 18.7122 105.093C18.9467 107.196 19.2018 106.63 18.2888 108.11C9.55063 109.173 -8.6709 88.1418 10.2635 79.724Z" fill="#FEE6CF"/>
</svg>
