<svg width="149" height="136" viewBox="0 0 149 136" fill="none" xmlns="http://www.w3.org/2000/svg">
<path d="M72.5911 0.00981265C102.477 -0.437786 129.502 14.4244 135.408 45.1987C137.622 56.7132 136.061 66.13 135.119 77.5874C136.027 77.6342 136.934 77.7009 137.842 77.7868C159.512 79.9134 145.562 113.756 128.574 111.102C125.611 110.64 125.233 109.289 123.617 107.107C121.479 113.031 119.059 118.88 116.9 124.928C106.485 133.063 91.0504 134.915 78.1598 135.146C64.5267 135.423 45.7992 133.615 34.813 124.933C33.4517 120.654 29.2511 111.631 25.9854 108.688C21.8192 112.667 14.6761 111.663 10.8467 108.373C-2.2845 97.1058 -6.05203 80.8245 14.1673 77.6026C14.6211 76.2302 12.0361 68.8486 11.9192 66.3033C9.91171 23.2526 32.063 3.66005 72.5911 0.00981265Z" fill="#6F5348"/>
<path d="M65.8673 3.39192C67.5723 3.02614 69.7792 3.17396 71.5117 3.06327C114.309 0.334358 142.056 33.082 132.431 74.8847C131.86 77.3509 133.029 83.838 131.909 86.0726C125.556 98.6803 119.018 108.845 115.415 122.811C105.845 130.387 96.3786 131.062 84.6498 132.284C71.3055 132.785 50.3848 132.69 38.5804 124.662C35.0192 122.237 32.5923 113.095 29.9248 108.968C26.1986 103.22 20.6298 98.3324 18.2236 91.9182C16.9517 89.2821 18.7804 82.9531 18.0929 80.7667C11.981 61.2147 12.6067 40.1528 25.6623 23.2382C35.3904 10.6284 49.8623 5.33564 65.8673 3.39192Z" fill="#FEE6CF"/>
<path d="M135.325 79.7677C153.833 80.9462 147.886 105.275 128.602 109.066C122.957 103.738 129.908 94.502 133.985 90.057C137.244 86.5119 138.117 89.4643 140.729 89.5929L141.162 87.8128L140.509 86.8124C138.103 86.1716 137.574 85.9811 135.325 84.9127C134.315 82.6932 134.817 82.6602 135.325 79.7677Z" fill="#FEE6CF"/>
<path d="M9.27922 80.1665C10.7848 80.0819 12.4623 80.1885 13.9817 80.2449C15.7761 81.875 15.7074 81.3278 16.2574 83.3093C14.5042 86.9616 9.87046 83.86 8.23421 88.6674L9.01108 89.4341C9.78796 89.1391 10.558 88.8297 11.328 88.5045L11.8092 88.2934C14.4217 89.7036 21.3036 101.743 24.6792 106.012C15.0199 116.45 -7.63328 91.736 9.27922 80.1665Z" fill="#FEE6CF"/>
</svg>
