<svg width="149" height="134" viewBox="0 0 149 134" fill="none" xmlns="http://www.w3.org/2000/svg">
<path d="M72.1442 0C78.6397 0.0391907 85.1146 0.72331 91.4747 2.04204C130.855 10.4756 141.283 44.0648 133.646 79.9366C138.208 79.7957 141.62 79.6719 144.995 83.0657C154.677 92.8015 143.802 110.462 132.246 112.813C130.316 113.205 127.289 113.173 125.35 113.172C123.932 115.04 121.855 117.717 120.297 119.404C110.756 129.734 89.0402 132.973 75.603 133.44C63.7457 133.409 52.8434 131.851 41.5484 128.018C32.239 124.859 28.1703 120.77 22.6202 113.247C16.6575 113.118 13.6318 112.755 8.56353 108.745C1.94909 103.512 -3.43128 91.5075 2.66822 84.0221C5.86028 80.1037 9.34522 79.9387 14.1722 79.6451C8.59516 56.3672 11.0413 30.6134 30.4872 14.2345C42.9179 3.76506 56.4788 1.45074 72.1442 0Z" fill="#6F5348"/>
<path d="M65.5167 3.37865C79.9343 0.743253 101.572 5.65584 113.039 14.2792C137.303 32.5262 136.763 62.1275 128.73 88.5132C126.044 97.3373 128.814 105.315 121.645 114.27C112.085 126.211 97.8767 128.272 83.8297 130.123L83.3512 130.191C68.11 132.324 44.79 129.108 31.9818 120.166C20.4793 112.134 20.9372 99.4756 18.7612 87.3141C17.367 80.5135 15.1298 74.0292 14.454 67.0766C10.9162 30.6959 30.0232 7.71507 65.5167 3.37865Z" fill="#FEE6CF"/>
<path d="M133.929 82.1045C159.777 81.1151 138.36 117.159 127.651 109.543C129.427 103.353 128.758 96.2427 133.757 91.6134C135.971 89.5624 137.461 91.2235 140.555 91.1644C140.884 89.088 141.055 89.8134 140.255 88.0608C138.826 87.4681 134.579 88.6603 132.518 88.9931L131.533 88.2189C132.058 83.8454 131.281 84.7131 133.929 82.1045Z" fill="#FEE6CF"/>
<path d="M8.75328 82.2269C12.0031 81.9505 13.2076 81.6424 15.7177 84.0647C16.6162 86.159 16.5165 86.4718 15.9363 88.6995C12.5002 87.6517 9.58241 86.3385 7.85472 90.4143L8.53259 91.5721C18.2518 87.5499 18.216 98.852 19.162 105.715C19.6838 107.286 20.2586 108.306 19.7478 109.808C11.8195 112.964 -6.91279 93.676 8.75328 82.2269Z" fill="#FEE6CF"/>
</svg>
