<?xml version="1.0" encoding="UTF-8"?>
<svg id="Eyes" xmlns="http://www.w3.org/2000/svg" xmlns:xlink="http://www.w3.org/1999/xlink" viewBox="0 0 1080 1080">
  <defs>
    <style>
      .cls-1, .cls-2 {
        fill: none;
      }

      .cls-3 {
        fill: #2192c8;
      }

      .cls-2, .cls-4 {
        stroke: #3c2415;
        stroke-miterlimit: 10;
        stroke-width: .67px;
      }

      .cls-5 {
        clip-path: url(#clippath-1);
      }

      .cls-6, .cls-4 {
        fill: #fff;
      }

      .cls-7 {
        fill: #27aae1;
      }

      .cls-8 {
        clip-path: url(#clippath);
      }
    </style>
    <clipPath id="clippath">
      <path class="cls-1" d="M460.36,568.08c13.37,31.83-12.63,37.5-69.75,37.5s-63.26-27.74-66.57-39.8c-6.29-22.88,14.82-57.94,69.09-53.7,54.23,4.25,60.57,40.13,67.23,56Z"/>
    </clipPath>
    <clipPath id="clippath-1">
      <path class="cls-1" d="M619.64,568.08c-13.37,31.83,12.63,37.5,69.75,37.5,57.11,0,63.26-27.74,66.57-39.8,6.29-22.88-14.82-57.94-69.09-53.7-54.23,4.25-60.57,40.13-67.23,56Z"/>
    </clipPath>
  </defs>
  <g>
    <path class="cls-4" d="M460.36,568.08c13.37,31.83-12.63,37.5-69.75,37.5s-63.26-27.74-66.57-39.8c-6.29-22.88,14.82-57.94,69.09-53.7,54.23,4.25,60.57,40.13,67.23,56Z"/>
    <g class="cls-8">
      <g>
        <g>
          <path class="cls-7" d="M393.38,610.68c-25,0-45.34-22.52-45.34-50.2s20.34-50.2,45.34-50.2,45.34,22.52,45.34,50.2-20.34,50.2-45.34,50.2Z"/>
          <path class="cls-3" d="M393.38,512.96c23.53,0,42.67,21.32,42.67,47.53s-19.14,47.53-42.67,47.53-42.67-21.32-42.67-47.53,19.14-47.53,42.67-47.53M393.38,507.63c-26.51,0-48,23.67-48,52.86s21.49,52.86,48,52.86,48-23.67,48-52.86-21.49-52.86-48-52.86h0Z"/>
        </g>
        <ellipse cx="393.38" cy="560.49" rx="27.54" ry="30.33"/>
        <path class="cls-6" d="M420.96,556.36c-2.19.42-4.38.83-6.59,1.25-.27.05-.48-.08-.47-.3.37-6.11-1.14-12.67-4.53-18.84-.12-.22-.03-.44.21-.49,1.94-.42,3.87-.83,5.79-1.25.24-.05.54.08.67.3,3.68,6.11,5.48,12.67,5.41,18.84,0,.22-.23.44-.49.49Z"/>
        <path class="cls-6" d="M379.78,590.79c-2.01.6-4.01,1.21-6,1.81-.19.06-.41-.04-.5-.21-1.86-3.62-3.3-7.29-4.32-10.93-.05-.17.08-.36.28-.41,2.14-.6,4.29-1.21,6.45-1.81.2-.06.4.04.44.21.86,3.62,2.15,7.29,3.85,10.93.08.17,0,.36-.2.41Z"/>
      </g>
    </g>
    <path class="cls-2" d="M460.36,568.08c13.37,31.83-12.63,37.5-69.75,37.5s-63.26-27.74-66.57-39.8c-6.29-22.88,14.82-57.94,69.09-53.7,54.23,4.25,60.57,40.13,67.23,56Z"/>
  </g>
  <g>
    <path class="cls-4" d="M619.64,568.08c-13.37,31.83,12.63,37.5,69.75,37.5,57.11,0,63.26-27.74,66.57-39.8,6.29-22.88-14.82-57.94-69.09-53.7-54.23,4.25-60.57,40.13-67.23,56Z"/>
    <g class="cls-5">
      <g>
        <g>
          <path class="cls-7" d="M686.62,610.68c-25,0-45.34-22.52-45.34-50.2s20.34-50.2,45.34-50.2,45.34,22.52,45.34,50.2-20.34,50.2-45.34,50.2Z"/>
          <path class="cls-3" d="M686.62,512.96c23.53,0,42.67,21.32,42.67,47.53s-19.14,47.53-42.67,47.53-42.67-21.32-42.67-47.53,19.14-47.53,42.67-47.53M686.62,507.63c-26.51,0-48,23.67-48,52.86s21.49,52.86,48,52.86,48-23.67,48-52.86-21.49-52.86-48-52.86h0Z"/>
        </g>
        <ellipse cx="686.62" cy="560.49" rx="27.54" ry="30.33"/>
        <path class="cls-6" d="M659.04,556.36c2.19.42,4.38.83,6.59,1.25.27.05.48-.08.47-.3-.37-6.11,1.14-12.67,4.53-18.84.12-.22.03-.44-.21-.49-1.94-.42-3.87-.83-5.79-1.25-.24-.05-.54.08-.67.3-3.68,6.11-5.48,12.67-5.41,18.84,0,.22.23.44.49.49Z"/>
        <path class="cls-6" d="M700.22,590.79c2.01.6,4.01,1.21,6,1.81.19.06.41-.04.5-.21,1.86-3.62,3.3-7.29,4.32-10.93.05-.17-.08-.36-.28-.41-2.14-.6-4.29-1.21-6.45-1.81-.2-.06-.4.04-.44.21-.86,3.62-2.15,7.29-3.85,10.93-.08.17,0,.36.2.41Z"/>
      </g>
    </g>
    <path class="cls-2" d="M619.64,568.08c-13.37,31.83,12.63,37.5,69.75,37.5,57.11,0,63.26-27.74,66.57-39.8,6.29-22.88-14.82-57.94-69.09-53.7-54.23,4.25-60.57,40.13-67.23,56Z"/>
  </g>
</svg>