<?xml version="1.0" encoding="UTF-8"?>
<svg id="Eyes" xmlns="http://www.w3.org/2000/svg" viewBox="0 0 1080 1080">
  <defs>
    <style>
      .cls-1 {
        fill: #fff;
      }
    </style>
  </defs>
  <g>
    <ellipse cx="414.75" cy="548.63" rx="90.27" ry="53.23" transform="translate(-149.91 941.27) rotate(-87.72)"/>
    <path class="cls-1" d="M455.43,510.67c1.97,17.32-4.41,31.8-11.03,32.47-6.71.69-10.93-12.67-12.65-29.99-1.63-17.32-.33-31.8,6.13-32.47,6.37-.69,15.66,12.67,17.55,29.99Z"/>
  </g>
  <g>
    <ellipse cx="665.25" cy="548.63" rx="53.23" ry="90.27" transform="translate(-21.26 26.85) rotate(-2.28)"/>
    <path class="cls-1" d="M629.48,510.67c-1.63,17.32-.33,31.8,6.13,32.47,6.37.69,15.66-12.67,17.55-29.99,1.97-17.32-4.41-31.8-11.03-32.47-6.71-.69-10.93,12.67-12.65,29.99Z"/>
  </g>
</svg>