<?xml version="1.0" encoding="UTF-8"?>
<svg xmlns="http://www.w3.org/2000/svg" xmlns:xlink="http://www.w3.org/1999/xlink" viewBox="0 0 1080 1080">
  <defs>
    <style>
      .cls-1, .cls-2 {
        fill: none;
      }

      .cls-3 {
        fill: #2192c8;
      }

      .cls-2, .cls-4 {
        stroke: #3c2415;
        stroke-miterlimit: 10;
        stroke-width: .98px;
      }

      .cls-5 {
        fill: #3c2415;
      }

      .cls-4, .cls-6 {
        fill: #fff;
      }

      .cls-7 {
        clip-path: url(#clippath-1);
      }

      .cls-8 {
        fill: #27aae1;
      }

      .cls-9 {
        clip-path: url(#clippath);
      }
    </style>
    <clipPath id="clippath">
      <path class="cls-1" d="M464.5,569.99c3.52-2.7,4.15-7.73,1.63-11.37-18.75-27.08-58.98-47.29-94.83-47.29-54.31,0-80.08,31.86-80.08,31.86,0,0,6.8,21.08,45.25,33.58,38.45,12.5,64.57,5.19,103.74.3,13.69-1.71,20.64-4.28,24.29-7.08Z"/>
    </clipPath>
    <clipPath id="clippath-1">
      <path class="cls-1" d="M615.5,569.99c-3.52-2.7-4.15-7.73-1.63-11.37,18.75-27.08,58.98-47.29,94.83-47.29,54.31,0,80.08,31.86,80.08,31.86,0,0-6.8,21.08-45.25,33.58-38.45,12.5-64.57,5.19-103.74.3-13.69-1.71-20.64-4.28-24.29-7.08Z"/>
    </clipPath>
  </defs>
  <g id="Eyes">
    <g>
      <g>
        <path class="cls-4" d="M464.5,569.99c3.52-2.7,4.15-7.73,1.63-11.37-18.75-27.08-58.98-47.29-94.83-47.29-54.31,0-80.08,31.86-80.08,31.86,0,0,6.8,21.08,45.25,33.58,38.45,12.5,64.57,5.19,103.74.3,13.69-1.71,20.64-4.28,24.29-7.08Z"/>
        <g class="cls-9">
          <g>
            <g>
              <path class="cls-8" d="M384.95,592.75c-.41,0-.83,0-1.24-.02-11.45-.36-22.07-5.62-29.9-14.82-7.9-9.26-12.03-21.4-11.63-34.17.81-25.96,19.82-46.3,43.27-46.3.41,0,.83,0,1.24.02,11.45.36,22.07,5.62,29.9,14.82,7.9,9.26,12.03,21.4,11.63,34.17-.81,25.96-19.82,46.3-43.27,46.3Z"/>
              <path class="cls-3" d="M385.46,499.97h0c.39,0,.77,0,1.16.02,22.33.7,39.86,21.51,39.08,46.38-.37,11.91-4.86,23.02-12.64,31.28-7.64,8.11-17.62,12.58-28.11,12.58-.39,0-.77,0-1.16-.02-22.33-.7-39.86-21.51-39.08-46.38.37-11.91,4.86-23.02,12.64-31.28,7.64-8.11,17.62-12.58,28.11-12.58M385.46,494.91c-24.57,0-44.95,21.54-45.8,48.75-.87,27.7,18.82,50.8,43.98,51.59.44.01.88.02,1.32.02,24.57,0,44.95-21.54,45.8-48.75.87-27.7-18.82-50.8-43.98-51.59-.44-.01-.88-.02-1.32-.02h0Z"/>
            </g>
            <ellipse cx="385.21" cy="545.09" rx="28.79" ry="26.15" transform="translate(-171.7 913.02) rotate(-88.2)"/>
            <path class="cls-6" d="M412.49,529.34c1.03,4.52-1.34,11.59-6.21,11.3-4.87-.29-4.96-5.51-5.84-8.94-.88-3.43-3.13-8.31,1.47-10.37,4.6-2.07,9.55,3.49,10.58,8.01Z"/>
            <path class="cls-6" d="M365.28,571.87c-1.74-1.49-2.44-5.49.11-7.42,2.55-1.93,4,.25,5.37,1.34,1.37,1.09,3.83,2.21,2.05,5.03-1.78,2.81-5.79,2.54-7.52,1.05Z"/>
          </g>
        </g>
        <path class="cls-2" d="M464.5,569.99c3.52-2.7,4.15-7.73,1.63-11.37-18.75-27.08-58.98-47.29-94.83-47.29-54.31,0-80.08,31.86-80.08,31.86,0,0,6.8,21.08,45.25,33.58,38.45,12.5,64.57,5.19,103.74.3,13.69-1.71,20.64-4.28,24.29-7.08Z"/>
      </g>
      <g>
        <path class="cls-4" d="M615.5,569.99c-3.52-2.7-4.15-7.73-1.63-11.37,18.75-27.08,58.98-47.29,94.83-47.29,54.31,0,80.08,31.86,80.08,31.86,0,0-6.8,21.08-45.25,33.58-38.45,12.5-64.57,5.19-103.74.3-13.69-1.71-20.64-4.28-24.29-7.08Z"/>
        <g class="cls-7">
          <g>
            <g>
              <path class="cls-8" d="M695.05,592.75c-23.45,0-42.46-20.34-43.27-46.3-.4-12.77,3.73-24.9,11.63-34.17,7.84-9.2,18.46-14.46,29.9-14.82.42-.01.83-.02,1.24-.02,23.45,0,42.46,20.34,43.27,46.3.4,12.77-3.73,24.9-11.63,34.17-7.84,9.2-18.46,14.46-29.9,14.82-.41.01-.83.02-1.24.02h0Z"/>
              <path class="cls-3" d="M694.54,499.97c10.49,0,20.47,4.47,28.11,12.58,7.77,8.26,12.26,19.36,12.64,31.28.78,24.87-16.75,45.68-39.08,46.38-.39.01-.78.02-1.16.02-10.49,0-20.48-4.47-28.11-12.58-7.77-8.26-12.26-19.36-12.63-31.28-.38-12.14,3.53-23.66,11.02-32.45,7.37-8.65,17.33-13.59,28.06-13.93.39-.01.78-.02,1.16-.02M694.54,494.91c-.44,0-.88,0-1.32.02-25.16.79-44.85,23.89-43.98,51.59.85,27.22,21.23,48.75,45.8,48.75.44,0,.88,0,1.32-.02,25.16-.79,44.85-23.89,43.98-51.59-.85-27.22-21.23-48.75-45.8-48.75h0Z"/>
            </g>
            <ellipse cx="694.79" cy="545.09" rx="26.15" ry="28.79" transform="translate(-16.75 22.05) rotate(-1.8)"/>
            <path class="cls-6" d="M667.51,529.34c-1.03,4.52,1.34,11.59,6.21,11.3,4.87-.29,4.96-5.51,5.84-8.94.88-3.43,3.13-8.31-1.47-10.37-4.6-2.07-9.55,3.49-10.58,8.01Z"/>
            <path class="cls-6" d="M714.72,571.87c1.74-1.49,2.44-5.49-.11-7.42-2.55-1.93-4,.25-5.37,1.34-1.37,1.09-3.83,2.21-2.05,5.03,1.78,2.81,5.79,2.54,7.52,1.05Z"/>
          </g>
        </g>
        <path class="cls-2" d="M615.5,569.99c-3.52-2.7-4.15-7.73-1.63-11.37,18.75-27.08,58.98-47.29,94.83-47.29,54.31,0,80.08,31.86,80.08,31.86,0,0-6.8,21.08-45.25,33.58-38.45,12.5-64.57,5.19-103.74.3-13.69-1.71-20.64-4.28-24.29-7.08Z"/>
      </g>
    </g>
  </g>
  <g id="Lashes">
    <g>
      <g>
        <path class="cls-5" d="M466.13,558.62c-20.67-26.99-57.15-43.23-90.67-43.96-4.06-.15-9.45.36-13.54.62-2.15.26-5.29.75-7.45,1.04-14.57,2.39-29.04,7.66-41.37,15.76-4.87,3.25-9.48,6.8-13.6,10.92-1.25,1.25-2.56,2.63-3.62,3.97-1.92,2.71-5.67,3.35-8.38,1.43-2.71-1.92-3.35-5.67-1.43-8.38.56-.74,1.23-1.43,1.78-2,2.76-2.8,5.72-5.34,8.85-7.68,23.27-17.61,53.46-24.4,82.21-21.78,33.74,4.02,67.96,21.76,87.21,50.08h0Z"/>
        <path class="cls-5" d="M336.47,576.77c-14.36-3.21-28.6-8.23-40.2-17.7-4.11-3.51-8.04-7.46-10.54-12.35-1.45-3.17.26-6.97,3.55-8.07,3.21-1.16,7.01.9,7.66,4.07,0,0,.2.61.2.61,1.22,3.41,3.31,6.5,5.51,9.39,8.65,10.79,21.29,18.33,33.82,24.05h0Z"/>
        <path class="cls-5" d="M256.22,519.51c1.34,1.53,2.57,3.07,3.93,4.48.73.69,2.48,2.33,3.18,2.99.7.53,2.67,2.01,3.41,2.57,0,0,2.39,1.43,2.39,1.43,6.98,4.02,15.75,5.53,23.37,3.03,0,0,.18-.08.18-.08l.04-.02s-.07-.04-.09-.04c0,0,2.37,18.85,2.37,18.85h-.43c-4.97-.22-9.86-1.74-14.31-3.76-8.35-3.84-15.05-10.1-19.42-18.04,0,0-.79-1.36-.79-1.36l-.65-1.43c-1.29-2.64-2.35-5.85-3.19-8.6h0Z"/>
        <path class="cls-5" d="M267.92,509.38c3.37,3.92,7.2,7.71,11.44,10.69,6.44,4.59,13.97,8.03,21.87,8.65.14,0,.36.01.35-.02l-1.53,10.68c-2.11-.53-3.98-1.38-5.9-2.29-11.73-5.79-20.67-16.04-26.24-27.71h0Z"/>
        <path class="cls-5" d="M286.98,507.66c6.59,6.79,15.35,11.4,24.72,12.47,1.15.09,2.36.25,3.47.13,0,0-1.03,9.7-1.03,9.7-11.64-3.2-21.6-11.73-27.15-22.3h0Z"/>
      </g>
      <g>
        <path class="cls-5" d="M613.87,558.62c19.23-28.32,53.48-46.07,87.21-50.08,28.76-2.61,58.95,4.18,82.21,21.78,3.13,2.34,6.09,4.88,8.85,7.68.47.48.9.94,1.44,1.57,2.16,2.52,1.87,6.32-.66,8.47-2.52,2.16-6.32,1.87-8.47-.66-1.16-1.52-2.57-3.02-3.96-4.4-4.12-4.12-8.73-7.67-13.6-10.92-12.33-8.09-26.8-13.37-41.37-15.76-2.16-.29-5.29-.78-7.45-1.04-4.1-.25-9.47-.76-13.54-.62-33.54.74-69.98,16.96-90.67,43.96h0Z"/>
        <path class="cls-5" d="M743.53,576.77c12.54-5.73,25.16-13.25,33.82-24.05,2.2-2.89,4.29-5.98,5.51-9.39l.2-.61c.65-3.17,4.45-5.23,7.66-4.07,3.29,1.1,5,4.9,3.55,8.07-2.5,4.89-6.43,8.84-10.54,12.35-11.6,9.47-25.84,14.49-40.2,17.7h0Z"/>
        <path class="cls-5" d="M823.78,519.51c-.84,2.74-1.9,5.95-3.19,8.6,0,0-.65,1.43-.65,1.43l-.79,1.36c-4.38,7.94-11.08,14.2-19.42,18.04-4.45,2.02-9.35,3.54-14.31,3.77,0,0-.43,0-.43,0l2.37-18.85-.06.03-.03.02.04.02.18.08c7.63,2.5,16.39.99,23.37-3.03,0,0,2.39-1.43,2.39-1.43.72-.54,2.7-2.03,3.41-2.57.72-.66,2.46-2.31,3.18-2.99,1.36-1.41,2.59-2.95,3.93-4.48h0Z"/>
        <path class="cls-5" d="M812.08,509.38c-5.56,11.67-14.51,21.92-26.23,27.71-1.92.91-3.79,1.77-5.9,2.29,0,0-1.53-10.68-1.53-10.68,0,.03.21.01.35.02,7.89-.62,15.43-4.06,21.87-8.65,4.24-2.98,8.06-6.76,11.44-10.69h0Z"/>
        <path class="cls-5" d="M793.02,507.66c-5.56,10.57-15.52,19.1-27.15,22.3,0,0-1.03-9.7-1.03-9.7,2.4.14,4.87-.28,7.26-.77,7.94-1.7,15.23-5.98,20.93-11.83h0Z"/>
      </g>
    </g>
  </g>
</svg>