<?xml version="1.0" encoding="UTF-8"?>
<svg id="Eyes" xmlns="http://www.w3.org/2000/svg" viewBox="0 0 1080 1080">
  <defs>
    <style>
      .cls-1 {
        fill: #fff;
      }
    </style>
  </defs>
  <g>
    <path d="M449.26,519.82c-.69-.61-17.2-14.89-45.51-19.8-46.8-8.11-88.67,15.73-115.55,37.16-2.5,1.99-2.91,5.64-.92,8.14,1.14,1.43,2.83,2.18,4.53,2.18,1.26,0,2.54-.41,3.6-1.26,15.48-12.34,30.85-21.54,46.04-27.6-6.64,7.62-10.98,17.35-11.82,28.18-1.01,12.98,3.1,25.57,11.56,35.45,8.46,9.89,20.27,15.89,33.25,16.9,1.29.1,2.57.15,3.85.15,11.6,0,22.7-4.09,31.6-11.71,9.89-8.46,15.89-20.27,16.9-33.25,1.27-16.41-5.78-31.56-17.59-41.33,20.3,5.2,32.17,15.28,32.42,15.5,2.4,2.1,6.05,1.86,8.16-.53,2.11-2.4,1.88-6.06-.53-8.17Z"/>
    <circle class="cls-1" cx="404.9" cy="533.01" r="12.26"/>
    <circle class="cls-1" cx="368.63" cy="564.77" r="5.55"/>
  </g>
  <g>
    <path d="M630.74,519.82c.69-.61,17.2-14.89,45.51-19.8,46.8-8.11,88.67,15.73,115.55,37.16,2.5,1.99,2.91,5.64.92,8.14-1.14,1.43-2.83,2.18-4.53,2.18-1.26,0-2.54-.41-3.6-1.26-15.48-12.34-30.85-21.54-46.04-27.6,6.64,7.62,10.98,17.35,11.82,28.18,1.01,12.98-3.1,25.57-11.56,35.45-8.46,9.89-20.27,15.89-33.25,16.9-1.29.1-2.57.15-3.85.15-11.6,0-22.7-4.09-31.6-11.71-9.89-8.46-15.89-20.27-16.9-33.25-1.27-16.41,5.78-31.56,17.59-41.33-20.3,5.2-32.17,15.28-32.42,15.5-2.4,2.1-6.05,1.86-8.16-.53-2.11-2.4-1.88-6.06.53-8.17Z"/>
    <circle class="cls-1" cx="675.1" cy="533.01" r="12.26"/>
    <circle class="cls-1" cx="711.37" cy="564.77" r="5.55"/>
  </g>
</svg>