<?xml version="1.0" encoding="UTF-8"?>
<svg xmlns="http://www.w3.org/2000/svg" xmlns:xlink="http://www.w3.org/1999/xlink" viewBox="0 0 1080 1080">
  <defs>
    <style>
      .cls-1, .cls-2 {
        fill: none;
      }

      .cls-3 {
        fill: #2192c8;
      }

      .cls-2, .cls-4 {
        stroke: #3c2415;
        stroke-miterlimit: 10;
        stroke-width: .67px;
      }

      .cls-5 {
        fill: #3c2415;
      }

      .cls-6 {
        clip-path: url(#clippath-1);
      }

      .cls-7, .cls-4 {
        fill: #fff;
      }

      .cls-8 {
        fill: #27aae1;
      }

      .cls-9 {
        clip-path: url(#clippath);
      }
    </style>
    <clipPath id="clippath">
      <path class="cls-1" d="M460.36,568.08c13.37,31.83-12.63,37.5-69.75,37.5s-63.26-27.74-66.57-39.8c-6.29-22.88,14.82-57.94,69.09-53.7,54.23,4.25,60.57,40.13,67.23,56Z"/>
    </clipPath>
    <clipPath id="clippath-1">
      <path class="cls-1" d="M619.64,568.08c-13.37,31.83,12.63,37.5,69.75,37.5,57.11,0,63.26-27.74,66.57-39.8,6.29-22.88-14.82-57.94-69.09-53.7-54.23,4.25-60.57,40.13-67.23,56Z"/>
    </clipPath>
  </defs>
  <g id="Eyes">
    <g>
      <g>
        <path class="cls-4" d="M460.36,568.08c13.37,31.83-12.63,37.5-69.75,37.5s-63.26-27.74-66.57-39.8c-6.29-22.88,14.82-57.94,69.09-53.7,54.23,4.25,60.57,40.13,67.23,56Z"/>
        <g class="cls-9">
          <g>
            <g>
              <path class="cls-8" d="M393.38,610.68c-25,0-45.34-22.52-45.34-50.2s20.34-50.2,45.34-50.2,45.34,22.52,45.34,50.2-20.34,50.2-45.34,50.2Z"/>
              <path class="cls-3" d="M393.38,512.96c23.53,0,42.67,21.32,42.67,47.53s-19.14,47.53-42.67,47.53-42.67-21.32-42.67-47.53,19.14-47.53,42.67-47.53M393.38,507.63c-26.51,0-48,23.67-48,52.86s21.49,52.86,48,52.86,48-23.67,48-52.86-21.49-52.86-48-52.86h0Z"/>
            </g>
            <ellipse cx="393.38" cy="560.49" rx="27.54" ry="30.33"/>
            <path class="cls-7" d="M420.96,556.36c-2.19.42-4.38.83-6.59,1.25-.27.05-.48-.08-.47-.3.37-6.11-1.14-12.67-4.53-18.84-.12-.22-.03-.44.21-.49,1.94-.42,3.87-.83,5.79-1.25.24-.05.54.08.67.3,3.68,6.11,5.48,12.67,5.41,18.84,0,.22-.23.44-.49.49Z"/>
            <path class="cls-7" d="M379.78,590.79c-2.01.6-4.01,1.21-6,1.81-.19.06-.41-.04-.5-.21-1.86-3.62-3.3-7.29-4.32-10.93-.05-.17.08-.36.28-.41,2.14-.6,4.29-1.21,6.45-1.81.2-.06.4.04.44.21.86,3.62,2.15,7.29,3.85,10.93.08.17,0,.36-.2.41Z"/>
          </g>
        </g>
        <path class="cls-2" d="M460.36,568.08c13.37,31.83-12.63,37.5-69.75,37.5s-63.26-27.74-66.57-39.8c-6.29-22.88,14.82-57.94,69.09-53.7,54.23,4.25,60.57,40.13,67.23,56Z"/>
      </g>
      <g>
        <path class="cls-4" d="M619.64,568.08c-13.37,31.83,12.63,37.5,69.75,37.5,57.11,0,63.26-27.74,66.57-39.8,6.29-22.88-14.82-57.94-69.09-53.7-54.23,4.25-60.57,40.13-67.23,56Z"/>
        <g class="cls-6">
          <g>
            <g>
              <path class="cls-8" d="M686.62,610.68c-25,0-45.34-22.52-45.34-50.2s20.34-50.2,45.34-50.2,45.34,22.52,45.34,50.2-20.34,50.2-45.34,50.2Z"/>
              <path class="cls-3" d="M686.62,512.96c23.53,0,42.67,21.32,42.67,47.53s-19.14,47.53-42.67,47.53-42.67-21.32-42.67-47.53,19.14-47.53,42.67-47.53M686.62,507.63c-26.51,0-48,23.67-48,52.86s21.49,52.86,48,52.86,48-23.67,48-52.86-21.49-52.86-48-52.86h0Z"/>
            </g>
            <ellipse cx="686.62" cy="560.49" rx="27.54" ry="30.33"/>
            <path class="cls-7" d="M659.04,556.36c2.19.42,4.38.83,6.59,1.25.27.05.48-.08.47-.3-.37-6.11,1.14-12.67,4.53-18.84.12-.22.03-.44-.21-.49-1.94-.42-3.87-.83-5.79-1.25-.24-.05-.54.08-.67.3-3.68,6.11-5.48,12.67-5.41,18.84,0,.22.23.44.49.49Z"/>
            <path class="cls-7" d="M700.22,590.79c2.01.6,4.01,1.21,6,1.81.19.06.41-.04.5-.21,1.86-3.62,3.3-7.29,4.32-10.93.05-.17-.08-.36-.28-.41-2.14-.6-4.29-1.21-6.45-1.81-.2-.06-.4.04-.44.21-.86,3.62-2.15,7.29-3.85,10.93-.08.17,0,.36.2.41Z"/>
          </g>
        </g>
        <path class="cls-2" d="M619.64,568.08c-13.37,31.83,12.63,37.5,69.75,37.5,57.11,0,63.26-27.74,66.57-39.8,6.29-22.88-14.82-57.94-69.09-53.7-54.23,4.25-60.57,40.13-67.23,56Z"/>
      </g>
    </g>
  </g>
  <g id="Lashes">
    <g>
      <g>
        <g>
          <path class="cls-5" d="M290.16,519.62c1.18,1.65,2.26,3.31,3.48,4.84.66.76,2.25,2.56,2.88,3.28.65.6,2.47,2.26,3.15,2.88,0,0,2.25,1.65,2.25,1.65,6.56,4.67,15.14,7.02,22.97,5.26,0,0,.19-.07.19-.07l.05-.02s-.07-.04-.08-.05l.55,18.99-.43-.03c-4.92-.71-9.65-2.69-13.88-5.13-7.94-4.62-14.01-11.5-17.6-19.82,0,0-.65-1.43-.65-1.43l-.51-1.49c-1.03-2.75-1.77-6.05-2.35-8.86h0Z"/>
          <path class="cls-5" d="M299.91,513.06c6.68,7.16,15.25,12.48,24.64,15.07,2.9.78,5.86,1.45,8.84,1.55,0,0-1.57,9.78-1.57,9.78-.35-.08-.57-.16-.81-.23-13.11-4.5-24.43-14.09-31.1-26.16h0Z"/>
          <path class="cls-5" d="M317.78,506.71c1.79,3.23,3.99,6.01,6.77,8.37,4.31,3.54,9.57,6.18,15.05,7.13,0,0-2.77,8.51-2.77,8.51-9.32-4.84-17.02-13.6-19.04-24.01h0Z"/>
        </g>
        <path class="cls-5" d="M339.07,591.87c-8.29-5.23-13.84-14.08-16.79-23.25-7.95-20.04,4.54-42.3,22.36-52.24,17.55-10.2,38.81-11.23,58.4-7.89,19.82,3.29,38.7,13.87,48.08,32.3,4.63,8.62,6.75,17.97,9.24,27.29-2.32-4.18-4.19-8.58-6.34-12.76-6-12.26-14.77-23.32-26.99-29.64-18.29-9.61-45.73-11.45-65.59-5.92-20.95,5.5-39.95,24.59-34.45,47.56,1.69,9.24,5.38,17.77,12.08,24.56h0Z"/>
      </g>
      <g>
        <g>
          <path class="cls-5" d="M789.84,519.62c-.58,2.81-1.32,6.11-2.35,8.86,0,0-.51,1.49-.51,1.49l-.65,1.43c-3.59,8.32-9.66,15.19-17.6,19.82-4.24,2.44-8.96,4.42-13.88,5.13,0,0-.43.03-.43.03l.55-18.99-.06.03-.03.02.05.02.19.07c7.83,1.76,16.41-.59,22.97-5.26,0,0,2.25-1.65,2.25-1.65.66-.61,2.5-2.28,3.15-2.88.65-.73,2.23-2.53,2.88-3.28,1.22-1.53,2.3-3.19,3.48-4.84h0Z"/>
          <path class="cls-5" d="M780.09,513.06c-6.67,12.08-17.98,21.66-31.1,26.16-.25.08-.46.15-.81.23l-1.57-9.78c6.15-.36,12.16-2.26,17.74-4.94,5.91-2.83,11.2-6.86,15.74-11.68h0Z"/>
          <path class="cls-5" d="M762.22,506.71c-2.03,10.41-9.73,19.17-19.04,24.01,0,0-2.77-8.51-2.77-8.51,5.48-.95,10.74-3.59,15.05-7.13,2.78-2.35,4.97-5.13,6.77-8.37h0Z"/>
        </g>
        <path class="cls-5" d="M740.93,591.87c6.69-6.79,10.39-15.32,12.08-24.56,5.5-22.97-13.5-42.05-34.45-47.56-19.84-5.52-47.31-3.69-65.59,5.92-12.22,6.32-20.99,17.38-26.99,29.64-2.15,4.18-4.02,8.58-6.34,12.76,2.49-9.32,4.6-18.68,9.24-27.29,9.39-18.44,28.25-29.01,48.08-32.3,19.59-3.34,40.85-2.31,58.4,7.89,17.81,9.94,30.31,32.2,22.36,52.24-2.95,9.18-8.49,18.02-16.79,23.25h0Z"/>
      </g>
    </g>
  </g>
</svg>