<?xml version="1.0" encoding="UTF-8"?>
<svg id="Eyes" xmlns="http://www.w3.org/2000/svg" xmlns:xlink="http://www.w3.org/1999/xlink" viewBox="0 0 1080 1080">
  <defs>
    <style>
      .cls-1, .cls-2 {
        fill: none;
      }

      .cls-3 {
        fill: #2192c8;
      }

      .cls-2, .cls-4 {
        stroke: #3c2415;
        stroke-miterlimit: 10;
        stroke-width: .98px;
      }

      .cls-4, .cls-5 {
        fill: #fff;
      }

      .cls-6 {
        clip-path: url(#clippath-1);
      }

      .cls-7 {
        fill: #27aae1;
      }

      .cls-8 {
        clip-path: url(#clippath);
      }
    </style>
    <clipPath id="clippath">
      <path class="cls-1" d="M464.5,569.99c3.52-2.7,4.15-7.73,1.63-11.37-18.75-27.08-58.98-47.29-94.83-47.29-54.31,0-80.08,31.86-80.08,31.86,0,0,6.8,21.08,45.25,33.58,38.45,12.5,64.57,5.19,103.74.3,13.69-1.71,20.64-4.28,24.29-7.08Z"/>
    </clipPath>
    <clipPath id="clippath-1">
      <path class="cls-1" d="M615.5,569.99c-3.52-2.7-4.15-7.73-1.63-11.37,18.75-27.08,58.98-47.29,94.83-47.29,54.31,0,80.08,31.86,80.08,31.86,0,0-6.8,21.08-45.25,33.58-38.45,12.5-64.57,5.19-103.74.3-13.69-1.71-20.64-4.28-24.29-7.08Z"/>
    </clipPath>
  </defs>
  <g>
    <path class="cls-4" d="M464.5,569.99c3.52-2.7,4.15-7.73,1.63-11.37-18.75-27.08-58.98-47.29-94.83-47.29-54.31,0-80.08,31.86-80.08,31.86,0,0,6.8,21.08,45.25,33.58,38.45,12.5,64.57,5.19,103.74.3,13.69-1.71,20.64-4.28,24.29-7.08Z"/>
    <g class="cls-8">
      <g>
        <g>
          <path class="cls-7" d="M384.95,592.75c-.41,0-.83,0-1.24-.02-11.45-.36-22.07-5.62-29.9-14.82-7.9-9.26-12.03-21.4-11.63-34.17.81-25.96,19.82-46.3,43.27-46.3.41,0,.83,0,1.24.02,11.45.36,22.07,5.62,29.9,14.82,7.9,9.26,12.03,21.4,11.63,34.17-.81,25.96-19.82,46.3-43.27,46.3Z"/>
          <path class="cls-3" d="M385.46,499.97h0c.39,0,.77,0,1.16.02,22.33.7,39.86,21.51,39.08,46.38-.37,11.91-4.86,23.02-12.64,31.28-7.64,8.11-17.62,12.58-28.11,12.58-.39,0-.77,0-1.16-.02-22.33-.7-39.86-21.51-39.08-46.38.37-11.91,4.86-23.02,12.64-31.28,7.64-8.11,17.62-12.58,28.11-12.58M385.46,494.91c-24.57,0-44.95,21.54-45.8,48.75-.87,27.7,18.82,50.8,43.98,51.59.44.01.88.02,1.32.02,24.57,0,44.95-21.54,45.8-48.75.87-27.7-18.82-50.8-43.98-51.59-.44-.01-.88-.02-1.32-.02h0Z"/>
        </g>
        <ellipse cx="385.21" cy="545.09" rx="28.79" ry="26.15" transform="translate(-171.7 913.02) rotate(-88.2)"/>
        <path class="cls-5" d="M412.49,529.34c1.03,4.52-1.34,11.59-6.21,11.3-4.87-.29-4.96-5.51-5.84-8.94-.88-3.43-3.13-8.31,1.47-10.37,4.6-2.07,9.55,3.49,10.58,8.01Z"/>
        <path class="cls-5" d="M365.28,571.87c-1.74-1.49-2.44-5.49.11-7.42,2.55-1.93,4,.25,5.37,1.34,1.37,1.09,3.83,2.21,2.05,5.03-1.78,2.81-5.79,2.54-7.52,1.05Z"/>
      </g>
    </g>
    <path class="cls-2" d="M464.5,569.99c3.52-2.7,4.15-7.73,1.63-11.37-18.75-27.08-58.98-47.29-94.83-47.29-54.31,0-80.08,31.86-80.08,31.86,0,0,6.8,21.08,45.25,33.58,38.45,12.5,64.57,5.19,103.74.3,13.69-1.71,20.64-4.28,24.29-7.08Z"/>
  </g>
  <g>
    <path class="cls-4" d="M615.5,569.99c-3.52-2.7-4.15-7.73-1.63-11.37,18.75-27.08,58.98-47.29,94.83-47.29,54.31,0,80.08,31.86,80.08,31.86,0,0-6.8,21.08-45.25,33.58-38.45,12.5-64.57,5.19-103.74.3-13.69-1.71-20.64-4.28-24.29-7.08Z"/>
    <g class="cls-6">
      <g>
        <g>
          <path class="cls-7" d="M695.05,592.75c-23.45,0-42.46-20.34-43.27-46.3-.4-12.77,3.73-24.9,11.63-34.17,7.84-9.2,18.46-14.46,29.9-14.82.42-.01.83-.02,1.24-.02,23.45,0,42.46,20.34,43.27,46.3.4,12.77-3.73,24.9-11.63,34.17-7.84,9.2-18.46,14.46-29.9,14.82-.41.01-.83.02-1.24.02h0Z"/>
          <path class="cls-3" d="M694.54,499.97c10.49,0,20.47,4.47,28.11,12.58,7.77,8.26,12.26,19.36,12.64,31.28.78,24.87-16.75,45.68-39.08,46.38-.39.01-.78.02-1.16.02-10.49,0-20.47-4.47-28.11-12.58-7.77-8.26-12.26-19.36-12.63-31.28-.38-12.14,3.53-23.66,11.02-32.45,7.37-8.65,17.33-13.59,28.06-13.93.39-.01.78-.02,1.16-.02M694.54,494.91c-.44,0-.88,0-1.32.02-25.16.79-44.85,23.89-43.98,51.59.85,27.22,21.23,48.75,45.8,48.75.44,0,.88,0,1.32-.02,25.16-.79,44.85-23.89,43.98-51.59-.85-27.22-21.23-48.75-45.8-48.75h0Z"/>
        </g>
        <ellipse cx="694.79" cy="545.09" rx="26.15" ry="28.79" transform="translate(-16.75 22.05) rotate(-1.8)"/>
        <path class="cls-5" d="M667.51,529.34c-1.03,4.52,1.34,11.59,6.21,11.3,4.87-.29,4.96-5.51,5.84-8.94.88-3.43,3.13-8.31-1.47-10.37-4.6-2.07-9.55,3.49-10.58,8.01Z"/>
        <path class="cls-5" d="M714.72,571.87c1.74-1.49,2.44-5.49-.11-7.42-2.55-1.93-4,.25-5.37,1.34-1.37,1.09-3.83,2.21-2.05,5.03,1.78,2.81,5.79,2.54,7.52,1.05Z"/>
      </g>
    </g>
    <path class="cls-2" d="M615.5,569.99c-3.52-2.7-4.15-7.73-1.63-11.37,18.75-27.08,58.98-47.29,94.83-47.29,54.31,0,80.08,31.86,80.08,31.86,0,0-6.8,21.08-45.25,33.58-38.45,12.5-64.57,5.19-103.74.3-13.69-1.71-20.64-4.28-24.29-7.08Z"/>
  </g>
</svg>