<?xml version="1.0" encoding="UTF-8"?>
<svg xmlns="http://www.w3.org/2000/svg" xmlns:xlink="http://www.w3.org/1999/xlink" viewBox="0 0 1080 1080">
  <defs>
    <style>
      .cls-1, .cls-2 {
        fill: none;
      }

      .cls-3 {
        fill: #2192c8;
      }

      .cls-2, .cls-4 {
        stroke: #3c2415;
        stroke-miterlimit: 10;
        stroke-width: 1.22px;
      }

      .cls-5 {
        fill: #3c2415;
      }

      .cls-4, .cls-6 {
        fill: #fff;
      }

      .cls-7 {
        clip-path: url(#clippath-1);
      }

      .cls-8 {
        fill: #27aae1;
      }

      .cls-9 {
        clip-path: url(#clippath);
      }
    </style>
    <clipPath id="clippath">
      <path class="cls-1" d="M461.09,572.73c-16.98,2.4-52.21,11.68-88.53,15.9-39.47,4.59-77.7-12.81-76.17-34.37,1.52-21.56,46.32-43.12,82.26-40.58,57.69,4.08,103.85,56.01,82.44,59.04Z"/>
    </clipPath>
    <clipPath id="clippath-1">
      <path class="cls-1" d="M618.91,572.73c16.98,2.4,52.21,11.68,88.53,15.9,39.47,4.59,77.7-12.81,76.17-34.37-1.52-21.56-46.32-43.12-82.26-40.58-57.69,4.08-103.85,56.01-82.44,59.04Z"/>
    </clipPath>
  </defs>
  <g id="Eyes">
    <g>
      <g>
        <path class="cls-4" d="M461.09,572.73c-16.98,2.4-52.21,11.68-88.53,15.9-39.47,4.59-77.7-12.81-76.17-34.37,1.52-21.56,46.32-43.12,82.26-40.58,57.69,4.08,103.85,56.01,82.44,59.04Z"/>
        <g class="cls-9">
          <g>
            <g>
              <path class="cls-8" d="M376.37,593.84c-.43,0-.87,0-1.3-.02-24.86-.78-44.38-23.81-43.52-51.33.41-13.13,5.37-25.38,13.96-34.51,8.51-9.04,19.66-14.02,31.39-14.02.43,0,.87,0,1.3.02,11.99.38,23.12,5.89,31.34,15.53,8.28,9.71,12.6,22.43,12.18,35.81-.41,13.13-5.37,25.38-13.96,34.51-8.51,9.04-19.66,14.02-31.39,14.02Z"/>
              <path class="cls-3" d="M376.9,496.61h0c.41,0,.81,0,1.22.02,23.4.73,41.77,22.54,40.96,48.6-.39,12.48-5.09,24.12-13.24,32.78-8,8.5-18.47,13.18-29.46,13.18-.41,0-.81,0-1.22-.02-23.4-.73-41.77-22.54-40.96-48.6.39-12.48,5.09-24.12,13.24-32.78,8-8.5,18.47-13.18,29.46-13.18M376.9,491.31c-25.75,0-47.1,22.57-48,51.09-.91,29.03,19.72,53.24,46.09,54.07.46.01.92.02,1.39.02,25.75,0,47.1-22.57,48-51.09.91-29.03-19.72-53.24-46.09-54.07-.46-.01-.92-.02-1.39-.02h0Z"/>
            </g>
            <ellipse cx="376.63" cy="543.9" rx="30.17" ry="27.4" transform="translate(-178.81 903.29) rotate(-88.2)"/>
            <path class="cls-6" d="M405.23,527.39c1.08,4.74-1.4,12.14-6.51,11.84-5.11-.3-5.2-5.77-6.12-9.37-.92-3.59-3.28-8.71,1.54-10.87,4.82-2.17,10.01,3.66,11.09,8.4Z"/>
            <path class="cls-6" d="M355.75,571.96c-1.82-1.56-2.56-5.75.11-7.77,2.67-2.02,4.19.26,5.62,1.41,1.43,1.14,4.01,2.32,2.15,5.27-1.86,2.95-6.06,2.66-7.89,1.1Z"/>
          </g>
        </g>
        <path class="cls-2" d="M461.09,572.73c-16.98,2.4-52.21,11.68-88.53,15.9-39.47,4.59-77.7-12.81-76.17-34.37,1.52-21.56,46.32-43.12,82.26-40.58,57.69,4.08,103.85,56.01,82.44,59.04Z"/>
      </g>
      <g>
        <path class="cls-4" d="M618.91,572.73c16.98,2.4,52.21,11.68,88.53,15.9,39.47,4.59,77.7-12.81,76.17-34.37-1.52-21.56-46.32-43.12-82.26-40.58-57.69,4.08-103.85,56.01-82.44,59.04Z"/>
        <g class="cls-7">
          <g>
            <g>
              <path class="cls-8" d="M703.63,593.84c-11.73,0-22.88-4.98-31.39-14.02-8.59-9.12-13.55-21.38-13.96-34.51-.42-13.38,3.91-26.1,12.18-35.81,8.21-9.64,19.34-15.15,31.34-15.53.44-.01.87-.02,1.3-.02,11.73,0,22.88,4.98,31.39,14.02,8.59,9.12,13.55,21.38,13.96,34.51.86,27.53-18.66,50.55-43.52,51.33-.44.01-.87.02-1.3.02h0Z"/>
              <path class="cls-3" d="M703.1,496.61c10.99,0,21.46,4.68,29.46,13.18,8.15,8.65,12.85,20.29,13.24,32.78.82,26.07-17.56,47.87-40.96,48.6-.41.01-.81.02-1.22.02-10.99,0-21.46-4.68-29.46-13.18-8.15-8.65-12.85-20.29-13.24-32.78-.82-26.07,17.56-47.87,40.96-48.6.41-.01.81-.02,1.22-.02M703.1,491.31c-.46,0-.92,0-1.39.02-26.36.83-47,25.03-46.09,54.07.89,28.52,22.25,51.09,48,51.09.46,0,.92,0,1.39-.02,26.36-.83,47-25.03,46.09-54.07-.89-28.52-22.25-51.09-48-51.09h0Z"/>
            </g>
            <ellipse cx="703.37" cy="543.9" rx="27.4" ry="30.17" transform="translate(-16.71 22.32) rotate(-1.8)"/>
            <path class="cls-6" d="M674.77,527.39c-1.08,4.74,1.4,12.14,6.51,11.84,5.11-.3,5.2-5.77,6.12-9.37.92-3.59,3.28-8.71-1.54-10.87-4.82-2.17-10.01,3.66-11.09,8.4Z"/>
            <path class="cls-6" d="M724.25,571.96c1.82-1.56,2.56-5.75-.11-7.77-2.67-2.02-4.19.26-5.62,1.41-1.43,1.14-4.01,2.32-2.15,5.27,1.86,2.95,6.06,2.66,7.89,1.1Z"/>
          </g>
        </g>
        <path class="cls-2" d="M618.91,572.73c16.98,2.4,52.21,11.68,88.53,15.9,39.47,4.59,77.7-12.81,76.17-34.37-1.52-21.56-46.32-43.12-82.26-40.58-57.69,4.08-103.85,56.01-82.44,59.04Z"/>
      </g>
    </g>
  </g>
  <g id="Lashes">
    <g>
      <g>
        <path class="cls-5" d="M328.83,584.91c-9.94-2.98-19.77-6.76-27.61-13.97-9.6-9.05-11.52-21.37-4.19-32.6,12.82-18.19,37.08-24.48,57.84-27.51,33.99-4.98,68.66,9.02,93.98,31.22,5.65,5.2,11.15,10.84,14.91,17.58-2.75-4.34-6.33-8.03-10.06-11.49-20.6-18.38-47.84-29.87-75.41-31.06-17.15-.52-34.53,4.25-49.38,12.53-8.23,4.46-15.94,9.52-22.54,16.05-4.82,4.61-8.22,10.04-5.98,16.77,4.19,11.42,17.38,18.84,28.44,22.47h0Z"/>
        <path class="cls-5" d="M255,526.58c.81.6,2.75,2.02,3.53,2.58,5.12,3.19,11.04,5.41,16.97,6.27,6.98,1.01,14.16,1.01,21-.62,0,0,.92,15.97.92,15.97-.18-.01-.41-.02-.56-.04-4.21-.49-8.37-1.53-12.38-2.8-11.78-3.78-22.93-10.69-29.47-21.37h0Z"/>
        <path class="cls-5" d="M267.11,520.54c4.26,2.93,8.93,5.61,13.79,7.41,7.4,2.79,15.56,4.2,23.35,2.78.14-.04.35-.08.34-.11l1.25,10.72c-2.17.03-4.2-.32-6.29-.71-12.82-2.61-24.09-10.23-32.44-20.09h0Z"/>
        <path class="cls-5" d="M284.87,516.32c7.31,6,16.53,9.6,25.97,9.6,1.15-.04,2.37-.02,3.46-.26,0,0,.07,9.75.07,9.75-11.92-1.86-22.78-9.22-29.5-19.09h0Z"/>
      </g>
      <g>
        <path class="cls-5" d="M751.15,584.91c11.05-3.62,24.27-11.06,28.44-22.47,2.23-6.74-1.15-12.15-5.98-16.77-6.6-6.52-14.31-11.59-22.54-16.05-14.85-8.27-32.23-13.04-49.38-12.53-27.57,1.19-54.8,12.68-75.41,31.06-3.73,3.45-7.31,7.15-10.06,11.49,3.76-6.75,9.26-12.38,14.91-17.58,25.32-22.2,60-36.2,93.98-31.22,20.76,3.03,45.02,9.32,57.84,27.51,7.32,11.21,5.42,23.54-4.19,32.6-7.84,7.21-17.68,10.99-27.61,13.97h0Z"/>
        <path class="cls-5" d="M824.98,526.58c-6.54,10.67-17.69,17.58-29.47,21.37-4.02,1.27-8.17,2.31-12.38,2.8-.15.02-.38.03-.56.04l.92-15.97c6.83,1.63,14.01,1.63,21,.62,5.92-.86,11.84-3.08,16.97-6.27.81-.58,2.72-1.99,3.53-2.58h0Z"/>
        <path class="cls-5" d="M812.87,520.54c-8.36,9.86-19.63,17.48-32.44,20.09-2.08.39-4.11.74-6.29.71,0,0,1.25-10.72,1.25-10.72-.02.03.2.07.34.1,7.79,1.42,15.95.01,23.35-2.78,4.86-1.8,9.52-4.48,13.79-7.41h0Z"/>
        <path class="cls-5" d="M795.12,516.32c-6.72,9.87-17.57,17.23-29.5,19.09,0,0,.07-9.75.07-9.75,2.37.41,4.87.27,7.3.05,8.09-.8,15.8-4.23,22.13-9.4h0Z"/>
      </g>
    </g>
  </g>
</svg>