<?xml version="1.0" encoding="UTF-8"?>
<svg id="Eyes" xmlns="http://www.w3.org/2000/svg" xmlns:xlink="http://www.w3.org/1999/xlink" viewBox="0 0 1080 1080">
  <defs>
    <style>
      .cls-1, .cls-2 {
        fill: none;
      }

      .cls-3 {
        fill: #2192c8;
      }

      .cls-2, .cls-4 {
        stroke: #3c2415;
        stroke-miterlimit: 10;
        stroke-width: 1.12px;
      }

      .cls-4, .cls-5 {
        fill: #fff;
      }

      .cls-6 {
        clip-path: url(#clippath-1);
      }

      .cls-7 {
        fill: #27aae1;
      }

      .cls-8 {
        clip-path: url(#clippath);
      }
    </style>
    <clipPath id="clippath">
      <path class="cls-1" d="M461.55,561.57s-59.09,17.44-112.57,17.44c-44.76,0-57.79-28.37-57.79-28.37,0,0,22.51-22.35,59.77-28.29,74.34-11.86,95.67,22.42,110.59,39.22Z"/>
    </clipPath>
    <clipPath id="clippath-1">
      <path class="cls-1" d="M618.45,561.57s59.09,17.44,112.57,17.44c44.76,0,57.79-28.37,57.79-28.37,0,0-22.51-22.35-59.77-28.29-74.34-11.86-95.67,22.42-110.59,39.22Z"/>
    </clipPath>
  </defs>
  <g>
    <path class="cls-4" d="M461.55,561.57s-59.09,17.44-112.57,17.44c-44.76,0-57.79-28.37-57.79-28.37,0,0,22.51-22.35,59.77-28.29,74.34-11.86,95.67,22.42,110.59,39.22Z"/>
    <g class="cls-8">
      <g>
        <g>
          <path class="cls-7" d="M370.59,594.57c-.39,0-.78,0-1.18-.02-10.83-.34-20.89-5.32-28.31-14.02-7.48-8.77-11.38-20.26-11.01-32.34.77-24.58,18.76-43.83,40.96-43.83.39,0,.78,0,1.18.02,10.83.34,20.89,5.32,28.31,14.02,7.48,8.77,11.38,20.26,11.01,32.34-.77,24.58-18.76,43.83-40.96,43.83Z"/>
          <path class="cls-3" d="M371.06,506.74h0c.37,0,.73,0,1.1.02,10.15.32,19.58,5,26.56,13.19,7.09,8.32,10.79,19.23,10.43,30.72-.35,11.28-4.6,21.79-11.96,29.61-7.23,7.68-16.68,11.91-26.61,11.91-.37,0-.73,0-1.1-.02-10.15-.32-19.58-5-26.56-13.18-7.09-8.32-10.79-19.23-10.43-30.72.35-11.28,4.6-21.79,11.96-29.61,7.23-7.68,16.68-11.91,26.61-11.91M371.06,501.95c-23.26,0-42.55,20.39-43.36,46.15-.82,26.23,17.82,48.09,41.63,48.84.42.01.84.02,1.25.02,23.26,0,42.55-20.39,43.36-46.15.82-26.23-17.82-48.09-41.63-48.84-.42-.01-.83-.02-1.25-.02h0Z"/>
        </g>
        <ellipse cx="370.83" cy="549.46" rx="27.26" ry="24.75" transform="translate(-189.99 902.88) rotate(-88.2)"/>
        <path class="cls-5" d="M396.65,534.55c.97,4.28-1.27,10.97-5.88,10.69-4.61-.27-4.7-5.21-5.53-8.46-.83-3.25-2.96-7.86,1.39-9.82,4.35-1.96,9.04,3.3,10.02,7.59Z"/>
        <path class="cls-5" d="M351.97,574.81c-1.65-1.41-2.31-5.2.1-7.02,2.41-1.83,3.79.24,5.08,1.27,1.29,1.03,3.62,2.1,1.94,4.76-1.68,2.66-5.48,2.4-7.12.99Z"/>
      </g>
    </g>
    <path class="cls-2" d="M461.55,561.57s-59.09,17.44-112.57,17.44c-44.76,0-57.79-28.37-57.79-28.37,0,0,22.51-22.35,59.77-28.29,74.34-11.86,95.67,22.42,110.59,39.22Z"/>
  </g>
  <g>
    <path class="cls-4" d="M618.45,561.57s59.09,17.44,112.57,17.44c44.76,0,57.79-28.37,57.79-28.37,0,0-22.51-22.35-59.77-28.29-74.34-11.86-95.67,22.42-110.59,39.22Z"/>
    <g class="cls-6">
      <g>
        <g>
          <path class="cls-7" d="M709.41,594.57c-22.2,0-40.19-19.25-40.96-43.83-.38-12.09,3.53-23.57,11.01-32.34,7.42-8.7,17.47-13.68,28.31-14.02.39-.01.79-.02,1.18-.02,22.2,0,40.19,19.25,40.96,43.83.38,12.09-3.53,23.57-11.01,32.34-7.42,8.7-17.47,13.68-28.31,14.02-.39.01-.79.02-1.18.02Z"/>
          <path class="cls-3" d="M708.94,506.74c9.93,0,19.38,4.23,26.61,11.91,7.36,7.82,11.61,18.33,11.96,29.61.36,11.49-3.35,22.4-10.43,30.72-6.98,8.18-16.41,12.87-26.56,13.18-.37.01-.74.02-1.1.02-9.93,0-19.38-4.23-26.61-11.91-7.36-7.82-11.61-18.33-11.96-29.61-.74-23.54,15.86-43.24,36.99-43.9.37-.01.73-.02,1.1-.02M708.94,501.95c-.42,0-.83,0-1.25.02-23.81.75-42.45,22.61-41.63,48.84.81,25.76,20.1,46.15,43.36,46.15.42,0,.83,0,1.25-.02,23.81-.75,42.45-22.61,41.63-48.84-.81-25.76-20.1-46.15-43.36-46.15h0Z"/>
        </g>
        <ellipse cx="709.17" cy="549.46" rx="24.75" ry="27.26" transform="translate(-16.88 22.5) rotate(-1.8)"/>
        <path class="cls-5" d="M683.35,534.55c-.97,4.28,1.27,10.97,5.88,10.69,4.61-.27,4.7-5.21,5.53-8.46.83-3.25,2.96-7.86-1.39-9.82-4.35-1.96-9.04,3.3-10.02,7.59Z"/>
        <path class="cls-5" d="M728.03,574.81c1.65-1.41,2.31-5.2-.1-7.02-2.41-1.83-3.79.24-5.08,1.27-1.29,1.03-3.62,2.1-1.94,4.76,1.68,2.66,5.48,2.4,7.12.99Z"/>
      </g>
    </g>
    <path class="cls-2" d="M618.45,561.57s59.09,17.44,112.57,17.44c44.76,0,57.79-28.37,57.79-28.37,0,0-22.51-22.35-59.77-28.29-74.34-11.86-95.67,22.42-110.59,39.22Z"/>
  </g>
</svg>