<?xml version="1.0" encoding="UTF-8"?>
<svg id="Eyes" xmlns="http://www.w3.org/2000/svg" xmlns:xlink="http://www.w3.org/1999/xlink" viewBox="0 0 1080 1080">
  <defs>
    <style>
      .cls-1, .cls-2 {
        fill: none;
      }

      .cls-3 {
        fill: #2192c8;
      }

      .cls-2, .cls-4 {
        stroke: #3c2415;
        stroke-miterlimit: 10;
        stroke-width: 1px;
      }

      .cls-4, .cls-5 {
        fill: #fff;
      }

      .cls-6 {
        clip-path: url(#clippath-1);
      }

      .cls-7 {
        fill: #62d6ff;
      }

      .cls-8 {
        fill: #27aae1;
      }

      .cls-9 {
        clip-path: url(#clippath);
      }
    </style>
    <clipPath id="clippath">
      <path class="cls-1" d="M456.97,636.43c-8.89,8.02-52.05,23.6-132.65-2.24-58.93-18.89-49.11-83.78-25.78-134.14,0,0-5.47-14.46,60.31-10.01,147.42,9.98,98.13,146.39,98.13,146.39Z"/>
    </clipPath>
    <clipPath id="clippath-1">
      <path class="cls-1" d="M623.03,636.43c8.89,8.02,52.05,23.6,132.65-2.24,58.93-18.89,49.11-83.78,25.78-134.14,0,0,5.47-14.46-60.31-10.01-147.42,9.98-98.13,146.39-98.13,146.39Z"/>
    </clipPath>
  </defs>
  <g>
    <path class="cls-4" d="M462.39,614.81c-2.73,15.34-13.01,27.32-26.06,30.39-21.42,5.04-58.46,6.16-112.02-11.01-57.18-18.33-49.63-79.97-27.82-129.63.88-2.01,1.46-4.16,2.07-6.29,1.06-3.72,9.12-11.69,60.27-8.23,110.43,7.48,110.48,85.88,103.55,124.77Z"/>
    <g class="cls-9">
      <g>
        <g>
          <path class="cls-8" d="M373.96,655.11c-1.19,0-2.39-.04-3.58-.12-17.95-1.21-34.27-11.42-45.95-28.75-11.86-17.59-17.51-40.35-15.9-64.08,3.18-46.97,34.02-83.77,70.22-83.77,1.19,0,2.39.04,3.58.12,17.95,1.21,34.27,11.42,45.95,28.75,11.86,17.59,17.51,40.35,15.9,64.08-3.18,46.97-34.02,83.77-70.22,83.77Z"/>
          <path class="cls-3" d="M378.75,481.85c1.11,0,2.23.04,3.34.11,16.86,1.14,32.24,10.81,43.31,27.23,11.43,16.96,16.87,38.95,15.32,61.91-1.5,22.17-9.41,42.72-22.28,57.86-12.44,14.63-28.23,22.68-44.48,22.68-1.11,0-2.24-.04-3.35-.11-35.49-2.4-61.79-42.39-58.63-89.14,1.5-22.17,9.41-42.72,22.28-57.85,12.43-14.63,28.23-22.68,44.48-22.69h0M378.74,474.92c-37.77,0-70.36,38-73.67,87-3.43,50.64,25.71,93.86,65.07,96.52,1.28.09,2.55.13,3.82.13,37.77,0,70.36-38,73.67-87,3.43-50.64-25.71-93.86-65.07-96.52-1.28-.09-2.55-.13-3.82-.13h0Z"/>
        </g>
        <ellipse cx="385.02" cy="564.06" rx="66.26" ry="45.72" transform="translate(-216.56 887.33) rotate(-83.93)"/>
        <path class="cls-5" d="M428.65,532.96c.6,12.83-7.2,23.62-17.4,24.12-10.21.49-15.04-11.38-15.63-24.21-.6-12.83,3.26-21.74,13.47-22.24,10.21-.49,18.97,9.5,19.56,22.33Z"/>
        <path class="cls-5" d="M358.53,574.54c2.13,7.18,4.44,13.67-.12,15.05-4.56,1.38-9.98-3.33-12.11-10.51-2.13-7.18-.15-14.12,4.41-15.5,4.56-1.38,5.7,3.78,7.82,10.96Z"/>
        <path class="cls-7" d="M361.09,630.32c6.82,2.99,13.26,3.69,11.36,8.09-1.9,4.4-8.97,5.54-15.79,2.56-6.82-2.99-10.8-8.98-8.9-13.37s6.51-.26,13.33,2.73Z"/>
      </g>
    </g>
    <path class="cls-2" d="M462.39,614.81c-2.73,15.34-13.01,27.32-26.06,30.39-21.42,5.04-58.46,6.16-112.02-11.01-57.18-18.33-49.63-79.97-27.82-129.63.88-2.01,1.46-4.16,2.07-6.29,1.06-3.72,9.12-11.69,60.27-8.23,110.43,7.48,110.48,85.88,103.55,124.77Z"/>
    <path d="M397.3,500.89c-14.81,2.73-29.22,3.37-42.95,4.89-13.89,1.34-26.44,3.97-40.09,7.12-14.74,3.3-29.77,6.8-45.02,4.57-15.24-2.14-31.55-9.2-39.22-23.15,18.87,8.88,39.35,7.47,58.85,2.48,14.04-3.85,28.07-7.72,42.82-8.86,22.65-1.67,45.11,3.44,65.61,12.95h0Z"/>
    <path d="M463.44,567.61c-22.2-63.12-98.37-66.16-154.94-61.54-29.61,1.99-60.84-10.8-78.47-34.79,24.5,11.34,51.84,17.76,78.48,13.52,41.1-4.82,86.28-2.68,121.3,21.83,19.43,13.77,34.56,36.62,33.64,60.99h0Z"/>
  </g>
  <g>
    <path class="cls-4" d="M617.61,614.81c2.73,15.34,13.01,27.32,26.06,30.39,21.42,5.04,58.46,6.16,112.02-11.01,57.18-18.33,49.63-79.97,27.82-129.63-.88-2.01-1.46-4.16-2.07-6.29-1.06-3.72-9.12-11.69-60.27-8.23-110.43,7.48-110.48,85.88-103.55,124.77Z"/>
    <g class="cls-6">
      <g>
        <g>
          <path class="cls-8" d="M706.04,655.11c-36.19,0-67.04-36.8-70.22-83.77-1.61-23.73,4.04-46.49,15.9-64.08,11.68-17.33,28-27.54,45.95-28.75,1.19-.08,2.39-.12,3.58-.12,36.19,0,67.04,36.8,70.22,83.77,1.61,23.73-4.04,46.49-15.9,64.08-11.68,17.33-28,27.54-45.95,28.75-1.19.08-2.39.12-3.58.12h0Z"/>
          <path class="cls-3" d="M701.26,481.85c16.25,0,32.04,8.06,44.48,22.68,12.87,15.14,20.78,35.69,22.28,57.86,1.55,22.96-3.89,44.95-15.32,61.91-11.07,16.42-26.45,26.09-43.31,27.23-1.11.08-2.24.11-3.35.11-16.25,0-32.04-8.06-44.48-22.68-12.87-15.14-20.78-35.69-22.28-57.86-1.55-22.96,3.89-44.95,15.32-61.91,11.07-16.42,26.45-26.09,43.31-27.23,1.11-.08,2.24-.11,3.35-.11M701.26,474.92c-1.27,0-2.54.04-3.82.13-39.37,2.66-68.5,45.88-65.07,96.52,3.32,49,35.9,87,73.67,87,1.27,0,2.54-.04,3.82-.13,39.37-2.67,68.5-45.88,65.07-96.52-3.32-49-35.9-87-73.67-87h0Z"/>
        </g>
        <ellipse cx="694.98" cy="564.06" rx="45.72" ry="66.26" transform="translate(-55.71 76.59) rotate(-6.07)"/>
        <path class="cls-5" d="M651.35,532.96c-.6,12.83,7.2,23.62,17.4,24.12s15.04-11.38,15.63-24.21-3.26-21.74-13.47-22.24-18.97,9.5-19.56,22.33Z"/>
        <path class="cls-5" d="M721.47,574.54c-2.13,7.18-4.44,13.67.12,15.05,4.56,1.38,9.98-3.33,12.11-10.51,2.13-7.18.15-14.12-4.41-15.5s-5.7,3.78-7.82,10.96Z"/>
        <path class="cls-7" d="M718.91,630.32c-6.82,2.99-13.26,3.69-11.36,8.09,1.9,4.4,8.97,5.54,15.79,2.56,6.82-2.99,10.8-8.98,8.9-13.37s-6.51-.26-13.33,2.73Z"/>
      </g>
    </g>
    <path class="cls-2" d="M617.61,614.81c2.73,15.34,13.01,27.32,26.06,30.39,21.42,5.04,58.46,6.16,112.02-11.01,57.18-18.33,49.63-79.97,27.82-129.63-.88-2.01-1.46-4.16-2.07-6.29-1.06-3.72-9.12-11.69-60.27-8.23-110.43,7.48-110.48,85.88-103.55,124.77Z"/>
    <path d="M682.7,500.89c20.5-9.51,42.96-14.61,65.61-12.95,14.73,1.14,28.79,5.01,42.82,8.86,19.51,4.98,39.98,6.4,58.85-2.48-7.68,13.96-23.99,21.02-39.22,23.16-15.25,2.23-30.27-1.28-45.02-4.58-13.64-3.15-26.2-5.78-40.09-7.12-13.73-1.53-28.14-2.17-42.95-4.89h0Z"/>
    <path d="M616.56,567.61c-.92-24.37,14.21-47.21,33.64-60.99,35.02-24.51,80.19-26.65,121.3-21.83,26.65,4.24,53.98-2.18,78.48-13.52-17.63,23.99-48.87,36.78-78.47,34.79-56.58-4.62-132.74-1.57-154.94,61.54h0Z"/>
  </g>
</svg>