<?xml version="1.0" encoding="UTF-8"?>
<svg id="Eyes" xmlns="http://www.w3.org/2000/svg" xmlns:xlink="http://www.w3.org/1999/xlink" viewBox="0 0 1080 1080">
  <defs>
    <style>
      .cls-1, .cls-2 {
        fill: none;
      }

      .cls-3 {
        fill: #2192c8;
      }

      .cls-2, .cls-4 {
        stroke: #3c2415;
        stroke-miterlimit: 10;
        stroke-width: 1.22px;
      }

      .cls-4, .cls-5 {
        fill: #fff;
      }

      .cls-6 {
        clip-path: url(#clippath-1);
      }

      .cls-7 {
        fill: #27aae1;
      }

      .cls-8 {
        clip-path: url(#clippath);
      }
    </style>
    <clipPath id="clippath">
      <path class="cls-1" d="M461.09,572.73c-16.98,2.4-52.21,11.68-88.53,15.9-39.47,4.59-77.7-12.81-76.17-34.37s46.32-43.12,82.26-40.58c57.69,4.08,103.85,56.01,82.44,59.04Z"/>
    </clipPath>
    <clipPath id="clippath-1">
      <path class="cls-1" d="M618.91,572.73c16.98,2.4,52.21,11.68,88.53,15.9,39.47,4.59,77.7-12.81,76.17-34.37-1.52-21.56-46.32-43.12-82.26-40.58-57.69,4.08-103.85,56.01-82.44,59.04Z"/>
    </clipPath>
  </defs>
  <g>
    <path class="cls-4" d="M461.09,572.73c-16.98,2.4-52.21,11.68-88.53,15.9-39.47,4.59-77.7-12.81-76.17-34.37s46.32-43.12,82.26-40.58c57.69,4.08,103.85,56.01,82.44,59.04Z"/>
    <g class="cls-8">
      <g>
        <g>
          <path class="cls-7" d="M376.37,593.84c-.43,0-.87,0-1.3-.02-24.86-.78-44.38-23.81-43.52-51.33.41-13.13,5.37-25.38,13.96-34.51,8.51-9.04,19.66-14.02,31.39-14.02.43,0,.87,0,1.3.02,11.99.38,23.12,5.89,31.34,15.53,8.28,9.71,12.6,22.43,12.18,35.81-.41,13.13-5.37,25.38-13.96,34.51-8.51,9.04-19.66,14.02-31.39,14.02Z"/>
          <path class="cls-3" d="M376.9,491.31v5.3h0c.4,0,.81,0,1.22.02,23.4.73,41.77,22.54,40.96,48.6-.39,12.48-5.09,24.12-13.24,32.78-8,8.5-18.47,13.18-29.46,13.18-.41,0-.81,0-1.22-.02-11.24-.35-21.68-5.54-29.4-14.6-7.85-9.21-11.95-21.28-11.55-34.01.39-12.48,5.09-24.12,13.24-32.78,8-8.5,18.47-13.18,29.46-13.18v-5.3M376.9,491.31c-25.75,0-47.1,22.57-48,51.09-.91,29.03,19.72,53.24,46.09,54.07.46.01.92.02,1.39.02,25.75,0,47.1-22.57,48-51.09.91-29.03-19.72-53.24-46.09-54.07-.46-.01-.92-.02-1.39-.02h0Z"/>
        </g>
        <ellipse cx="376.63" cy="543.9" rx="30.17" ry="27.4" transform="translate(-178.81 903.29) rotate(-88.2)"/>
        <path class="cls-5" d="M405.23,527.39c1.08,4.74-1.4,12.14-6.51,11.84-5.11-.3-5.2-5.77-6.12-9.37-.92-3.59-3.28-8.71,1.54-10.87,4.82-2.17,10.01,3.66,11.09,8.4Z"/>
        <path class="cls-5" d="M355.75,571.96c-1.82-1.56-2.56-5.75.11-7.77,2.67-2.02,4.19.26,5.62,1.41,1.43,1.14,4.01,2.32,2.15,5.27-1.86,2.95-6.06,2.66-7.89,1.1Z"/>
      </g>
    </g>
    <path class="cls-2" d="M461.09,572.73c-16.98,2.4-52.21,11.68-88.53,15.9-39.47,4.59-77.7-12.81-76.17-34.37s46.32-43.12,82.26-40.58c57.69,4.08,103.85,56.01,82.44,59.04Z"/>
  </g>
  <g>
    <path class="cls-4" d="M618.91,572.73c16.98,2.4,52.21,11.68,88.53,15.9,39.47,4.59,77.7-12.81,76.17-34.37-1.52-21.56-46.32-43.12-82.26-40.58-57.69,4.08-103.85,56.01-82.44,59.04Z"/>
    <g class="cls-6">
      <g>
        <g>
          <path class="cls-7" d="M703.63,593.84c-11.73,0-22.88-4.98-31.39-14.02-8.59-9.12-13.55-21.38-13.96-34.51-.42-13.38,3.91-26.1,12.18-35.81,8.21-9.64,19.34-15.15,31.34-15.53.44-.01.87-.02,1.3-.02,11.73,0,22.88,4.98,31.39,14.02,8.59,9.12,13.55,21.38,13.96,34.51.86,27.53-18.66,50.55-43.52,51.33-.44.01-.87.02-1.3.02h0Z"/>
          <path class="cls-3" d="M703.1,496.61c10.99,0,21.46,4.68,29.46,13.18,8.15,8.65,12.85,20.29,13.24,32.78.82,26.07-17.56,47.87-40.96,48.6-.41.01-.81.02-1.22.02-10.99,0-21.46-4.68-29.46-13.18-8.15-8.65-12.85-20.29-13.24-32.78-.82-26.07,17.56-47.87,40.96-48.6.41-.01.81-.02,1.22-.02M703.1,491.31c-.46,0-.92,0-1.39.02-26.36.83-47,25.03-46.09,54.07.89,28.52,22.25,51.09,48,51.09.46,0,.92,0,1.39-.02,26.36-.83,47-25.03,46.09-54.07-.89-28.52-22.25-51.09-48-51.09h0Z"/>
        </g>
        <ellipse cx="703.37" cy="543.9" rx="27.4" ry="30.17" transform="translate(-16.71 22.32) rotate(-1.8)"/>
        <path class="cls-5" d="M674.77,527.39c-1.08,4.74,1.4,12.14,6.51,11.84,5.11-.3,5.2-5.77,6.12-9.37.92-3.59,3.28-8.71-1.54-10.87-4.82-2.17-10.01,3.66-11.09,8.4Z"/>
        <path class="cls-5" d="M724.25,571.96c1.82-1.56,2.56-5.75-.11-7.77-2.67-2.02-4.19.26-5.62,1.41-1.43,1.14-4.01,2.32-2.15,5.27,1.86,2.95,6.06,2.66,7.89,1.1Z"/>
      </g>
    </g>
    <path class="cls-2" d="M618.91,572.73c16.98,2.4,52.21,11.68,88.53,15.9,39.47,4.59,77.7-12.81,76.17-34.37-1.52-21.56-46.32-43.12-82.26-40.58-57.69,4.08-103.85,56.01-82.44,59.04Z"/>
  </g>
</svg>