<?xml version="1.0" encoding="UTF-8"?>
<svg xmlns="http://www.w3.org/2000/svg" xmlns:xlink="http://www.w3.org/1999/xlink" viewBox="0 0 1080 1080">
  <defs>
    <style>
      .cls-1, .cls-2 {
        fill: none;
      }

      .cls-3 {
        fill: #2192c8;
      }

      .cls-2, .cls-4 {
        stroke: #3c2415;
        stroke-miterlimit: 10;
        stroke-width: 1.12px;
      }

      .cls-5 {
        fill: #3c2415;
      }

      .cls-4, .cls-6 {
        fill: #fff;
      }

      .cls-7 {
        clip-path: url(#clippath-1);
      }

      .cls-8 {
        fill: #27aae1;
      }

      .cls-9 {
        clip-path: url(#clippath);
      }
    </style>
    <clipPath id="clippath">
      <path class="cls-1" d="M461.55,561.57s-59.09,17.44-112.57,17.44c-44.76,0-57.79-28.37-57.79-28.37,0,0,22.51-22.35,59.77-28.29,74.34-11.86,95.67,22.42,110.59,39.22Z"/>
    </clipPath>
    <clipPath id="clippath-1">
      <path class="cls-1" d="M618.45,561.57s59.09,17.44,112.57,17.44c44.76,0,57.79-28.37,57.79-28.37,0,0-22.51-22.35-59.77-28.29-74.34-11.86-95.67,22.42-110.59,39.22Z"/>
    </clipPath>
  </defs>
  <g id="Eyes">
    <g>
      <path class="cls-4" d="M461.55,561.57s-59.09,17.44-112.57,17.44c-44.76,0-57.79-28.37-57.79-28.37,0,0,22.51-22.35,59.77-28.29,74.34-11.86,95.67,22.42,110.59,39.22Z"/>
      <g class="cls-9">
        <g>
          <g>
            <path class="cls-8" d="M370.59,594.57c-.39,0-.78,0-1.18-.02-10.83-.34-20.89-5.32-28.31-14.02-7.48-8.77-11.38-20.26-11.01-32.34.77-24.58,18.76-43.83,40.96-43.83.39,0,.78,0,1.18.02,10.83.34,20.89,5.32,28.31,14.02,7.48,8.77,11.38,20.26,11.01,32.34-.77,24.58-18.76,43.83-40.96,43.83Z"/>
            <path class="cls-3" d="M371.06,506.74h0c.37,0,.73,0,1.1.02,10.15.32,19.58,5,26.56,13.19,7.09,8.32,10.79,19.23,10.43,30.72-.35,11.28-4.6,21.79-11.96,29.61-7.23,7.68-16.68,11.91-26.61,11.91-.37,0-.73,0-1.1-.02-10.15-.32-19.58-5-26.56-13.19-7.09-8.32-10.79-19.23-10.43-30.72.35-11.28,4.6-21.79,11.96-29.61,7.23-7.68,16.68-11.91,26.61-11.91M371.06,501.95c-23.26,0-42.55,20.39-43.36,46.15-.82,26.23,17.82,48.09,41.63,48.84.42.01.83.02,1.25.02,23.26,0,42.55-20.39,43.36-46.15.82-26.23-17.82-48.09-41.63-48.84-.42-.01-.83-.02-1.25-.02h0Z"/>
          </g>
          <ellipse cx="370.83" cy="549.46" rx="27.26" ry="24.75" transform="translate(-189.99 902.88) rotate(-88.2)"/>
          <path class="cls-6" d="M396.65,534.55c.97,4.28-1.27,10.97-5.88,10.69-4.61-.27-4.7-5.21-5.53-8.46-.83-3.25-2.96-7.86,1.39-9.82,4.35-1.96,9.04,3.3,10.02,7.59Z"/>
          <path class="cls-6" d="M351.97,574.81c-1.65-1.41-2.31-5.2.1-7.02,2.41-1.83,3.79.24,5.08,1.27,1.29,1.03,3.62,2.1,1.94,4.76-1.68,2.66-5.48,2.4-7.12.99Z"/>
        </g>
      </g>
      <path class="cls-2" d="M461.55,561.57s-59.09,17.44-112.57,17.44c-44.76,0-57.79-28.37-57.79-28.37,0,0,22.51-22.35,59.77-28.29,74.34-11.86,95.67,22.42,110.59,39.22Z"/>
    </g>
    <g>
      <path class="cls-4" d="M618.45,561.57s59.09,17.44,112.57,17.44c44.76,0,57.79-28.37,57.79-28.37,0,0-22.51-22.35-59.77-28.29-74.34-11.86-95.67,22.42-110.59,39.22Z"/>
      <g class="cls-7">
        <g>
          <g>
            <path class="cls-8" d="M709.41,594.57c-22.2,0-40.19-19.25-40.96-43.83-.38-12.09,3.53-23.58,11.01-32.34,7.42-8.7,17.47-13.68,28.31-14.02.39-.01.79-.02,1.18-.02,22.2,0,40.19,19.25,40.96,43.83.38,12.09-3.53,23.57-11.01,32.34-7.42,8.7-17.47,13.68-28.31,14.02-.39.01-.79.02-1.18.02Z"/>
            <path class="cls-3" d="M708.94,506.74c9.93,0,19.38,4.23,26.61,11.91,7.36,7.82,11.61,18.33,11.96,29.61.74,23.54-15.86,43.24-36.99,43.9-.37.01-.73.02-1.1.02-9.93,0-19.38-4.23-26.61-11.91-7.36-7.82-11.61-18.33-11.96-29.61-.74-23.54,15.86-43.24,36.99-43.9.37-.01.73-.02,1.1-.02M708.94,501.95c-.42,0-.83,0-1.25.02-23.81.75-42.45,22.61-41.63,48.84.81,25.76,20.1,46.15,43.36,46.15.42,0,.83,0,1.25-.02,23.81-.75,42.45-22.61,41.63-48.84-.81-25.76-20.1-46.15-43.36-46.15h0Z"/>
          </g>
          <ellipse cx="709.17" cy="549.46" rx="24.75" ry="27.26" transform="translate(-16.88 22.5) rotate(-1.8)"/>
          <path class="cls-6" d="M683.35,534.55c-.97,4.28,1.27,10.97,5.88,10.69,4.61-.27,4.7-5.21,5.53-8.46.83-3.25,2.96-7.86-1.39-9.82-4.35-1.96-9.04,3.3-10.02,7.59Z"/>
          <path class="cls-6" d="M728.03,574.81c1.65-1.41,2.31-5.2-.1-7.02-2.41-1.83-3.79.24-5.08,1.27-1.29,1.03-3.62,2.1-1.94,4.76,1.68,2.66,5.48,2.4,7.12.99Z"/>
        </g>
      </g>
      <path class="cls-2" d="M618.45,561.57s59.09,17.44,112.57,17.44c44.76,0,57.79-28.37,57.79-28.37,0,0-22.51-22.35-59.77-28.29-74.34-11.86-95.67,22.42-110.59,39.22Z"/>
    </g>
  </g>
  <g id="Lashes">
    <g>
      <g>
        <path class="cls-5" d="M311.26,570.16c-3.11-1.7-6.35-3.38-9.32-5.34-4.83-3.06-9.16-6.9-13.86-10.29-.64-.54-1.33-.91-1.93-1.58,0,0-1.65-3.71-1.65-3.71,7.04-6.75,15.27-12.04,23.81-16.58,10.94-5.81,22.81-9.86,34.92-12.3,11.98-2.08,24.27-3.06,36.43-2.78,30.22.65,55.13,10.86,74.28,34.72,2.57,3.06,5.03,6.21,7.61,9.26-10.37-11.92-21.38-24.04-35.97-30.71-21.49-10.34-46.32-10.05-69.4-6.21-7.45,1.19-15.49,3.21-22.56,5.83-14.25,5.39-27.72,13.36-38.53,24.09,0,0,1.13-6.25,1.13-6.25-.11,0-.11.18-.15.29-.08.4-.1.84-.08,1.25.5,8.27,8.57,16.14,15.27,20.3h0Z"/>
        <path class="cls-5" d="M256.44,529.37c.75.68,2.55,2.27,3.27,2.9,4.8,3.66,10.49,6.42,16.3,7.84,6.86,1.66,14.01,2.34,20.96,1.36,0,0-.59,15.99-.59,15.99-.18-.03-.41-.06-.55-.09-4.15-.88-8.19-2.31-12.07-3.95-11.37-4.87-21.82-12.8-27.33-24.04h0Z"/>
        <path class="cls-5" d="M268.39,522.86c3.82,3.19,8.05,6.19,12.55,8.35,6.84,3.35,14.54,5.43,22.13,4.78.14-.02.35-.04.33-.07l.23,10.39c-3.01-.28-5.83-1.14-8.63-2.16-10.92-4.02-20.01-11.85-26.61-21.29h0Z"/>
        <path class="cls-5" d="M288.09,518.57c6.44,6.39,14.92,10.65,23.92,11.51,1.1.07,2.26.2,3.33.06l-.81,9.32c-11.22-2.85-20.92-10.86-26.44-20.89h0Z"/>
      </g>
      <g>
        <path class="cls-5" d="M768.74,570.16c6.71-4.17,14.76-12.03,15.27-20.3.01-.42,0-.85-.08-1.25-.04-.11-.04-.29-.15-.29l1.13,6.25c-10.82-10.73-24.29-18.7-38.53-24.09-7.08-2.62-15.11-4.63-22.56-5.83-23.07-3.85-47.91-4.13-69.4,6.2-14.59,6.68-25.6,18.79-35.97,30.71,2.58-3.05,5.04-6.2,7.61-9.26,19.15-23.86,44.06-34.07,74.28-34.72,12.15-.28,24.45.69,36.43,2.77,12.11,2.44,23.98,6.48,34.92,12.3,8.55,4.54,16.78,9.83,23.81,16.58,0,0-1.65,3.71-1.65,3.71-.59.67-1.29,1.04-1.93,1.58-4.7,3.4-9.03,7.23-13.86,10.29-2.98,1.95-6.21,3.64-9.32,5.34h0Z"/>
        <path class="cls-5" d="M823.56,529.37c-5.51,11.24-15.96,19.17-27.33,24.04-3.88,1.65-7.92,3.07-12.07,3.95-.15.03-.37.06-.55.09l-.59-15.99c6.96.98,14.1.31,20.96-1.36,5.81-1.41,11.5-4.18,16.3-7.84.75-.65,2.52-2.24,3.27-2.9h0Z"/>
        <path class="cls-5" d="M811.61,522.86c-6.6,9.44-15.68,17.27-26.61,21.29-2.8,1.02-5.62,1.87-8.63,2.16,0,0,.23-10.39.23-10.39-.01.03.2.05.33.07,7.6.65,15.29-1.43,22.13-4.78,4.5-2.16,8.72-5.16,12.55-8.35h0Z"/>
        <path class="cls-5" d="M791.91,518.57c-5.52,10.03-15.22,18.03-26.44,20.89,0,0-.81-9.32-.81-9.32,1.06.13,2.23,0,3.33-.06,9-.85,17.48-5.12,23.92-11.51h0Z"/>
      </g>
    </g>
  </g>
</svg>