<?xml version="1.0" encoding="UTF-8"?>
<svg id="Eyes" xmlns="http://www.w3.org/2000/svg" xmlns:xlink="http://www.w3.org/1999/xlink" viewBox="0 0 1080 1080">
  <defs>
    <style>
      .cls-1, .cls-2 {
        fill: none;
      }

      .cls-3 {
        fill: #2192c8;
      }

      .cls-2, .cls-4 {
        stroke: #3c2415;
        stroke-miterlimit: 10;
        stroke-width: 1.07px;
      }

      .cls-4, .cls-5 {
        fill: #fff;
      }

      .cls-6 {
        clip-path: url(#clippath-1);
      }

      .cls-7 {
        fill: #27aae1;
      }

      .cls-8 {
        clip-path: url(#clippath);
      }
    </style>
    <clipPath id="clippath">
      <path class="cls-1" d="M466.67,568.12s-53.2,21.85-89.43,17.94c-64.42-6.94-81.66-55.83-81.66-55.83,0,0,38.21-25.46,97.67-15.3,34.59,5.91,52.82,24.61,73.42,53.18Z"/>
    </clipPath>
    <clipPath id="clippath-1">
      <path class="cls-1" d="M613.33,568.12s53.2,21.85,89.43,17.94c64.42-6.94,81.66-55.83,81.66-55.83,0,0-38.21-25.46-97.67-15.3-34.59,5.91-52.82,24.61-73.42,53.18Z"/>
    </clipPath>
  </defs>
  <g>
    <path class="cls-4" d="M466.67,568.12s-53.2,21.85-89.43,17.94c-64.42-6.94-81.66-55.83-81.66-55.83,0,0,38.21-25.46,97.67-15.3,34.59,5.91,52.82,24.61,73.42,53.18Z"/>
    <g class="cls-8">
      <g>
        <g>
          <path class="cls-7" d="M380.87,602.29c-.47,0-.93,0-1.4-.02-12.93-.41-24.94-6.35-33.79-16.74-8.92-10.47-13.59-24.18-13.14-38.61.44-14.16,5.79-27.37,15.05-37.21,9.18-9.75,21.2-15.12,33.85-15.12.47,0,.93,0,1.4.02,12.93.41,24.94,6.35,33.79,16.74,8.92,10.47,13.59,24.18,13.14,38.61-.44,14.16-5.79,27.37-15.05,37.21-9.18,9.75-21.2,15.12-33.85,15.12Z"/>
          <path class="cls-3" d="M381.44,497.44h0c.44,0,.88,0,1.31.02,25.23.79,45.05,24.3,44.16,52.41-.42,13.46-5.49,26.01-14.28,35.34-8.63,9.17-19.91,14.22-31.77,14.22-.44,0-.88,0-1.31-.02-12.12-.38-23.38-5.97-31.71-15.74-8.46-9.93-12.89-22.95-12.46-36.67.42-13.46,5.49-26.01,14.28-35.34,8.63-9.17,19.91-14.22,31.77-14.22M381.44,491.72c-27.77,0-50.79,24.34-51.76,55.09-.98,31.31,21.27,57.41,49.7,58.3.5.02,1,.02,1.49.02,27.76,0,50.79-24.34,51.76-55.09.98-31.31-21.27-57.41-49.7-58.3-.5-.02-1-.02-1.49-.02h0Z"/>
        </g>
        <ellipse cx="381.15" cy="548.43" rx="32.54" ry="29.55" transform="translate(-178.96 912.21) rotate(-88.2)"/>
        <path class="cls-5" d="M411.99,530.63c1.16,5.11-1.51,13.09-7.02,12.77-5.5-.33-5.61-6.22-6.6-10.1-.99-3.88-3.54-9.39,1.66-11.72,5.2-2.34,10.8,3.94,11.96,9.06Z"/>
        <path class="cls-5" d="M358.64,578.7c-1.97-1.68-2.76-6.2.12-8.38,2.88-2.18,4.52.29,6.07,1.52,1.55,1.23,4.32,2.5,2.32,5.68-2.01,3.18-6.54,2.87-8.5,1.19Z"/>
      </g>
    </g>
    <path class="cls-2" d="M466.67,568.12s-53.2,21.85-89.43,17.94c-64.42-6.94-81.66-55.83-81.66-55.83,0,0,38.21-25.46,97.67-15.3,34.59,5.91,52.82,24.61,73.42,53.18Z"/>
  </g>
  <g>
    <path class="cls-4" d="M613.33,568.12s53.2,21.85,89.43,17.94c64.42-6.94,81.66-55.83,81.66-55.83,0,0-38.21-25.46-97.67-15.3-34.59,5.91-52.82,24.61-73.42,53.18Z"/>
    <g class="cls-6">
      <g>
        <g>
          <path class="cls-7" d="M699.13,602.29c-12.65,0-24.67-5.37-33.85-15.12-9.26-9.84-14.61-23.05-15.05-37.21-.45-14.43,4.21-28.14,13.14-38.61,8.86-10.39,20.86-16.34,33.79-16.74.47-.01.94-.02,1.4-.02,12.65,0,24.67,5.37,33.85,15.12,9.26,9.84,14.61,23.05,15.05,37.21.45,14.43-4.21,28.14-13.14,38.61-8.86,10.39-20.86,16.34-33.79,16.74-.47.01-.94.02-1.4.02h0Z"/>
          <path class="cls-3" d="M698.56,497.44c11.85,0,23.14,5.05,31.77,14.22,8.79,9.33,13.86,21.88,14.28,35.34.43,13.72-3.99,26.74-12.46,36.67-8.33,9.77-19.59,15.36-31.71,15.74-.44.01-.88.02-1.31.02-11.85,0-23.14-5.05-31.77-14.22-8.79-9.33-13.86-21.88-14.28-35.34-.88-28.11,18.93-51.62,44.16-52.41.44-.01.88-.02,1.31-.02M698.56,491.72c-.5,0-.99,0-1.49.02-28.43.89-50.68,26.99-49.7,58.3.96,30.76,23.99,55.09,51.76,55.09.5,0,.99,0,1.49-.02,28.43-.89,50.68-26.99,49.7-58.3-.96-30.76-23.99-55.09-51.76-55.09h0Z"/>
        </g>
        <ellipse cx="698.85" cy="548.43" rx="29.55" ry="32.54" transform="translate(-16.85 22.18) rotate(-1.8)"/>
        <path class="cls-5" d="M668.01,530.63c-1.16,5.11,1.51,13.09,7.02,12.77,5.5-.33,5.61-6.22,6.6-10.1.99-3.88,3.54-9.39-1.66-11.72-5.2-2.34-10.8,3.94-11.96,9.06Z"/>
        <path class="cls-5" d="M721.36,578.7c1.97-1.68,2.76-6.2-.12-8.38-2.88-2.18-4.52.29-6.07,1.52-1.55,1.23-4.32,2.5-2.32,5.68,2.01,3.18,6.54,2.87,8.5,1.19Z"/>
      </g>
    </g>
    <path class="cls-2" d="M613.33,568.12s53.2,21.85,89.43,17.94c64.42-6.94,81.66-55.83,81.66-55.83,0,0-38.21-25.46-97.67-15.3-34.59,5.91-52.82,24.61-73.42,53.18Z"/>
  </g>
</svg>