<?xml version="1.0" encoding="UTF-8"?>
<svg id="Eyes" xmlns="http://www.w3.org/2000/svg" viewBox="0 0 1080 1080">
  <defs>
    <style>
      .cls-1 {
        fill: #fff;
      }
    </style>
  </defs>
  <g>
    <path d="M467.95,576.87c-1.98,35.04-27.4,62.78-56.78,61.96-29.38-.82-51.59-29.89-49.61-64.94,1.98-35.04,27.4-62.78,56.78-61.96,29.38.82,51.59,29.89,49.61,64.94Z"/>
    <path class="cls-1" d="M454.7,548.68c1.92,12.18-3.7,22.37-10.3,22.84-6.66.48-11.63-8.91-13.37-21.09-1.68-12.19.37-22.37,6.85-22.84,6.42-.48,14.96,8.91,16.82,21.09Z"/>
  </g>
  <g>
    <path d="M612.05,576.87c1.98,35.04,27.4,62.78,56.78,61.96s51.59-29.89,49.61-64.94c-1.98-35.04-27.4-62.78-56.78-61.96-29.38.82-51.59,29.89-49.61,64.94Z"/>
    <path class="cls-1" d="M628.75,548.68c-1.68,12.18.38,22.37,6.85,22.84,6.42.48,14.96-8.91,16.82-21.09,1.92-12.19-3.71-22.37-10.3-22.84-6.66-.48-11.63,8.91-13.37,21.09Z"/>
  </g>
</svg>