<?xml version="1.0" encoding="UTF-8"?>
<svg xmlns="http://www.w3.org/2000/svg" xmlns:xlink="http://www.w3.org/1999/xlink" viewBox="0 0 1080 1080">
  <defs>
    <style>
      .cls-1, .cls-2 {
        fill: none;
      }

      .cls-3 {
        fill: #2192c8;
      }

      .cls-2, .cls-4 {
        stroke: #3c2415;
        stroke-miterlimit: 10;
        stroke-width: 1.07px;
      }

      .cls-5 {
        fill: #3c2415;
      }

      .cls-4, .cls-6 {
        fill: #fff;
      }

      .cls-7 {
        clip-path: url(#clippath-1);
      }

      .cls-8 {
        fill: #27aae1;
      }

      .cls-9 {
        clip-path: url(#clippath);
      }
    </style>
    <clipPath id="clippath">
      <path class="cls-1" d="M466.67,568.12s-53.2,21.85-89.43,17.94c-64.42-6.94-81.66-55.83-81.66-55.83,0,0,38.21-25.46,97.67-15.3,34.59,5.91,52.82,24.61,73.42,53.18Z"/>
    </clipPath>
    <clipPath id="clippath-1">
      <path class="cls-1" d="M613.33,568.12s53.2,21.85,89.43,17.94c64.42-6.94,81.66-55.83,81.66-55.83,0,0-38.21-25.46-97.67-15.3-34.59,5.91-52.82,24.61-73.42,53.18Z"/>
    </clipPath>
  </defs>
  <g id="Eyes">
    <g>
      <path class="cls-4" d="M466.67,568.12s-53.2,21.85-89.43,17.94c-64.42-6.94-81.66-55.83-81.66-55.83,0,0,38.21-25.46,97.67-15.3,34.59,5.91,52.82,24.61,73.42,53.18Z"/>
      <g class="cls-9">
        <g>
          <g>
            <path class="cls-8" d="M380.87,602.29c-.47,0-.93,0-1.4-.02-12.93-.41-24.94-6.35-33.79-16.74-8.92-10.47-13.59-24.18-13.14-38.61.44-14.16,5.79-27.37,15.05-37.21,9.18-9.75,21.2-15.12,33.85-15.12.47,0,.93,0,1.4.02,12.93.41,24.94,6.35,33.79,16.74,8.92,10.47,13.59,24.18,13.14,38.61-.44,14.16-5.79,27.37-15.05,37.21-9.18,9.75-21.2,15.12-33.85,15.12Z"/>
            <path class="cls-3" d="M381.44,497.44h0c.44,0,.88,0,1.31.02,12.12.38,23.38,5.97,31.71,15.74,8.46,9.93,12.89,22.95,12.46,36.67-.42,13.46-5.49,26.01-14.28,35.34-8.63,9.17-19.91,14.22-31.77,14.22-.44,0-.88,0-1.31-.02-25.23-.79-45.05-24.3-44.16-52.41.42-13.46,5.49-26.01,14.28-35.34,8.63-9.17,19.91-14.22,31.77-14.22M381.44,491.72c-27.77,0-50.79,24.34-51.76,55.09-.98,31.31,21.27,57.41,49.7,58.3.5.02,1,.02,1.49.02,27.77,0,50.79-24.34,51.76-55.09.98-31.31-21.27-57.41-49.7-58.3-.5-.02-1-.02-1.49-.02h0Z"/>
          </g>
          <ellipse cx="381.15" cy="548.43" rx="32.54" ry="29.55" transform="translate(-178.96 912.21) rotate(-88.2)"/>
          <path class="cls-6" d="M411.99,530.63c1.16,5.11-1.51,13.09-7.02,12.77-5.5-.33-5.61-6.22-6.6-10.1-.99-3.88-3.54-9.39,1.66-11.72,5.2-2.34,10.8,3.94,11.96,9.06Z"/>
          <path class="cls-6" d="M358.64,578.7c-1.97-1.68-2.76-6.2.12-8.38,2.88-2.18,4.52.29,6.07,1.52,1.55,1.23,4.32,2.5,2.32,5.68-2.01,3.18-6.54,2.87-8.5,1.19Z"/>
        </g>
      </g>
      <path class="cls-2" d="M466.67,568.12s-53.2,21.85-89.43,17.94c-64.42-6.94-81.66-55.83-81.66-55.83,0,0,38.21-25.46,97.67-15.3,34.59,5.91,52.82,24.61,73.42,53.18Z"/>
    </g>
    <g>
      <path class="cls-4" d="M613.33,568.12s53.2,21.85,89.43,17.94c64.42-6.94,81.66-55.83,81.66-55.83,0,0-38.21-25.46-97.67-15.3-34.59,5.91-52.82,24.61-73.42,53.18Z"/>
      <g class="cls-7">
        <g>
          <g>
            <path class="cls-8" d="M699.13,602.29c-12.65,0-24.67-5.37-33.85-15.12-9.26-9.84-14.61-23.05-15.05-37.21-.45-14.43,4.21-28.14,13.14-38.61,8.86-10.39,20.86-16.34,33.79-16.74.47-.01.94-.02,1.4-.02,12.65,0,24.67,5.37,33.85,15.12,9.26,9.84,14.61,23.05,15.05,37.21.45,14.43-4.21,28.14-13.14,38.61-8.86,10.39-20.86,16.34-33.79,16.74-.47.01-.94.02-1.4.02h0Z"/>
            <path class="cls-3" d="M698.56,497.44c11.85,0,23.14,5.05,31.77,14.22,8.79,9.33,13.86,21.88,14.28,35.34.88,28.11-18.93,51.62-44.16,52.41-.44.01-.88.02-1.31.02-11.85,0-23.14-5.05-31.77-14.22-8.79-9.33-13.86-21.88-14.28-35.34-.43-13.72,3.99-26.74,12.46-36.67,8.33-9.77,19.59-15.36,31.71-15.74.44-.01.88-.02,1.31-.02M698.56,491.72c-.5,0-.99,0-1.49.02-28.43.89-50.68,26.99-49.7,58.3.96,30.76,23.99,55.09,51.76,55.09.5,0,.99,0,1.49-.02,28.43-.89,50.68-26.99,49.7-58.3-.96-30.76-23.99-55.09-51.76-55.09h0Z"/>
          </g>
          <ellipse cx="698.85" cy="548.43" rx="29.55" ry="32.54" transform="translate(-16.85 22.18) rotate(-1.8)"/>
          <path class="cls-6" d="M668.01,530.63c-1.16,5.11,1.51,13.09,7.02,12.77,5.5-.33,5.61-6.22,6.6-10.1.99-3.88,3.54-9.39-1.66-11.72-5.2-2.34-10.8,3.94-11.96,9.06Z"/>
          <path class="cls-6" d="M721.36,578.7c1.97-1.68,2.76-6.2-.12-8.38-2.88-2.18-4.52.29-6.07,1.52-1.55,1.23-4.32,2.5-2.32,5.68,2.01,3.18,6.54,2.87,8.5,1.19Z"/>
        </g>
      </g>
      <path class="cls-2" d="M613.33,568.12s53.2,21.85,89.43,17.94c64.42-6.94,81.66-55.83,81.66-55.83,0,0-38.21-25.46-97.67-15.3-34.59,5.91-52.82,24.61-73.42,53.18Z"/>
    </g>
  </g>
  <g id="Lashes">
    <g>
      <g>
        <path class="cls-5" d="M258.43,515.69c.81.6,2.75,2.02,3.53,2.58,5.12,3.19,11.04,5.41,16.97,6.27,6.99,1.01,14.16,1.01,21-.62,0,0,.92,15.97.92,15.97-.19-.01-.41-.02-.56-.04-4.21-.49-8.37-1.53-12.38-2.8-11.78-3.78-22.93-10.69-29.47-21.37h0Z"/>
        <path class="cls-5" d="M270.54,509.65c4.26,2.93,8.93,5.61,13.79,7.41,7.4,2.79,15.56,4.2,23.35,2.78.14-.04.35-.08.34-.11l1.25,10.72c-2.17.03-4.2-.32-6.29-.71-12.82-2.61-24.09-10.23-32.44-20.09h0Z"/>
        <path class="cls-5" d="M288.3,505.43c7.31,6,16.54,9.6,25.97,9.6,1.15-.04,2.37-.02,3.46-.26,0,0,.07,9.75.07,9.75-11.92-1.86-22.78-9.22-29.5-19.09h0Z"/>
        <path class="cls-5" d="M332.14,571.52c-15.78-6.73-29.76-17.61-39.84-31.62-1.56-2.27-3.09-4.46-4.32-6.99,0,0-1.98-6.42-1.98-6.42l5.11-2.96c4-2.19,8.12-3.8,12.32-5.41,21.79-7.88,45.15-10.61,68.18-9,34.1,2.8,58.59,12.49,80.49,39.53,5.2,6.25,9.92,12.84,14.57,19.47-14.17-19.18-31.16-38.06-54.3-45.93-11.17-3.9-23.28-5.38-35.09-5.8-21.46-.93-43.49,2.94-62.93,12.1-4.96,2.42-9.97,5.07-14.31,8.45,0,0,3.13-9.38,3.13-9.38,1.8,8.39,5.75,16.23,10.43,23.49,5,7.67,11.44,14.61,18.53,20.48h0Z"/>
      </g>
      <g>
        <path class="cls-5" d="M821.57,515.69c-6.54,10.67-17.69,17.58-29.47,21.37-4.02,1.27-8.17,2.31-12.38,2.8-.15.02-.38.03-.56.04l.92-15.97c6.83,1.63,14.01,1.63,21,.62,5.92-.86,11.84-3.08,16.97-6.27.81-.58,2.72-1.99,3.53-2.58h0Z"/>
        <path class="cls-5" d="M809.46,509.65c-8.36,9.86-19.63,17.48-32.44,20.09-2.09.39-4.11.74-6.29.71,0,0,1.25-10.72,1.25-10.72-.02.03.2.07.34.1,7.79,1.42,15.95.01,23.35-2.78,4.86-1.8,9.52-4.48,13.79-7.41h0Z"/>
        <path class="cls-5" d="M791.7,505.43c-6.72,9.87-17.57,17.23-29.5,19.09,0,0,.07-9.75.07-9.75,2.37.41,4.87.27,7.3.05,8.09-.8,15.8-4.23,22.13-9.4h0Z"/>
        <path class="cls-5" d="M747.86,571.52c7.09-5.87,13.53-12.81,18.53-20.48,4.68-7.26,8.64-15.1,10.43-23.49,0,0,3.13,9.38,3.13,9.38-4.34-3.38-9.35-6.03-14.31-8.45-19.44-9.16-41.47-13.03-62.93-12.1-11.81.43-23.91,1.9-35.09,5.8-23.13,7.87-40.13,26.75-54.3,45.93,4.65-6.63,9.37-13.22,14.57-19.47,21.89-27.03,46.42-36.74,80.49-39.53,23.03-1.61,46.38,1.11,68.18,9,4.2,1.61,8.31,3.22,12.32,5.41,0,0,5.11,2.96,5.11,2.96l-1.98,6.42c-1.22,2.53-2.76,4.72-4.32,6.99-10.08,14.01-24.06,24.89-39.84,31.62h0Z"/>
      </g>
    </g>
  </g>
</svg>