<?xml version="1.0" encoding="UTF-8"?>
<svg id="Eyes" xmlns="http://www.w3.org/2000/svg" xmlns:xlink="http://www.w3.org/1999/xlink" viewBox="0 0 1080 1080">
  <defs>
    <style>
      .cls-1, .cls-2 {
        fill: none;
      }

      .cls-3 {
        fill: #2192c8;
      }

      .cls-2, .cls-4 {
        stroke: #3c2415;
        stroke-miterlimit: 10;
        stroke-width: 1px;
      }

      .cls-4, .cls-5 {
        fill: #fff;
      }

      .cls-6 {
        clip-path: url(#clippath-1);
      }

      .cls-7 {
        fill: #62d6ff;
      }

      .cls-8 {
        fill: #27aae1;
      }

      .cls-9 {
        clip-path: url(#clippath);
      }
    </style>
    <clipPath id="clippath">
      <path class="cls-1" d="M464.27,634.13c-8.89,8.02-52.05,23.6-132.65-2.24-58.93-18.89-49.11-83.78-25.78-134.14,0,0-5.47-14.46,60.31-10.01,147.42,9.98,98.13,146.39,98.13,146.39Z"/>
    </clipPath>
    <clipPath id="clippath-1">
      <path class="cls-1" d="M615.73,634.13c8.89,8.02,52.05,23.6,132.65-2.24,58.93-18.89,49.11-83.78,25.78-134.14,0,0,5.47-14.46-60.31-10.01-147.42,9.98-98.13,146.39-98.13,146.39Z"/>
    </clipPath>
  </defs>
  <g>
    <path class="cls-4" d="M469.69,612.51c-2.73,15.34-13.01,27.32-26.06,30.39-21.42,5.04-58.46,6.16-112.02-11.01-57.18-18.33-49.63-79.97-27.82-129.63.88-2.01,1.46-4.16,2.07-6.29,1.06-3.72,9.12-11.69,60.27-8.23,110.43,7.48,110.48,85.88,103.55,124.77Z"/>
    <g class="cls-9">
      <g>
        <g>
          <path class="cls-8" d="M381.26,652.82c-1.19,0-2.39-.04-3.58-.12-17.95-1.21-34.27-11.42-45.95-28.75-11.86-17.59-17.51-40.35-15.9-64.08,3.18-46.97,34.02-83.77,70.22-83.77,1.19,0,2.39.04,3.58.12,17.95,1.21,34.27,11.42,45.95,28.75,11.86,17.59,17.51,40.35,15.9,64.08-3.18,46.97-34.02,83.77-70.22,83.77Z"/>
          <path class="cls-3" d="M386.04,479.56c1.11,0,2.23.04,3.34.11,16.86,1.14,32.24,10.81,43.31,27.23,11.43,16.96,16.87,38.95,15.32,61.91-1.5,22.17-9.41,42.72-22.28,57.86-12.43,14.63-28.23,22.68-44.48,22.68-1.11,0-2.24-.04-3.35-.11-16.86-1.14-32.24-10.81-43.31-27.23-11.43-16.96-16.87-38.95-15.32-61.91,1.5-22.17,9.41-42.72,22.28-57.85,12.43-14.63,28.23-22.68,44.48-22.69h0M386.04,472.63c-37.77,0-70.36,38-73.67,87-3.43,50.64,25.71,93.86,65.07,96.52,1.28.09,2.55.13,3.82.13,37.77,0,70.36-38,73.67-87,3.43-50.64-25.71-93.86-65.07-96.52-1.28-.09-2.55-.13-3.82-.13h0Z"/>
        </g>
        <ellipse cx="392.32" cy="561.76" rx="66.26" ry="45.72" transform="translate(-207.75 892.53) rotate(-83.93)"/>
        <path class="cls-5" d="M435.95,530.66c.6,12.83-7.2,23.62-17.4,24.12-10.21.49-15.04-11.38-15.63-24.21-.6-12.83,3.26-21.74,13.47-22.24,10.21-.49,18.97,9.5,19.56,22.33Z"/>
        <path class="cls-5" d="M365.83,572.24c2.13,7.18,4.44,13.67-.12,15.05-4.56,1.38-9.98-3.33-12.11-10.51-2.13-7.18-.15-14.12,4.41-15.5,4.56-1.38,5.7,3.78,7.82,10.96Z"/>
        <path class="cls-7" d="M368.39,628.03c6.82,2.99,13.26,3.69,11.36,8.09-1.9,4.4-8.97,5.54-15.79,2.56-6.82-2.99-10.8-8.98-8.9-13.37,1.9-4.4,6.51-.26,13.33,2.73Z"/>
      </g>
    </g>
    <path class="cls-2" d="M469.69,612.51c-2.73,15.34-13.01,27.32-26.06,30.39-21.42,5.04-58.46,6.16-112.02-11.01-57.18-18.33-49.63-79.97-27.82-129.63.88-2.01,1.46-4.16,2.07-6.29,1.06-3.72,9.12-11.69,60.27-8.23,110.43,7.48,110.48,85.88,103.55,124.77Z"/>
    <path d="M470.74,565.31c-22.15-63-98.16-66.17-154.65-61.56-27.5,1.78-58.27-5.75-78.77-24.73,23.07,5.12,45.79,6.91,68.82,4.68,9.74-1.21,19.56-2.5,29.38-2.95,32.34-1.6,66.34,2.23,94.73,19.06,22.77,13.47,41.46,38.2,40.48,65.5h0Z"/>
  </g>
  <g>
    <path class="cls-4" d="M610.31,612.51c2.73,15.34,13.01,27.32,26.06,30.39,21.42,5.04,58.46,6.16,112.02-11.01,57.18-18.33,49.63-79.97,27.82-129.63-.88-2.01-1.46-4.16-2.07-6.29-1.06-3.72-9.12-11.69-60.27-8.23-110.43,7.48-110.48,85.88-103.55,124.77Z"/>
    <g class="cls-6">
      <g>
        <g>
          <path class="cls-8" d="M698.74,652.82c-36.19,0-67.04-36.8-70.22-83.77-1.61-23.73,4.04-46.49,15.9-64.08,11.68-17.33,28-27.54,45.95-28.75,1.19-.08,2.39-.12,3.58-.12,36.19,0,67.04,36.8,70.22,83.77,1.61,23.73-4.04,46.49-15.9,64.08-11.68,17.33-28,27.54-45.95,28.75-1.19.08-2.39.12-3.58.12h0Z"/>
          <path class="cls-3" d="M693.96,479.56c16.25,0,32.04,8.06,44.48,22.68,12.87,15.14,20.78,35.69,22.28,57.86,3.16,46.75-23.14,86.74-58.63,89.14-1.11.08-2.24.11-3.35.11-16.25,0-32.04-8.06-44.48-22.68-12.87-15.14-20.78-35.69-22.28-57.86-1.55-22.96,3.89-44.95,15.32-61.91,11.07-16.42,26.45-26.09,43.31-27.23,1.11-.08,2.24-.11,3.35-.11M693.96,472.63c-1.27,0-2.54.04-3.82.13-39.37,2.67-68.5,45.88-65.07,96.52,3.32,49,35.9,87,73.67,87,1.27,0,2.54-.04,3.82-.13,39.37-2.67,68.5-45.88,65.07-96.52-3.32-49-35.9-87-73.67-87h0Z"/>
        </g>
        <ellipse cx="687.68" cy="561.76" rx="45.72" ry="66.26" transform="translate(-55.51 75.81) rotate(-6.07)"/>
        <path class="cls-5" d="M644.05,530.66c-.6,12.83,7.2,23.62,17.4,24.12s15.04-11.38,15.63-24.21-3.26-21.74-13.47-22.24c-10.21-.49-18.97,9.5-19.56,22.33Z"/>
        <path class="cls-5" d="M714.17,572.24c-2.13,7.18-4.44,13.67.12,15.05,4.56,1.38,9.98-3.33,12.11-10.51,2.13-7.18.15-14.12-4.41-15.5-4.56-1.38-5.7,3.78-7.82,10.96Z"/>
        <path class="cls-7" d="M711.61,628.03c-6.82,2.99-13.26,3.69-11.36,8.09,1.9,4.4,8.97,5.54,15.79,2.56,6.82-2.99,10.8-8.98,8.9-13.37-1.9-4.4-6.51-.26-13.33,2.73Z"/>
      </g>
    </g>
    <path class="cls-2" d="M610.31,612.51c2.73,15.34,13.01,27.32,26.06,30.39,21.42,5.04,58.46,6.16,112.02-11.01,57.18-18.33,49.63-79.97,27.82-129.63-.88-2.01-1.46-4.16-2.07-6.29-1.06-3.72-9.12-11.69-60.27-8.23-110.43,7.48-110.48,85.88-103.55,124.77Z"/>
    <path d="M609.26,565.31c-.98-27.3,17.7-52.02,40.48-65.5,28.39-16.83,62.39-20.66,94.73-19.06,8.52.46,17.07,1.3,25.49,2.51,13.14,1.57,26.18,1.82,39.65.75,10.82-.86,21.74-2.42,33.06-4.98-2.06,2.09-4.35,3.93-6.72,5.65-20.68,14.7-46.8,20.72-72.04,19.08-56.49-4.61-132.5-1.43-154.65,61.56h0Z"/>
  </g>
</svg>