<?xml version="1.0" encoding="UTF-8"?>
<svg id="Eyes" xmlns="http://www.w3.org/2000/svg" xmlns:xlink="http://www.w3.org/1999/xlink" viewBox="0 0 1080 1080">
  <defs>
    <style>
      .cls-1, .cls-2 {
        fill: none;
      }

      .cls-3 {
        fill: #2192c8;
      }

      .cls-2, .cls-4 {
        stroke: #3c2415;
        stroke-miterlimit: 10;
        stroke-width: .94px;
      }

      .cls-4, .cls-5 {
        fill: #fff;
      }

      .cls-6 {
        clip-path: url(#clippath-1);
      }

      .cls-7 {
        fill: #62d6ff;
      }

      .cls-8 {
        fill: #27aae1;
      }

      .cls-9 {
        clip-path: url(#clippath);
      }
    </style>
    <clipPath id="clippath">
      <path class="cls-1" d="M469.03,594.38c-.44,13.82-8.81,25.98-21.22,30.82-20.38,7.96-61.78,14.16-115.66.18-43.5-11.28-57.12-52.55-42.92-99.45.57-1.9.83-3.86,1.12-5.83.5-3.41,7.27-11.71,58.22-17.21,109.98-11.87,121.58,56.45,120.47,91.48Z"/>
    </clipPath>
    <clipPath id="clippath-1">
      <path class="cls-1" d="M610.97,594.38c.44,13.82,8.81,25.98,21.22,30.82,20.38,7.96,61.78,14.16,115.66.18,43.5-11.28,57.12-52.55,42.92-99.45-.57-1.9-.83-3.86-1.12-5.83-.5-3.41-7.27-11.71-58.22-17.21-109.98-11.87-121.58,56.45-120.47,91.48Z"/>
    </clipPath>
  </defs>
  <g>
    <path class="cls-4" d="M469.03,594.38c-.44,13.82-8.81,25.98-21.22,30.82-20.38,7.96-61.78,14.16-115.66.18-43.5-11.28-57.12-52.55-42.92-99.45.57-1.9.83-3.86,1.12-5.83.5-3.41,7.27-11.71,58.22-17.21,109.98-11.87,121.58,56.45,120.47,91.48Z"/>
    <g class="cls-9">
      <g>
        <g>
          <path class="cls-8" d="M377.64,638.37c-31.33,0-57.88-24-63.15-57.06-5.91-37.13,17.55-72.32,52.29-78.45,3.46-.61,6.99-.92,10.47-.92,31.33,0,57.88,24,63.15,57.06,5.91,37.13-17.55,72.32-52.29,78.45-3.46.61-6.99.92-10.47.92Z"/>
          <path class="cls-3" d="M377.26,498.99v5.9h0c14.19,0,28.06,5.4,39.06,15.21,11.2,9.99,18.72,23.97,21.17,39.36,5.66,35.55-16.72,69.23-49.89,75.08-3.3.58-6.65.88-9.96.88-14.19,0-28.06-5.4-39.06-15.21-11.2-9.99-18.72-23.97-21.17-39.36-5.66-35.55,16.72-69.23,49.89-75.08,3.29-.58,6.65-.88,9.96-.88v-5.9M377.26,498.99c-3.62,0-7.3.32-10.98.97-36.38,6.42-60.86,43.04-54.69,81.81,5.55,34.84,33.96,59.55,66.06,59.55,3.62,0,7.3-.32,10.98-.97,36.38-6.42,60.86-43.04,54.69-81.81-5.55-34.84-33.96-59.55-66.06-59.55h0Z"/>
        </g>
        <path d="M427.2,560.23c3.14,28.16-13.28,53.7-36.66,57.04-23.38,3.34-44.88-16.78-48.01-44.94-3.14-28.16,13.28-53.7,36.66-57.04,23.38-3.34,44.88,16.78,48.01,44.94Z"/>
        <path class="cls-5" d="M418.92,533.59c2.9,9.51-2.22,19.28-11.44,21.83-9.22,2.55-15.8-5.33-18.69-14.84-2.9-9.51-1.02-17.03,8.2-19.58,9.22-2.55,19.04,3.08,21.93,12.59Z"/>
        <path class="cls-5" d="M362.64,579.81c3.26,4.94,6.55,9.32,2.65,11.33-3.9,2.01-9.71-.37-12.97-5.31-3.26-4.94-2.73-10.57,1.17-12.58,3.9-2.01,5.89,1.62,9.14,6.56Z"/>
        <path class="cls-7" d="M375.21,621.16c6.76.79,12.77-.06,11.84,3.65-.93,3.71-7.16,6.08-13.92,5.3s-11.5-4.43-10.57-8.14c.93-3.71,5.89-1.59,12.65-.8Z"/>
      </g>
    </g>
    <path class="cls-2" d="M469.03,594.38c-.44,13.82-8.81,25.98-21.22,30.82-20.38,7.96-61.78,14.16-115.66.18-43.5-11.28-57.12-52.55-42.92-99.45.57-1.9.83-3.86,1.12-5.83.5-3.41,7.27-11.71,58.22-17.21,109.98-11.87,121.58,56.45,120.47,91.48Z"/>
    <path d="M465.89,562.6c-29.34-52.7-90.48-52.79-142.76-40.8-6.43,1.4-13.5,3.23-19.9,4.96-9.6,2.27-19.75,2.73-29.56.81-2.56-.54-5.14-1.18-7.75-2.33,2.04-1.97,4.07-3.57,6.11-5.12,5.81-4.35,12.22-8.03,18.64-11,4.27-2.1,8.83-3.5,13.41-4.84,32.89-9.67,69.21-14.39,102.85-3.91,28.41,8.64,54.58,31.93,58.96,62.22h0Z"/>
  </g>
  <g>
    <path class="cls-4" d="M610.97,594.38c.44,13.82,8.81,25.98,21.22,30.82,20.38,7.96,61.78,14.16,115.66.18,43.5-11.28,57.12-52.55,42.92-99.45-.57-1.9-.83-3.86-1.12-5.83-.5-3.41-7.27-11.71-58.22-17.21-109.98-11.87-121.58,56.45-120.47,91.48Z"/>
    <g class="cls-6">
      <g>
        <g>
          <path class="cls-8" d="M702.36,638.37c-3.49,0-7.01-.31-10.47-.92-34.75-6.13-58.2-41.32-52.29-78.45,5.26-33.06,31.82-57.06,63.15-57.06,3.48,0,7.01.31,10.47.92,34.75,6.13,58.2,41.32,52.29,78.45-5.26,33.07-31.82,57.06-63.14,57.06h0Z"/>
          <path class="cls-3" d="M702.74,504.89c3.31,0,6.66.29,9.96.88,33.17,5.85,55.55,39.53,49.89,75.08-2.45,15.39-9.97,29.37-21.17,39.36-11,9.81-24.87,15.21-39.06,15.21-3.31,0-6.66-.29-9.96-.88-33.17-5.85-55.55-39.53-49.89-75.08,2.45-15.39,9.97-29.37,21.17-39.36,11-9.81,24.87-15.21,39.06-15.21M702.74,498.99c-32.1,0-60.51,24.71-66.06,59.55-6.17,38.77,18.32,75.4,54.69,81.81,3.69.65,7.36.97,10.98.97,32.1,0,60.51-24.71,66.06-59.55,6.17-38.77-18.32-75.4-54.69-81.81-3.69-.65-7.36-.97-10.98-.97h0Z"/>
        </g>
        <path d="M652.8,560.23c-3.14,28.16,13.28,53.7,36.66,57.04,23.38,3.34,44.88-16.78,48.01-44.94,3.14-28.16-13.28-53.7-36.66-57.04-23.38-3.34-44.88,16.78-48.01,44.94Z"/>
        <path class="cls-5" d="M661.08,533.59c-2.9,9.51,2.22,19.28,11.44,21.83,9.22,2.55,15.8-5.33,18.69-14.84,2.9-9.51,1.02-17.03-8.2-19.58-9.22-2.55-19.04,3.08-21.93,12.59Z"/>
        <path class="cls-5" d="M717.36,579.81c-3.26,4.94-6.55,9.32-2.65,11.33,3.9,2.01,9.71-.37,12.97-5.31,3.26-4.94,2.73-10.57-1.17-12.58-3.9-2.01-5.89,1.62-9.14,6.56Z"/>
        <path class="cls-7" d="M704.79,621.16c-6.76.79-12.77-.06-11.84,3.65.93,3.71,7.16,6.08,13.92,5.3s11.5-4.43,10.57-8.14c-.93-3.71-5.89-1.59-12.65-.8Z"/>
      </g>
    </g>
    <path class="cls-2" d="M610.97,594.38c.44,13.82,8.81,25.98,21.22,30.82,20.38,7.96,61.78,14.16,115.66.18,43.5-11.28,57.12-52.55,42.92-99.45-.57-1.9-.83-3.86-1.12-5.83-.5-3.41-7.27-11.71-58.22-17.21-109.98-11.87-121.58,56.45-120.47,91.48Z"/>
    <path d="M614.11,562.6c4.38-30.29,30.55-53.57,58.96-62.22,33.64-10.48,69.96-5.76,102.85,3.91,4.57,1.35,9.14,2.74,13.4,4.84,6.43,2.97,12.83,6.64,18.64,11,2.04,1.54,4.08,3.15,6.11,5.12-2.6,1.14-5.18,1.79-7.75,2.33-9.81,1.91-19.97,1.46-29.56-.81-6.42-1.73-13.46-3.56-19.9-4.96-52.27-12-113.45-11.88-142.76,40.8h0Z"/>
  </g>
</svg>