<svg width="128" height="87" viewBox="0 0 128 87" fill="none" xmlns="http://www.w3.org/2000/svg">
<path d="M50.6464 0.197932C93.7664 -2.04488 133.573 14.418 126.258 67.7544C125.632 72.3329 123.576 82.8085 119.788 85.3779C113.367 82.5527 113.209 48.289 108.08 38.4845C97.0802 31.0259 85.8121 30.3789 73.1621 32.4965C69.5252 33.3113 66.9608 34.685 63.6333 36.2699C51.1002 32.8403 39.4347 30.5411 26.3426 33.1759C9.67692 36.5298 14.7239 83.1069 4.76957 86.2538C2.89338 84.1863 1.51149 74.016 0.994488 70.5796C-4.67051 32.8898 14.1312 6.97448 50.6464 0.197932Z" fill="#694E44"/>
<path d="M56.3114 2.26265C58.752 1.98488 61.4058 2.14232 63.8395 2.25646C94.4539 3.69689 120.6 16.5824 124.346 50.1262C125.742 62.6239 123.116 71.4652 119.575 83.3626C116.908 70.6167 115.347 57.701 113.037 44.9165C109.888 27.4774 83.0139 27.4059 69.6558 30.812L62.9664 33.4488L61.7426 33.1394C49.952 30.1877 32.5274 26.6083 21.2517 32.8286C15.8534 35.8071 13.9848 42.2537 12.9027 47.8889C10.6133 59.8125 8.45729 71.8137 5.87848 83.6899C1.44135 60.7132 -0.607395 40.7314 15.1955 21.3815C25.5547 8.69611 40.5615 3.73333 56.3114 2.26265Z" fill="#CB8565"/>
</svg>
