<svg width="143" height="96" viewBox="0 0 143 96" fill="none" xmlns="http://www.w3.org/2000/svg">
<path d="M71.338 0.258666C76.3918 -0.794669 87.8242 1.61179 93.076 3.11685C123.827 11.9114 150.801 44.3207 140.751 77.3564C139.733 80.7027 132.405 95.8269 128.161 94.4559L128.073 91.8734C103.639 90.1972 88.181 63.8294 78.4137 44.1646C79.7096 51.3853 81.4099 57.7707 83.4806 64.7727C84.8226 69.3099 85.7115 73.7337 81.4477 76.8001C77.8184 77.6947 73.604 75.7702 70.4208 74.118C56.1621 64.3939 49.4501 49.9614 42.6961 34.7231C41.2399 51.8041 33.7709 69.5457 24.0442 83.8435C23.4859 84.6637 17.1582 90.6736 15.757 92.2131C15.7502 93.8116 15.7577 93.8646 15.3672 95.4068L14.2549 95.4989C6.27367 90.4846 0.369401 74.3366 0.0311508 65.21C-1.27372 29.9913 38.6741 1.25837 71.338 0.258666Z" fill="#694E44"/>
<path d="M66.9572 2.84594C110.328 -2.73014 161.719 49.1673 132.306 87.876C130.987 88.193 126.932 89.1266 125.629 89.0359C108.246 87.8272 91.0568 64.0742 83.9756 49.8349C81.5645 44.9869 79.5749 34.4309 76.4474 31.2846C71.3517 36.3368 81.3136 65.0835 82.6906 72.2719C81.3431 74.0135 81.9591 73.4407 79.1225 74.1022C79.0084 74.0843 78.8943 74.0685 78.7801 74.0492C78.5911 74.0176 78.4027 73.9791 78.2129 73.9495C54.9637 70.3571 47.0211 29.9233 41.1313 26.1424C39.7061 29.0817 40.6287 35.3068 39.8401 39.1365C36.2534 56.5564 27.7669 80.2936 12.6454 90.8043C-9.09543 59.8141 7.56752 30.7312 36.9492 13.4006C46.4663 7.78673 56.1807 5.11213 66.9572 2.84594Z" fill="#CB8565"/>
</svg>
