<svg width="129" height="99" viewBox="0 0 129 99" fill="none" xmlns="http://www.w3.org/2000/svg">
<path d="M60.8918 0.122198C70.1112 -0.421659 88.1307 0.793241 96.7175 4.90964C99.4194 6.20637 99.6944 8.38591 100.478 11.2063C102.362 12.5374 106.954 12.0093 108.976 12.8042C114.916 15.1384 115.466 17.9285 116.373 23.6387C118.119 24.9306 121.131 27.3611 122.306 28.9432C128.789 37.6572 131.429 94.9149 123.523 98.3093L122.492 97.6114C120.526 87.3641 118.264 85.846 115.569 76.3749C114.806 73.6866 115.108 64.4204 115.184 61.1359C100.664 47.4982 88.385 43.9401 68.6675 42.8387C45.7806 40.9623 32.725 46.8609 14.4788 58.0426C12.6294 66.0203 12.65 68.4329 13.6744 76.4746C10.12 83.8177 8.95817 90.1783 7.26004 98.1677C4.77129 95.533 2.66062 93.5129 0 91.0673C2.28937 76.1535 -2.96996 25.7955 18.1707 22.9559C18.5144 22.2216 18.8788 21.4962 19.2638 20.7812C25.0594 9.94806 25.4925 10.703 36.6919 7.28377C37.9294 6.90699 41.8756 2.8951 44.7081 2.49425C51.0675 1.59562 54.6562 2.03498 60.8918 0.122198Z" fill="#694E44"/>
<path d="M63.7588 2.16146C70.51 1.63067 91.6163 3.73391 97.4325 9.1656C98.0994 9.78922 97.515 11.5088 97.35 12.5044C100.155 16.8566 105.511 13.5178 109.484 16.2694C113.774 19.2342 112.757 21.4412 114.469 25.306C114.771 25.988 118.999 29.0917 119.941 29.7861C121.591 34.4003 123.613 43.0779 125.18 48.346C122.808 52.9767 121.502 57.4774 118.663 62.1356L117.315 61.5697L117.047 61.1125C108.378 45.6851 84.8926 41.3858 68.6676 40.1696C58.9601 38.8934 39.7513 41.9868 30.6419 45.8447C20.5563 50.1178 14.4376 53.2015 9.92759 63.3643C8.11947 48.6244 2.20009 27.2071 20.5838 25C22.9763 21.1208 23.2238 18.196 26.2075 14.4557C30.085 9.59189 33.6945 12.4776 37.9363 9.9556C39.6001 8.96758 42.5288 6.42501 44.3782 5.18534C53.0063 4.93988 55.4469 4.21107 63.7588 2.16146Z" fill="#CB8565"/>
</svg>
