<svg width="178" height="128" viewBox="0 0 178 128" fill="none" xmlns="http://www.w3.org/2000/svg">
<path d="M97.4117 0C106.102 0.701995 106.349 2.92899 112.502 9.4649C118.49 15.8255 123.592 19.4097 132.839 17.5973C135.692 17.0376 137.479 15.6887 140.477 15.8104C146.32 18.8672 146.231 23.8706 144.87 29.4906L145.509 30.2614C153.78 32.4024 154.564 25.157 159.067 22.9052C164.182 25.4575 164.876 30.927 163.645 35.9894C163.068 38.3794 160.834 39.3261 158.833 40.4049C158.51 49.6161 158.517 49.0241 164.938 56.1135C169.716 61.6112 166.787 67.879 166.093 73.981C165.192 81.8157 172.631 80.9975 177.691 81.1213C177.492 83.8722 177.155 86.6107 176.674 89.3273C174.721 100.046 163.735 98.3679 162.772 104.971C166.416 107.906 173.793 104.766 174.322 110.655C169.62 122.13 161.954 119.717 153.821 115.688C146.424 112.026 146.1 126.303 142.739 127.923C141.226 124.243 142.024 111.288 142.216 107.058C138.675 107.211 129.676 106.04 127.971 103.529C120.505 92.5622 149.373 79.3997 122.299 73.7424C121.55 73.5857 122.004 77.1974 122.052 77.9826C122.705 87.5142 118.408 94.8435 108.26 95.4128C99.7904 96.231 102.877 100.129 99.4879 105.51C97.8311 108.145 93.988 105.453 92.393 104.043C88.9623 97.085 99.3436 90.239 93.2317 81.2237C91.2311 82.3101 86.6936 84.9214 84.5761 85.0225C56.2923 86.3701 83.5929 64.6062 84.0948 54.9598C80.6848 46.8308 70.6542 56.3617 68.6329 56.0331C57.5848 54.2344 54.9448 54.4551 54.7935 66.6132C54.6629 76.8378 55.0411 77.4601 46.5642 82.4661C49.0392 97.5745 50.1667 110.851 32.9517 115.335C31.6729 115.67 31.4598 117.673 31.1023 118.912L30.1467 119.224C22.8661 113.017 20.1917 118.555 11.8523 118.671C7.2942 118.735 0.377973 112.001 0.701098 107.796C3.35485 105.157 16.8092 105.923 12.5536 94.2949C6.70984 96.1224 2.74981 93.8136 0.831683 88.1357C-0.536442 84.0812 -0.206388 79.6458 1.74611 75.8367C5.07361 69.4535 9.88604 67.8164 16.1079 65.8472C12.2029 62.4906 3.87047 53.6122 14.4442 53.4644C33.7698 53.1948 15.6405 18.1632 44.4398 29.8165C49.0667 31.6894 56.2029 14.8945 61.3523 10.0679L73.8786 10.0919C76.8004 12.1601 78.4367 13.485 81.8673 14.6896C86.3361 7.26541 88.866 2.22768 97.4117 0Z" fill="#694E44"/>
<path d="M94.5448 3.27414C101.406 2.93655 101.901 2.58039 106.59 7.65387C113.1 14.6972 121.069 22.6996 131.525 20.1199C133.959 19.5204 137.933 18.7393 140.415 18.7538C142.505 21.1416 142.01 28.6016 143.921 31.6028C148.465 38.7335 155.182 29.822 158.854 27.2808C165.99 31.2528 161.012 36.6598 155.224 38.9432C155.753 42.3754 157.011 46.5125 156.475 49.7818C155.533 51.3831 155.203 52.4 153.512 53.0511C150.005 49.5693 154.041 47.519 145.812 39.5152C140.814 54.0343 140.27 45.314 130.9 47.7349L130.79 48.5703C145.2 55.1021 142.601 47.2399 147.51 44.8403C151.298 49.5927 148.974 55.5222 147.537 60.8129C151.346 59.6943 155.753 49.0055 162.057 55.943C170.857 65.6286 153.402 83.4191 175.099 83.1654C173.449 97.5456 169.18 93.3735 160.373 101.793C155.375 106.567 168.52 109.578 170.074 110.095L170.527 111.273C169.304 113.877 166.725 115.726 164.498 117.608C161.363 116.146 157.623 113.647 154.625 111.772C151.092 112.281 148.184 113.975 145.413 113.317C144.313 111.244 144.815 106.784 144.89 104.196C135.699 104.353 134.207 105.573 127.462 98.2593C142.305 81.7098 139.384 75.1003 118.676 69.7367C117.995 68.9261 110.13 60.683 110.014 60.6404C109.787 62.5497 110.955 71.7279 112.207 72.027C124.045 74.8487 122.1 83.0788 115.163 90.0712C112.145 93.1205 104.795 92.8091 100.842 95.9106C97.6798 98.3906 97.7348 101.935 95.6586 103.41L94.6754 102.336C93.5685 95.7827 101.894 88.4355 95.8167 80.3333C89.9111 77.2572 80.6023 86.3171 76.6629 82.3472C69.5404 75.1739 88.5292 62.5057 86.9686 54.0329C85.8754 48.0746 75.0611 50.36 71.1836 51.0153C66.0823 55.6006 61.0361 50.6192 57.3442 53.1996C43.7248 62.7071 63.6004 76.659 40.0536 80.9439C39.7923 80.7844 39.5242 80.6221 39.256 80.4578C20.0542 68.5122 35.7429 53.4726 41.0435 57.6282C40.1704 60.441 39.3661 62.5057 39.3454 65.4608C41.0504 69.0114 43.3261 69.2101 46.8323 67.4231L46.6191 66.7005C36.8566 64.7368 45.7804 61.4943 43.7179 55.8694C32.2848 46.9821 27.7129 63.0372 27.9879 72.0827C37.0629 88.1543 52.7448 78.655 43.1954 106.315C35.4473 113.46 31.2467 112.477 21.3398 111.872C12.0173 118.211 11.2611 116.996 3.54045 109.53C9.12295 107.402 13.6811 106.109 16.0942 100.325C19.2911 92.666 11.1511 91.7612 6.54482 90.8695C1.82857 89.9584 2.20667 84.7158 2.3923 81.2719C2.97667 70.3988 16.2042 71.6509 19.6623 64.4226C18.466 61.3389 14.2379 62.3324 12.361 58.4835C12.361 55.8893 12.416 55.6054 15.1798 55.527C33.1442 55.0148 23.2785 42.1217 30.401 32.1694C33.426 27.9402 42.5217 33.0102 48.4548 32.049C50.9573 34.5889 49.3967 38.7678 53.4323 39.5805C61.6342 41.23 63.2841 35.0385 67.6842 30.1699C68.351 29.4336 71.9604 29.0389 73.5761 28.1685L73.1085 27.4837C59.936 25.4169 64.6866 40.0412 53.4116 36.589C50.1391 33.2234 51.3011 30.26 53.5492 26.7164C54.4636 26.2124 62.3835 27.3056 65.5185 27.1681C71.7266 22.4074 68.6673 20.0924 77.4673 20.8707C78.5329 19.838 78.2991 20.4396 78.3404 19.0735C73.8785 15.6109 67.9386 21.4002 65.1336 24.3677L54.6904 24.2755C59.8329 13.6947 60.0117 11.7689 72.1873 12.2227C76.1954 14.6353 79.8804 17.5464 83.146 20.8859C85.4698 12.5135 87.6561 8.64051 94.5448 3.27414Z" fill="#CB8565"/>
<path d="M100.636 34.4225C121.034 35.1671 113.238 58.0215 108.852 59.0796C108.309 57.0499 108.35 57.8654 109.244 55.6308C110.289 52.0549 111.127 47.0316 111.87 43.283C111.416 42.6402 110.949 42.0076 110.46 41.3867C105.187 34.6535 103.599 38.7149 94.8817 37.6244L94.868 36.3848C96.7311 34.9553 98.3605 34.8385 100.636 34.4225Z" fill="#694E44"/>
</svg>
