<svg width="88" height="9" viewBox="0 0 88 9" fill="none" xmlns="http://www.w3.org/2000/svg">
<path d="M3.56006 3.65127e-05C7.12012 3.6464e-05 24.0601 -4.56165e-05 25.5601 3.65127e-05C26.8119 0.000105054 22.5601 8.99955 16.0601 8.99955C9.56006 8.99955 6.33043 2.28827 6.56006 2.50004C6.78968 2.7118 1 2.50004 0.5 2.50004L0 1.50004C0 3.6478e-05 0 3.65614e-05 3.56006 3.65127e-05Z" fill="#6B4F42"/>
<path d="M84.2186 3.65127e-05C80.6586 3.6464e-05 63.7186 -4.56165e-05 62.2186 3.65127e-05C60.9668 0.000105054 65.2186 8.99955 71.7186 8.99955C78.2186 8.99955 81.4483 2.28827 81.2186 2.50004C80.989 2.7118 86.7787 2.50004 87.2787 2.50004L87.7787 1.50004C87.7787 3.6478e-05 87.7787 3.65614e-05 84.2186 3.65127e-05Z" fill="#6B4F42"/>
<path d="M9 2.2795C12.2394 2.2795 19.7394 2.2795 23.2394 2.2795C19.2394 10.0003 11.7394 7.7999 9 2.2795Z" fill="#266BFF"/>
<path d="M65 2.2793C68.2394 2.2793 75.7394 2.2793 79.2394 2.2793C75.2394 10 67.7394 7.7997 65 2.2793Z" fill="#266BFF"/>
</svg>
