<?xml version="1.0" encoding="UTF-8"?>
<svg id="Nose" xmlns="http://www.w3.org/2000/svg" viewBox="0 0 1080 1080">
  <defs>
    <style>
      .cls-1 {
        fill: #ffd1b5;
      }

      .cls-2 {
        fill: #dc886f;
      }

      .cls-3 {
        fill: #ffddc9;
      }

      .cls-4 {
        fill: #f5b893;
      }
    </style>
  </defs>
  <path class="cls-1" d="M540,698.86c12.26,0,23.08,3.15,29.59,7.96-5.52-5.98-16.69-10.08-29.59-10.08s-24.07,4.1-29.59,10.08c6.51-4.81,17.33-7.96,29.59-7.96Z"/>
  <path class="cls-2" d="M491.22,762.47s6.49-3.32,30.1,2.59l-19.28-11.09-11.24-.02c-2.26.62-3.15,2.35-2.52,5.31.73.92,1.77,2.03,2.94,3.21Z"/>
  <path class="cls-2" d="M588.78,762.47s-6.49-3.32-30.1,2.59l19.28-11.09,11.24-.02c2.26.62,3.15,2.35,2.52,5.31-.73.92-1.77,2.03-2.94,3.21Z"/>
  <path class="cls-4" d="M483.35,763.26c-12.98-4.75-15.45-20.35-5.49-29.57.57-.53,1.15-1.04,1.77-1.5-.72,3.06-1.77,5.74-2.28,8.47-2.23,9.11,1.04,15.1,6,22.61h0Z"/>
  <path class="cls-4" d="M596.65,763.26c4.96-7.52,8.22-13.5,6-22.61-.5-2.73-1.55-5.4-2.28-8.47.62.46,1.2.98,1.77,1.5,9.96,9.27,7.5,24.78-5.49,29.57h0Z"/>
  <path class="cls-4" d="M491.22,762.47c-2.18-1.5-4.83-4.35-3.41-7.21,2.74-4.22,12.12-3.7,16.34-2.2,7.63,2.61,14.44,7.75,21.44,11.07,9.02,4.36,19.78,4.36,28.8,0,7.01-3.32,13.81-8.45,21.44-11.07,4.08-1.34,8.46-1.48,12.6-.33,1.43.46,2.96,1.1,3.75,2.53,1.43,2.86-1.24,5.71-3.41,7.21,5.2-5.73,2.43-8.45-4.56-8-7.42.04-14.49,5.89-20.67,9.71-9.62,6.75-20.34,10.05-32.06,7.21-7.95-1.83-14.99-7.3-21.73-11.55-4.43-2.8-8.89-5.31-13.99-5.37-6.83-.42-9.86,2.15-4.56,8.01h0Z"/>
  <g>
    <path class="cls-1" d="M509.04,694.85s6.58-76.71-4.72-139.58c-11.31-62.88-78.63-65.5-78.63-65.5,0,0,84.32,16.29,83.35,205.08Z"/>
    <path class="cls-1" d="M570.96,694.85s-6.58-76.71,4.72-139.58c11.31-62.88,78.63-65.5,78.63-65.5,0,0-84.32,16.29-83.35,205.08Z"/>
  </g>
  <ellipse class="cls-3" cx="540" cy="739.69" rx="24.48" ry="13.54"/>
</svg>