<?xml version="1.0" encoding="UTF-8"?>
<svg id="Nose" xmlns="http://www.w3.org/2000/svg" viewBox="0 0 1080 1080">
  <defs>
    <style>
      .cls-1 {
        fill: #ffd1b5;
      }

      .cls-2 {
        fill: #dc886f;
      }

      .cls-3 {
        fill: #ffddc9;
      }

      .cls-4 {
        fill: #f5b893;
      }
    </style>
  </defs>
  <g>
    <path class="cls-2" d="M501.92,762.47s5.26-3.32,24.38,2.59l-15.62-11.09-9.1-.02c-1.83.62-2.55,2.35-2.04,5.31.59.92,1.44,2.03,2.38,3.21Z"/>
    <path class="cls-2" d="M580.95,762.47s-5.26-3.32-24.38,2.59l15.62-11.09,9.1-.02c1.83.62,2.55,2.35,2.04,5.31-.59.92-1.44,2.03-2.38,3.21Z"/>
    <path class="cls-4" d="M495.55,763.26c-12.04-6.2-12.47-22.32-3.01-31.08-.48,2.96-1.28,5.62-1.64,8.3-1.64,8.59.48,15.22,4.66,22.78h0Z"/>
    <path class="cls-4" d="M587.32,763.26c4.18-7.57,6.3-14.19,4.66-22.78-.36-2.68-1.16-5.33-1.64-8.3,9.46,8.76,9.02,24.88-3.01,31.08h0Z"/>
    <path class="cls-4" d="M501.92,762.47c-8.93-8.51,2.7-12.47,10.26-9.38,6.43,2.63,11.75,7.72,17.46,11.1,7.22,4.58,16.37,4.58,23.59,0,5.7-3.39,11.02-8.47,17.46-11.11,4.9-2.28,16.88-1,12.52,6.74-.62,1.01-1.38,1.91-2.26,2.64,1.24-1.64,2.46-3.96,1.93-5.96-.67-1.96-3.15-2.12-5-2.12-4.31-.19-7.9,2.27-11.43,4.99-3.32,2.54-7.44,6.14-10.96,8.43-6.15,4.21-14.3,5.48-21.44,3.21-6.73-2.08-12.15-7.51-17.61-11.64-3.53-2.72-7.12-5.18-11.43-4.99-6.23-.25-6.21,3.9-3.08,8.09h0Z"/>
    <g>
      <path class="cls-1" d="M494.14,575.49s.61-24.04-3.8-58.07c-4.41-34.02-62.06-29.65-62.06-29.65,0,0,50.64,10.76,65.86,87.72Z"/>
      <path class="cls-1" d="M585.86,575.49s-.61-24.04,3.8-58.07c4.41-34.02,62.06-29.65,62.06-29.65,0,0-50.64,10.76-65.86,87.72Z"/>
    </g>
  </g>
  <g>
    <path class="cls-1" d="M541.44,701.03c9.61,0,18.09,3.73,23.19,9.43-4.32-7.09-13.08-11.94-23.19-11.94s-18.86,4.85-23.19,11.94c5.1-5.7,13.58-9.43,23.19-9.43Z"/>
    <ellipse class="cls-3" cx="541.44" cy="734.85" rx="19.18" ry="16.03"/>
  </g>
</svg>