<?xml version="1.0" encoding="UTF-8"?>
<svg id="Nose" xmlns="http://www.w3.org/2000/svg" viewBox="0 0 1080 1080">
  <defs>
    <style>
      .cls-1 {
        fill: #ffd1b5;
      }

      .cls-2 {
        fill: #dc886f;
      }

      .cls-3 {
        fill: #ffddc9;
      }

      .cls-4 {
        fill: #f5b893;
      }
    </style>
  </defs>
  <path class="cls-2" d="M485.01,762.47s7.32-3.32,33.93,2.59l-21.73-11.09-12.67-.02c-2.55.62-3.55,2.35-2.84,5.31.82.92,2,2.03,3.31,3.21Z"/>
  <path class="cls-2" d="M594.99,762.47s-7.32-3.32-33.93,2.59l21.73-11.09,12.67-.02c2.55.62,3.55,2.35,2.84,5.31-.82.92-2,2.03-3.31,3.21Z"/>
  <path class="cls-4" d="M476.14,763.26c-15.35-4.61-17.36-22.42-4.19-31.08-.89,3.12-2.11,5.82-2.71,8.58-2.65,9.41,1.56,15.07,6.91,22.5h0Z"/>
  <path class="cls-4" d="M603.86,763.26c5.36-7.43,9.56-13.08,6.91-22.5-.6-2.76-1.82-5.46-2.71-8.58,13.18,8.66,11.15,26.47-4.19,31.08h0Z"/>
  <path class="cls-4" d="M485.01,762.47c-2.48-1.41-5.84-4.91-3.36-7.76,2.33-2.3,5.86-2.46,8.9-2.77,6.15-.46,12.26,1.85,17.64,4.49,5.35,2.52,10.51,5.5,15.66,7.64,5.16,2.13,10.56,3.21,16.14,3.16,5.58.04,10.98-1.03,16.14-3.16,5.15-2.14,10.3-5.12,15.66-7.65,5.38-2.64,11.5-4.94,17.65-4.49,4.07.13,12.62,1.8,8.88,7.54-.9,1.27-2.07,2.24-3.33,3,1.08-1,2.05-2.13,2.64-3.4,2.34-4.9-5.14-4.68-8.2-4.53-5.62.17-10.67,2.74-15.7,5.58-4.7,2.61-10.7,6.4-15.6,8.57-5.62,2.55-11.95,3.88-18.12,3.84-6.17.04-12.51-1.29-18.12-3.85-4.88-2.16-10.95-5.97-15.6-8.57-5.03-2.84-10.08-5.42-15.7-5.58-6.81-.49-12.38,1.26-5.56,7.94h0Z"/>
  <g>
    <path class="cls-1" d="M492.7,575.49s.61-24.04-3.8-58.07c-4.41-34.02-62.06-29.65-62.06-29.65,0,0,50.64,10.76,65.86,87.72Z"/>
    <path class="cls-1" d="M584.43,575.49s-.61-24.04,3.8-58.07c4.41-34.02,62.06-29.65,62.06-29.65,0,0-50.64,10.76-65.86,87.72Z"/>
  </g>
  <path class="cls-1" d="M540,677.32c12.26,0,23.08,3.73,29.59,9.43-5.52-7.09-16.69-11.94-29.59-11.94s-24.07,4.85-29.59,11.94c6.51-5.7,17.33-9.43,29.59-9.43Z"/>
  <ellipse class="cls-3" cx="540" cy="725.67" rx="24.48" ry="16.03"/>
</svg>