<?xml version="1.0" encoding="UTF-8"?>
<svg id="Swatch_Info_Layer" data-name="Swatch Info Layer" xmlns="http://www.w3.org/2000/svg" viewBox="0 0 1543.04 288">
  <defs>
    <style>
      .cls-1 {
        fill: #a78d7c;
      }

      .cls-2 {
        letter-spacing: 0em;
      }

      .cls-2, .cls-3, .cls-4 {
        font-family: MyriadPro-Regular, 'Myriad Pro';
      }

      .cls-5 {
        fill: #4e3829;
      }

      .cls-6 {
        fill: #7a6253;
      }

      .cls-7 {
        fill: #ffe1cf;
      }

      .cls-8 {
        font-size: 12px;
      }

      .cls-9 {
        fill: #fff;
      }

      .cls-10, .cls-11, .cls-12 {
        font-family: MyriadPro-Bold, 'Myriad Pro';
        font-weight: 700;
      }

      .cls-13 {
        fill: #220e00;
      }

      .cls-11 {
        font-size: 16px;
      }

      .cls-4 {
        letter-spacing: 0em;
      }

      .cls-14 {
        fill: #d3b7a6;
      }

      .cls-12 {
        letter-spacing: 0em;
      }
    </style>
  </defs>
  <g>
    <rect class="cls-9" x="1328.52" y="0" width="216" height="288"/>
    <text class="cls-8" transform="translate(1336.52 280)"><tspan class="cls-3" x="0" y="0">CM</tspan><tspan class="cls-4" x="16.61" y="0">Y</tspan><tspan class="cls-3" x="23.02" y="0" xml:space="preserve">K        </tspan><tspan class="cls-12" x="49.87" y="0">59, 70, 74, 81</tspan></text>
    <text class="cls-8" transform="translate(1336.52 262)"><tspan class="cls-2" x="0" y="0">R</tspan><tspan class="cls-3" x="6.49" y="0" xml:space="preserve">GB            </tspan><tspan class="cls-10" x="51.27" y="0">34, 14, 0</tspan></text>
    <text class="cls-8" transform="translate(1336.52 244)"><tspan class="cls-3" x="0" y="0" xml:space="preserve">HEX            </tspan><tspan class="cls-10" x="51.11" y="0">#220E00</tspan></text>
    <text class="cls-11" transform="translate(1336.52 226)"><tspan x="0" y="0">R=34 G=14 B=0</tspan></text>
    <rect class="cls-13" x="1336.52" y="8" width="200" height="200"/>
  </g>
  <g>
    <rect class="cls-9" x="1062.52" y="0" width="216" height="288"/>
    <text class="cls-8" transform="translate(1070.52 280)"><tspan class="cls-3" x="0" y="0">CM</tspan><tspan class="cls-4" x="16.61" y="0">Y</tspan><tspan class="cls-3" x="23.02" y="0" xml:space="preserve">K        </tspan><tspan class="cls-12" x="49.87" y="0">50, 65, 76, 55</tspan></text>
    <text class="cls-8" transform="translate(1070.52 262)"><tspan class="cls-2" x="0" y="0">R</tspan><tspan class="cls-3" x="6.49" y="0" xml:space="preserve">GB            </tspan><tspan class="cls-10" x="51.27" y="0">78, 56, 41</tspan></text>
    <text class="cls-8" transform="translate(1070.52 244)"><tspan class="cls-3" x="0" y="0" xml:space="preserve">HEX            </tspan><tspan class="cls-10" x="51.11" y="0">#4E3829</tspan></text>
    <text class="cls-11" transform="translate(1070.52 226)"><tspan x="0" y="0">R=78 G=56 B=41</tspan></text>
    <rect class="cls-5" x="1070.52" y="8" width="200" height="200"/>
  </g>
  <g>
    <rect class="cls-9" x="796.52" y="0" width="216" height="288"/>
    <text class="cls-8" transform="translate(804.52 280)"><tspan class="cls-3" x="0" y="0">CM</tspan><tspan class="cls-4" x="16.61" y="0">Y</tspan><tspan class="cls-3" x="23.02" y="0" xml:space="preserve">K        </tspan><tspan class="cls-12" x="49.87" y="0">46, 55, 64, 24</tspan></text>
    <text class="cls-8" transform="translate(804.52 262)"><tspan class="cls-2" x="0" y="0">R</tspan><tspan class="cls-3" x="6.49" y="0" xml:space="preserve">GB            </tspan><tspan class="cls-10" x="51.27" y="0">122, 98, 83</tspan></text>
    <text class="cls-8" transform="translate(804.52 244)"><tspan class="cls-3" x="0" y="0" xml:space="preserve">HEX            </tspan><tspan class="cls-10" x="51.11" y="0">#7A6253</tspan></text>
    <text class="cls-11" transform="translate(804.52 226)"><tspan x="0" y="0">R=122 G=98 B=83</tspan></text>
    <rect class="cls-6" x="804.52" y="8" width="200" height="200"/>
  </g>
  <g>
    <rect class="cls-9" x="530.52" y="0" width="216" height="288"/>
    <text class="cls-8" transform="translate(538.52 280)"><tspan class="cls-3" x="0" y="0">CM</tspan><tspan class="cls-4" x="16.61" y="0">Y</tspan><tspan class="cls-3" x="23.02" y="0" xml:space="preserve">K        </tspan><tspan class="cls-12" x="49.87" y="0">35, 42, 50, 4</tspan></text>
    <text class="cls-8" transform="translate(538.52 262)"><tspan class="cls-2" x="0" y="0">R</tspan><tspan class="cls-3" x="6.49" y="0" xml:space="preserve">GB            </tspan><tspan class="cls-10" x="51.27" y="0">167, 141, 124</tspan></text>
    <text class="cls-8" transform="translate(538.52 244)"><tspan class="cls-3" x="0" y="0" xml:space="preserve">HEX            </tspan><tspan class="cls-10" x="51.11" y="0">#A78D7C</tspan></text>
    <text class="cls-11" transform="translate(538.52 226)"><tspan x="0" y="0">R=167 G=141 B=124</tspan></text>
    <rect class="cls-1" x="538.52" y="8" width="200" height="200"/>
  </g>
  <g>
    <rect class="cls-9" x="264.52" y="0" width="216" height="288"/>
    <text class="cls-8" transform="translate(272.52 280)"><tspan class="cls-3" x="0" y="0">CM</tspan><tspan class="cls-4" x="16.61" y="0">Y</tspan><tspan class="cls-3" x="23.02" y="0" xml:space="preserve">K        </tspan><tspan class="cls-12" x="49.87" y="0">17, 27, 32, 0</tspan></text>
    <text class="cls-8" transform="translate(272.52 262)"><tspan class="cls-2" x="0" y="0">R</tspan><tspan class="cls-3" x="6.49" y="0" xml:space="preserve">GB            </tspan><tspan class="cls-10" x="51.27" y="0">211, 183, 166</tspan></text>
    <text class="cls-8" transform="translate(272.52 244)"><tspan class="cls-3" x="0" y="0" xml:space="preserve">HEX            </tspan><tspan class="cls-10" x="51.11" y="0">#D3B7A6</tspan></text>
    <text class="cls-11" transform="translate(272.52 226)"><tspan x="0" y="0">R=211 G=183 B=166</tspan></text>
    <rect class="cls-14" x="272.52" y="8" width="200" height="200"/>
  </g>
  <g>
    <rect class="cls-9" x="-1.48" y="0" width="216" height="288"/>
    <text class="cls-8" transform="translate(6.52 280)"><tspan class="cls-3" x="0" y="0">CM</tspan><tspan class="cls-4" x="16.61" y="0">Y</tspan><tspan class="cls-3" x="23.02" y="0" xml:space="preserve">K        </tspan><tspan class="cls-12" x="49.87" y="0">0, 13, 16, 0</tspan></text>
    <text class="cls-8" transform="translate(6.52 262)"><tspan class="cls-2" x="0" y="0">R</tspan><tspan class="cls-3" x="6.49" y="0" xml:space="preserve">GB            </tspan><tspan class="cls-10" x="51.27" y="0">255, 225, 207</tspan></text>
    <text class="cls-8" transform="translate(6.52 244)"><tspan class="cls-3" x="0" y="0" xml:space="preserve">HEX            </tspan><tspan class="cls-10" x="51.11" y="0">#FFE1CF</tspan></text>
    <text class="cls-11" transform="translate(6.52 226)"><tspan x="0" y="0">R=255 G=225 B=207</tspan></text>
    <rect class="cls-7" x="6.52" y="8" width="200" height="200"/>
  </g>
</svg>