<?xml version="1.0" encoding="UTF-8"?>
<svg id="Eyebrow" xmlns="http://www.w3.org/2000/svg" viewBox="0 0 1080 1080">
  <defs>
    <style>
      .cls-1 {
        fill: #9e1f63;
      }
    </style>
  </defs>
  <path class="cls-1" d="M462.15,458.97c-32.93-.31-66.98-3.4-99.63-6.05-32.73-1.65-64.76,6.36-93.89,21.89,25.03-23.44,59.17-37.74,93.51-40.43,16.89-1.17,33.75-1.09,50.66-1.33,16.23-.02,33.96.06,50.12.93,16.1,1.49,15.42,24.45-.76,24.99h0Z"/>
  <path class="cls-1" d="M617.09,433.99c20.51-1.05,42.11-1.06,62.66-.8,21.4.41,43.28-.04,64.13,5.46,24.93,6.2,48.96,18.76,67.5,36.16-29.13-15.53-61.16-23.54-93.89-21.89-15.93,1.18-33.3,2.91-49.55,3.91-16.2,1.02-33.9,2.02-50.08,2.14-16.16-.5-16.89-23.46-.76-24.99h0Z"/>
</svg>