<?xml version="1.0" encoding="UTF-8"?>
<svg id="Eyebrow" xmlns="http://www.w3.org/2000/svg" viewBox="0 0 1080 1080">
  <defs>
    <style>
      .cls-1 {
        fill: #9e1f63;
      }
    </style>
  </defs>
  <polygon class="cls-1" points="469.25 459.12 454.39 458.93 439.55 458.28 424.82 456.07 409.96 455.78 395.25 453.41 380.41 452.82 365.59 451.86 350.76 451.2 335.91 451.52 321.08 450.98 306.25 451.27 291.42 451.98 276.68 453.79 261.9 455.49 247.53 459.26 259.95 449.94 273.53 442.29 286.18 433.29 302.71 426.86 320.38 424.91 335.63 424.7 350.88 425.02 366.14 424.05 381.39 424.76 396.64 424.96 411.89 424.05 427.14 425.28 442.4 425.21 457.66 425.1 472.91 425.25 481.2 429.19 481.79 442.87 478.19 456.01 469.25 459.12"/>
  <polygon class="cls-1" points="610.76 459.48 625.55 457.99 640.33 456.66 655.22 456.66 669.95 454.62 684.85 454.65 699.61 453.03 714.42 452.05 729.24 451.23 744.07 450.05 758.92 450.54 773.76 451.17 788.54 452.51 803.29 454.01 817.83 456.95 832.54 459.17 819.21 451.18 807.02 441.49 793.9 433.17 777.48 426.03 759.62 424.06 744.37 424.37 729.11 424.16 713.87 425.24 698.61 424.64 683.36 424.55 668.11 425.57 652.85 424.45 637.6 424.63 622.34 424.85 607.08 424.81 598.38 429.1 597.16 442.97 601.54 456.16 610.76 459.48"/>
</svg>