<?xml version="1.0" encoding="UTF-8"?>
<svg id="Eyebrow" xmlns="http://www.w3.org/2000/svg" viewBox="0 0 1080 1080">
  <defs>
    <style>
      .cls-1 {
        fill: #9e1f63;
      }
    </style>
  </defs>
  <g>
    <path class="cls-1" d="M449.42,464.66c-.37.08-1.03-.05-1.36-.1-.13.01-.11.12-.18.16-.06.06-.16.1-.26.15-.12.03-.12.14-.67,0l-.88-.24c-.51-.12-.88-.12-.72.27.08.1.13.18.11.25-.03.13-.25.23-.6.32-.41.09-1.11.19-1.74.03-.68-.19-1.29-.49-1.86-.84-.45-.3-1.85-1.3-1.15-.34.18.22.54.55,1.22.85.53.26,1.6.41,2.12.41.77,0,.67.09.26.36-1.07.56-2.55.82-4.17.51-.15-.03-.37-.08-.09,0,.57.17,1.14.26,1.72.27.45.05,1.47-.11,1.55-.07.08.03.06.09-.13.23-.06.05-.23.15-.36.22-2.85,1.53-6.87.73-9.18-1.76,0,0-.32-.34-.32-.34-.5-.5-1.16-1.52-1.52-1.95-.26-.3-.44-.36-.14.33.92,1.9,3.35,3.28,5.47,3.63,1.12.19,1.35.17.95.34-.37.11-1.42.43-3.39.2-1.06-.14-2.05-.46-2.7-.71-.68-.26-1.13-.49-1.44-.63-.56-.26-.69-.2-.09.24.3.21.78.48,1.52.73.13.04,0,.01.02.02h-.05s-.1.01-.1.01c-.37.04-1.09.09-1.46.13-.07.02-.57-.03.27.19,1,.26,1.26.29,1,.39-.31.07-1.12.2-2.65.03-1.18-.11-2.97-.68-3.92-1.05-1.47-.53.27.51,1.04.69-.1-.01.95.26,1.62.33.65.07,1.27.1,1.92.07,1.73-.1,2.51-.38,3.75-.79,0,0,.59-.22.59-.22.09-.04.09-.03.13-.03.02,0,.07-.01.07,0-.04.05.01.04-.11.13-3.3,2.49-8.06,2.91-11.92,1.4-2.7-1.12-3.27-1.77-4.94-3.05-.22-.17-.2-.09-.01.13.17.2.65.71,1.63,1.35.45.3,1.19.71,1.97,1.02.46.18.93.34,1.4.46.23.06-.07,0-.07,0-1.07-.2-2.16-.5-2.4-.52-.29-.04-.21.09.35.32l.23.08c1.33.41,3.53.53,5,.29,1.93-.29,2.83-.72,3.37-.91.43-.17.68-.28.59-.19,0,.04-.28.24-.75.53-.29.17-.53.31-1.03.55-6.32,3.07-14.13.77-18.18-4.88-.35-.44-.72-1.03-1.07-1.47,0,0-.05-.06-.05-.06h-.02s-.06-.04-.01.06c.02.04.02.06.05.12,1.1,2.04,2.94,3.65,4.99,4.76.89.52,2.81,1.19,3.61,1.33,0,0,.12.04.12.04.63.18.83.24.61.28-.21.03-.83.05-1.86-.06l-.76-.1.71.17c.39.08.64.13.73.17.21.06-.21.11-1.15.09-.47-.01-1.12-.06-1.89-.18-.56-.06-2.48-.49-2.75-.45-.03.02.01.06.14.12.06.03.16.06.26.1l.18.06s-.05,0-.07,0h-1.58s-.11-.01-.15-.01c-1.36-.19-3.57-.94-4.53-1.39-.96-.43-.99-.37-.1.07.46.22,1.25.55,2.36.82,1,.25,2.46.44,3.55.42,1.65-.02,1.95-.12,1.15.07-4.01.87-9.38-.26-12.81-2.64-1.18-.77-1.82-1.33-2.14-1.58-.34-.28-.47-.36-.27-.16.04.04.07.08.19.18l.3.26.48.38c1.71,1.16,2.86,1.98,6.33,2.76,1.16.23,1.75.27,2.77.31,1.22,0,1.23,0,.39.11-.44.05-1.17.11-2.17.1-.62.06-3.89-.37-1.83-.09,2.22.25,3.15.05,2.96.14-1.28.27-3.57.32-5.28.08-.03,0-.7-.1-.2-.02,3.85.63,7.92-.23,11.2-2.13-6.15,4.55-14.96,4.3-20.94.29,0,0-.82-.54-.82-.54-.38-.26-.51-.34-.26-.15.89.66,1.79,1.16,2.83,1.62.31.14.92.37,1.24.48,2.68,1.08,7.3,1.09,9.37.46-.89.26-1.89.57-3.72.76-7.84.89-15.26-3.52-18.8-10.31,1.75,3.33,5.39,6.28,9.21,7.59,1.74.62,3.63.93,5.16.98.08,0-.51.04-1.68,0-.47,0-1.44-.12-1.96-.18-.23-.03-.9-.1-1.14-.14-.18-.03-.41-.05-.57-.07.62.16,3.18.11,2.47.11-.38,0-1.57.13-3.67-.06l-.4-.04c-.2-.02-.21-.03-.09-.01l.4.04.61.04c.33.01.5,0,.52,0,.06-.01-.52,0-1.66-.04l-.46-.03c-.27-.02-.83-.07-1.1-.1.53.09,2.51.1,3,.01.52-.05.73-.1.7-.1-1.02.12-2.94.31-4.43.2-1.96-.08-4.54-.67-6.07-1.3-.15-.09.62.25,2.47.52l.37.04s.47.05.14.01c-2.03-.18-5.26-1.22-6.61-2.07,1.85.86,5.48,1.61,8.07,1.3,2.98-.26,5.78-1.22,8.13-2.93,0,0,.14-.11.14-.11l.07-.06s-.16.09-.17.09c-2.77,1.96-5.92,3.34-9.35,3.69-1.07.11-2.17.13-3.24.06-.89-.07.04,0,0,0l.57.02c1.13.05,3-.2,3.53-.36.42-.1.51-.15.34-.12-1.56.35-4.22.73-6.42.5-4.58-.32-9.14-2.64-12.04-6.07-.6-.7-1.23-1.54-1.7-2.33-.13-.23-.19-.35-.1-.25l.82.98c2.62,3.14,7.29,5.4,11.16,5.57-.02,0-.12-.02-.14-.02l-1.51-.25c-.2-.02.23,0,.4,0,.29.02.79-.04.9-.09-.31-.08-2.85.02-3.56-.25-.35-.08-.94-.24-1.27-.31,0,0-.1-.01.1,0,.69.14,4.08-.39,3.21-.37-1.56.24-2.93.45-4.86.36-.29-.01-.28-.01.12,0,1.28.02,2.53-.13,3.74-.44,1.16-.3,1.77-.59,2.06-.73.24-.12.19-.13-.11,0-.34.12-.98.4-2.03.72-4.81,1.65-11.64.5-15.46-3.07,1.44.83,2.36,1.57,5.38,2.27,1.33.28,2.93.38,4.28.23,1.33-.13,2.72-.47,3.86-1,.32-.15.37-.2.1-.09-.28.1-.73.3-1.67.61-1.06.4-3.99,1.01-5.87.83-.34-.07-.98-.2-1.33-.27-.16-.02-.22-.06-.38-.07-3.49-.14-5.94-1.18-7.88-2.38-.16-.11-.54-.35-.7-.47-.29-.21-.42-.32-.2-.19,3.15,2.07,8.72,2.64,12.34.9,1.06-.47,1.41-.73,1.61-.86.2-.15.06-.07-.25.11-4.97,3.17-12.31,3.32-17.38-.65-.72-.56-.9-.73-.28-.31.96.57,1.55,1.05,4.01,1.75,2.09.59,5.26.55,7.48-.26,2.1-.76,2.88-1.32,3.6-1.94-.85.6-1.79,1.26-2.81,1.76-.87.42-1.49.7-2.52,1.01-2.9,1.1-7.91.57-10.18-.63-1.71-.8-2.06-1.11-1.59-.86,1.61.86,4.97,1.52,7.03,1.16,2.04-.28,3.13-.73,4.15-1.31-.87.42-2.73,1.29-4.34,1.59-2.18.53-5.26.35-7.16-.25-.16-.05-.13-.05.11-.02.53.11,2.08.21,2.85.13,1.86,0,5.09-1.21,5.96-2.08,0,0-1.03.65-1.03.65-.71.49-3.1,1.6-4.64,1.86-.51.11-1.15.21-1.72.26-.38.03-.6.04-.3.02l.42-.04c.85-.07,2.27-.48,2.61-.65.58-.26.34-.16-.87.27-4.87,1.78-10.75.71-14.51-3.12-.69-.71-.82-.87-1.2-1.35-.04-.05-.04-.06-.06-.1l.09.08.33.31c3.19,3.16,9.12,4.21,12.69,2.36-.15,0-1,.5-3.09.99-.6.13-1.22.23-1.84.28-.33.03.53-.05.74-.1.98-.16,1.93-.45,2.8-.82,1.96-.88,2.75-1.7,3.14-2.04.3-.31.39-.37.54-.59-.81.74-.9.98-2.31,2.05-5.18,3.95-12.68,3.43-17.2-1.32-.74-.78-.94-1.08-.87-1.03.07.05.51.44.6.52,4.1,3.6,11.12,3.6,14.8,0-1.01.78-1.3,1.16-3.08,2.14-1.31.69-2.81,1.19-4.3,1.39-.5.07.06,0,.03,0,1.4-.21,2.7-.84,2.47-.79.12,0-3.23,1.24-4.3,1.25-1.82.39-5.33-.22-6.44-.79-.65-.26-1.07-.48-1.19-.55-.14-.08-.15-.09.19.04.34.11.85.33,2.12.55.8.16,2.68.15,3.2,0-.7.08-1.86.1-2.04.07-.24-.02-.21-.04.16-.11,2.85-.42,5.92-2.15,7.28-4.65-.2.22-.49.72-.7.98-1.32,1.88-3.22,3.52-5.45,4.41-2.9,1.2-6.28,1.11-9.09-.13,0,0-.5-.23-.5-.23-1.05-.54-1.3-.74-.74-.48,3.71,1.71,8.92.61,11.4-2.42.23-.3.14-.23-.24.2-1.34,1.5-3.16,2.88-5.22,3.57-3.44,1.25-7.67.54-10.54-1.75,0-.01-.09-.08-.02-.04.36.18.83.42,1.3.61,2.1.86,5.03.96,7.03,0,.33-.18.19-.15-.46.12-.92.39-2.52.86-3.63.97-1.85.24-3.92-.13-5.1-.62-.11-.05-.13-.07.17,0,.27.1,1.95.26,2.71.14,1.36-.12,2.96-.65,4.17-1.46.67-.4,1.84-1.46,2.1-2.03-1.64,1.88-2.64,3.27-6.19,4.41-.31.09.09-.03.1-.03l.31-.11c.22-.08.35-.14.53-.21.27-.1,1.28-.68,1.32-.8,0-.07-.47.34-1.8,1.05-.64.33-1.69.77-2.83.99-1.11.22-1.98.23-2.6.2-1.16-.07-1.58-.19-1.26-.18.59.01,1.92-.12,2.7-.43,0,0,.19-.08.19-.08.48-.21.52-.29.29-.2-.25.09-.83.37-1.79.68-.51.16-1.21.36-1.84.45-1.61.33-4.1-.13-5.13-.62-.88-.38-1.16-.56-.8-.44,1.86.44,3.33.9,6.53-.61.74-.4,1.75-1.18,2.22-1.77.48-.57.96-1.24,1.18-1.95,0-.12-.11.16-.47.91-.12.33-.45.83-.69,1.23-1.03,1.66-2.67,3.06-4.53,3.76-1.49.6-3.39.62-3.7.59-.39-.04-.3-.01.58-.19.58-.08,2.19-.8,2.57-1.23.28-.27.06-.12-.59.36-.83.67-2.71,1.57-3.9,1.76-1.4.26-2.11.17-2.24.16-.06-.01,0-.03.24-.07.25-.05.68-.13,1.26-.35.04-.02.45-.19.22-.1-.55.21-1.33.41-1.82.48-.42.06-.5.06-.3-.04l.22-.11.15-.08c.96-.37,2.26-1.54,2.42-1.87.47-.66.34-.61.01-.12-.87,1.24-1.76,2.3-3.82,3.27-1.98.89-4.43.82-6.32-.06,0,0-.25-.12-.25-.12-.62-.31-.85-.48-.79-.48l.66.17c.35.03,1.37.43,3.35-.1,1.71-.51,3.16-1.68,3.92-3.26.12-.23.26-.62.3-.86.04-.45-.3.79-.36.94-.95,3.27-4.28,5.84-7.85,5.31-.7-.07-1.53-.34-2.09-.59-.76-.35-1.04-.56-1.2-.68-.07-.05-.08-.07,0-.06,1.55.53,3.52.35,4.9-.51.33-.21.52-.4.61-.49.17-.21.03-.12-.36.23-.36.31-1.12,1.01-2.36,1.57-1.1.47-1.76.53-2.04.57-.29.02-.23.01.29-.25.47-.24.97-.62,1.34-1.01.41-.44.55-.73.61-.86.08-.23-.06-.01-.43.59-.37.7-1.45,1.89-2.35,2.4,0,0-.13.07-.13.07l-.25.13c-.64.32-1.07.44-1.31.51-.24.06-.27.05-.11-.09l.07-.06s.17-.12.26-.19c.49-.38.8-.79,1.09-1.27.44-.82.4-1.38.05-.17-.23,1.08-1.45,2.87-2.56,3.46-.79.47-1.36.63-1.65.71-.3.08-.32.07-.1-.1.32-.24.42-.43.35-.4-.07.02-.29.24-.67.59-.24.2-.52.47-.85.7-1.18.99-3.21,1.25-4.52.82-.26-.09-.4-.09.13-.15.3-.06.93-.08,1.88-.83.28-.26.37-.41.42-.51.09-.2-.05-.06-.28.28-.17.31-.63.84-.95,1.18-.13.14-.49.45-.38.34.04-.09-.06-.05-.24.11l-.83.78c-.3.28-.8.67-1.15.84-.52.27-.94.37-1.23.43-.57.1-.86.1-.87.07.01-.03.07-.05.3-.19.12-.07.24-.16.41-.31l.11-.11s.06-.08.08-.11c.08-.17-.02-.11-.18.09-.17.21-.39.57-.84,1.05-.08.09-.29.29-.33.31l-.16.12-.32.23-.64.47c-.55.43-1.29,1.03-1.86,1.25-.04.02-.05.02-.08.02.04-.05.13-.17.18-.26.19-.36.17-.55.16-.6-.01-.03-.04,0-.06.1-.04.19-.05.51-.13,1.04-.06.29-.1.62-.37,1.13-.41.66-.53.64-.71.82-.7.53-1.12.69-1.24.74l-2.74-2.18c.57-.81,1.1-1.21,1.18-1.44.01-.01.09-.22-.19.2-.14.27-.15.32-.18.34-.04-.01-.09-.23-.14-.59-.03-.17-.04-.41-.03-.71-.05-.41.35-1.49.81-1.95,0,0,.23-.27.23-.27l.4-.43c.31-.32.45-.43.53-.67.34-.46.81-1.08,1.15-1.53.06-.08-.05.03-.05.01-.1.06-.06-.06.04-.32.06-.33.71-1.37,1.2-1.77.46-.47,1.36-.85,1.82-1,.52-.16.77-.24.72-.28-.02-.01-.18,0-.47.14-.13.06-.36.21-.5.33-.01,0-.03,0-.03-.02,0-.05.06-.19.23-.46.16-.26.42-.65.86-1.1.21-.2-.05.02-.09.05l-.17.16c-.08.07-.09.07-.08.01.56-1.84,2.55-3.25,4.17-3.31,1.24-.12,1.48.07,1.93-.04-.01-.01-.14-.06-.54-.04-.58.06-1.07.22-1.6.56-.09.05-.29.21-.28.2l-.04.02c-.09.05-.14.08-.15.06.39-.68.95-1.41,1.99-2.1.68-.45,1.17-.65,1.37-.78.22-.12.16-.17-.18,0-.68.32-1.51,1.5-1.74,2.1-.11-.57.46-2.28,1.15-3.13.52-.87,2.22-1.89,2.94-2.27.26-.15.33-.23.16-.18l-.07.03-.04.02s-.14.08-.2.13c-.34.24-.56.43-.76.64-.35.36-.46.55-.54.64-.1.13-.02-.16.33-.86.2-.36.49-.88,1.09-1.51.71-.95,3.13-2,3.86-2.16.25-.08.12-.15-.48.09-.75.32-1.09.67-1.07.59,0-.04.22-.35.8-.92,1.44-1.48,3.96-2.24,6.04-1.79.31.05.39.08.58.13.57.15,1.31.42,1.85.64.33.13.53.18.27.03-1.03-.49-2.35-.53-3.55-.23-1.87.46-3.44,1.86-4.18,3.56,0,0-.13.31-.13.31-.02.02-.05.11-.05.08.51-5.41,5.97-8.21,10.86-6.1.76.31.9.29.45.09-.07-.03-.35-.14-.59-.2l-.26-.06-.33-.06c-.23-.03-.39-.05-.83-.07-.89-.01-1.92.19-2.76.57-1.62.73-2.05,1.4-2.71,2.12.32-.85,1.61-2.66,3.35-3.59.2-.14.54-.27.76-.38.51-.27,2.05-.75,2.23-.83.06-.03.03-.04-.07-.03-.05,0-.13.02-.22.05l-.16.05s-.07.02.09-.04l.32-.13c.84-.32,1.54-.45,2.05-.53.51-.08.84-.1,1.05-.13.41-.03.25-.13-.62.02-.71.07-1.98.69-2.46,1.03-.22.15-.04-.08.67-.67.36-.29.86-.66,1.62-1.06.77-.41,1.73-.72,2.4-.86,1.41-.29,2.05-.25,2.2-.31.1-.01-.33-.14-1.61.21-.55.18-1.52.59-2.04.99-.9.59-1.65,1.4-2.23,2.27,0,0-.21.34-.21.34l-.2.35c-.14.26-.09.02.13-.6.07-.19.14-.38.25-.62,2.22-5.11,8.05-6.55,12.15-4.91.86.32,1.07.39.7.2-.27-.1-.59-.28-1.73-.45-1.19-.16-2.46,0-3.65.37-.45.13-.54.17-.3.01.25-.15.78-.49,1.77-.87,1.26-.55,3.38-.77,4.5-.7.86.05.98.02.36-.05-.73-.16-3.26.41-3.86.84-.85.45-.9.52-.46.13.77-.67,2.34-1.51,3.49-1.85.04-.02.48-.14.2-.07-2.19.65-3.15,1.55-3.74,2.05-.6.57-.72.74-.84.86.39-.96,2.02-2.59,3.22-3.35,1.67-1.12,3.93-1.76,5.92-1.73,1.81.04,2.32.24,3.59.52.13.03.02-.03-.28-.12-.3-.08-.98-.26-2.1-.25-.7,0-1.57.13-2.29.31,0,0-.29.08-.29.08l-.63.19c.1-.25,2.23-1.1,3.09-1.28,1.38-.33,3.17-.39,4.59-.08,1.29.24,2.69.79,3.77,1.41,0,0,.87.5.87.5.05.03.09.04.1.04-.05-.04,0-.02-.14-.11-1.61-1.05-3.62-1.46-5.53-1.36-2.46.13-4.86,1.27-6.49,2.9-.09.08-.23.24-.24.23-.11.11,0-.04.14-.24,3.21-4.33,9.32-5.8,14.31-3.45,1.05.49,1.26.58.7.27-.4-.2-.92-.41-1.38-.54-4.03-1.24-8.84.5-11.27,3.89,0,0-.11.15-.11.15-.02.03-.03.03-.04.05-.04.05-.02.01,0-.03.21-.47.48-.86.79-1.33,1.83-2.72,5.04-4.69,8.34-5.1.91-.14,1.49-.18,1.79-.23.47-.07,0-.08-.22-.06,1.73-.42,5.36.14,6.7.8,0,0,.94.37.94.37-.51-.3-1.42-.67-3.14-.88-1.16-.12-2.57-.02-3.73.27-1.28.34-1.58.55-1.21.33.35-.16,1.41-.81,3.66-1.28l.44-.08s.6-.08.13-.03c-1.14.15-2.27.49-3.31.98-.93.42-2.06,1.24-2.27,1.42,0,0-.06.04-.06.04.22-.29.49-.49,1.18-1.08,5.02-4.08,12.5-3.66,17.24,1.09.16.15,1.33,1.33.69.59,0,0-.19-.2-.19-.2-3.81-3.68-10.33-3.98-14.59-.94-.68.43-1.56,1.31-1.61,1.3,0,0,.07-.09.14-.19,1.45-1.54,1.91-2.19,4.92-3.66.98-.49,3.11-.98,3.93-1.02-.48.04-.97.11-1.44.21-1.56.37-1.92.62-1.57.41,5.25-2.69,11.89-1.64,16.26,3.07.14.14.43.46.57.59.02.01.07.06.07.05-.03-.04-.09-.15-.44-.51-2.29-2.26-5.6-3.44-8.82-3.34-.99-.02-2.9.36-3.47.59-.7.25-.45.11.64-.34.79-.35,2.83-.89,4.12-.95.34-.02.15-.02-.2,0-1.56.01-4.38,1.07-5.23,1.67-.38.22-.43.26-.35.19.13-.11.47-.37,1.07-.75,1.21-.88,4.62-2.2,6.7-2.2,1.21-.12,3.15.05,4.07.24,0,0,.9.16.9.16-.23-.14-1.86-.36-2.67-.31-1.4-.07-4.02.66-4.95,1.15-.23.1-.27.11,0-.05,3.94-2.46,10.01-2.62,14.25-.33.96.5,1.06.47-.15-.11-.67-.29-1.78-.75-3.66-.96-3-.34-6.24.5-8.69,2.16-.35.24-.36.24-.23.12,5-4.42,12.9-4.61,18.18-.87.22.14.66.45.88.6.24.17.19.11-.02-.06-3.98-3.13-10.5-3.06-14.4-.67,3.78-2.98,10.45-3.68,15.04-1.47,1.54.65,2.18,1.21,2.82,1.49,0,0-.1-.08-.1-.08l-.25-.17c-1.38-.96-3.91-1.86-6.64-1.95.45-.03,1.17-.06,1.63-.09,0,0,.22-.01.22-.01h.11c-2.02-.13-4.53.51-5.7.96.81-.46,2.69-1.2,3.84-1.41,2.1-.48,4.57-.51,6.71-.06,3.57.83,4.88,1.82,6.79,3.05.28.19.25.14.05-.03-1.89-1.55-5.65-2.81-8.39-2.7-2.62.02-4.03.55-5.47,1.03.84-.57,3-1.31,4.64-1.6,1.05-.18,2.07-.27,3.16-.26.43,0,.48.01.22,0-1.17-.1-2.52.11-3.15.13.09-.04,1.1-.41,3.3-.61.69-.07,1.51-.04,2.17-.04.39-.03,1.03-.04,1.41-.07,0,0,.44-.02.44-.02h.05s0,0-.07-.01c-.22-.06-1.9-.05-.74-.19.62-.13,2.3-.11,2.93-.1,0,0,1.75-.18,1.75-.18,1.83,0,4.46.7,6.24,1.55,2.78,1.31,4.83,3.04,6.67,5.29.28.31.94,1.27,1.16,1.46,0,0-.06-.13-.09-.18l-.17-.25c-2.61-3.75-7.33-6.18-11.89-6.5-1.51-.19-3.79.11-4.61.24,1.32-.45,3.67-.84,5.67-.78,0,0,.67.03.67.03,0,0,.97.07.11,0-3.6-.27-7.28.67-10.29,2.59-.05.02-.6.41-.49.28,1.64-1.34,3.27-2.25,5.31-3.01,4.46-1.81,10.66-1.19,14.59.76.34.15.42.17.23.07-1-.49-3.35-1.28-4.75-1.36-.3-.03.19.02.24.02,1.97.21,4.38.95,4.5,1,.19.06.18.04-.07-.05-.61-.19-1.99-.58-2.96-.64-.89-.15-2.8-.09-3.39-.02-.32.03-.33.03-.09-.02.24-.04.72-.13,1.51-.21.73-.17,3.27-.06,4.01.02-.21-.02-.73-.08-.95-.08-.59-.03-.63-.03-.03-.05.52,0,1.63,0,2.35.07,0,0,.6.06.6.06.16.02.18.02.01,0-1.27-.16-2.57-.09-2.34-.1.14,0,1.1-.12,2.95-.04,1.08.05,2.42.25,3.53.4l-.17-.02-.4-.04-.62-.04c-.63-.02-.68,0-.06,0,5.04-.12,10.77,2.09,14.25,5.98,1.4,1.52,2.35,2.92,3.22,4.6.08.2-.1-.16-.11-.16-2.68-4.64-8.67-8.19-14.14-8.26-1.17-.13-3.84.24-4.53.48-.28.08-.23.08.13,0,3.45-.99,8.69-.88,12.16.64,1.41.56,2.73,1.27,3.96,2.12.13.09,1.16.85.79.62,0,0-.48-.31-.48-.31-4.37-2.97-11.76-3.56-16.77-.71-.24.13-.6.34-.81.48-.22.15-.34.25-.04.08l.55-.32.49-.28c3.61-2.02,7.88-2.9,12.02-2.25.53.08-.1-.02-.1-.01-.89-.15-2.65-.14-3.16-.05-.33.04-.38.07-.19.07.35.03,1.83-.23,4.58.08.37.05.73.1,1.09.17-.61-.1-1.57-.18-2.11-.17-1.83.07-2.2.15.66.08,1.26.05,2.2.1,3.58.38,3.8.85,5.26,1.82,7.24,3.19,0,0,.65.5.65.5l.46.39.34.31c.4.38.48.48.34.38-1.5-1.29-4.57-2.88-6.86-3.28-1.5-.34-3.85-.44-5.1-.11-.27.11.57-.08,2.76-.12,1.4-.02,3.05.18,4.36.5,1.37.33,2.42.75,3.13,1.07,1.39.66,1.84.99,1.37.79-.48-.22-2.66-.92-3.24-.93,0,0,.1.04.1.04l1.61.61s.03.02.13.05l.38.1.66.19c.4.12.7.24.93.34.44.19.55.27.32.27-.5-.04-1.48-.19-1.8-.15-.4.02-.28.09.47.18.87.1,1.99.31,2.62.49,0,0-.12-.01-.12-.01h-.2c-.5-.03-.58.03-.25.12.78.2,3.87.78,4.98,1.35,3.34,1.38,6.13,3.92,7.64,7.16.2.49-.46-.45-.5-.5-.8-1.03-1.79-2.01-2.85-2.78-3.84-2.9-9.75-3.6-13.91-1.12-.23.16-.26.22-.04.13,1.58-.66,2.59-1.28,5.45-1.74,1.77-.27,3.97-.15,5.61.33,0,0,.42.14.42.14,1.08.37,1.67.69,1.89.85.22.17.01.14-.63.04l-.13-.02s-.24-.05.02.02c.54.14,1.08.32,1.6.52.91.36,1.77.83,2.34,1.2,1.57,1.04,2.24,1.72,2.84,2.55-.95-.58-1.61-1.26-3.65-2.06-1.85-.73-4.21-.98-6.13-.63-1.21.23-2.68.63-3.57,1.41,0,0,.05,0,.05,0,0,.02.17-.05.25-.08l.55-.24.95-.4c2.19-1.01,6.13-1.39,8.46-.58.9.28,1.58.59,2.07.85,1,.54,1.36.86,1.19.85-.52-.1-1.71-.47-2.39-.5-1-.07-1.27.06-1.03.14.29.1,1.09.13,2.63.5,1.1.28.86.3,1.06.38.39.26,1.05.66,1.44.92,1.5.49,3.44,1.53,3.69,2.17-.08,0-.3-.08-.73-.23-.4-.14-1.14-.37-1.93-.46-1.44-.13-1.94.14-1.77.2.14.11.91.03,2.57.26.5.08.97.19,1.46.33,2.05.53,4.24,2.17,5.2,3.94.48.84.83,1.96.72,1.98-.04.05-.09.06-.28-.16l-.15-.17c-.08-.1-.18-.22-.27-.32l-.41-.43c-.9-.87-1.96-1.54-3.18-1.89-1.01-.38-3.09-.25-3.67.13-.17.08-.18.11-.25.17,0,.03-.04.07.03.08.99-.06,2.83-.55,4.13-.29.36.05.78.13,1.16.24.32.09.13.05.01.02-.81-.17-1.82-.04-2.11.09-.28.1-.4.21-.36.26.11.12.52.02,1.83-.04,1.98-.19,4.71.97,5.6,2.66.14.24.2.4.18.47.05.16-.43-.08-.57-.16-.31-.14-.86-.38-1.19-.4-.09.1-.06.25.12.42.18.17.5.34,1,.59.24.12.56.28.89.48.31.19.56.39.76.59.39.39.6.73.63.92,0,.09-.03.15-.17.16-.31-.04-.03.14.1.27l.49.44c.18.16.44.39.54.55.09.15-.02.18,0,.28,0,.09.05.2.12.31l-1.12,3.31h0Z"/>
    <polygon class="cls-1" points="385.78 467.21 390.12 468.06 394.66 468.16 399.07 469.03 403.51 469.68 407.94 470.43 412.25 471.93 416.71 472.43 421.19 472.86 425.58 473.91 430.13 473.91 434.56 474.62 438.92 475.84 443.35 476.56 447.9 476.6 452.18 478.37 456.67 478.23 458.81 474.8 460.19 470.76 461.85 466.86 463.97 463.14 464.83 458.92 466.46 455 467.33 450.84 468.82 446.81 469.21 442.94 466.34 446 463.13 448.92 460.59 452.4 457.69 455.59 455.56 458.69 455.37 454.41 455.12 449.62 454.7 445.05 450.66 447.67 445.94 449.45 441.48 452.17 440.73 446.88 439.27 442.26 435.87 444.12 431.82 445.49 428.22 447.8 424.38 449.62 420.45 451.22 416.53 452.88 412.76 454.84 408.99 456.8 404.73 457.72 401.08 459.94 397.05 461.35 393.64 464.08 389.51 465.3 385.78 467.21"/>
  </g>
  <g>
    <path class="cls-1" d="M630.58,464.66c.37.08,1.03-.05,1.36-.1.13.01.11.12.18.16.06.06.16.1.26.15.12.03.12.14.67,0l.88-.24c.51-.12.88-.12.72.27-.08.1-.13.18-.11.25.03.13.25.23.6.32.41.09,1.11.19,1.74.03.68-.19,1.29-.49,1.86-.84.45-.3,1.85-1.3,1.15-.34-.18.22-.54.55-1.22.85-.53.26-1.6.41-2.12.41-.77,0-.67.09-.26.36,1.07.56,2.55.82,4.17.51.15-.03.37-.08.09,0-.57.17-1.14.26-1.72.27-.45.05-1.47-.11-1.55-.07-.08.03-.06.09.13.23.06.05.23.15.36.22,2.85,1.53,6.87.73,9.18-1.76,0,0,.32-.34.32-.34.5-.5,1.16-1.52,1.52-1.95.26-.3.44-.36.14.33-.92,1.9-3.35,3.28-5.47,3.63-1.12.19-1.35.17-.95.34.37.11,1.42.43,3.39.2,1.06-.14,2.05-.46,2.7-.71.68-.26,1.13-.49,1.44-.63.56-.26.69-.2.09.24-.3.21-.78.48-1.52.73-.13.04,0,.01-.02.02h.05s.1.01.1.01c.37.04,1.09.09,1.46.13.07.02.57-.03-.27.19-1,.26-1.26.29-1,.39.31.07,1.12.2,2.65.03,1.18-.11,2.97-.68,3.92-1.05,1.47-.53-.27.51-1.04.69.1-.01-.95.26-1.62.33-.65.07-1.27.1-1.92.07-1.73-.1-2.51-.38-3.75-.79,0,0-.59-.22-.59-.22-.09-.04-.09-.03-.13-.03-.02,0-.07-.01-.07,0,.04.05-.01.04.11.13,3.3,2.49,8.06,2.91,11.92,1.4,2.7-1.12,3.27-1.77,4.94-3.05.22-.17.2-.09.01.13-.17.2-.65.71-1.63,1.35-.45.3-1.19.71-1.97,1.02-.46.18-.93.34-1.4.46-.23.06.07,0,.07,0,1.07-.2,2.16-.5,2.4-.52.29-.04.21.09-.35.32l-.23.08c-1.33.41-3.53.53-5,.29-1.93-.29-2.83-.72-3.37-.91-.43-.17-.68-.28-.59-.19,0,.04.28.24.75.53.29.17.53.31,1.03.55,6.32,3.07,14.13.77,18.18-4.88.35-.44.72-1.03,1.07-1.47,0,0,.05-.06.05-.06h.02s.06-.04.01.06c-.02.04-.02.06-.05.12-1.1,2.04-2.94,3.65-4.99,4.76-.89.52-2.81,1.19-3.61,1.33,0,0-.12.04-.12.04-.63.18-.83.24-.61.28.21.03.83.05,1.86-.06l.76-.1-.71.17c-.39.08-.64.13-.73.17-.21.06.21.11,1.15.09.47-.01,1.12-.06,1.89-.18.56-.06,2.48-.49,2.75-.45.03.02-.01.06-.14.12-.06.03-.16.06-.26.1l-.18.06s.05,0,.07,0h1.58s.11-.01.15-.01c1.36-.19,3.57-.94,4.53-1.39.96-.43.99-.37.1.07-.46.22-1.25.55-2.36.82-1,.25-2.46.44-3.55.42-1.65-.02-1.95-.12-1.15.07,4.01.87,9.38-.26,12.81-2.64,1.18-.77,1.82-1.33,2.14-1.58.34-.28.47-.36.27-.16-.04.04-.07.08-.19.18l-.3.26-.48.38c-1.71,1.16-2.86,1.98-6.33,2.76-1.16.23-1.75.27-2.77.31-1.22,0-1.23,0-.39.11.44.05,1.17.11,2.17.1.62.06,3.89-.37,1.83-.09-2.22.25-3.15.05-2.96.14,1.28.27,3.57.32,5.28.08.03,0,.7-.1.2-.02-3.85.63-7.92-.23-11.2-2.13,6.15,4.55,14.96,4.3,20.94.29,0,0,.82-.54.82-.54.38-.26.51-.34.26-.15-.89.66-1.79,1.16-2.83,1.62-.31.14-.92.37-1.24.48-2.68,1.08-7.3,1.09-9.37.46.89.26,1.89.57,3.72.76,7.84.89,15.26-3.52,18.8-10.31-1.75,3.33-5.39,6.28-9.21,7.59-1.74.62-3.63.93-5.16.98-.08,0,.51.04,1.68,0,.47,0,1.44-.12,1.96-.18.23-.03.9-.1,1.14-.14.18-.03.41-.05.57-.07-.62.16-3.18.11-2.47.11.38,0,1.57.13,3.67-.06l.4-.04c.2-.02.21-.03.09-.01l-.4.04-.61.04c-.33.01-.5,0-.52,0-.06-.01.52,0,1.66-.04l.46-.03c.27-.02.83-.07,1.1-.1-.53.09-2.51.1-3,.01-.52-.05-.73-.1-.7-.1,1.02.12,2.94.31,4.43.2,1.96-.08,4.54-.67,6.07-1.3.15-.09-.62.25-2.47.52l-.37.04s-.47.05-.14.01c2.03-.18,5.26-1.22,6.61-2.07-1.85.86-5.48,1.61-8.07,1.3-2.98-.26-5.78-1.22-8.13-2.93,0,0-.14-.11-.14-.11l-.07-.06s.16.09.17.09c2.77,1.96,5.92,3.34,9.35,3.69,1.07.11,2.17.13,3.24.06.89-.07-.04,0,0,0l-.57.02c-1.13.05-3-.2-3.53-.36-.42-.1-.51-.15-.34-.12,1.56.35,4.22.73,6.42.5,4.58-.32,9.14-2.64,12.04-6.07.6-.7,1.23-1.54,1.7-2.33.13-.23.19-.35.1-.25l-.82.98c-2.62,3.14-7.29,5.4-11.16,5.57.02,0,.12-.02.14-.02l1.51-.25c.2-.02-.23,0-.4,0-.29.02-.79-.04-.9-.09.31-.08,2.85.02,3.56-.25.35-.08.94-.24,1.27-.31,0,0,.1-.01-.1,0-.69.14-4.08-.39-3.21-.37,1.56.24,2.93.45,4.86.36.29-.01.28-.01-.12,0-1.28.02-2.53-.13-3.74-.44-1.16-.3-1.77-.59-2.06-.73-.24-.12-.19-.13.11,0,.34.12.98.4,2.03.72,4.81,1.65,11.64.5,15.46-3.07-1.44.83-2.36,1.57-5.38,2.27-1.33.28-2.93.38-4.28.23-1.33-.13-2.72-.47-3.86-1-.32-.15-.37-.2-.1-.09.28.1.73.3,1.67.61,1.06.4,3.99,1.01,5.87.83.34-.07.98-.2,1.33-.27.16-.02.22-.06.38-.07,3.49-.14,5.94-1.18,7.88-2.38.16-.11.54-.35.7-.47.29-.21.42-.32.2-.19-3.15,2.07-8.72,2.64-12.34.9-1.06-.47-1.41-.73-1.61-.86-.2-.15-.06-.07.25.11,4.97,3.17,12.31,3.32,17.38-.65.72-.56.9-.73.28-.31-.96.57-1.55,1.05-4.01,1.75-2.09.59-5.26.55-7.48-.26-2.1-.76-2.88-1.32-3.6-1.94.85.6,1.79,1.26,2.81,1.76.87.42,1.49.7,2.52,1.01,2.9,1.1,7.91.57,10.18-.63,1.71-.8,2.06-1.11,1.59-.86-1.61.86-4.97,1.52-7.03,1.16-2.04-.28-3.13-.73-4.15-1.31.87.42,2.73,1.29,4.34,1.59,2.18.53,5.26.35,7.16-.25.16-.05.13-.05-.11-.02-.53.11-2.08.21-2.85.13-1.86,0-5.09-1.21-5.96-2.08,0,0,1.03.65,1.03.65.71.49,3.1,1.6,4.64,1.86.51.11,1.15.21,1.72.26.38.03.6.04.3.02l-.42-.04c-.85-.07-2.27-.48-2.61-.65-.58-.26-.34-.16.87.27,4.87,1.78,10.75.71,14.51-3.12.69-.71.82-.87,1.2-1.35.04-.05.04-.06.06-.1l-.09.08-.33.31c-3.19,3.16-9.12,4.21-12.69,2.36.15,0,1,.5,3.09.99.6.13,1.22.23,1.84.28.33.03-.53-.05-.74-.1-.98-.16-1.93-.45-2.8-.82-1.96-.88-2.75-1.7-3.14-2.04-.3-.31-.39-.37-.54-.59.81.74.9.98,2.31,2.05,5.18,3.95,12.68,3.43,17.2-1.32.74-.78.94-1.08.87-1.03-.07.05-.51.44-.6.52-4.1,3.6-11.12,3.6-14.8,0,1.01.78,1.3,1.16,3.08,2.14,1.31.69,2.81,1.19,4.3,1.39.5.07-.06,0-.03,0-1.4-.21-2.7-.84-2.47-.79-.12,0,3.23,1.24,4.3,1.25,1.82.39,5.33-.22,6.44-.79.65-.26,1.07-.48,1.19-.55.14-.08.15-.09-.19.04-.34.11-.85.33-2.12.55-.8.16-2.68.15-3.2,0,.7.08,1.86.1,2.04.07.24-.02.21-.04-.16-.11-2.85-.42-5.92-2.15-7.28-4.65.2.22.49.72.7.98,1.32,1.88,3.22,3.52,5.45,4.41,2.9,1.2,6.28,1.11,9.09-.13,0,0,.5-.23.5-.23,1.05-.54,1.3-.74.74-.48-3.71,1.71-8.92.61-11.4-2.42-.23-.3-.14-.23.24.2,1.34,1.5,3.16,2.88,5.22,3.57,3.44,1.25,7.67.54,10.54-1.75,0-.01.09-.08.02-.04-.36.18-.83.42-1.3.61-2.1.86-5.03.96-7.03,0-.33-.18-.19-.15.46.12.92.39,2.52.86,3.63.97,1.85.24,3.92-.13,5.1-.62.11-.05.13-.07-.17,0-.27.1-1.95.26-2.71.14-1.36-.12-2.96-.65-4.17-1.46-.67-.4-1.84-1.46-2.1-2.03,1.64,1.88,2.64,3.27,6.19,4.41.31.09-.09-.03-.1-.03l-.31-.11c-.22-.08-.35-.14-.53-.21-.27-.1-1.28-.68-1.32-.8,0-.07.47.34,1.8,1.05.64.33,1.69.77,2.83.99,1.11.22,1.98.23,2.6.2,1.16-.07,1.58-.19,1.26-.18-.59.01-1.92-.12-2.7-.43,0,0-.19-.08-.19-.08-.48-.21-.52-.29-.29-.2.25.09.83.37,1.79.68.51.16,1.21.36,1.84.45,1.61.33,4.1-.13,5.13-.62.88-.38,1.16-.56.8-.44-1.86.44-3.33.9-6.53-.61-.74-.4-1.75-1.18-2.22-1.77-.48-.57-.96-1.24-1.18-1.95,0-.12.11.16.47.91.12.33.45.83.69,1.23,1.03,1.66,2.67,3.06,4.53,3.76,1.49.6,3.39.62,3.7.59.39-.04.3-.01-.58-.19-.58-.08-2.19-.8-2.57-1.23-.28-.27-.06-.12.59.36.83.67,2.71,1.57,3.9,1.76,1.4.26,2.11.17,2.24.16.06-.01,0-.03-.24-.07-.25-.05-.68-.13-1.26-.35-.04-.02-.45-.19-.22-.1.55.21,1.33.41,1.82.48.42.06.5.06.3-.04l-.22-.11-.15-.08c-.96-.37-2.26-1.54-2.42-1.87-.47-.66-.34-.61-.01-.12.87,1.24,1.76,2.3,3.82,3.27,1.98.89,4.43.82,6.32-.06,0,0,.25-.12.25-.12.62-.31.85-.48.79-.48l-.66.17c-.35.03-1.37.43-3.35-.1-1.71-.51-3.16-1.68-3.92-3.26-.12-.23-.26-.62-.3-.86-.04-.45.3.79.36.94.95,3.27,4.28,5.84,7.85,5.31.7-.07,1.53-.34,2.09-.59.76-.35,1.04-.56,1.2-.68.07-.05.08-.07,0-.06-1.55.53-3.52.35-4.9-.51-.33-.21-.52-.4-.61-.49-.17-.21-.03-.12.36.23.36.31,1.12,1.01,2.36,1.57,1.1.47,1.76.53,2.04.57.29.02.23.01-.29-.25-.47-.24-.97-.62-1.34-1.01-.41-.44-.55-.73-.61-.86-.08-.23.06-.01.43.59.37.7,1.45,1.89,2.35,2.4,0,0,.13.07.13.07l.25.13c.64.32,1.07.44,1.31.51.24.06.27.05.11-.09l-.07-.06s-.17-.12-.26-.19c-.49-.38-.8-.79-1.09-1.27-.44-.82-.4-1.38-.05-.17.23,1.08,1.45,2.87,2.56,3.46.79.47,1.36.63,1.65.71.3.08.32.07.1-.1-.32-.24-.42-.43-.35-.4.07.02.29.24.67.59.24.2.52.47.85.7,1.18.99,3.21,1.25,4.52.82.26-.09.4-.09-.13-.15-.3-.06-.93-.08-1.88-.83-.28-.26-.37-.41-.42-.51-.09-.2.05-.06.28.28.17.31.63.84.95,1.18.13.14.49.45.38.34-.04-.09.06-.05.24.11l.83.78c.3.28.8.67,1.15.84.52.27.94.37,1.23.43.57.1.86.1.87.07-.01-.03-.07-.05-.3-.19-.12-.07-.24-.16-.41-.31l-.11-.11s-.06-.08-.08-.11c-.08-.17.02-.11.18.09.17.21.39.57.84,1.05.08.09.29.29.33.31l.16.12.32.23.64.47c.55.43,1.29,1.03,1.86,1.25.04.02.05.02.08.02-.04-.05-.13-.17-.18-.26-.19-.36-.17-.55-.16-.6.01-.03.04,0,.06.1.04.19.05.51.13,1.04.06.29.1.62.37,1.13.41.66.53.64.71.82.7.53,1.12.69,1.24.74l2.74-2.18c-.57-.81-1.1-1.21-1.18-1.44-.01-.01-.09-.22.19.2.14.27.15.32.18.34.04-.01.09-.23.14-.59.03-.17.04-.41.03-.71.05-.41-.35-1.49-.81-1.95,0,0-.23-.27-.23-.27l-.4-.43c-.31-.32-.45-.43-.53-.67-.34-.46-.81-1.08-1.15-1.53-.06-.08.05.03.05.01.1.06.06-.06-.04-.32-.06-.33-.71-1.37-1.2-1.77-.46-.47-1.36-.85-1.82-1-.52-.16-.77-.24-.72-.28.02-.01.18,0,.47.14.13.06.36.21.5.33.01,0,.03,0,.03-.02,0-.05-.06-.19-.23-.46-.16-.26-.42-.65-.86-1.1-.21-.2.05.02.09.05l.17.16c.08.07.09.07.08.01-.56-1.84-2.55-3.25-4.17-3.31-1.24-.12-1.48.07-1.93-.04.01-.01.14-.06.54-.04.58.06,1.07.22,1.6.56.09.05.29.21.28.2l.04.02c.09.05.14.08.15.06-.39-.68-.95-1.41-1.99-2.1-.68-.45-1.17-.65-1.37-.78-.22-.12-.16-.17.18,0,.68.32,1.51,1.5,1.74,2.1.11-.57-.46-2.28-1.15-3.13-.52-.87-2.22-1.89-2.94-2.27-.26-.15-.33-.23-.16-.18l.07.03.04.02s.14.08.2.13c.34.24.56.43.76.64.35.36.46.55.54.64.1.13.02-.16-.33-.86-.2-.36-.49-.88-1.09-1.51-.71-.95-3.13-2-3.86-2.16-.25-.08-.12-.15.48.09.75.32,1.09.67,1.07.59,0-.04-.22-.35-.8-.92-1.44-1.48-3.96-2.24-6.04-1.79-.31.05-.39.08-.58.13-.57.15-1.31.42-1.85.64-.33.13-.53.18-.27.03,1.03-.49,2.35-.53,3.55-.23,1.87.46,3.44,1.86,4.18,3.56,0,0,.13.31.13.31.02.02.05.11.05.08-.51-5.41-5.97-8.21-10.86-6.1-.76.31-.9.29-.45.09.07-.03.35-.14.59-.2l.26-.06.33-.06c.23-.03.39-.05.83-.07.89-.01,1.92.19,2.76.57,1.62.73,2.05,1.4,2.71,2.12-.32-.85-1.61-2.66-3.35-3.59-.2-.14-.54-.27-.76-.38-.51-.27-2.05-.75-2.23-.83-.06-.03-.03-.04.07-.03.05,0,.13.02.22.05l.16.05s.07.02-.09-.04l-.32-.13c-.84-.32-1.54-.45-2.05-.53-.51-.08-.84-.1-1.05-.13-.41-.03-.25-.13.62.02.71.07,1.98.69,2.46,1.03.22.15.04-.08-.67-.67-.36-.29-.86-.66-1.62-1.06-.77-.41-1.73-.72-2.4-.86-1.41-.29-2.05-.25-2.2-.31-.1-.01.33-.14,1.61.21.55.18,1.52.59,2.04.99.9.59,1.65,1.4,2.23,2.27,0,0,.21.34.21.34l.2.35c.14.26.09.02-.13-.6-.07-.19-.14-.38-.25-.62-2.22-5.11-8.05-6.55-12.15-4.91-.86.32-1.07.39-.7.2.27-.1.59-.28,1.73-.45,1.19-.16,2.46,0,3.65.37.45.13.54.17.3.01-.25-.15-.78-.49-1.77-.87-1.26-.55-3.38-.77-4.5-.7-.86.05-.98.02-.36-.05.73-.16,3.26.41,3.86.84.85.45.9.52.46.13-.77-.67-2.34-1.51-3.49-1.85-.04-.02-.48-.14-.2-.07,2.19.65,3.15,1.55,3.74,2.05.6.57.72.74.84.86-.39-.96-2.02-2.59-3.22-3.35-1.67-1.12-3.93-1.76-5.92-1.73-1.81.04-2.32.24-3.59.52-.13.03-.02-.03.28-.12.3-.08.98-.26,2.1-.25.7,0,1.57.13,2.29.31,0,0,.29.08.29.08l.63.19c-.1-.25-2.23-1.1-3.09-1.28-1.38-.33-3.17-.39-4.59-.08-1.29.24-2.69.79-3.77,1.41,0,0-.87.5-.87.5-.05.03-.09.04-.1.04.05-.04,0-.02.14-.11,1.61-1.05,3.62-1.46,5.53-1.36,2.46.13,4.86,1.27,6.49,2.9.09.08.23.24.24.23.11.11,0-.04-.14-.24-3.21-4.33-9.32-5.8-14.31-3.45-1.05.49-1.26.58-.7.27.4-.2.92-.41,1.38-.54,4.03-1.24,8.84.5,11.27,3.89,0,0,.11.15.11.15.02.03.03.03.04.05.04.05.02.01,0-.03-.21-.47-.48-.86-.79-1.33-1.83-2.72-5.04-4.69-8.34-5.1-.91-.14-1.49-.18-1.79-.23-.47-.07,0-.08.22-.06-1.73-.42-5.36.14-6.7.8,0,0-.94.37-.94.37.51-.3,1.42-.67,3.14-.88,1.16-.12,2.57-.02,3.73.27,1.28.34,1.58.55,1.21.33-.35-.16-1.41-.81-3.66-1.28l-.44-.08s-.6-.08-.13-.03c1.14.15,2.27.49,3.31.98.93.42,2.06,1.24,2.27,1.42,0,0,.06.04.06.04-.22-.29-.49-.49-1.18-1.08-5.02-4.08-12.5-3.66-17.24,1.09-.16.15-1.33,1.33-.69.59,0,0,.19-.2.19-.2,3.81-3.68,10.33-3.98,14.59-.94.68.43,1.56,1.31,1.61,1.3,0,0-.07-.09-.14-.19-1.45-1.54-1.91-2.19-4.92-3.66-.98-.49-3.11-.98-3.93-1.02.48.04.97.11,1.44.21,1.56.37,1.92.62,1.57.41-5.25-2.69-11.89-1.64-16.26,3.07-.14.14-.43.46-.57.59-.02.01-.07.06-.07.05.03-.04.09-.15.44-.51,2.29-2.26,5.6-3.44,8.82-3.34.99-.02,2.9.36,3.47.59.7.25.45.11-.64-.34-.79-.35-2.83-.89-4.12-.95-.34-.02-.15-.02.2,0,1.56.01,4.38,1.07,5.23,1.67.38.22.43.26.35.19-.13-.11-.47-.37-1.07-.75-1.21-.88-4.62-2.2-6.7-2.2-1.21-.12-3.15.05-4.07.24,0,0-.9.16-.9.16.23-.14,1.86-.36,2.67-.31,1.4-.07,4.02.66,4.95,1.15.23.1.27.11,0-.05-3.94-2.46-10.01-2.62-14.25-.33-.96.5-1.06.47.15-.11.67-.29,1.78-.75,3.66-.96,3-.34,6.24.5,8.69,2.16.35.24.36.24.23.12-5-4.42-12.9-4.61-18.18-.87-.22.14-.66.45-.88.6-.24.17-.19.11.02-.06,3.98-3.13,10.5-3.06,14.4-.67-3.78-2.98-10.45-3.68-15.04-1.47-1.54.65-2.18,1.21-2.82,1.49,0,0,.1-.08.1-.08l.25-.17c1.38-.96,3.91-1.86,6.64-1.95-.45-.03-1.17-.06-1.63-.09,0,0-.22-.01-.22-.01h-.11c2.02-.13,4.53.51,5.7.96-.81-.46-2.69-1.2-3.84-1.41-2.1-.48-4.57-.51-6.71-.06-3.57.83-4.88,1.82-6.79,3.05-.28.19-.25.14-.05-.03,1.89-1.55,5.65-2.81,8.39-2.7,2.62.02,4.03.55,5.47,1.03-.84-.57-3-1.31-4.64-1.6-1.05-.18-2.07-.27-3.16-.26-.43,0-.48.01-.22,0,1.17-.1,2.52.11,3.15.13-.09-.04-1.1-.41-3.3-.61-.69-.07-1.51-.04-2.17-.04-.39-.03-1.03-.04-1.41-.07,0,0-.44-.02-.44-.02h-.05s0,0,.07-.01c.22-.06,1.9-.05.74-.19-.62-.13-2.3-.11-2.93-.1,0,0-1.75-.18-1.75-.18-1.83,0-4.46.7-6.24,1.55-2.78,1.31-4.83,3.04-6.67,5.29-.28.31-.94,1.27-1.16,1.46,0,0,.06-.13.09-.18l.17-.25c2.61-3.75,7.33-6.18,11.89-6.5,1.51-.19,3.79.11,4.61.24-1.32-.45-3.67-.84-5.67-.78,0,0-.67.03-.67.03,0,0-.97.07-.11,0,3.6-.27,7.28.67,10.29,2.59.05.02.6.41.49.28-1.64-1.34-3.27-2.25-5.31-3.01-4.46-1.81-10.66-1.19-14.59.76-.34.15-.42.17-.23.07,1-.49,3.35-1.28,4.75-1.36.3-.03-.19.02-.24.02-1.97.21-4.38.95-4.5,1-.19.06-.18.04.07-.05.61-.19,1.99-.58,2.96-.64.89-.15,2.8-.09,3.39-.02.32.03.33.03.09-.02-.24-.04-.72-.13-1.51-.21-.73-.17-3.27-.06-4.01.02.21-.02.73-.08.95-.08.59-.03.63-.03.03-.05-.52,0-1.63,0-2.35.07,0,0-.6.06-.6.06-.16.02-.18.02-.01,0,1.27-.16,2.57-.09,2.34-.1-.14,0-1.1-.12-2.95-.04-1.08.05-2.42.25-3.53.4l.17-.02.4-.04.62-.04c.63-.02.68,0,.06,0-5.04-.12-10.77,2.09-14.25,5.98-1.4,1.52-2.35,2.92-3.22,4.6-.08.2.1-.16.11-.16,2.68-4.64,8.67-8.19,14.14-8.26,1.17-.13,3.84.24,4.53.48.28.08.23.08-.13,0-3.45-.99-8.69-.88-12.16.64-1.41.56-2.73,1.27-3.96,2.12-.13.09-1.16.85-.79.62,0,0,.48-.31.48-.31,4.37-2.97,11.76-3.56,16.77-.71.24.13.6.34.81.48.22.15.34.25.04.08l-.55-.32-.49-.28c-3.61-2.02-7.88-2.9-12.02-2.25-.53.08.1-.02.1-.01.89-.15,2.65-.14,3.16-.05.33.04.38.07.19.07-.35.03-1.83-.23-4.58.08-.37.05-.73.1-1.09.17.61-.1,1.57-.18,2.11-.17,1.83.07,2.2.15-.66.08-1.26.05-2.2.1-3.58.38-3.8.85-5.26,1.82-7.24,3.19,0,0-.65.5-.65.5l-.46.39-.34.31c-.4.38-.48.48-.34.38,1.5-1.29,4.57-2.88,6.86-3.28,1.5-.34,3.85-.44,5.1-.11.27.11-.57-.08-2.76-.12-1.4-.02-3.05.18-4.36.5-1.37.33-2.42.75-3.13,1.07-1.39.66-1.84.99-1.37.79.48-.22,2.66-.92,3.24-.93,0,0-.1.04-.1.04l-1.61.61s-.03.02-.13.05l-.38.1-.66.19c-.4.12-.7.24-.93.34-.44.19-.55.27-.32.27.5-.04,1.48-.19,1.8-.15.4.02.28.09-.47.18-.87.1-1.99.31-2.62.49,0,0,.12-.01.12-.01h.2c.5-.03.58.03.25.12-.78.2-3.87.78-4.98,1.35-3.34,1.38-6.13,3.92-7.64,7.16-.2.49.46-.45.5-.5.8-1.03,1.79-2.01,2.85-2.78,3.84-2.9,9.75-3.6,13.91-1.12.23.16.26.22.04.13-1.58-.66-2.59-1.28-5.45-1.74-1.77-.27-3.97-.15-5.61.33,0,0-.42.14-.42.14-1.08.37-1.67.69-1.89.85-.22.17-.01.14.63.04l.13-.02s.24-.05-.02.02c-.54.14-1.08.32-1.6.52-.91.36-1.77.83-2.34,1.2-1.57,1.04-2.24,1.72-2.84,2.55.95-.58,1.61-1.26,3.65-2.06,1.85-.73,4.21-.98,6.13-.63,1.21.23,2.68.63,3.57,1.41,0,0-.05,0-.05,0,0,.02-.17-.05-.25-.08l-.55-.24-.95-.4c-2.19-1.01-6.13-1.39-8.46-.58-.9.28-1.58.59-2.07.85-1,.54-1.36.86-1.19.85.52-.1,1.71-.47,2.39-.5,1-.07,1.27.06,1.03.14-.29.1-1.09.13-2.63.5-1.1.28-.86.3-1.06.38-.39.26-1.05.66-1.44.92-1.5.49-3.44,1.53-3.69,2.17.08,0,.3-.08.73-.23.4-.14,1.14-.37,1.93-.46,1.44-.13,1.94.14,1.77.2-.14.11-.91.03-2.57.26-.5.08-.97.19-1.46.33-2.05.53-4.24,2.17-5.2,3.94-.48.84-.83,1.96-.72,1.98.04.05.09.06.28-.16l.15-.17c.08-.1.18-.22.27-.32l.41-.43c.9-.87,1.96-1.54,3.18-1.89,1.01-.38,3.09-.25,3.67.13.17.08.18.11.25.17,0,.03.04.07-.03.08-.99-.06-2.83-.55-4.13-.29-.36.05-.78.13-1.16.24-.32.09-.13.05-.01.02.81-.17,1.82-.04,2.11.09.28.1.4.21.36.26-.11.12-.52.02-1.83-.04-1.98-.19-4.71.97-5.6,2.66-.14.24-.2.4-.18.47-.05.16.43-.08.57-.16.31-.14.86-.38,1.19-.4.09.1.06.25-.12.42-.18.17-.5.34-1,.59-.24.12-.56.28-.89.48-.31.19-.56.39-.76.59-.39.39-.6.73-.63.92,0,.09.03.15.17.16.31-.04.03.14-.1.27l-.49.44c-.18.16-.44.39-.54.55-.09.15.02.18,0,.28,0,.09-.05.2-.12.31l1.12,3.31h0Z"/>
    <polygon class="cls-1" points="694.36 467.24 689.83 467.8 685.49 469.1 681.03 469.65 676.6 470.4 672.16 471.06 667.6 470.97 663.2 471.89 658.81 472.87 654.31 473.22 649.99 474.64 645.55 475.33 641.03 475.52 636.59 476.22 632.26 477.59 627.64 477.23 623.25 478.78 621.61 474.6 619.4 470.95 617.65 467.07 616.55 462.93 614.42 459.19 613.36 455.05 611.93 451.02 611.72 446.73 611.38 442.15 613.96 445.75 616.18 449.48 619.09 452.66 621.64 456.14 624.95 459.71 625.09 454.42 625.16 449.63 625.07 444.62 629.84 446.73 633.93 449.69 638.29 451.7 639.62 446.96 640.25 441.55 644.52 443.29 648.15 445.54 652.23 446.85 656.08 448.64 659.82 450.65 663.59 452.62 667.51 454.27 671.42 455.93 674.85 458.63 678.89 460.02 682.54 462.22 686.82 463.12 690.39 465.51 694.36 467.24"/>
  </g>
</svg>