<?xml version="1.0" encoding="UTF-8"?>
<svg id="Eyebrow" xmlns="http://www.w3.org/2000/svg" viewBox="0 0 1080 1080">
  <defs>
    <style>
      .cls-1 {
        fill: #9e1f63;
      }
    </style>
  </defs>
  <polygon class="cls-1" points="479.2 469.78 461.64 468.61 444.15 466.67 426.94 462.82 409.4 461.29 392.14 457.63 374.57 456.61 357 456.01 339.44 456.88 322.22 460.23 305.11 463.96 288.51 469.82 299.88 456.07 310.81 441.97 322.47 428.44 334.9 417.5 351.22 412.9 369.94 414.48 388.68 414.12 407.4 414.67 426.13 414.78 444.86 414.61 463.6 415.05 482.34 413.96 489.56 421.31 490.19 443.18 487.84 465.04 479.2 469.78"/>
  <polygon class="cls-1" points="600.84 470.2 618.22 467.5 635.58 464.78 653.16 463.51 670.41 459.93 688.02 459.09 705.45 456.86 723 456.24 740.55 456.93 758.11 458.54 775.05 463.47 791.38 469.88 780.61 455.68 769.39 441.81 758.9 427.35 745.16 417.38 728.79 414.67 710.05 413.34 691.32 413.95 672.6 413.65 653.86 413.79 635.13 414.21 616.4 414.03 597.67 415.37 590.29 421.3 589.32 443.2 593.88 464.54 600.84 470.2"/>
</svg>