<?xml version="1.0" encoding="UTF-8"?>
<svg id="Eyebrow" xmlns="http://www.w3.org/2000/svg" viewBox="0 0 1080 1080">
  <defs>
    <style>
      .cls-1 {
        fill: #9e1f63;
      }
    </style>
  </defs>
  <path class="cls-1" d="M456.78,460.05c-8.7,2.45-17.1,3.69-25.43,4.67-16.42,1.72-32.62,2.53-48.91.3-16.02-2.46-32.22-3.16-48.38-2.69-19.71.65-40.38,2.1-58.01,11.69-3.46,1.93-6.69,4.29-9.58,7.11l-2.06-1.61c17.44-27.19,63.35-34.93,93.22-37.86,16.88-1.58,33.99-4.42,50.88-1.35,12.63,2.05,25.16,5.52,36.93,10.79,3.98,1.83,7.92,3.8,11.75,6.37l-.42,2.57h0Z"/>
  <path class="cls-1" d="M622.8,457.48c19.95-12.7,50.57-20.1,74.06-18.28,25.59,2.43,51.19,4.02,75.95,12.11,12.28,4.06,24.63,9.49,34.4,18.25,3.22,2.96,6.13,6.27,8.36,9.97l-2.06,1.61c-14.61-13.82-36.28-16.75-55.56-18.27-20.14-1.25-40.41-.9-60.41,2.15-16.29,2.23-32.49,1.42-48.91-.3-8.32-.98-16.73-2.21-25.43-4.67l-.42-2.57h0Z"/>
</svg>