<?xml version="1.0" encoding="UTF-8"?>
<svg id="Eyebrow" xmlns="http://www.w3.org/2000/svg" viewBox="0 0 1080 1080">
  <defs>
    <style>
      .cls-1 {
        fill: #9e1f63;
      }
    </style>
  </defs>
  <path class="cls-1" d="M456.94,460.75c-.31.01-1.03.03-1.29.05,0,0-.39-.14-.39-.14l-.98-.34.9.11-1.04.17-.87.15c-.41-.39-1.24-1.25-1.65-1.65,0,0,1.63.6,1.63.6l-1.03.16-.23.04c-1.1-.19-2.13-.28-3.27-.41,0,0,.63,0,.63,0l-1.04.2-.43.08c-.33-.09-1.18-.33-1.53-.43,0,0,1.3-.01,1.3-.01l-1.06.38-1.31.48-1.02-1.13-.92-1.02,2.7.53c-.38.23-1.16.63-1.51.84,0,0-.63.01-.63.01l-1.02.02h-.45s-.53-.24-.53-.24l-.98-.45.91.24-1.02-.02h.26s-1.03.09-1.03.09l-.26.02-.39-.07-1-.18.4.05c-1.03,0-2.13-.05-3.16-.13l-.48-.04-.54-.29-.97-.53.91.32-1.01-.11h.74c-.44.07-1.09.2-1.48.27,0,0-.61-.14-.61-.14l-1.96-.45.82.07-1.03.09h-.15s-.24,0-.24,0l-1.01-.06-.31-.02-.38-.13-.99-.34,1.72.04c-.5.15-1.29.44-1.75.59-.42-.11-1.38-.35-1.81-.46,0,0,1.13.06,1.13.06-.45.07-1.11.2-1.52.26,0,0-.58-.13-.58-.13l-.99-.23.81.08-1.02.07c-.81,0-1.75-.18-2.61-.18,0,0-.35-.1-.35-.1l-.99-.27-.35-.1-.39-.25-.97-.61,2.56.28c-.73.3-1.47.57-2.22.81l-1.25.39-1.16-.7-.97-.59c.82.43-.71-.32-.73-.32,0,0,2.84-.13,2.84-.13-.4.24-1.16.75-1.53.97-.78.13-1.94.31-2.73.44-.52-.31-1.46-.92-1.97-1.23,0,0,2.45.37,2.45.37-.54.18-1.85.55-2.41.73-.56-.42-1.68-1.2-2.23-1.61,0,0,3.36.19,3.36.19l-1.05.64-1.69,1.03c-.66-.49-2.04-1.46-2.67-1.93,0,0,3.23.29,3.23.29l-1.04.55-1.6.84-1.58-1.08-.98-.67,3.41.13c-.55.35-1.69,1.05-2.24,1.4,0,0-1.45-.47-1.45-.47l-1-.32.53.13-1.01-.14,1.35-.08-1.03.3-.48.14c-.33-.02-1.28-.08-1.63-.09,0,0-.51-.03-.51-.03-.29-.13-1.22-.52-1.54-.66,0,0,.7.22.7.22l-1-.19,1.89-.2c-.57.26-2.06.89-2.65,1.16-.65-.43-1.85-1.26-2.48-1.67,0,0,2.69.45,2.69.45-.99.3-2.14.56-3.15.81-.51-.2-1.48-.6-1.98-.8,0,0,.91.23.91.23l-1.01-.1-.42-.04-.43-.16-1-.38,2.85-.23c-.52.29-1.46.89-1.97,1.18-.67-.07-1.72-.19-2.38-.26-.19-.05-1.08-.3-1.28-.36,0,0,1.06.13,1.06.13l-1.01.05.63-.09-1.02.25-.46.11c-.68-.03-1.69-.09-2.37-.12-.4-.26-1.34-.84-1.75-1.1,0,0,2.34.48,2.34.48l-1.02.17.91-.29c-.53.26-1.6.79-2.13,1.05,0,0-1.23-.33-1.23-.33l-1.01-.27.55.1-1.01-.09c-.09,0-.27-.03-.37-.06,0,0-1.01-.21-1.01-.21l2.18-.28c-.59.29-1.98,1-2.59,1.3,0,0-1.57-.87-1.57-.87l-1.01-.56,2.14.39-1.01.15c-.1.03-.33.04-.43.04,0,0-1.01.02-1.01.02l-.77.02c-.4-.19-1.33-.62-1.74-.81,0,0,1.16.31,1.16.31l-1.01-.08,1.16-.1-1.01.27-.75.2c-.43-.08-1.37-.27-1.81-.36,0,0,2.56-.5,2.56-.5-.52.34-1.56,1.05-2.08,1.39-.59-.09-1.75-.24-2.33-.33,0,0-.59-.08-.59-.08l-.56-.3-1.02-.55,2.2.38c-.21.02-1.07.19-1.25.21,0,0-.28,0-.28,0l-1.02.02.77-.1-1.01.25.82-.31-1,.55-1.21.66c-.6-.17-1.8-.49-2.38-.66,0,0,.27.06.27.06l-1.02-.19,1.97-.19c-.53.22-1.63.67-2.16.89,0,0-1.23-.4-1.23-.4l-1.02-.33,2.67-.21-1,.52-1.1.57-1.25-.27-1.02-.22.59.08-1.02-.04-.82-.04c-.42-.23-1.33-.76-1.75-1,0,0,4.19-.58,4.19-.58-.62.64-2.29,2.26-2.93,2.91-.71-.43-2.66-1.61-3.35-2.02l2.1.47-1.01.09-.49.04c-.3-.05-1.16-.22-1.47-.27,0,0,.71.05.71.05l-1.02.02,2.15-.82c-.57.48-1.8,1.51-2.38,2-1.21-.34-2.78-.72-3.95-1.14,0,0,3.18-.58,3.18-.58-.55.43-1.69,1.32-2.24,1.75-.6-.14-1.97-.39-2.56-.52,0,0-.51-.1-.51-.1l-.42-.23-1.05-.56,2.72.21c-.96.3-2.01.75-2.93,1.15-.54-.18-1.68-.52-2.22-.69,0,0,1.8.05,1.8.05-.42.09-1.37.33-1.8.43-.45-.09-1.35-.32-1.8-.42,0,0,1.89-.11,1.89-.11-.69.25-1.39.48-2.1.7l-.8.24c-.45-.06-1.34-.23-1.79-.29,0,0,2.08-.34,2.08-.34l-.98.5-.36.18c-.47.12-1.32.33-1.8.45-.45,0-1.03-.02-1.44-.02,0,0,1-.15,1-.15l-.99.3-.57.17-.56-.03-1.03-.05h.42c-.37.01-1.4.1-1.78.13-.46-.16-1.3-.51-1.75-.67,0,0,2.16.06,2.16.06l-.99.3c-.54.15-1.45.31-2,.44-.49-.1-1.27-.29-1.74-.38,0,0,2.98-.84,2.98-.84l-.92.86-1.91,1.8c-.66-.46-2.63-1.7-3.28-2.15,0,0,4.11-.43,4.11-.43-.55.52-1.63,1.62-2.18,2.15-.52-.12-2.23-.47-2.77-.59,0,0,2.45-.46,2.45-.46-.5.32-1.51.97-2.01,1.29-.51-.09-1.75-.28-2.27-.37,0,0,1.79-.23,1.79-.23l-.96.41-.81.34c-.48-.05-1.4-.17-1.88-.22,0,0,2.07-.47,2.07-.47l-.93.58-.59.37-.65.09-1.01.14-.55.08-.51-.1-1.07-.2-.2-.04-.16-.05-1.1-.34,1.62.06-1,.2,1.89-1.22-.84,1.09-1.11,1.44c-1.02-.11-2.62-.25-3.66-.3,0,0,2.21-.8,2.21-.8l-.88.76-.7.61c-.61.1-1.6.27-2.22.37-.4-.02-1.24-.09-1.63-.11,0,0-.15-.03-.15-.03l-1.09-.23.8.04-1.03.06,2.03-.99c-.54.55-1.47,1.58-2,2.12,0,0-1.56-.28-1.56-.28l-1.09-.2,2.76-1-.82.92-.64.72c-.7.18-1.74.45-2.44.63-.87-.13-1.78-.26-2.66-.36,0,0,2.51-.98,2.51-.98l-.81.89-.75.83-1.01.13-1.02.13-.45.06-.35-.05-1.12-.17,1.04-.05-1,.22,1.7-1.17c-.32.48-1.12,1.57-1.45,2.06,0,0-1.12.18-1.12.18l-1.02.17.61-.19-.94.39-.6.25-.55-.02-1.09-.03,2.31-1.19c-.55.73-1.3,1.83-1.83,2.52,0,0-1.74-.41-1.74-.41l-1.19-.28,2-.33-.89.52.53-.42-.78.77-.75.74c-.5.03-1.52.1-2.02.13,0,0,1.59-.7,1.59-.7l-.8.71-.79.7c-.52,0-1.55,0-2.07,0,0,0,1.36-.41,1.36-.41l-.88.53-.44.26-.37.07-1.02.2,1.2-.64c-.67.58-1.3,1.22-2.03,1.72-.42.24-1.36.76-1.79,1,0,0-.87-.21-.87-.21l-1.31-.31,1.89-.38-.86.56.69-.73-.62.96-.33.51-.4.24-.86.53-.62.38h-.59s-1.18.01-1.18.01l2-1.31-.54,1.04-.5.96-.92.24-1.04.27,1.25-.92-.63.88-.13.18-.06.06-.7.75-.41.43-.44.16-.99.35.46-.25c-.58.39-1.17.77-1.77,1.13l.83-1.07-.41,1.08-.49,1.3-1.26.09-1.27.09,1.52-.94-.59.87-.39.57-.5.2-1.02.4,1.16-1.77-.06,1.38-.08,1.72-1.57.15-1.33.13,1.58-1.6-.2,1.19-.17,1.03-.83.36-1.02.45-1.53-3.15.65-1.22-1.42,1.99c-.3-.52-.56-1.03-.81-1.55.97-.89,3.37-2.97,4.25-3.78,0,0-3.74,4.25-3.74,4.25-.33-.49-.61-.97-.92-1.46.59-.94,3.35-4.92,3.86-5.71,0,0-2.6,2.25-2.6,2.25,0-.41,0-.83,0-1.23l4.89-3.03,1.19-.86-6.16,4.86-.26-1.31,3.13-4.04.81-1.94,1.93-1.04.78-.9-3.7,2.58.27-1.13-.86,1.11.12-1.22,5.96-4.37c.29-.28.58-.57.88-.83l-7.03,5.93v-1.3s0-1.28,0-1.28l10.26-5.42,1.16-.61-6.39,2.03.58-.96-3.95,4.08.12-1.27,3.85-4.08c.19-.33.37-.67.57-.98,1.12-.22,11.65-2.34,12.24-2.49,0,0-10.46,1.76-10.46,1.76l.63-.9-2.32,1.71c.2-.6.41-1.18.59-1.77l7.4-3.98.92-.66-5.07,2.12c.21-.3.42-.61.64-.9l8.7-2.6,1.1-.46-11.4,4.56.5-1.04c.51-.22,11.6-5.06,11.57-5.13,0,0-11.45,5.37-11.45,5.37l.48-1.07,3.61-2.87.68-.86.29-.37c.69-.1,14.58-2.08,14.81-2.12,0,0-19.98,7.84-19.98,7.84.19-.75,1.04-3.72,1.25-4.54,0,0,15.58-5.18,15.58-5.18l1.1-.36-8.3,1.67.79-.73,4.49-1.36c.32-.18.63-.36.95-.53l-13.51,8.81.38-1.29.37-1.28,12.32-7.47.92-.56,7.84-.39,1.17-.21-6.08.04c.32-.16.65-.31.97-.46l-13.5,7.33.52-1.13,2.31-5.01,17.1-2.55c.87-.13,1.75-.25,2.62-.36l-9.04.66c.3-.19.6-.36.9-.54l-11.58,7.33c.26-.5,3.05-6.42,3.4-7.11,0,0,19.07-2.02,19.07-2.02l1.15-.12-21.77,7.6.58-1.13,1.53-3,14.76-4.95,1.01-.34c.96.03,6.89.47,7.63.3,0,0-3.4-.41-3.4-.41l1.07-.21-5.91.39.95-.43-12.37,6.07c.31-.53,3.62-4.95,4.06-5.58,2.3-.33,15.73-2.12,17.68-2.28,0,0-22.87,10.58-22.87,10.58.35-.79,1.81-4.04,2.19-4.9l14.04-6.52.95-.44,1.47-.68c.62.05,12.98,1.3,13.21,1.31,0,0-2.96-.71-2.96-.71h1.11s-8.87-.17-8.87-.17l.98-.34-10.55,3.88.82-.76,3.07-2.87c.4-.04,15.79-1.27,15.68-1.26,0,0-14.05,2.11-14.05,2.11l.89-.58,2.74-1.78,12.7-.17h1.08s-19.77,4.21-19.77,4.21c.31-.26,5.33-4.93,5.81-5.36,0,0,16.32.59,16.32.59l1.1.04-26.06,7.77c.25-.35.5-.7.76-1.04l11.5-15.06,24.53,11.26,1.23.57-35.79,3.37.78-1,6.87-8.74,19.43,1.33,1.09.07-12.46.03.97-.36-2.43.64c.32-.11,6.41-2.92,6.95-3.13,0,0,13.25,3.28,13.25,3.28l1.12.28-12.92-1.82,1-.2c.85,0,4.04-.06,4.8-.14,0,0-10.11,1.28-10.11,1.28.48-.19,1.38-.62,1.85-.81,0,0,8.12-.92,8.12-.92.34-.04.68-.08,1.02-.1l-7.78.96.97-.35-6.43,2.47.93-.6,6.03-3.88,12.75.81,1.05.07-14.06,1.09c.32-.16.64-.34.96-.53l4.45-2.67c.39.05,13.82,1.76,13.76,1.8,0,0-14.1.11-14.1.11l.99-.31,6.13-1.93,10.22,2.41,1.06.25-20.8.95c1.15-.54,2.33-1.03,3.53-1.48l11.25-4.24,13.45,6.12c.36.16.73.32,1.09.49l-8.51-3.01,1.04.16-25.43,6.16.94-.81,11.33-9.73,17.55,4.44c.32.08.64.15.96.2l-28.66,6.33c.23-.19,7.46-6.88,7.97-7.34,0,0,12.45-1,12.45-1,.7-.05,3.01-.14,3.75-.18.78.11,4.01.68,4.72.78,0,0-8.46-.36-8.46-.36l1.01-.11,9.77-1.04c.61.33,9.97,5.77,10.28,5.94,0,0-38.41,4.85-38.41,4.85l.97-1,16.42-16.95,21.34,11.71,1.04.57-13.89-4.01,1.02.06,3.1.19,2.21.52,1.02.24-21.21,2.71,1.01-.5,12.14-6.02,12.03,4.13,1.02.35-21.65.74,1.01-.4,9.15-3.58c.59.13,9.39,1.99,9.72,2.07,0,0,1.91.41,1.91.41.37.1,1.19.4,1.57.51,0,0-23.33,2.56-23.33,2.56.66-.33,5-2.42,5.75-2.8,2.2-.44,6.19-1.24,8.42-1.69l2.3.06,1.02.03-4.63.4,1.02-.12,11.98-1.46c.55.3,8.77,5.36,9.03,5.51,0,0-10.46-3.51-10.46-3.51l1,.22-21.63,4.81,1.06-.6,12.9-7.34c.42.09,11.27,3.1,11.35,3.1,0,0-14.05.41-14.05.41l1.03-.2,7.25-1.41,3.26.5c.44.06,7.69,1.18,8.36,1.28,0,0,3.16,1.71,3.16,1.71.33.18.65.37.97.56l-13.61-2.93,1.02.08-3.92.32,1.03-.05,13.14-.69c.59.38,6.74,4.66,7.14,4.92,0,0-28.37-.7-28.37-.7l1.07-.41,12.45-4.8,7.24,2.29c.33.1.66.2.99.31l-3.28-.5,1,.22,4.98.91.97.39-20.93,1.96,1.08-.38,7.38-2.56c.24.04,15.79-.76,16.63-.76,0,0,6.03,4.97,6.03,4.97l.92.75-14.23-4.61,1,.2-8.57.77,1.06-.1,5.57-.78c.64.03,9.05.94,9.86,1,0,0,.47.21.47.21l.96.43-4.63-.93.99.26-17.98,3.8c.37-.16.76-.29,1.14-.44l17.12-6.67,7.74,4.63.93.56-7.39-1.77c.6.16,7.99,2.04,8.81,2.22,0,0,.92.58.92.58l-17.27-1.28,1.47.02,19.35.28c.54.56,3.87,3.94,4.36,4.44,0,0-26.3-2.57-26.3-2.57l1.13-.24,13.15-2.81c.46.23,3.18,1.26,3.67,1.48,0,0,5.82,1.82,5.82,1.82.3.21.6.42.9.64l-8.79-2.21.99.3-9.12.89,1.09-.06,11.14-.64c.97.48,4.36,1.2,5.37,1.48,0,0,.92.56.92.56l-21.7,2.28c.4-.14.8-.26,1.21-.38l21.38-6.56,6.56,7.62.8.93-25.94-1.97,1.18-.27,20.51-4.61,5.66,6.95.78.96-27.3-1.53c.4-.12.82-.23,1.23-.34l21.21-5.88c.49.54,6.26,8.13,6.49,8.38,0,0-20.98-3.89-20.98-3.89h1.12s16.68-.16,16.68-.16l2.74,3.09.79.89-16.09-3.55,1.07.16-8.79,3.17,1.26-.33,17.96-4.75c.45.43,4.46,4.17,4.86,4.55,0,0,1.94,1.09,1.94,1.09l.78.89-18.36-2.36c.4.14.81.25,1.24.33l19.13,2.1.75.93-5.5-2.54c.3.2.59.41.89.62l-4.17-.78c.92.3,1.83.63,2.73.99l-3.45-.12,1.04.3,5.72.54c.3.19.6.4.9.6l-7.52-.34,1.09.23,7.81.44.88.64-10.37.2,1.18.07,11.54.25.84.75-4.58-1,.98.49-2.52-.02,1.05.34,5.2.47c.68.45,1.34.93,2,1.41l-6.52-.36,1.11.28,4.52-.02c.31.19.63.38.94.58l5.44,1.89.71.99-5.97-1.91c.77.48,1.49,1.13,2.28,1.58,0,0,2.17.28,2.17.28l.89.7-3.44-.26,1.06.44h1.35s.99.53.99.53l4.58,1.19c.24.32.49.62.73.95l-4.76-1.15,1.01.56-4.98,1.18,1.4.02,11.59.16c.18.87.62,2.89.8,3.75,0,0-9.84-2.77-9.84-2.77.42.08.83.14,1.26.23l5.21-.05.8.88-3.65-.25,1.14.44,2.21-.03c.95.76,2.09,1.51,2.99,2.34,0,0-1.63-.06-1.63-.06l1.11.54,4.07,1.51c.1.5.18,1.02.25,1.53l-3.39-1.24,1.13.58,1.6.2c.24.34.46.71.69,1.07l-.91-.18,1.02.76-.02,3.5h0Z"/>
  <path class="cls-1" d="M622.53,457.59c.49-.68.96-1.4,1.46-2.06l-.95.51.43-1.34,3.14-.79c.39-.18.78-.36,1.17-.52l-2.69.33.69-1.03c1.42.09,5.31.44,6.57.34,0,0-4.7-.77-4.7-.77.28-.29.57-.55.85-.82l.59-.11.92-.73-.82.16c.64-.58,1.31-1.15,1.99-1.7l-.66.17.82-.83,2.79-.4,1.03-.54.79.04,1.08-.46-7.09,1.99.56-1.19,2.9-1.54c.26-.29.53-.58.8-.84,1.12.12,10.39,1.09,11.12,1.14,0,0-8.25-1.57-8.25-1.57.48-.41.95-.83,1.41-1.27l1.41-.21.96-.58-2.61.5c.28-.26.56-.52.85-.76l-1.73.64.78-.87,10.21-.61,1.21-.15-10.37.55c.26-.29.52-.57.79-.85l5.09-1.23.98-.5,5.47.59,1.18-.14-12.21,1.26c.31-.47.84-.97,1.19-1.43.44-.02,14.48-.48,14.38-.48,0,0-14.88,1.49-14.88,1.49.19-.28.78-1.04.96-1.29,0,0,13.32-1.73,13.32-1.73.38-.05.77-.11,1.15-.15l-11.55.9.82-.78,8.69-1.43,1.05-.3-10.12,2.04.78-.86,2.87-1.2.87-.67,2.08-1.6,15.14,4.08,1.34.36-17.56-2.56.87-.66-5.5,2.73c.13-.31,5-6.51,5.34-7.02,0,0,19.51,6.11,19.51,6.11l1.33.42-22.87-1.19.79-.86,4.56-1.93.89-.61s12.8.12,12.8.12h1.14s-7.01-1.01-7.01-1.01l1.01-.32-14.49,5.51c.32-.46,3.93-6.21,4.37-6.86,0,0,19.96,1.8,19.96,1.8l1.17.11-21.03,1.86.8-.87,4.69-5.07,18.98,4.28,1.21.27-16.56-2.25.93-.5,12.02.35h1.12s-19.81,2.79-19.81,2.79l.82-.85,5.68-2.62.91-.56,12.01-.78,1.07-.07-8.85-.02c.54-.22,1.78-.8,2.33-1.03,0,0,14.12,2.74,14.12,2.74.39.08.78.17,1.16.26l-27.99,3.64.78-1.03,3.52-4.67,17.23-1.3,1.06-.08-10.97.71.93-.5.16-.08,11.38-.56c.35-.02.71-.05,1.06-.05l-2.93-.32,1.03-.15-13.34,2.72.89-.68,8.32-6.33,19.29,8.43,1.2.52-33.49,1.54.81-1.01,11.08-13.81,24.27,13.42,1.21.67-24.07-5.44.96-.41.58-.25,10.18-.2,1.05-.02-15.77,2.11.92-.61,1.81-1.2,11.63-1.19,1.03-.1-17.19,4.36.9-.77,4.47-3.82,14.21-.44,1.04-.03-8.14.22c.22-.09,6.96-2.23,7.43-2.4,0,0,13.92,6.12,13.92,6.12l1.13.5-23.39-3.42.96-.42c.84-.15,4.12-.83,4.84-1.04,0,0,3.6-.94,3.6-.94.4.09,11.62,2.7,11.55,2.68,0,0-16.11-1.17-16.11-1.17l.98-.33c.8-.06,6.24-.66,6.85-.73,0,0,2.65.1,2.65.1l1.02-.04-18.13,4.26c.31-.25.62-.47.94-.7l5.9-4.43,13.14.24,1.03.02-6.48-.03c.49-.12,5.35-1.04,5.99-1.19,0,0,10.21,3.32,10.21,3.32l1.06.35-30.49,3.64.93-.85,9.1-8.26,17.86,3.31c.35.06.7.13,1.04.21l-17.54.14c.31-.06,8.71-3.36,9.27-3.52,0,0,12.31,4.04,12.31,4.04l1.04.34-23.28.04.98-.48,9.47-4.62,13.92,4.6,1.04.34-5.37-1.63,1.03.14-18.01,1.62,1-.45,6.34-2.9,9.54.9c3.46.29-3.34-.2-3.28-.19.5,0,6.06-.29,6.72-.29.62.26,8.3,3.46,8.61,3.59,0,0-25.93-.21-25.93-.21l1-.49,13.21-6.52,15.16,7.98,1.03.54-16.63-4.16,1.01-.05-12.59,3.07,1.02-.5,11.76-5.83,13.1,4.83,1.01.37-3.96-1.23,1.01.23-18.76,1.29,1.02-.41,6.31-2.56c3.36.24,9.74.53,12.97,1.16.37.07,1.23.28,1.61.36,0,0-17.78,1.46-17.78,1.46.68-.26,4.22-1.56,4.97-1.85,0,0,3.34-.39,3.34-.39.69-.1,3.42-.39,4.16-.49.69.04,2.68.15,3.34.19l6.64.38c.71.31,5.66,2.75,6.24,3.01,0,0-27.72.59-27.72.59l1.06-.5,17.74-8.32,13.92,9.95.96.69-16.61-5.13,1.02.06-9.53,1.3c.21,0,8.74-2.27,9.29-2.37,3.11.69,8.56,1.78,11.66,2.45,0,0,2.02.95,2.02.95.32.15.65.3.97.46l-6.57-1.92.99.24-21.19,3.85,1.1-.56,16.59-8.38,12.61,7.13.96.54-23.22-1.46,1.07-.28,18.28-4.8,10.89,10.05.91.84-25.07-6.28,1.05-.1-2.17.5,1.07-.18,16.76-2.85c.29.18,9.74,8.31,9.57,8.12,0,0-28.92-3.3-28.92-3.3l1.1-.33,17.89-5.38,10.22,8.19.9.72-29.62-2.09c.37-.14.75-.26,1.13-.39l18.57-6.35,10.01,7.85.89.7-23.27-3.38,1.09-.15,16.22-2.29,7.28,5.86.89.71-12.58-4.36,1,.23-17.4,3.46c.39-.16.78-.3,1.18-.45l17.51-6.51,8.63,5.46.91.58-11.84-2.55c.85.16,4.84.48,5.75.56,0,0,.98.31.98.31l-3.74-.38,1.02.19,9.18,1.68.95.57c.3.18.61.37.91.56l-20.28-.75,1.14-.18,11.61-1.82,2.06.71.98.34,12.6,4.32c.48.67,2.58,3.41,3.04,4.05,0,0-13.77-7.13-13.77-7.13l.96.37-12.2.27c.37-.03.75-.05,1.12-.07l14.28-.7,3.02,2.01.89.59-5.04-1.55.96.4-12.8.44,1.15-.09,17.13-1.33c.49.41,5.29,5.15,5.65,5.46,0,0-6.57-3.09-6.57-3.09l.91.52-14.31-.45,1.15-.03,18.63-.41,4.43,5.66.73.93-26.1-4.16c.69-.13,13.02-2,13.96-2.16,0,0,1.58.67,1.58.67.32.14.64.28.96.43l13.91,6.56c.33.76,1.4,2.97,1.73,3.71,0,0-15.27-9.02-15.27-9.02l.96.42-11.86.76,1.21-.07,18.65-1.14,4.16,5.38c.24.3.47.61.7.92l-6.79-3.81.86.61-4.05-1.1.16.32.19.29-1.66-.13,1.03.33,13.56,4.31.94,1.5.62,1-8.52-4.75.88.58-8.28-.92c.88.15,1.76.3,2.64.48l13,2.6,1.15,1.58.67.91-10.03-3.97.99.46,13.21,6.2c.21.6.78,1.89,1,2.49,0,0-18.96-7.36-18.96-7.36.39.07.78.14,1.18.22l3.6-.17,1.05.41,12.88,5.07.24.45s.54,1.05.54,1.05l-14.71-5.4,1.13.33,15.86,4.6.96,3.45.35,1.25-8.89-6.73.82.7,1.63.69.75.78-8.24-1.78c.37.13.75.26,1.12.4l4.48.48.91.64,2.78.91.78.77,4.65,2.94.51,1.02-8.45-3.98.98.61,12.09,7.5c.02.75.08,2.31.11,3.06,0,0-14.74-9.01-14.74-9.01,1.37.62,8.35,2.33,9.77,2.75,0,0,.62.93.62.93l-4.16-1.78.9.71,4.55,2.07c.19.32.39.63.57.96l-.97-.61.64.93,4.7,4.56.13,1.26-7.29-5.55c.35.47.74.93,1.15,1.36l5.48,2.97.39,1.08,2.25,3.08-.04,1.31-10.48-5.81c1.53.61,10.55,4.34,12.17,4.99-.15.88-.54,2.9-.69,3.76,0,0-3.37-4.65-3.37-4.65.19.58.4,1.19.64,1.8l1.89,1.68.19,1.17-3.22-2.28.81.96,4.04,3.96c-.07.43-.14.85-.23,1.29l-2.63-3.1.57,1.09,1.76,1.65.04,1.21-.28-.37c.06.39.1.79.14,1.19l-.67-.65.39,1.17-.63-.38c.85,1.41,1.4,2.34,2.23,3.57,0,0-.91,1.29-.91,1.29l-3.5.05-.07-1.28,1.04,1.6-1.03-.43-.12-.05-.22-.16-.84-.59-.11-.08-.19-.21-.67-.75h-.01s-.1-.15-.1-.15l-.61-.82.64.59c-.41-.22-1.1-.58-1.48-.79-.14-.38-.58-1.36-.74-1.76,0,0,1.22,1.19,1.22,1.19l-1.04-.34-.49-.16-.42-.48-.67-.77.5.44c-.79-.45-1.62-1-2.36-1.54-.15-.37-.51-1.49-.66-1.89,0,0,2.32,1.52,2.32,1.52-.7.09-2.12.28-2.82.37,0,0-.76-1.43-.76-1.43l-.54-1.02.46.63-.76-.69,1.08.59c-.98-.17-2.07-.46-3.04-.74-.26-.43-.88-1.33-1.15-1.76,0,0,.85.83.85.83l-.9-.48h-.03s-.15-.11-.15-.11l-.86-.56.79.36-1.02-.23-.31-.07c-.24-.14-1.02-.6-1.28-.75,0,0,1.43.38,1.43.38-.65.03-2.11.15-2.78.19-.32-.72-1.06-2.06-1.38-2.75,0,0,1.95,1.47,1.95,1.47-.47-.06-1.31-.17-1.76-.22,0,0-.63-.54-.63-.54l-.81-.69.72.46-.95-.38.42.14-1.01-.22.67.07c-.46.03-1.28.04-1.7.06-.35-.16-1.19-.54-1.55-.71,0,0,.24.1.24.1-.48-.16-1.25-.43-1.71-.59,0,0-.53-.71-.53-.71l-.73-.97,2.38,1.14c-.58.03-1.67.12-2.25.16,0,0-.92-.84-.92-.84l-.82-.75,1.81.76-1.07-.02.49-.02c-.62.09-2,.31-2.62.41-.51-.55-1.36-1.6-1.85-2.13,0,0,1.84,1,1.84,1-.48-.06-1.26-.13-1.71-.19-.37-.25-1.15-.81-1.53-1.07,0,0,1.86.55,1.86.55-.85.06-1.73.13-2.58.22-.34-.1-1.21-.34-1.56-.44,0,0-.56-.16-.56-.16-.28-.25-1.09-.92-1.39-1.18,0,0,1.85.74,1.85.74l-1.04-.02h-.06s-.15-.02-.15-.02l-1.12-.11c-.45-.09-1.23-.15-1.62-.32-.36-.13-1.05-.36-1.38-.48,0,0-.43-.33-.43-.33l-.89-.68,2.82.52-1.12.37-.66.22-.8-.13c-.52-.08-1.57-.25-2.1-.33-.41-.48-1.21-1.45-1.62-1.93,0,0,1.84,1.11,1.84,1.11l-1-.18,1.74-.16c-.65.24-2.13.89-2.79,1.14-.63-.48-1.8-1.44-2.4-1.91,0,0,2.79.63,2.79.63l-1.08.29-.81.21c-.66-.19-1.63-.48-2.28-.67-.22-.15-1.09-.69-1.33-.85,0,0,2.62.4,2.62.4l-1.09.31-.73.21-.79-.16c-.29-.06-1.04-.21-1.29-.26,0,0-.31-.13-.31-.13l-.97-.4,2.03.15-1.07.27-.69.17-.74-.14c-.48-.09-1.42-.28-1.9-.37-.37-.36-1.23-1.14-1.6-1.5,0,0,1.72.85,1.72.85l-1.01-.16,1.57-.13c-.56.19-1.68.58-2.24.77-.54-.23-1.6-.66-2.14-.89,0,0,1.16.26,1.16.26l-1.02-.03h-.2s-.23-.04-.23-.04l-1.01-.16.54.05c-.43,0-1.29,0-1.71,0-.35-.16-1.26-.55-1.63-.72,0,0,2.94-.12,2.94-.12-.5.29-1.49.82-1.99,1.1-.84-.09-1.97-.2-2.81-.29-.38-.23-1.24-.77-1.63-1.01,0,0,2.62.4,2.62.4l-1.05.28-1.36.37-1.24-.74-.97-.58,3.18.17-1.07.51-1.69.81c-.63-.41-1.96-1.27-2.57-1.67,0,0,3.11.31,3.11.31-.62.25-2.1.87-2.73,1.13-.62-.43-1.89-1.31-2.49-1.72,0,0,2.81.5,2.81.5-.06.02-1.12.3-1.14.31,0,0-.14.03-.14.03l-1.03.2-1.52.3c-.57-.45-1.65-1.32-2.21-1.76,0,0,3.21.58,3.21.58-.56.2-1.76.6-2.33.8,0,0-1.27-.6-1.27-.6l-.99-.47,3.21-.14c-.53.31-1.59.96-2.12,1.27-.75-.14-1.89-.31-2.63-.45-.21-.08-1.13-.47-1.36-.56,0,0,.74.21.74.21l-1.01-.16,1.56-.1c-.35.11-1.2.36-1.53.47-.73,0-1.81-.03-2.55-.03-.45-.29-1.39-.9-1.84-1.19l3.49.18c-.59.32-1.92,1-2.53,1.33-.62-.3-1.96-.89-2.57-1.18,0,0,1.31.32,1.31.32l-1.02-.04.6-.03-1.02.14.81-.21c-.49.19-1.48.59-1.97.78-1.64-.33-2.06-.45-3.67-.58,0,0,1.58-.22,1.58-.22l-1.03.39-1.04.4-1.04-.26c-.17-.04-1.1-.27-1.25-.31-.13-.03-1.05-.42-1.2-.47,0,0,2.75-.11,2.75-.11-.4.18-1.31.63-1.71.8-.8.02-1.92.05-2.73.07-.45-.26-1.38-.81-1.84-1.07,0,0,3.12.16,3.12.16-.6.27-1.87.82-2.48,1.08-.57-.29-1.84-.85-2.41-1.14,0,0,1.46.32,1.46.32h-1.01s-.26,0-.26,0c-.25-.03-.99-.15-1.23-.17,0,0,1.75-.22,1.75-.22-.49.19-1.51.6-2,.79-.64-.14-1.69-.36-2.33-.5-.28-.11-1.01-.42-1.28-.53,0,0,2.57,0,2.57,0-.57.23-1.74.7-2.32.93-.54-.24-1.73-.7-2.28-.93,0,0,2.27.1,2.27.1-.49.15-1.51.45-2,.6,0,0-.95-.28-.95-.28l-1.02-.3,2.97-.55c-.63.46-1.96,1.47-2.6,1.93-.59-.27-2.2-.96-2.79-1.22,0,0,1.68.26,1.68.26l-1.01.1-.38.04c-.46-.05-.94-.11-1.35-.16,0,0,2.11-.47,2.11-.47-.47.29-1.48.88-1.95,1.17-.5-.05-1.57-.14-2.08-.18,0,0,.29.01.29.01h-1.01s.65-.07.65-.07c-.47.09-1.48.29-1.95.39-.47-.17-1.41-.52-1.88-.69,0,0,1.58.17,1.58.17l-1.01.13.43-.09c-.61.16-1.82.49-2.43.65-.52-.36-1.72-1.06-2.24-1.42,0,0,2.3.46,2.3.46l-1.01.16-.48.08-.44-.05-1.02-.12,2.13-.48c-.45.29-1.46.9-1.91,1.19-.49-.04-1.56-.11-2.06-.15,0,0,1.54-.27,1.54-.27l-1,.43-.89.39c-.48-.08-1.46-.23-1.94-.31,0,0,1.25-.05,1.25-.05-.71.16-1.89.44-2.58.6-.53-.45-1.74-1.41-2.28-1.85,0,0,4.14-.05,4.14-.05-.73.6-2.18,1.82-2.9,2.41-.57-.44-2.49-1.72-3.07-2.16,0,0,3.27.25,3.27.25l-.99.48-.77.37c-.47-.02-1.37-.08-1.84-.11,0,0-.21-.01-.21-.01l-.14-.03-1.02-.18,1.39-.08-1,.26-.71.19-.61-.1-1.02-.17,2.51-.72c-.7.56-1.92,1.58-2.6,2.13-.43-.24-2.34-1.15-2.82-1.41,0,0,1.89.26,1.89.26l-1.01.16-.6.09-.49-.1-1.02-.2,1.48-.1-1,.3s.7-.32.7-.32c-.56.33-1.63.99-2.19,1.31,0,0-1.25-.38-1.25-.38l-1.03-.32,1.5.04c-.54.11-1.61.33-2.15.44-.49-.27-1.48-.83-1.98-1.1,0,0,2.99-.1,2.99-.1l-.98.58-1.34.8-1.34-.56-1.04-.44,3.03-.51-.96.8-.86.72h-1.01s-1.01,0-1.01,0h-.52s-.39-.13-.39-.13l-1.03-.34,1.68.02-.99.27.6-.26c-.9.47-1.79.98-2.62,1.42-.45-.36-2-1.45-2.49-1.84,0,0,3.27.01,3.27.01l-.96.65-.39.27-.36.11-.99.3-1.36.41c-.5-.38-1.63-1.14-2.14-1.53,0,0,2.42.35,2.42.35l-.99.3.41-.17-.97.48-.74.36-.72-.07-1.02-.1,1.27-.21-.98.4-.89.36-.83-.23-1.04-.28,2.05-.31-.97.57-1.14.67-1.15-.44-1.05-.4,2.13-.15c-.47.24-1.51.75-1.98.99-.49-.16-1.49-.48-1.98-.64,0,0,.89.1.89.1l-1.01.04.84-.2-.99.39-.93.37-.81-.28-1.05-.36,1.75-.1-.98.41-.22.09-.09.02-1,.26-.3.08h-.17s-1.01.07-1.01.07l.26-.04c-1.01.19-2.01.32-3.02.45,0,0-.66-.43-.66-.43l-1.08-.7,1.94.2-.99.31.6-.32-.95.67-.75.53-.78-.1-1.03-.13c.65.03-.88-.03-.84-.03,0,0,.66-.09.66-.09l-.99.27c-.69.15-1.39.26-2.08.44,0,0-.16.04-.16.04h-.07s-1,.12-1,.12l.18-.03-.99.2-.89.18-.63-.43-1.09-.74,1.82.13-.98.38-.6.24-.49-.1-1.04-.22s1.46-.37,1.46-.37l-.94.68-.31.22-.23.07-1.97.58-1.11-3.32h0Z"/>
</svg>