<?xml version="1.0" encoding="UTF-8"?>
<svg id="Eyebrow" xmlns="http://www.w3.org/2000/svg" viewBox="0 0 1080 1080">
  <defs>
    <style>
      .cls-1 {
        fill: #9e1f63;
      }
    </style>
  </defs>
  <path class="cls-1" d="M478.38,464.09c-25.07-.88-50.04-3.41-74.94-6.38-8.27-.95-16.83-2.24-24.36-2.98-15.59-1.48-31.56-.67-47.46,2.22-15.9,2.93-31.63,8.12-46.97,15.25,25.34-23.59,59.68-37.52,94.58-39.77,16.96-.86,33.85-.6,50.8-.46,16.71.28,33.42.79,50.08,2.17,0,0-1.73,29.95-1.73,29.95h0Z"/>
  <path class="cls-1" d="M599.89,434.14c25-2,50.1-2.36,75.18-2.28,6.42.05,12.52.06,19,.26,37.13.86,74.33,14.97,101.28,40.09-15.34-7.13-31.07-12.32-46.97-15.25-15.9-2.89-31.87-3.7-47.46-2.22-7.53.74-16.09,2.03-24.36,2.97-16.61,2.03-33.25,3.71-49.92,4.98-8.33.59-16.67,1.18-25.02,1.4l-1.73-29.95h0Z"/>
</svg>