<?xml version="1.0" encoding="UTF-8"?>
<svg id="Eyebrow" xmlns="http://www.w3.org/2000/svg" viewBox="0 0 1080 1080">
  <defs>
    <style>
      .cls-1 {
        fill: #9e1f63;
      }
    </style>
  </defs>
  <path class="cls-1" d="M464.2,469.54c-27.12-3.79-54.47-8.76-81.38-13.93-17.98-3.56-35.07-7.28-53.27-7.77-27.24-1.01-54.08,2.88-80.2,11.62,24.15-13.69,52.13-21.55,79.98-23.59,23.15-2.02,46.86,1.7,69.79,4.32,22.62,2.75,45.69,5.78,68.13,9.58,0,0-3.04,19.77-3.04,19.77h0Z"/>
  <path class="cls-1" d="M612.76,449.78c31.48-5.28,63.74-9.2,95.49-12.74,41.62-5.35,85.84,1.7,122.42,22.43-34.51-11.55-71.01-14.75-106.74-8.97-35.63,6.73-72.08,14.11-108.11,19.05,0,0-3.04-19.77-3.04-19.77h0Z"/>
</svg>