<svg width="150" height="278" viewBox="0 0 150 278" fill="none" xmlns="http://www.w3.org/2000/svg">
<path d="M63.1652 1.04054C84.7555 -3.93736 117.108 9.65701 130.969 26.6568C160.785 63.2259 147.559 112.716 140.165 154.713C133.805 190.831 120.618 257.797 86.499 276.09C32.225 292.076 5.36365 150.435 1.27578 114.458C-4.16028 66.6258 6.20378 7.77859 63.1652 1.04054Z" fill="#694E45"/>
<path d="M68.4259 3.13553C80.9969 1.3252 98.2909 6.45368 109.274 12.4148C129.662 23.4796 138.321 40.1666 144.728 61.6658C153.23 90.1953 134.44 178.136 125.277 208.475C121.258 221.783 116.444 235.047 109.789 247.283C103.126 259.535 94.9263 270.93 80.9426 275.071C36.6724 278.439 12.735 168.715 6.56193 134.831C-2.93039 82.7298 -0.57225 8.68273 68.4259 3.13553Z" fill="#CB8565"/>
</svg>
