<svg width="211" height="229" viewBox="0 0 211 229" fill="none" xmlns="http://www.w3.org/2000/svg">
<path d="M103.217 1.3021C115.364 -0.347346 137.278 4.94547 147.244 12.5973C165.878 26.6867 169.85 52.3751 182.449 70.5844C194.547 88.0703 205.198 86.2496 209.004 109.724C204.447 123.172 196.807 127.354 183.49 129.837C191.536 140.6 202.14 144.391 207.102 158.129C214.098 177.499 201.996 188.735 184.441 193.725C182.571 194.256 179.32 192.538 176.252 193.571C173.824 195.58 173.652 200.468 172.118 202.867C158.775 223.747 128.775 232.868 106.848 224.331C104.172 223.722 98.0424 226.161 95.126 226.721C72.345 231.096 41.2576 218.04 34.7731 194.246C34.5112 193.284 24.0399 193.473 21.9464 192.683C-1.24018 183.942 -5.36174 165.381 10.5078 146.42C14.9669 141.138 22.0173 136.191 26.4805 130.135L26.7026 129.83C13.0103 127.376 5.58532 122.798 1.30563 109.213C5.64032 83.8404 17.5176 88.0696 27.3193 71.2527C49.9951 32.3453 49.3144 5.29543 103.217 1.3021Z" fill="#CB8565" stroke="#71564B" stroke-width="2"/>
</svg>
