<svg width="128" height="147" viewBox="0 0 128 147" fill="none" xmlns="http://www.w3.org/2000/svg">
<path d="M52.6662 0.626196C52.88 0.587005 53.0938 0.547821 53.307 0.50863C80.8874 -2.51249 123.035 7.53957 126.137 41.0352C127.604 56.8813 128.263 78.6892 127.054 94.5725C125.944 109.167 123.024 127.346 114.644 139.574C112.191 143.154 104.569 147.908 100.436 144.723C99.8686 140.832 104.333 138.931 106.082 135.507C116.761 114.598 117.324 89.9205 112.885 67.6443C105.533 66.175 97.3455 65.1719 89.8703 64.1062C83.9255 56.2708 82.4143 52.4157 81.1892 42.6586C78.2082 46.6876 77.1337 49.7734 75.3372 54.3456C73.2685 62.9896 74.8924 64.7126 64.6115 65.2021C54.4407 65.6862 44.067 65.3644 33.9752 66.6103C33.4733 62.6891 32.7624 58.5377 32.1567 54.609C31.5826 58.0557 31.4596 61.7733 30.9206 65.4167C27.9011 67.5219 17.724 65.779 16.371 69.3543C9.48296 87.5539 13.3013 111.917 20.0162 129.777C21.7548 134.402 28.9131 140.547 29.736 145.434L28.9358 146.394C25.5622 146.745 21.8195 144.411 19.2413 142.63C0.649279 129.506 2.93178 103.637 2.54678 83.6328C2.0676 75.862 -0.172285 68.521 0.0105895 60.6904C0.363277 45.6013 4.40509 31.1778 13.5268 18.9049C22.6754 6.59557 38.138 2.60154 52.6662 0.626196Z" fill="#694E44"/>
<path d="M57.2841 2.70195C63.7845 1.57298 72.6821 2.90066 79.1714 3.93612C102.267 7.33402 124.24 21.081 124.371 48.2388C124.498 74.4113 129.387 120.982 108.805 141.385C107.837 142.345 106.652 142.628 105.389 142.367C105.521 140.421 111.313 131.517 112.211 128.679C118.757 108.003 119.845 85.8563 114.781 65.0282C107.34 64.0615 98.3031 63.0315 91.0961 61.4405C86.1371 55.3055 80.8881 43.5077 85.3761 35.9879L85.7143 35.4282L85.1306 34.401L85.3733 34.509C84.5827 34.6857 83.5645 35.0728 83.0599 35.6875C75.2293 45.2369 71.9135 50.7044 71.8179 62.7098L63.0674 62.4175C53.8226 63.0171 44.9923 63.7012 35.7173 63.5335C35.6231 58.9323 35.2573 50.21 35.7812 45.8021C36.0906 43.1921 41.0571 36.6679 40.3318 32.9097L39.2228 33.0493C34.0301 40.4213 29.0334 53.9551 28.6621 63.2165C22.4753 63.7432 19.2592 64.7731 13.5997 66.7925C12.9232 69.9683 12.3093 73.1572 11.7579 76.3564C7.84121 100.505 11.6561 124.131 26.115 144.073C23.9184 142.679 21.2997 140.967 19.3039 139.425C3.62133 127.308 5.02176 100.526 4.69245 82.8222C4.61408 78.6308 3.70796 72.0227 3.12564 67.5467C1.02533 51.4002 5.98908 32.8162 16.0328 19.9713C25.7059 7.59941 42.4568 4.3067 57.2841 2.70195Z" fill="#CB8565"/>
</svg>
