<svg width="70" height="17" viewBox="0 0 70 17" fill="none" xmlns="http://www.w3.org/2000/svg">
<path d="M60.5264 1.58203C64.353 1.24546 66.207 2.01013 66.9893 2.83398C67.6984 3.58114 67.9117 4.82106 67.2344 6.59277C66.5651 8.34339 65.114 10.2892 63.1357 11.9121C61.2181 13.4851 58.898 14.6749 56.4961 15.1084C53.9323 14.7975 51.4211 14.0002 49.9941 12.7324C49.301 12.1165 48.9142 11.4377 48.8223 10.665C48.734 9.9224 48.8969 8.91231 49.6299 7.57227L49.7842 7.2998C52.0202 3.48134 55.6773 2.68913 60.5264 1.58203ZM1.88867 2.01855C4.17702 1.92223 6.70216 1.86209 9.15625 1.99316C11.9776 2.14386 14.5905 2.54024 16.5967 3.34668C18.5874 4.14696 19.7764 5.25868 20.1953 6.75488C20.6185 8.26675 20.3705 10.5657 18.5781 14.0166C17.3719 14.6548 15.6186 14.8823 13.541 14.5947C11.3075 14.2855 8.89672 13.4065 6.81348 12.0967C4.72318 10.7824 3.06173 9.09789 2.1875 7.24316C1.4442 5.6661 1.24172 3.91813 1.88867 2.01855Z" fill="#C07D61" stroke="#6C4F43" stroke-width="3"/>
</svg>
