<?xml version="1.0" encoding="UTF-8"?>
<svg id="Layer_2" data-name="Layer 2" xmlns="http://www.w3.org/2000/svg" viewBox="0 0 307.67 180.92">
  <defs>
    <style>
      .cls-1 {
        fill: #fff;
      }

      .cls-2 {
        fill: #f15a6d;
      }
    </style>
  </defs>
  <g id="Layer_1-2" data-name="Layer 1">
    <g>
      <path d="M13.8,13.38c-3.84-1.69-9.28,8.56-13.8,1.76L22.09,1.32c1.06,3.13-1.2,5.13-3.48,8.18,7.75,3.2,17.99.12,32.5.26,4.77.05,9.54-.89,14.2-1.15l20.43-1.13,44.67-1.79c21.34-.86,42.38-1.04,63.69,0l36.62,1.79,17.52,1.02,19.14,1.75,13.13,1.39,9.73,1.12c4.77-7.04-6.32-8.3-2.97-12.75l19.15,13.77c1.23.89,1.76,3.46.64,4.61l-11.6-5.56c-2.86,21.36-10.33,38.92-19.35,57.42-7.63,15.65-14.23,31.66-27.42,43.69-10.44,9.51-22.69,16.81-35.26,23.32-12.2,6.32-24.66,10.68-38.37,12.14-11.24,1.19-22.65,1.75-33.94.11l-12.95-1.88c-22.99-3.34-43.89-10.92-60.81-27.23-7.63-7.35-12.43-15.72-18.35-24.32-13.01-18.92-22.49-38.59-27.96-61.2l-4.28-17.68c-.3-1.25-1.91-3.32-2.96-3.78ZM189.06,49.03c9.58-.57,18.4-2.34,27.47-3.41l28.29-9.37c5.01-6.71,8.62-14.26,11.03-21.68l-21.79-1.23-30.83-1.61-55.01-.78-8.3.06-75.68.36c-2.6.01-5.13.75-7.84,1.64,2.35,9.91,5.11,18.28,9.43,26.71,17.68,11.07,54.42,12.41,74.81,11.62l27.59-1.06,20.84-1.25ZM140.99,143.98l33.53.02s27.78-5.45,29.29-8.97l-13.16-19.74c-3.39-5.08-8.78-8.42-14.47-11.01l-8.74,4.6c-7.13,3.76-12.7,2.12-19.8-.47-13.24-4.83-33.43,16.65-39.83,28.53-.07,1.94,37.3,7.04,33.18,7.04Z"/>
      <path d="M197.04,169.56c-9.06,16.38-63.86,13.64-78.18.65,35.75,7.68,41.27,8.17,78.18-.65Z"/>
      <path class="cls-1" d="M189.06,49.03l-20.84,1.25-27.59,1.06c-20.39.78-57.12-.55-74.81-11.62-4.31-8.43-7.08-16.81-9.43-26.71,2.71-.89,5.25-1.63,7.84-1.64l75.68-.36,8.3-.06,55.01.78,30.83,1.61,21.79,1.23c-2.41,7.41-6.02,14.97-11.03,21.68l-28.29,9.37c-9.07,1.08-17.89,2.84-27.47,3.41Z"/>
      <path class="cls-2" d="M140.99,143.98c4.12,0-33.25-5.1-33.18-7.04,6.4-11.88,26.59-33.36,39.83-28.53,7.09,2.59,12.66,4.23,19.8.47l8.74-4.6c5.7,2.59,11.08,5.93,14.47,11.01l13.16,19.74c-1.51,3.52-29.32,8.97-29.29,8.97l-33.53-.02Z"/>
    </g>
  </g>
</svg>