<?xml version="1.0" encoding="UTF-8"?>
<svg id="Layer_2" data-name="Layer 2" xmlns="http://www.w3.org/2000/svg" viewBox="0 0 315.87 172.89">
  <defs>
    <style>
      .cls-1 {
        fill: #fff;
      }
    </style>
  </defs>
  <g id="Layer_1-2" data-name="Layer 1">
    <g>
      <path d="M167.58,118.74c-10.04-1.33-34.67-.53-43.6,1.71l-54.11,13.56c-10.25,2.57-22.93,4.01-32.99,1.78-8.26-1.83-17.39-4.6-22.68-11.35-6.87-8.76-11.6-19.91-13.51-30.92-3.2-18.48,5.13-47.24,17.52-60.86,13.5-14.85,31.66-24.18,50.96-28.83,19.45-4.69,23.61.52,39.05,1.78,6.9.56,13.01,1.1,19.68,2.01l13.75,1.88c10.22,1.4,20.72,1.17,31.03.23,8.57-.79,16.57-3.74,25.05-4.92l16.96-2.35,13.8-1.84c12.96-1.72,20.72.2,33.13,6.13,14.68,7.01,32.25,33.08,41.5,46.22,5.83,8.29,9.77,16,11.33,26.3,2.08,13.69,3.14,28.28-6.09,40.07-6.23,7.95-16.57,11.77-26.33,13.72-11.39,2.27-18.12,2.26-29.5.06l-9.85-1.9-10.57-2.2-11.48-2.11-13.41-2.16-12.26-2.11-13.5-2.03-13.88-1.84ZM73.35,71.36c3.02-.76,6.8-1.55,9.72-1.89l18.08-2.15c27.94-3.32,51.32-3.23,79.55-2.07,8.18.34,15.84,2.06,24.21,1.54,5.03-.31,9.67,1.07,14.6,1.62l8.64.97,11.74,2.07c3.11.55,6.53,1.58,9.63,2.29l6.02-21.76,2.32-9.23,1.93-7.83,2.02-8.79,2.24-8.51c-3.88-3.98-10.15-5.74-15.3-7.83-9.35-3.8-17.72-3.1-27.5-1.59l-14.37,2.22-22.88,5.75c-12.45,3.13-34.22,3.82-46.37,2.2l-15.65-2.09-18.49-2.07c-10.67-1.19-17.74-5.57-30.36-2.57-8.48,2.02-16.86,4.48-24.97,8.2-.5,2.44.46,5.52.9,7.88l2.15,11.55,1,11.15,2,11.05,1.95,9.48c.31,1.52,1.66,4.42,2.92,4.08l4.96-1.35,9.31-2.35ZM200.96,117.3l11.11,1.87,12.51,2.11,10.69,2.1,8.83,1.9,10.57,2.07c5.58,1.1,11.33.52,17.7.53.18-9.88.99-18.19-2.51-27.07-2.02-5.14-5.53-9.28-8.54-13.85-1.73-2.62-3.83-7.21-7.52-6.56-8.07,1.41-11.68-2.33-24.49-3.97l-14.68-1.87-28.22-2.13-33.76-1.61c-7.23-.35-14.31-.9-21.47-.08-7.68.89-15,1.16-22.86,1.16-4.49,0-8.61,1.36-13.08,1.64l-14.02.9-10.02,1.88c-3.39.64-7.25,2.34-10.72,3.32-12.78,3.61-13.69,17.3-15.22,28.48-1.04,7.64-2.54,14.42-1.17,22.48,8.29-.08,15.64-.53,23.36-2.53l45.02-11.63c3.58-.92,7.85-1.88,11.39-2.32l14.82-1.87c8.79-1.11,18.51-1.24,27.22-.08l13.85,1.84,8.31,1.3,12.88,1.99Z"/>
      <path d="M146.05,161.55l-16.1,1.95c-1.46.18-14.69,3.26-16.4,3.85l-13.11,4.55c-2.57.89-4.9,1.48-7.89.42,13.9-8.64,35.59-15.09,51.88-16.82,20.96-2.22,23.44-3.22,43.34.2,12.68,2.18,23.59,7.08,34.5,13.29l1.96,1.12c.41.23-.33,1.92-.79,1.89l-1.83-.13-10.09-2.62-23.39-6.06c-10.52-2.72-30.67-3.02-42.08-1.64Z"/>
      <path class="cls-1" d="M73.35,71.36l-9.31,2.35-4.96,1.35c-1.26.34-2.6-2.55-2.92-4.08l-1.95-9.48-2-11.05-1-11.15-2.15-11.55c-.44-2.36-1.4-5.43-.9-7.88,8.1-3.72,16.49-6.18,24.97-8.2,12.61-3,19.69,1.38,30.36,2.57l18.49,2.07,15.65,2.09c12.15,1.62,33.93.93,46.37-2.2l22.88-5.75,14.37-2.22c9.78-1.51,18.15-2.21,27.5,1.59,5.14,2.09,11.42,3.85,15.3,7.83l-2.24,8.51-2.02,8.79-1.93,7.83-2.32,9.23-6.02,21.76c-3.09-.72-6.52-1.75-9.63-2.29l-11.74-2.07-8.64-.97c-4.93-.56-9.58-1.93-14.6-1.62-8.37.52-16.03-1.21-24.21-1.54-28.23-1.16-51.61-1.25-79.55,2.07l-18.08,2.15c-2.92.35-6.7,1.13-9.72,1.89Z"/>
      <path class="cls-1" d="M200.96,117.3l-12.88-1.99-8.31-1.3-13.85-1.84c-8.71-1.16-18.44-1.03-27.22.08l-14.82,1.87c-3.54.45-7.82,1.4-11.39,2.32l-45.02,11.63c-7.72,2-15.07,2.45-23.36,2.53-1.36-8.05.13-14.83,1.17-22.48,1.52-11.17,2.44-24.87,15.22-28.48,3.47-.98,7.33-2.68,10.72-3.32l10.02-1.88,14.02-.9c4.47-.29,8.58-1.64,13.08-1.64,7.86,0,15.18-.28,22.86-1.16,7.16-.83,14.24-.27,21.47.08l33.76,1.61,28.22,2.13,14.68,1.87c12.81,1.64,16.42,5.38,24.49,3.97,3.69-.65,5.8,3.94,7.52,6.56,3.01,4.57,6.52,8.71,8.54,13.85,3.49,8.88,2.69,17.19,2.51,27.07-6.37,0-12.12.57-17.7-.53l-10.57-2.07-8.83-1.9-10.69-2.1-12.51-2.11-11.11-1.87Z"/>
    </g>
  </g>
</svg>