<?xml version="1.0" encoding="UTF-8"?>
<svg id="Layer_2" data-name="Layer 2" xmlns="http://www.w3.org/2000/svg" viewBox="0 0 275.98 132.34">
  <g id="Layer_1-2" data-name="Layer 1">
    <g>
      <path d="M271.2,30.65l-6.64-13.4c-2.68,7.5-5.33,13.7-10.04,20.07-24.29,32.88-61.91,54.05-102.76,57.37-29.12,2.37-56.15-3.19-80.85-18.44-19.96-12.32-34.94-30.39-44.11-51.92-2.13-5.01-3.61-9.02-7.3-13.94-3.34,7.15-5.31,12.47-7.56,19.3-6.34-3.13,4.95-20.24,7.78-25.63C11.03,7.93,7.44,16.23,0,21.83,4.87,10.85,14.65.08,27.62,0c-2.24,2.31-3.83,3.8-5.35,6.03,21.44,41.42,59.88,70.05,107,73.97,52.57,4.37,101.94-24.64,132.92-66.14-1.34-5.57-4.2-5.81-5.19-10.43-.94-4.36,19.73,7.27,18.96,18.32l-7.48-9.08c-.28-.34-1.67-1.51-1.7-1.09-.47,7.29,4.84,8.49,4.43,19.07Z"/>
      <path d="M128.53,127.16c29.73,3.9,49.77-12.95,51-8.69.25.88-.5,2.85-1.32,3.4-32.98,22.4-80.65,2.5-78.94-1.39.4-.9,1.82-3.78,1.28-.83,8.91,4.15,18.03,6.21,27.98,7.51Z"/>
    </g>
  </g>
</svg>