<?xml version="1.0" encoding="UTF-8"?>
<svg id="Layer_2" data-name="Layer 2" xmlns="http://www.w3.org/2000/svg" viewBox="0 0 282.58 174.15">
  <defs>
    <style>
      .cls-1 {
        fill: #f15a6d;
      }
    </style>
  </defs>
  <g id="Layer_1-2" data-name="Layer 1">
    <g>
      <path d="M103.69,130.08c-31.84.67-37.89,10.29-72.5,6.75-11.09-1.13-19.37-10.2-23.96-19.52C.48,103.6-1.41,96.02,1,81.35l1.62-9.9c1.75-10.65,6.14-20.88,10.98-30.53,3.05-6.08,7.84-10.36,12.67-15.05,7.38-7.19,15.75-13.36,26.31-15.68,21.73-4.77,43.85,4.43,52.43,4.5l38.88.3L192.89,1.94c19-5.06,39.71.05,54.52,12.22,4.99,4.1,10.28,7.45,14.02,12.77,10.81,15.38,16.81,32.36,20.32,50.88,1.13,5.95,1.09,13.11.1,19.18l-1.77,10.81c-.42,2.57-1.15,5.54-1.92,8.27-2.3,8.22-9.48,15.1-18.3,16.73-13.54,2.5-27.29-.64-41.19-.94-12.12-.26-23.31-1.54-35.25-1.84l-27.53-.7c-5.32-.14-10.13-.13-15.44-.02l-36.74.77ZM171.81,96.18c-9.36,3.19-9.02,5.05-18.91,8.64-13.07,4.74-23.98-6.61-35.05-10.98-21.33,5.63-29.72,13.87-42.59,32.72l20.52-2.2,27.79-1.62c17.72-1.03,35.25-.82,53.05-.09,6.04.25,12.28,2.62,17.95.93-7.22-12.72-9.62-19.66-22.76-27.41Z"/>
      <path d="M143.7,164.38c-9.5-.96-22.27.61-31.31,2.55l-9.35,2c-7.45,1.6-14.16,5.2-22.41,5.23,11.56-7.73,39.32-14.35,52.39-15.71,6.1-.64,12.85-.7,18.83.09l14.41,1.91c6.53.87,28.26,5.3,34.06,9.85-8.78,2.78-16.72.61-24.79-1.17-10.69-2.35-21.06-3.66-31.84-4.75Z"/>
      <path class="cls-1" d="M171.81,96.18c13.14,7.75,15.54,14.69,22.76,27.41-5.67,1.69-11.91-.68-17.95-.93-17.8-.73-35.33-.94-53.05.09l-27.79,1.62-20.52,2.2c12.87-18.85,21.27-27.09,42.59-32.72,11.07,4.37,21.98,15.71,35.05,10.98,9.89-3.58,9.55-5.45,18.91-8.64Z"/>
    </g>
  </g>
</svg>