<?xml version="1.0" encoding="UTF-8"?>
<svg id="Layer_2" data-name="Layer 2" xmlns="http://www.w3.org/2000/svg" viewBox="0 0 279.92 99.78">
  <defs>
    <style>
      .cls-1 {
        fill: #ff9fac;
      }

      .cls-2 {
        fill: #333;
      }
    </style>
  </defs>
  <g id="Layer_1-2" data-name="Layer 1">
    <g>
      <path class="cls-2" d="M158.59,98.57c-3.2.49-6.73,1.21-9.94,1.21h-28.63c-2.66,0-5.82-.98-8.51-1.26-14.72-1.51-36-10.43-47.33-19.04l-8.93-6.79c-7.56-5.74-14.63-11.01-21.42-17.89,1.08,1.1-17.5-11.71-18.31-12.41l-5.24-4.52-5.55-3.85C3.12,32.91-.08,31.45.03,29.52c-.7-2.76,9.74,1.65,11.98,2,4.24.68,9.43.12,13.69-.47l9.56-1.33c21.29-2.97,45.78-19,65.64-27.47,11.67-4.98,18.67-1,27.87,5.29,10.61,7.25,21.05.14,30.89-4.5,2.68-1.27,8.52-1.52,11.39-.65,7,2.11,12.52,6.05,19.03,8.74l13.13,5.41c7.43,3.06,14.73,5.97,22.47,8.32l5.32,1.62c2.01.61,4.76,1.38,6.66,1.67l9.38,1.42c6.75,1.02,14.51.55,21.27.21,2.01-.1,12.78-5.25,11.5-1.41-9.51,3.16-16.53,8.7-23.64,14.86-3.48,3.01-6.63,5.65-9.5,9.32-2.27,2.91-4.67,6.4-7.39,8.93-6.64,6.18-13.36,11.79-20.49,17.29-8.87,6.83-19.02,10.3-29.38,13.5-3.13.97-6.21,2.17-9.45,2.76l-9.83,1.79-11.54,1.76ZM158.96,52.65c1.63-.29,3.73-1.08,5.3-1.42l9.25-2.03c2.02-.44,4.27-1.25,6.4-.99,2.34.28,4.72-1.27,6.66-1.3l36.8-.63c4.29-2.13,8.13-.75,14.93-2.11,9.52-1.91,11.44-4.34,20.37-8.33l-15.23-.8-11.12-1.62c-16.13-2.35-29.02-8.31-43.71-15.77-5.64-2.86-11.55-5.2-17.45-7.66-4.32-1.81-8.31-2.48-12.63.06-11.74,6.91-13.34,7.62-27.24,6.91-1.42-1.49-3.1-2.89-4.73-3.59l-9.48-4.04c-4.46-1.9-6.99-2.34-11.53-.87-7.46,2.42-14.72,5.16-21.8,8.46l-10.82,5.06c-6.27,2.93-23.93,10.05-29.96,11.51l-6.58,1.58c-1.97.47-12.68,1.15-15.96.74-.47-.06-1.39,1.41-.94,1.56l1.71.57c1.42.48,10.32,6.85,17.54,8.19l8.63,1.59c5.32.98,10.86.28,16.4.63,2.33.15,5.14-1.33,7.24-1.45,9.75-.52,19.3-.63,29.05,0,2.92.19,6.01,1.68,9.36,1.33,3.03-.31,11.21,1.84,14.48,2.78l5.65,1.63c6.5,1.87,13.49,2.89,20.32,1.66l9.09-1.64ZM37.27,50.95l9.94,9.15,13.97,10.41c14.72,10.97,19.7,14.13,38.28,20.33,14.36,4.8,37.48,4.2,53.4,3.28,3.08-.18,6.9-.99,10.01-1.52l10.7-1.84c2.19-.38,4.91-.85,7.02-1.55l14.39-4.74c11.63-3.83,21.23-10.45,30.56-18.05,4.16-3.39,8.42-6.39,12.28-10.01l4.36-4.1,4.21-5.29c-11.7,6.05-13.27.91-20.27,4.82l-37.47.14c-3.42,1.96-7.78,1.57-15.11,2.93l-8.56,1.58-7.2,1.67c-2.76.64-6.23.52-9.17,1.01-4.71.79-8.84.46-13.58-.18-9.2-1.22-7.76-2.3-13.41-3.35l-6.69-1.23c-3.76-.69-8.15-2.15-11.95-2.18l-57.62-.54c-2.46-.02-5.13-3.15-8.08-.74Z"/>
      <path class="cls-1" d="M158.96,52.65l-9.09,1.64c-6.83,1.23-13.82.21-20.32-1.66l-5.65-1.63c-3.27-.94-11.46-3.09-14.48-2.78-3.35.34-6.44-1.14-9.36-1.33-9.76-.63-19.3-.52-29.05,0-2.1.11-4.9,1.59-7.24,1.45-5.55-.35-11.08.35-16.4-.63l-8.63-1.59c-7.23-1.33-16.12-7.71-17.54-8.19l-1.71-.57c-.45-.15.47-1.62.94-1.56,3.28.42,14-.26,15.96-.74l6.58-1.58c6.04-1.45,23.7-8.57,29.96-11.51l10.82-5.06c7.07-3.31,14.33-6.05,21.8-8.46,4.54-1.47,7.07-1.03,11.53.87l9.48,4.04c1.63.7,3.31,2.1,4.73,3.59,13.9.71,15.5,0,27.24-6.91,4.32-2.54,8.31-1.86,12.63-.06,5.9,2.47,11.81,4.8,17.45,7.66,14.69,7.46,27.58,13.42,43.71,15.77l11.12,1.62,15.23.8c-8.93,3.99-10.85,6.42-20.37,8.33-6.81,1.36-10.64-.02-14.93,2.11l-36.8.63c-1.94.03-4.32,1.59-6.66,1.3-2.14-.26-4.38.54-6.4.99l-9.25,2.03c-1.57.34-3.68,1.13-5.3,1.42Z"/>
      <path class="cls-1" d="M37.27,50.95c2.95-2.42,5.62.71,8.08.74l57.62.54c3.8.04,8.19,1.49,11.95,2.18l6.69,1.23c5.65,1.04,4.21,2.12,13.41,3.35,4.74.63,8.88.96,13.58.18,2.94-.49,6.4-.37,9.17-1.01l7.2-1.67,8.56-1.58c7.33-1.35,11.69-.97,15.11-2.93l37.47-.14c7.01-3.9,8.58,1.23,20.27-4.82l-4.21,5.29-4.36,4.1c-3.86,3.62-8.11,6.63-12.28,10.01-9.34,7.6-18.94,14.22-30.56,18.05l-14.39,4.74c-2.11.69-4.83,1.17-7.02,1.55l-10.7,1.84c-3.11.53-6.93,1.35-10.01,1.52-15.92.92-39.04,1.52-53.4-3.28-18.58-6.21-23.56-9.36-38.28-20.33l-13.97-10.41-9.94-9.15Z"/>
    </g>
  </g>
</svg>