<?xml version="1.0" encoding="UTF-8"?>
<svg id="Layer_2" data-name="Layer 2" xmlns="http://www.w3.org/2000/svg" viewBox="0 0 285.27 99.54">
  <defs>
    <style>
      .cls-1 {
        fill: #ff9fac;
      }

      .cls-2 {
        fill: #fff;
      }

      .cls-3 {
        fill: #333;
      }
    </style>
  </defs>
  <g id="Layer_1-2" data-name="Layer 1">
    <g>
      <path class="cls-3" d="M159.04,98.89c-5.71.84-12.1.84-17.54.16l-15.06-1.88c-2.37-.3-5.43-1-7.83-1.59l-7.01-1.7-7.5-1.78c-6.28-1.49-12.08-3.88-17.91-6.52l-24.15-10.94c-5.24-2.37-19.41-12.42-23.57-16.05l-11.94-10.44L0,22.27l8.28-1.39c4-.67,9.07.36,12.99-.7l4.73-1.28c4.43,0,16.14-2.35,20.3-3.47l7.13-1.91c2.55-.68,5.45-1.53,7.91-1.98l9.42-1.73c2.81-.52,5.51-.96,8.15-1.66l7.47-1.96c9.34-2.45,10.43-1.73,19.35-3.59l7.45-1.56c14.8-3.1,19.59.93,31.67,8.46,21.18-8.78,9.87-11.61,33.95-7.76l11.04,1.77c2.85.46,5.52.98,8.2,1.61l9.42,2.2,7.23,1.69,6.66.82,8.81,1.77,8.8,1.93,8.83,1.78c2.47.5,5.23,1.1,7.65,1.74l6.88,1.82,7.48,1.97,7.18,1.7,7.01,1.58c.65.15,1.65,1.86,1.18,2.25s-1.88,1.03-2.35,1.52c-10.51,11-22.07,21.36-34,30.89-10.47,8.36-20.52,15.13-32.42,21.21-16.9,8.63-27.26,14.46-46.39,17.28l-10.96,1.62ZM222.99,25.1c4.15-.28,7.81-1.46,12.17-2.15l10.31-1.62c.34-.01.52-2.08-.07-2.16l-2.41-.35c-2.56-.37-4.68-.85-7.11-1.43l-6.39-1.53-9.71-2.13-6.65-.97-7.93-1.71-7-1.64-8.32-1.99-8.68-1.82-9.46-1.7c-2.3-.41-5.51-2.45-7.78-.6-3.99,3.26-16.1,12.02-20.24,10.04-2.66-1.27-5.27-2.64-7.81-4.2-3.84-2.36-8.27-7.35-13.53-6.22l-8.66,1.85-7.16,1.67-9.49,2.23-7.21,1.63-7.18,1.62-7.91,1.79-10.42,2.06-8.53,1.73-8.16,1.88,6.64,1.91,14.68.81c3.07.17,5.85,1.22,8.93,1.3l14.28.37,27.81.22,5.66,1.39,45.2.43c10.76.1,20.83,2.1,31.72,1.6,2.64-.12,4.83-1.25,7.44-1.43l13-.88ZM212,43.08l7.25-1.32c5.81-1.06,11.41-3,17.18-4.57,14.11-3.83,18.66-12.88,16.21-13.03-1.65-.1-9.19,2.49-13.74,3.16l-10.26,1.5c-4.05.59-8.66,1.81-12.62,1.82l-83.21.24-7.31-1.45-36.44-.59-16.48-1.77-16.15-2.06-12.57-1.57c-4.11-.51-7.89-2.7-12.48-.63,4.24,7.45,23.21,14.14,30.37,15.88l8.24,2,7.9,1.7c7.97,1.72,6.7.93,15.9,2.4l13.07,2.1c7.64,1.23,15.56.03,23.46.71,1.77.15,4.62,1.41,6.33,1.42,11.84.06,23.1.35,34.83-.3,3.99-.22,7.82-1.55,12.1-1.43,2.76.08,6.02-1.23,8.74-1.66l9.64-1.55,10.07-1.02ZM80,77.55l18.49,7.66c2.7,1.12,5.77,1.42,8.52,2.04l7.58,1.72,9.15,2.06c2.08.47,4.34,1.05,6.47,1.07,10.5.12,14.93,3.65,28.56,1.46l11.19-1.8c17.79-2.86,27.76-8.01,43.69-16.04,10.77-5.43,20.33-11.43,29.66-18.97l15.23-12.31c-2.89-.32-4.86.91-6.9,2.26-5.86,3.89-11.67,7.45-18.06,10.52-12.59,6.04-39.16,18.5-51.78,20.64l-9.51,1.61-11.9,1.69c-7.39,1.05-15.47.78-22.86.04l-16.86-1.69c-2.68-.27-6.3-1.11-9.06-1.72l-9.7-2.13-7.37-1.62c-2.19-.48-5.46-.98-7.53-1.72l-39.41-14c9.39,9.2,20.75,14.41,32.38,19.23ZM188.18,71.61c5.77-1.73,11.06-3.33,16.05-5.51l13.94-6.08,14.9-6.7-22.36-1.3c-11.22-.65-14.41-2.69-28.97-.02-5.9,1.08-12.12.7-18.1,1.36-6.3.7-12.23.92-18.49.11-4.98-.65-9.87-.17-14.9-1.24l-5.63-1.2c-6.65-1.42-13.68.35-20.33-.64-11.99-1.78-6.9-2.06-19.29,0l-10.29,1.71c-2.29.38-5.29.51-7.29,1.09l-5.99,1.75c-.65.19-1.69,1.27-1.8,1.87s1.5.82,2.34,1.14l23.73,8.8c1.91.71,4.59,1.37,6.62,1.82l7.86,1.72,7.29,1.6,9.61,2.12c2.58.57,6.67,1.64,9.28,1.75,13.96.63,27.29.8,41.17-.05,1.12-.07,17.93-3.28,20.65-4.1Z"/>
      <path class="cls-2" d="M212,43.08l-10.07,1.02-9.64,1.55c-2.72.44-5.98,1.74-8.74,1.66-4.28-.12-8.11,1.2-12.1,1.43-11.73.65-22.99.36-34.83.3-1.7,0-4.56-1.27-6.33-1.42-7.9-.68-15.82.52-23.46-.71l-13.07-2.1c-9.2-1.48-7.93-.69-15.9-2.4l-7.9-1.7-8.24-2c-7.16-1.74-26.13-8.43-30.37-15.88,4.59-2.08,8.37.11,12.48.63l12.57,1.57,16.15,2.06,16.48,1.77,36.44.59,7.31,1.45,83.21-.24c3.96-.01,8.57-1.23,12.62-1.82l10.26-1.5c4.56-.67,12.09-3.26,13.74-3.16,2.45.15-2.1,9.2-16.21,13.03-5.76,1.57-11.37,3.51-17.18,4.57l-7.25,1.32Z"/>
      <path class="cls-2" d="M188.18,71.61c-2.72.81-19.53,4.03-20.65,4.1-13.88.85-27.21.68-41.17.05-2.61-.12-6.7-1.19-9.28-1.75l-9.61-2.12-7.29-1.6-7.86-1.72c-2.03-.44-4.71-1.11-6.62-1.82l-23.73-8.8c-.84-.31-2.45-.53-2.34-1.14s1.15-1.68,1.8-1.87l5.99-1.75c2-.59,5-.71,7.29-1.09l10.29-1.71c12.39-2.06,7.3-1.78,19.29,0,6.66.99,13.68-.78,20.33.64l5.63,1.2c5.03,1.07,9.92.6,14.9,1.24,6.26.81,12.19.59,18.49-.11,5.98-.66,12.2-.28,18.1-1.36,14.57-2.68,17.75-.64,28.97.02l22.36,1.3-14.9,6.7-13.94,6.08c-4.99,2.18-10.28,3.78-16.05,5.51Z"/>
      <path class="cls-1" d="M222.99,25.1l-13,.88c-2.62.18-4.8,1.31-7.44,1.43-10.89.5-20.96-1.5-31.72-1.6l-45.2-.43-5.66-1.39-27.81-.22-14.28-.37c-3.08-.08-5.86-1.13-8.93-1.3l-14.68-.81-6.64-1.91,8.16-1.88,8.53-1.73,10.42-2.06,7.91-1.79,7.18-1.62,7.21-1.63,9.49-2.23,7.16-1.67,8.66-1.85c5.26-1.12,9.69,3.86,13.53,6.22,2.54,1.56,5.15,2.93,7.81,4.2,4.14,1.98,16.26-6.78,20.24-10.04,2.27-1.85,5.48.19,7.78.6l9.46,1.7,8.68,1.82,8.32,1.99,7,1.64,7.93,1.71,6.65.97,9.71,2.13,6.39,1.53c2.44.58,4.56,1.06,7.11,1.43l2.41.35c.59.09.41,2.15.07,2.16l-10.31,1.62c-4.35.68-8.02,1.87-12.17,2.15Z"/>
      <path class="cls-1" d="M80,77.55c-11.63-4.82-22.99-10.02-32.38-19.23l39.41,14c2.08.74,5.34,1.24,7.53,1.72l7.37,1.62,9.7,2.13c2.76.61,6.38,1.45,9.06,1.72l16.86,1.69c7.38.74,15.46,1.01,22.86-.04l11.9-1.69,9.51-1.61c12.62-2.14,39.19-14.6,51.78-20.64,6.39-3.07,12.2-6.63,18.06-10.52,2.04-1.36,4.01-2.58,6.9-2.26l-15.23,12.31c-9.33,7.55-18.89,13.54-29.66,18.97-15.93,8.03-25.9,13.18-43.69,16.04l-11.19,1.8c-13.63,2.19-18.06-1.33-28.56-1.46-2.13-.03-4.39-.6-6.47-1.07l-9.15-2.06-7.58-1.72c-2.75-.62-5.83-.93-8.52-2.04l-18.49-7.66Z"/>
    </g>
  </g>
</svg>