<?xml version="1.0" encoding="UTF-8"?>
<svg id="Layer_2" data-name="Layer 2" xmlns="http://www.w3.org/2000/svg" viewBox="0 0 354.74 175.5">
  <defs>
    <style>
      .cls-1 {
        fill: #ff9fac;
      }

      .cls-2 {
        fill: #fff;
      }

      .cls-3 {
        fill: #f15a6d;
      }
    </style>
  </defs>
  <g id="Layer_1-2" data-name="Layer 1">
    <g>
      <path class="cls-1" d="M88.79,149.24c-19.36-16.25-44.47-57.44-54.3-81.1-2.49-5.98-4.94-11.27-5.24-18.07,6.47-2.41,12.3-3.08,18.7-3.97,12.59-1.73,24.54-1.33,37.24-.79l21.25.9c13.72.58,27,.01,40.71-.47,5.38-.19,10.52-.13,15.79-.53l60.25-4.5,56.62-6.09,21.11-1.97,21.06-2.58,10.04-1.27c.37,3.45-3.14,20.83-4.34,24.69-6.4,20.56-23.19,59.53-35.44,77.05-8.89,12.72-20.61,22.99-34.18,30.44-5.61,3.08-11.6,5.02-17.57,7.29-20.51,7.79-39.64,4.75-61.48,6.82-6.95.66-13.42.4-20.31.1-31.1-1.33-45.95-5.84-69.91-25.95ZM62.51,71.66c1.68,5.72,4.23,11.65,8.08,16,2.63,1.21,7.56,3.76,10.4,4.28,9.74,1.78,19.16,2.72,28.95,3.06l19.78.7c18.56.66,36.77.36,55.45-.43l18.61-.79c5.33-.23,10.64-.19,16-.95l55.76-7.95c3.1-.44,6.69-2.55,9.81-3.59,6.45-11.03,11.01-22.97,13.92-35.08l-11.38,1.59-27.44,3.59c-11.3,1.48-22.12,2.19-33.39,2.8l-29.51,1.61c-6.37.35-12.24.44-18.67.32-6.99-.13-14.01,1.16-21.11,1.32l-19.59.45-28.2.51c-13.57.24-26.89-.9-40.46-1.46l-11.25-.46,4.25,14.48ZM258.71,125.13c-4.16-7.11-21.2-13.33-28.67-16.5-12.66-5.39-34.87-4.81-48.54-.27-3.3-.95-7.76-3.22-11.28-3.34-5.45-.19-10.73-.57-16.01.06-12.19,1.44-23.94,5.42-34.65,11.25-4.8,2.61-8.13,7.54-11.98,11.44l24.47.62c16.06.41,66.04,1.08,79.48.12l47.19-3.37ZM118.85,144.89c10.47,3.81,21.28,6.51,32.74,6.75,17.55.36,34.52.51,51.97-.11,10.47-.37,20.84-1.33,30.58-4.83l19.49-7.01c9.08-3.27,17.55-7.55,24.17-15.4-8.43,1.47-15.65,3.24-23.54,3.78l-36.32,2.51c-17.33,1.2-34.1.8-51.38.42l-36.77-.82c-14.58-.32-28.64-.5-42.86-.32,13.66,10.48,31.91,15.03,31.91,15.03Z"/>
      <path d="M342.91,68.58c1.73-4.97,4.18-11.48,4.77-16.89,1.31-12.06.4-23.78-2.13-35.38-1.39-6.38-5.13-10.72-9.27-15.76,6.78-4.68,17.25,21.32,18.05,28.04,1.78,14.94-2.44,29.88-9.63,42.55-.33.57-2.02-1.91-1.79-2.57Z"/>
      <path d="M12.21,34.7c-8.3,15.95-4.43,23.82-2.93,43.08-4.03-.07-5.71-3.35-7.07-7.05C-6.31,47.51,12.36,23.49,14.76,26.32l1.12,1.32-3.67,7.06Z"/>
      <path d="M53.41,54.21s142.88,3.77,248.88-10.03c0,0,4.11,24.01,0,35.96-5.18,15.03-18.49,36.98-26.96,44.24-32.66,27.98-65.39,25.14-84.19,26.7-27.11,2.25-79.74,2.12-108.11-25.85-8.29-8.18-14.22-18.57-15.85-21.46-11.14-19.8-13.38-38.52-13.77-49.56Z"/>
      <path class="cls-2" d="M62.51,71.66l-4.25-14.48,11.25.46c13.57.56,26.89,1.71,40.46,1.46l28.2-.51,19.59-.45c7.1-.16,14.12-1.45,21.11-1.32,6.43.12,12.3.03,18.67-.32l29.51-1.61c11.27-.61,22.09-1.32,33.39-2.8l27.44-3.59,11.38-1.59c-2.91,12.11-7.47,24.05-13.92,35.08-3.12,1.04-6.71,3.15-9.81,3.59l-55.76,7.95c-5.36.76-10.66.73-16,.95l-18.61.79c-18.67.79-36.89,1.09-55.45.43l-19.78-.7c-9.79-.35-19.21-1.28-28.95-3.06-2.85-.52-7.78-3.07-10.4-4.28-3.85-4.34-6.41-10.28-8.08-16Z"/>
      <path class="cls-2" d="M99.88,138.09c-4.6-1.69-8.49-4.73-12.94-8.18,14.08-.17,27.99,0,42.43.32l36.41.82c17.1.38,33.71.78,50.87-.42l35.95-2.51c7.81-.55,14.96-2.31,23.3-3.78-6.56,7.85-17.34,14.96-26.33,18.23,0,0-8.27,6.27-47.16,9.01-82.48,5.8-102.52-13.49-102.52-13.49Z"/>
      <path class="cls-3" d="M258.71,125.13l-47.19,3.37c-13.44.96-63.42.29-79.48-.12l-24.47-.62c3.85-3.9,7.18-8.82,11.98-11.44,10.72-5.82,22.46-9.8,34.65-11.25,5.29-.63,10.57-.25,16.01-.06,3.52.12,7.98,2.39,11.28,3.34,13.67-4.54,35.87-5.12,48.54.27,7.47,3.18,24.51,9.39,28.67,16.5Z"/>
    </g>
  </g>
</svg>